<?xml version="1.0" encoding="UTF-8"?>
<svg id="Layer_1" xmlns="http://www.w3.org/2000/svg" version="1.1" viewBox="0 0 1000 1000">
  <!-- Generator: Adobe Illustrator 29.2.1, SVG Export Plug-In . SVG Version: 2.1.0 Build 116)  -->
  <defs>
    <style>
      .st0 {
        fill: #a0c7de;
      }

      .st1 {
        fill: #efc2bd;
      }

      .st2 {
        fill: #f9f7f4;
      }

      .st3 {
        fill: #75b4d3;
      }

      .st4 {
        fill: #3e3e84;
      }
    </style>
  </defs>
  <g>
    <circle class="st0" cx="500" cy="592.9" r="378.7"/>
    <path class="st4" d="M500,214.2c209.2,0,378.7,169.6,378.7,378.7s-169.6,378.7-378.7,378.7c-209.2,0-378.7-169.6-378.7-378.7S290.8,214.2,500,214.2M500,199.2c-217.1,0-393.7,176.6-393.7,393.7s176.6,393.7,393.7,393.7,393.7-176.6,393.7-393.7-176.6-393.7-393.7-393.7h0Z"/>
  </g>
  <g>
    <g>
      <path class="st2" d="M518.9,677l-70.5-90.1-131.3-26c-27.1,30.4-49.9,67.3-47.7,130.2,1.9,55.8,17.5,161,57.3,238.6,52,26.8,110.9,41.9,173.4,41.9s58.1-3.4,85.7-9.7c-4-79.7,52.6-109.9,52.6-174.2s-119.4-110.7-119.4-110.7Z"/>
      <path class="st4" d="M317.1,560.9l131.3,26,70.5,90.1s119.4,42.3,119.4,110.7-56.6,94.6-52.6,174.2c-27.5,6.4-56.2,9.7-85.7,9.7-62.5,0-121.4-15.1-173.4-41.9-39.8-77.6-55.3-182.8-57.3-238.6-2.2-62.9,20.6-99.8,47.7-130.2M317.1,545.9c-4.2,0-8.3,1.8-11.2,5-26.8,30.1-54,70.3-51.5,140.7,1.8,51.8,16.2,161.6,58.9,244.9,1.4,2.8,3.7,5,6.5,6.5,55.3,28.5,117.6,43.6,180.3,43.6s60-3.4,89-10.1c7.1-1.6,11.9-8.1,11.6-15.3-1.9-38.7,11.7-64,26.1-90.8,13-24.2,26.5-49.2,26.5-82.7s-22.4-65.3-66.6-93.6c-24.6-15.8-49-25.9-58.6-29.6l-67.9-86.8c-2.2-2.8-5.4-4.8-8.9-5.5l-131.3-26c-1-.2-1.9-.3-2.9-.3h0Z"/>
    </g>
    <path class="st3" d="M638.3,787.6c0-1,0-2,0-3,0-.4,0-.7,0-1.1,0-.7,0-1.3-.2-2,0-.4-.1-.8-.2-1.3,0-.6-.1-1.2-.2-1.8,0-.4-.2-.9-.2-1.3-.1-.6-.2-1.1-.3-1.7,0-.5-.2-.9-.3-1.3-.1-.5-.3-1.1-.4-1.6-.1-.5-.3-.9-.4-1.4-.2-.5-.3-1.1-.5-1.6-.1-.5-.3-.9-.5-1.4-.2-.5-.3-1-.5-1.5-.2-.5-.3-.9-.5-1.4-.2-.5-.4-1-.6-1.5-.2-.5-.4-.9-.6-1.4-.2-.5-.4-1-.7-1.5-.2-.4-.4-.9-.6-1.3-.2-.5-.5-1-.7-1.4-.2-.4-.5-.9-.7-1.3-.3-.5-.5-.9-.8-1.4-.3-.4-.5-.9-.8-1.3-.3-.5-.6-.9-.8-1.4-.3-.4-.5-.9-.8-1.3-.3-.5-.6-.9-.9-1.4-.3-.4-.6-.9-.9-1.3-.3-.4-.6-.9-.9-1.3-.3-.4-.6-.9-.9-1.3-.3-.4-.6-.9-1-1.3-.3-.4-.6-.8-1-1.3-.3-.4-.7-.9-1-1.3-.3-.4-.7-.8-1-1.2-.3-.4-.7-.8-1.1-1.2-.4-.4-.7-.8-1.1-1.2-.4-.4-.7-.8-1.1-1.2-.4-.4-.7-.8-1.1-1.2-.4-.4-.7-.8-1.1-1.2-.4-.4-.8-.8-1.2-1.2-.4-.4-.8-.8-1.1-1.2-.4-.4-.8-.8-1.2-1.2-.4-.4-.8-.7-1.2-1.1-.4-.4-.8-.8-1.3-1.2-.4-.4-.8-.7-1.2-1.1-.4-.4-.9-.8-1.3-1.2-.4-.3-.8-.7-1.2-1-.5-.4-.9-.8-1.4-1.2-.4-.3-.8-.6-1.1-1-.5-.4-.9-.8-1.4-1.2-.4-.3-.7-.6-1.1-.9-.5-.4-1-.8-1.5-1.2-.4-.3-.7-.6-1.1-.8-.5-.4-1-.8-1.6-1.2-.3-.2-.6-.5-1-.7-.6-.4-1.1-.9-1.7-1.3-.2-.2-.5-.4-.7-.5-3.3-2.4-6.7-4.8-10-7l-181.3-82.9-64.1,38.4c-1,29.6-4.5,102.4,84.3,188.3,44.3,42.9,54.5,80.6,75.3,119.2,1.4,0,2.8,0,4.2,0,29.5,0,58.1-3.4,85.7-9.7-4-79.6,52.6-109.9,52.6-174.2,0,0,0,0,0,0,0,0,0,0,0-.1Z"/>
    <g>
      <path class="st2" d="M759.1,690.8s-13.1-34.4-34.4-58.2c-7.6-8.6-12.9-12.2-21-17.7-20.3-13.8-42-22.1-42-22.1l-38.3,153,85,23.1,46.7-38.7,4-39.4Z"/>
      <path class="st4" d="M708.4,776.4c-.7,0-1.3,0-2-.3l-85-23.2c-3.9-1.1-6.3-5.1-5.3-9l38.3-153c.5-2.1,1.9-3.8,3.8-4.8,1.9-1,4.1-1.1,6.1-.4.9.3,22.7,8.7,43.5,22.9,8.6,5.9,14.3,9.9,22.4,18.9,21.9,24.6,35.2,59.1,35.8,60.6.4,1.1.6,2.3.5,3.4l-4,39.4c-.2,2-1.2,3.8-2.7,5l-46.7,38.7c-1.4,1.1-3.1,1.7-4.8,1.7ZM632.5,740.4l74.2,20.2,41.3-34.3,3.5-34.5c-2.8-6.9-14.8-34.6-32.3-54.3-6.9-7.7-11.5-11-19.6-16.5-12.1-8.2-24.7-14.4-32.6-17.9l-34.4,137.4Z"/>
    </g>
    <g>
      <g>
        <path class="st2" d="M674.8,338.5l-28-15.1s-15.6-33.8-13.3-36.5,72.9-44,80.9-42.3c8,1.8,91.6,68,108.1,93,14.1,21.3,25.5,334.4,28.5,424.1.5,15.1.8,23.8.8,23.8l-111.5-40s-2.4-120.6,1-185.7c4.2-79.3,10.4-166.9,15.2-194.3"/>
        <path class="st4" d="M851.7,793c-.9,0-1.7-.1-2.5-.4l-111.5-40c-2.9-1-4.9-3.8-5-6.9,0-1.2-2.3-121.6,1.1-186.2,4-76.6,10.3-166.7,15.3-195.2.7-4.1,4.6-6.8,8.7-6.1,4.1.7,6.8,4.6,6.1,8.7-4.9,27.9-11.1,117.3-15.1,193.4-3,56.4-1.5,156.2-1.1,180l96.3,34.6c-.1-3.5-.3-7.8-.4-12.8-8-241-18.7-406-27.2-420.2-14.7-22.2-90.3-82.7-103.1-89.5-10.7,2.6-58.6,29.7-71.7,38.2,1.7,5.7,6.5,17.3,11.2,27.5l25.8,13.9c3.6,2,5,6.5,3,10.1-2,3.6-6.5,5-10.1,3l-28-15.1c-1.4-.8-2.6-2-3.2-3.5-17.5-38.1-15.2-40.9-12.3-44.4.5-.5,74.3-47.9,88.3-44.8,11.3,2.5,96,70.9,112.7,96.1,14.2,21.4,24.7,277.3,29.7,428,.5,15.1.8,23.8.8,23.8,0,2.5-1.1,4.8-3.1,6.3-1.3.9-2.8,1.4-4.4,1.4Z"/>
      </g>
      <path class="st4" d="M698.4,333.3c-.5,0-1,0-1.5-.3-2.4-.8-3.7-3.5-2.9-5.9,2.1-6,2.4-29.8-1.7-39.6-1-2.3.1-5,2.5-6,2.3-1,5,.1,6,2.5,4.8,11.6,4.7,38,1.9,46.2-.7,1.9-2.4,3.1-4.4,3.1Z"/>
      <path class="st4" d="M699,322.4c-2.1,0-4-1.4-4.5-3.6-.6-2.5-10.1-7.4-19.6-10-2.1-.6-3.6-2.6-3.4-4.8.2-2.2,1.9-4,4.1-4.2l22.7-2.4c2.5-.3,4.8,1.6,5.1,4.1.3,2.5-1.6,4.8-4.1,5.1l-4.5.5c4.3,2.6,7.8,5.8,8.8,9.7.6,2.5-1,5-3.4,5.5-.4,0-.7.1-1.1.1Z"/>
      <path class="st4" d="M676.1,309.1c-.4,0-.7,0-1.1-.1-3.9-1-8.4-3-12.1-5.5-2.1-1.4-2.7-4.3-1.3-6.4,1.4-2.1,4.3-2.7,6.4-1.3,2.8,1.9,6.3,3.5,9.2,4.2,2.5.6,4,3.1,3.4,5.6-.5,2.1-2.4,3.5-4.5,3.5Z"/>
      <g>
        <path class="st2" d="M775.7,375.9c-39.1,21.3-76.5-3.6-76.5-3.6l-49.8-12.5s-36.5-23.1-35.6-30.2,12.5-12.9,24.5-11.6c8.2.9,24,10.7,24,10.7,0,0,27.1,6.2,36,0,8.9-6.2,12.5-23.1,12.5-23.1"/>
        <path class="st4" d="M741.9,392.1c-23,0-40.9-9.9-45.6-12.8l-48.7-12.2c-.8-.2-1.5-.5-2.2-.9-40.5-25.7-39.4-34-39-37.5,1.5-11.6,16.4-19.9,32.7-18.1,8.5.9,21.5,8.4,26,11.1,11.2,2.4,25.4,3.4,28.9.9,4.7-3.3,8.3-13.1,9.4-18.5.9-4,4.8-6.6,8.9-5.8,4,.9,6.6,4.8,5.8,8.9-.4,2-4.5,20-15.5,27.7-10.8,7.5-34.9,2.8-42,1.2-.8-.2-1.6-.5-2.2-.9-6-3.7-16.5-9.1-20.9-9.6-7.8-.9-13.7,2.2-15.6,4.1,4,4.8,18,15.3,30.5,23.3l48.6,12.2c.8.2,1.6.6,2.3,1,1.4.9,34.2,22.1,68.8,3.2,3.6-2,8.2-.6,10.2,3,2,3.6.6,8.2-3,10.2-13.1,7.1-25.9,9.6-37.4,9.6Z"/>
      </g>
      <g>
        <path class="st2" d="M619.5,319.9c7.4-.6,20.9,6.5,20.9,10.8s-4.7,18.5-8.3,15.9c-4.2-3-18.8-11-21.5-15.4-2.2-3.7,2.3-10.8,8.9-11.3Z"/>
        <path class="st4" d="M633,354.5c-1.8,0-3.7-.6-5.3-1.7-1-.7-2.8-1.8-4.8-3-9.3-5.8-16.1-10.2-18.8-14.7-2.2-3.7-2.2-8.4,0-12.8,2.9-5.6,8.5-9.4,14.6-9.8h0c7.9-.6,19.1,4.3,24.4,9.3,3,2.8,4.6,5.9,4.6,9.1s-3.2,18.8-10.5,22.7c-1.4.7-2.9,1.1-4.3,1.1ZM618.1,328.5c2.8,2.4,9.6,6.6,12.8,8.6.1,0,.3.2.4.3.6-1.7,1.2-3.6,1.5-5-2.6-2.1-9.4-5.2-12.7-4.9h0c-.8,0-1.5.6-2,1.1Z"/>
      </g>
    </g>
    <g>
      <g>
        <path class="st2" d="M519.8,71.5c1.6.6,3.1,1.3,4.6,2-.4-19.2-8.9-49.8-16.3-52.6-15.1-5.9-74.2,47.9-74.2,47.9,0,0,5.3,1.9,13.4,4.5,19.9-5.9,40.1-13.9,72.5-1.7Z"/>
        <path class="st4" d="M524.3,81c-1.2,0-2.3-.3-3.4-.8-1.2-.6-2.5-1.2-3.8-1.7h0c-27.5-10.4-44.8-5.1-63.1.5l-4.7,1.4c-1.5.4-3,.4-4.4,0-8.1-2.6-13.5-4.5-13.5-4.5-2.5-.9-4.3-3-4.9-5.6-.5-2.6.3-5.3,2.3-7,23.4-21.2,65-55.9,82-49.3,13.8,5.4,20.7,45.2,21,59.5,0,2.6-1.3,5.1-3.5,6.5-1.2.8-2.6,1.1-4,1.1ZM504.8,27.8c-6.8,0-30.6,16-54.9,36.8,17.6-5.4,37.4-11.3,65.9-2.4-2.2-15.2-7.5-30.9-10.8-34.4,0,0-.1,0-.2,0ZM504.7,27.5h0Z"/>
      </g>
      <g>
        <path class="st1" d="M524.3,73.6c-1.5-.7-3-1.4-4.6-2-32.4-12.2-52.6-4.2-72.5,1.7-11.1,3.3-22.2,6-35.2,4-36.3-5.4-89.6.8-139,36.9-43.8,32-63,102.8-49.4,150.9,11.7,41.5,50.4,75.7,50.4,75.7,0,0,3.3,65,52.4,73.3,64,10.8,73-32.4,73-32.4l124.9-152.9c19.6,4.3,55.7-126.8,0-155.2Z"/>
        <path class="st4" d="M345.7,423.3c-6.2,0-13-.6-20.5-1.8-48.4-8.2-57-63.1-58.4-77.1-8.7-8.2-39.7-39.5-50.4-77.2-13.7-48.5,4-123.9,52.2-159,61.5-44.8,121.6-41.7,144.6-38.2,11.8,1.8,21.9-.8,32-3.8l4.6-1.4c19-5.8,40.4-12.3,72.7-.2,1.9.7,3.6,1.5,5.3,2.4h0c42.2,21.5,38.7,93.8,22.8,138.3-6.7,18.8-14.3,29.1-22.5,30.9l-121.8,149.1c-2.6,8.2-15.3,38.1-60.5,38.1ZM388.9,83.2c-26.4,0-68.9,6-111.5,37-42.5,31-58.6,100.1-46.6,142.9,11,38.9,47.8,71.8,48.1,72.1,1.5,1.3,2.4,3.2,2.5,5.2,0,.6,3.7,59.1,46.2,66.3,56.2,9.5,64.4-26.2,64.5-26.6.2-1.2.8-2.3,1.5-3.2l124.9-152.9c1.6-1.9,4-2.9,6.4-2.7,6.1-3.9,20.7-36.9,21.6-76.8.4-18.9-2.3-52.3-25.6-64.2-1.2-.6-2.5-1.2-3.8-1.7-27.5-10.4-44.8-5.1-63.1.5l-4.7,1.4c-11.3,3.4-23.6,6.5-38.5,4.3-4.5-.7-12.1-1.5-22-1.5Z"/>
      </g>
    </g>
    <g>
      <path class="st0" d="M524.3,228.7c20.1,4.4,57.6-133.8-4.6-157.2-50.6-19.1-71.5,11.2-107.7,5.7-36.3-5.4-89.6.8-139,36.9-43.8,32-63,102.8-49.4,150.9,11.7,41.5,50.4,75.7,50.4,75.7,0,0,3.3,65,52.4,73.3,64,10.8,73-32.4,73-32.4l124.9-152.9Z"/>
      <path class="st4" d="M345.7,423.3c-6.2,0-13-.6-20.5-1.8-48.4-8.2-57-63.1-58.4-77.1-8.7-8.2-39.7-39.5-50.4-77.2-13.7-48.5,4-123.9,52.2-159,61.5-44.8,121.6-41.7,144.6-38.2,13.1,2,24-1.3,36.5-5.2,19-5.8,40.4-12.3,72.7-.2,21.1,8,34.3,27.9,38.1,57.8,2.8,22,.1,49.8-7.1,74.2-4.2,14.3-12.8,36.7-25.3,39.5l-121.9,149.2c-2.6,8.2-15.3,38.1-60.5,38.1ZM388.9,83.2c-26.4,0-68.9,6-111.5,37-42.5,31-58.6,100.1-46.6,142.9,11,39,47.8,71.8,48.1,72.1,1.5,1.3,2.4,3.2,2.5,5.2,0,.6,3.7,59.1,46.2,66.3,56.2,9.5,64.4-26.2,64.5-26.6.2-1.2.8-2.3,1.5-3.2l124.9-152.9c1.6-1.9,3.9-2.9,6.4-2.7,7.3-4.4,22.9-43.8,21.6-85.3-.7-21.4-6.4-48.8-29.4-57.5-27.5-10.4-44.8-5.1-63.1.5-13.1,4-26.6,8.1-43.1,5.7-4.5-.7-12.1-1.5-22-1.5Z"/>
    </g>
    <g>
      <path class="st4" d="M547.1,874.5c10.3,2.2,28.2-11.9,45.6-103.1,11.3-59.1,11.2-121-7.6-108.9-35.8,23.1-76,119.7-76,119.7l18.4,74.9,19.5,17.4Z"/>
      <path class="st4" d="M589.5,661c14.3,0,13.4,56.4,3.1,110.4-16.3,85.7-33.1,103.3-43.6,103.3s-1.3,0-1.9-.2l-19.5-17.4-18.4-74.9s40.1-96.6,76-119.7c1.6-1,3.1-1.5,4.4-1.5M589.5,646c-4.3,0-8.5,1.3-12.6,3.9-38.6,25-77.4,116.2-81.7,126.5-1.2,3-1.5,6.2-.7,9.3l18.4,74.9c.7,2.9,2.3,5.6,4.6,7.6l19.5,17.4c1.9,1.7,4.3,2.9,6.9,3.5,1.6.3,3.3.5,5,.5,25.5,0,42.9-34.5,58.4-115.5,3.1-16,17.3-97.3-1.7-120.3-4.2-5.1-9.9-7.9-16.1-7.9h0Z"/>
    </g>
    <g>
      <path class="st2" d="M354.9,313.3s13.8,177.4-22.6,249.8c0,0,147.6,77,138.9,44.5-8.7-32.6-6.9-135.6,3.9-168.1,10.9-32.6-120.2-126.1-120.2-126.1Z"/>
      <path class="st4" d="M354.9,313.3s131.1,93.6,120.2,126.1c-10.9,32.6-12.6,135.6-3.9,168.1,1.5,5.7-1.7,8-8.1,8-30.2,0-130.8-52.5-130.8-52.5,36.4-72.4,22.6-249.8,22.6-249.8M354.9,298.3c-2.5,0-5.1.6-7.4,1.9-5.1,2.9-8,8.4-7.6,14.2,0,.4,3.4,44.5,2.3,96.5-1.4,67.5-9.5,117.8-23.3,145.4-3.7,7.3-.8,16.2,6.5,20,17.3,9.1,105.5,54.2,137.7,54.2s16.5-4.5,19.4-8.3c2.2-2.9,5.6-9.2,3.2-18.6-8.2-30.9-5.9-130.8,3.7-159.5,7-20.9-11.1-48.2-60.4-91.3-31.6-27.6-64-50.8-65.3-51.8-2.6-1.9-5.6-2.8-8.7-2.8h0Z"/>
    </g>
    <g>
      <path class="st2" d="M317.1,560.9c17.4-16.3,19.5-51,19.5-51,0,0,72.7,55.3,148.7,72.7,32.9,7.5,20.6,56.4,20.6,56.4,0,0-58.6-7.6-136.7-40.1-11.4-4.7-21-10.6-28.8-16.3-3.4-2.5-6.4-4.9-9.1-7.2-9.3-8.1-14.2-14.4-14.2-14.4Z"/>
      <path class="st4" d="M336.6,509.9s72.7,55.3,148.7,72.7c32.9,7.5,20.6,56.4,20.6,56.4,0,0-58.6-7.6-136.7-40.1-11.4-4.7-21-10.6-28.8-16.3-3.4-2.5-6.4-4.9-9.1-7.2-9.3-8.1-14.2-14.4-14.2-14.4,17.4-16.3,19.5-51,19.5-51M336.6,494.9c-2.1,0-4.2.4-6.2,1.4-5,2.3-8.4,7.2-8.7,12.7-.5,7.5-4.3,31.2-14.8,41-5.6,5.3-6.3,14-1.6,20.1.6.8,6.1,7.8,16.2,16.6,3.2,2.8,6.6,5.5,10,8,10,7.4,20.8,13.5,31.9,18.1,79.1,32.9,138.1,40.9,140.6,41.2.7,0,1.3.1,1.9.1,6.8,0,12.8-4.6,14.5-11.3.9-3.4,8-34.2-5.3-55.9-5.9-9.7-15.1-16.2-26.5-18.8-71.8-16.4-142.2-69.5-142.9-70-2.7-2-5.8-3.1-9.1-3.1h0Z"/>
    </g>
    <g>
      <path class="st2" d="M754.9,707.9c-64,3.3-201.3-43.9-201.3-43.9,0,0-93.7,96.4-44.5,118.3,97.7,43.4,238.7,31.5,279.9,23.9,41.2-7.6,61.8-14.8,62.6-20.6l-.8-23.8"/>
      <path class="st4" d="M689.8,821.1c-57.8,0-127.5-7-183.7-32-10-4.4-16.2-12-18.1-21.8-7.3-37.7,53.3-101.4,60.3-108.5,2-2.1,5.1-2.8,7.8-1.9,1.4.5,136.6,46.7,198.5,43.5,4.1-.2,7.6,3,7.9,7.1.2,4.1-3,7.6-7.1,7.9-58.9,3-174.7-34.5-199.5-42.8-19,20.3-57.7,67.8-53.1,91.8,1,5,4,8.5,9.5,11,96.2,42.8,234.6,30.9,275.5,23.4,42-7.7,53.5-13.4,56.4-15.4l-.7-21.4c-.1-4.1,3.1-7.6,7.2-7.7,3.9-.2,7.6,3.1,7.7,7.2l.8,23.8c0,.4,0,.8,0,1.2-.9,7.5-7,15.7-68.6,27.1-18.4,3.4-55.9,7.6-100.6,7.6Z"/>
    </g>
    <g>
      <path class="st2" d="M505.9,846.3s-55.3-9-107.4-58.6c-89-84.6-62.9-171.3-29.3-194.2,47.7-32.6,140.5,49.4,183.9,60.2l-28.8,37.4-18.4,155.2Z"/>
      <path class="st4" d="M395.9,585.9c50.1,0,120.9,58.7,157.2,67.8l-28.8,37.4-18.4,155.2s-55.3-9-107.4-58.6c-89-84.6-62.9-171.3-29.3-194.2,7.8-5.3,16.9-7.6,26.7-7.6M395.9,570.9h0c-13.4,0-25.2,3.4-35.1,10.2-20.5,14-34.9,42.4-37.5,74.2-5.3,65.9,38.3,118,64.9,143.3,54.8,52.2,112.9,62.1,115.3,62.5.8.1,1.6.2,2.4.2,3.2,0,6.4-1,9-3,3.3-2.5,5.4-6.1,5.9-10.2l18-151.1,26.2-34.2c3.1-4,3.9-9.3,2.3-14.1-1.7-4.8-5.6-8.4-10.5-9.6-12.1-3-31-13.8-51-25.3-35.3-20.1-75.2-43-109.8-43h0Z"/>
    </g>
    <path class="st0" d="M524.3,691.1l28.8-37.4c-5.7-1.4-12.3-4.1-19.6-7.6-12.3,7-43.8,29.5-69.6,85.7-15.9,34.7-22.5,65.1-21.8,88.9,35.3,20.9,63.8,25.6,63.8,25.6l18.4-155.2Z"/>
    <g>
      <path class="st2" d="M538.8,643.4s-41.6,24.4-57.9,89c-17.8,70.6-5.4,111.8,22.8,127,10.7,5.8,43.4,15.2,43.4,15.2,0,0-4.1-2.4-6.5-7.1-9.3-17.5-18.3-58.4-.7-123.9,13-48.5,45.2-81,45.2-81l-46.3-19.2Z"/>
      <path class="st4" d="M538.8,643.4l46.3,19.2s-32.2,32.6-45.2,81c-17.6,65.5-8.6,106.3.7,123.9,2.4,4.6,6.5,7.1,6.5,7.1,0,0-32.7-9.4-43.4-15.2-28.2-15.2-40.6-56.3-22.8-127,16.3-64.6,57.9-89,57.9-89M538.8,628.4c-2.6,0-5.3.7-7.6,2.1-1.9,1.1-47.2,28.4-64.8,98.2-24.6,97.7,8.4,132,30.2,143.8,11.8,6.3,42.8,15.4,46.4,16.4,1.4.4,2.9.6,4.3.6,6,0,11.8-3.5,14.1-9.2,2.8-7.1.3-14.9-6.4-18.5-.4-.3-.9-.8-1.2-1.3-3.3-6.2-18.8-41,.5-113,11.9-44.1,41.1-74.1,41.4-74.4,3.5-3.5,5-8.6,4-13.5-1-4.9-4.3-9-9-10.9l-46.3-19.2c-1.8-.8-3.8-1.1-5.7-1.1h0Z"/>
    </g>
    <g>
      <path class="st2" d="M629.2,585.5c-6.9-1.8-18.1-8.7-25.3,0-7.2,8.7-21.1,52-22.1,56-.8,3.4.9,11,3.3,21.1,2.4,10.6,7.9,21.5,10,23.8,5.2,5.7,20,1.9,20,1.9l5.4-35.4s15.2-56.8,14.8-57.9c-.4-1.1-6.1-9.4-6.1-9.4Z"/>
      <path class="st4" d="M605.3,697c-5.6,0-11.8-1.2-15.8-5.6-3.4-3.7-9.3-16.4-11.7-27.1-2.9-12.7-4.4-19.6-3.2-24.5.5-2.3,14.7-48.3,23.6-59,9.2-11,22.1-6.3,29.1-3.8,1.4.5,2.7,1,3.9,1.3,1.7.5,3.2,1.5,4.2,3,6.4,9.2,6.8,10.4,7.1,11.3.9,2.8,1.1,3.2-14.6,61.8l-5.4,35c-.5,3-2.6,5.4-5.6,6.1-2.1.5-6.6,1.5-11.6,1.5ZM613.2,588.7c-1.6,0-2.6.5-3.5,1.6-5.6,6.7-19.2,47.4-20.5,52.9-.3,2.2,1.8,11.5,3.3,17.7,2.3,9.8,7.1,19,8.3,20.5.9.7,4.3.8,7.8.4l4.6-30.1c0-.3,0-.5.2-.8,4.8-17.9,12.2-46.1,14.2-54.5-.8-1.2-1.9-2.8-3-4.4-.8-.3-1.6-.6-2.4-.9-4.3-1.6-7.1-2.3-9-2.3Z"/>
    </g>
    <g>
      <path class="st2" d="M664.3,593.5c-7.2-5.8-25.6-18.9-34.2-12-5,4-9.4,19.3-14.3,34.7-5.2,16.4-10.6,32.8-11.2,35.6-1.1,5.4,10.5,36.5,15,43.3,2.5,3.8,26.6,8.2,30.2-3.3.4-1.2-.3-24.9-.3-24.9l15.8-35.5,3.2-26.4-4.3-11.5Z"/>
      <path class="st4" d="M635.2,706.6c-8.1,0-18.3-2.2-21.8-7.4-4.1-6.1-17.9-39.8-16.1-48.8.4-2.2,2.4-8.4,6.5-21.1,1.5-4.8,3.2-10,4.9-15.3l1.3-4c5.7-18.1,9.5-29.4,15.5-34.2,11.7-9.4,30.1,1.3,43.5,12,1.1.8,1.9,2,2.4,3.2l4.3,11.5c.4,1.1.6,2.3.4,3.5l-3.2,26.4c0,.7-.3,1.5-.6,2.2l-15.1,33.9c.7,23.2.3,24.3,0,25.6-1.2,3.9-5,10.6-16.7,12.3-1.5.2-3.3.3-5.2.3ZM625.3,690c2.8,1.2,10.8,2.6,15.5.8.8-.3,1.3-.6,1.6-.9,0-3.4-.1-13.7-.4-22.8,0-1.1.2-2.2.6-3.3l15.4-34.4,2.8-23.5-2.9-7.8c-13-10-21.6-12-23.2-10.8-2.9,2.5-7.5,17.3-10.6,27.1l-1.3,4c-1.7,5.3-3.4,10.5-4.9,15.3-2.5,7.9-5.4,16.8-6,19.1.3,5.4,9,29.8,13.2,37.1Z"/>
    </g>
    <g>
      <path class="st2" d="M703.7,614.8c-1.8-2.5-41.2-27.8-47.4-21-2.2,2.4-5.4,10.6-8.8,20.4-6.2,18.2-12.8,42.1-13.3,45.8-.7,5.8,9,31.1,17.5,41.6,4.3,5.2,35.9,3.1,33.2-5.9-3.3-10.8-15.3-31.7-15.3-31.7"/>
      <path class="st4" d="M664,711.9c-7.6,0-14.8-1.5-18-5.6-8.4-10.3-20.3-37.9-19.1-47.2.6-4.9,7.8-30.2,13.6-47.3,5.6-16.3,8.3-20.8,10.3-22.9,1.6-1.8,4.7-4,10.1-3.6,14.1.8,46.1,21.2,49,25.3,2.4,3.4,1.6,8-1.7,10.4-3.1,2.2-7.4,1.7-9.9-1.1-4.8-4.2-28.9-18.3-37.1-19.6-1,2-3.1,6.5-6.5,16.4-6.4,18.5-12.5,41.2-12.9,44.3,0,3.9,7.7,25.3,15.4,35.2,3.8,1.4,15,.7,19.8-1.1-3.3-8.7-10.7-22.3-13.6-27.4-2.1-3.6-.8-8.2,2.8-10.2,3.6-2.1,8.2-.8,10.2,2.8.5.9,12.4,21.7,15.9,33.2,1.3,4.4.2,10.4-7,14.2-4.5,2.4-13,4.2-21.1,4.2Z"/>
    </g>
    <path class="st3" d="M354.9,313.3s2.1,26.8,2.5,63.8c.9-.4,1.8-.9,2.7-1.5,15.4,63,65.4,126.6,105.9,142.1.9-31.9,4-62.9,9.1-78.3,10.9-32.6-120.2-126.1-120.2-126.1Z"/>
    <g>
      <path class="st2" d="M678.1,621.7s-14.5,44.5-14.5,50.3,21,32.1,25.7,33.9c4.7,1.8,13.4-9.3,10.5-16.5s-11.6-19.9-11.6-19.9c.2.6,7.3-11.2,12.3-22.3"/>
      <path class="st4" d="M690.4,713.6c-1.3,0-2.6-.2-3.8-.7-7-2.7-30.5-31.4-30.5-40.9s9.3-35.6,14.8-52.6c1.3-3.9,5.5-6.1,9.4-4.8,3.9,1.3,6.1,5.5,4.8,9.4-6.4,19.7-13.2,42.3-14,47.6,1.9,5,13.9,20.4,19.5,25.9,1.4-1.7,2.6-4.4,2.2-5.4-2.1-5.3-8.5-15.1-10.8-18.4h0c-.4-.6-.8-1.3-1-2.1-.8-2.7,0-5.6,2-7.5,1.6-2.4,6.7-11.2,10.7-20,1.7-3.8,6.1-5.4,9.9-3.7,3.8,1.7,5.4,6.2,3.7,9.9-4.3,9.3-7.5,15.4-10,19.4,3,4.6,7.3,11.7,9.4,16.9,3.1,7.8-.9,16.9-5.9,22-3.2,3.3-6.9,5-10.4,5ZM692.6,699.2h0,0Z"/>
    </g>
    <g>
      <path class="st2" d="M543.1,251.8c2.7-19.2,5.7-38.2,5.7-45.7-.5-49.9-47.3-57.8-76-59.7-33.6-2.2-90.1,11.4-113.4,50.5-12.2,20.3-15.8,65.3-14.1,103.1-5.4-2-11-2.3-16.3-.5-16.1,5.2-17.9,25.5-10.8,47.2,7.1,21.8,20.4,36.8,36.5,31.6,1.9-.6,3.7-1.5,5.4-2.6,24.5,55.5,79.9,94.8,122,96.3,38.1,1.3,68.9-79.3,68.9-163.8s-2.8-39.5-7.8-56.3Z"/>
      <path class="st4" d="M483,479.4c-.4,0-.8,0-1.2,0-45.9-1.6-99.7-42.3-125.4-93.9-18.8,5.7-36.1-8.2-45.3-36.6-9.4-28.8-3.4-50.5,15.6-56.7,3.5-1.1,7.1-1.7,10.9-1.5-.8-35.1,2.9-76.7,15.5-97.8,25.9-43.4,87.5-56.2,120.3-54.1,54.6,3.5,82.5,26.1,83,67.1,0,6.6-1.9,19.9-4.1,35.4l-1.4,9.8c5.1,17.6,7.7,36.7,7.7,56.9,0,66.7-19,131.7-46.3,158-9.2,8.8-19,13.3-29.1,13.3ZM360,368.1c.7,0,1.4.1,2.1.3,2.1.6,3.8,2.1,4.7,4.2,18.9,42.9,68.4,90.2,115.4,91.8,6.4.3,12.9-2.8,19.4-9.1,24.2-23.3,41.7-85.3,41.7-147.3s-2.5-37.5-7.5-54.2c-.3-1-.4-2.1-.2-3.2l1.6-11.5c2.1-14.2,4-27.7,3.9-33.1-.4-32.7-22.3-49.3-68.9-52.3-29.3-1.9-84,9.2-106.5,46.8-11.3,18.9-14.7,63.3-13.1,98.9.1,2.5-1,4.9-3.1,6.4-2,1.5-4.7,1.8-7,1-4-1.5-7.9-1.6-11.5-.5-12.2,4-11.1,22.1-6,37.8,5.1,15.6,14.8,30.8,27,26.8,1.3-.4,2.5-1,3.6-1.7,1.2-.8,2.6-1.2,4.1-1.2Z"/>
    </g>
    <path class="st4" d="M497.5,365.3c-4,0-8.1-1.1-11.2-3.1-.4-.3-1.1-.2-3.3.5-3.2,1-7.5,2.3-13.1.2-3.8-1.4-6.6-5.7-7.3-10.9-.8-6,1.6-11.8,6.5-15.3,2.1-1.5,4.9-1,6.4,1,1.5,2.1,1,4.9-1,6.4-2.5,1.8-2.9,4.1-2.9,5.8,0,2.4,1.2,4.1,1.6,4.4,2.5.9,4.5.3,7-.4,2.9-.9,6.9-2.1,11,.5,2.8,1.8,7.5,2.2,10.4.9,1.7-.8,2.1-1.9,2.2-2.7.2-1.6-1.1-6.9-2.4-12-4.2-16.3-11.2-43.6-6.2-77.9.4-2.5,2.7-4.3,5.2-3.9,2.5.4,4.3,2.7,3.9,5.2-4.7,32.5,2,58.6,6,74.3,1.9,7.5,3.1,12.1,2.7,15.4-.6,4.4-3.2,8-7.4,9.9-2.4,1.1-5.2,1.6-8,1.6Z"/>
    <path class="st0" d="M441.9,393.3c7.6,1.4,25.6-12.3,33.7-12.1,5.9.2,7,6.2,12.9,5.7,4.4-.4,9.8-6.6,13-5.2,3.3,1.4,4.9,13,4.9,13,0,0-4.9,4.9-24.7,5.4-15.5.4-39.9-6.8-39.9-6.8Z"/>
    <path class="st4" d="M477.9,404.8c-23.2,0-43.8-8.8-49.2-13-2-1.6-2.4-4.4-.8-6.5,1.6-2,4.4-2.4,6.5-.8,6.1,4.7,47.2,20.9,77.2,2.2,2.2-1.3,5-.7,6.3,1.5,1.3,2.2.7,5-1.5,6.3-12.2,7.6-25.8,10.3-38.6,10.3Z"/>
    <path class="st4" d="M481.8,424.3c-6.8,0-13.4-1.4-17.3-3.3-2.3-1.1-3.2-3.9-2.1-6.2,1.1-2.3,3.9-3.2,6.2-2.1,4.8,2.4,18.8,3.9,26-.4,2.2-1.3,5-.6,6.3,1.6,1.3,2.2.6,5-1.6,6.3-4.8,2.9-11.3,4-17.5,4Z"/>
    <path class="st4" d="M461.6,270.6c-.9,0-1.9-.3-2.7-.8-.8-.6-1.8-1.3-3-2.2-7.5-5.5-23-17.1-37.7-18.7-9.4-1-28.1.6-41.4,9.1-2.1,1.4-5,.8-6.4-1.4-1.4-2.1-.8-5,1.4-6.4,14.3-9.2,34.6-11.9,47.3-10.6,17.2,1.9,34.1,14.4,42.2,20.4,1.1.8,2,1.5,2.8,2.1,2.1,1.5,2.6,4.3,1.1,6.4-.9,1.3-2.3,1.9-3.8,1.9Z"/>
    <path class="st4" d="M499.6,267.9c-.7,0-1.4-.2-2.1-.5-2.3-1.1-3.2-3.9-2.1-6.2,6.1-12.1,33-23.6,48.9-20.8,2.5.4,4.2,2.8,3.7,5.3-.4,2.5-2.8,4.2-5.3,3.7-12.6-2.3-35,7.9-39,15.8-.8,1.6-2.4,2.5-4.1,2.5Z"/>
    <path class="st4" d="M419.1,310.4c-22.2,0-39.5-21.3-40.2-22.2-1.6-2-1.3-4.9.7-6.5,2-1.6,4.9-1.3,6.5.7.2.2,16.9,20.8,35.8,18.6,15.9-1.7,18.5-9.8,18.6-10.2.7-2.4,3.2-3.9,5.6-3.2,2.4.6,3.9,3,3.3,5.5-.1.6-3.7,14.6-26.5,17.1-1.3.1-2.5.2-3.7.2Z"/>
    <path class="st4" d="M532.8,307c-13.8,0-24.4-13-24.9-13.6-1.6-2-1.3-4.9.7-6.5,2-1.6,4.9-1.3,6.5.7,0,.1,9.1,11.1,19,10.1,7.8-.9,9.1-4.4,9.1-4.5.6-2.5,3-3.9,5.5-3.3,2.5.6,4,3.2,3.4,5.6-.2,1-2.7,9.8-17,11.4-.8,0-1.6.1-2.4.1Z"/>
    <path class="st4" d="M510.2,296.6c-.4,0-.8,0-1.2,0-4.1-.6-6.9-4.5-6.2-8.6,1.6-10,9.6-20.9,24.1-22.8l3.2-.4c5.3-.7,14.2-1.8,16-3.5,2.7-3.1,7.5-3.4,10.6-.6,3.1,2.7,3.4,7.5.6,10.6-5.2,5.9-15,7.1-25.4,8.4l-3.1.4c-9.3,1.2-11,8.8-11.2,10.3-.6,3.7-3.8,6.3-7.4,6.3Z"/>
    <path class="st4" d="M447.8,303.4c-3.1,0-5.9-1.9-7-4.9-1.6-4.4-6.8-13.7-12.7-14.6-8.8-1.4-16.5,1-24.7,3.6-9.1,2.9-18.5,5.9-29.7,3.7-4.1-.8-6.7-4.7-5.9-8.8.8-4.1,4.7-6.7,8.8-5.9,7.4,1.5,14.3-.7,22.3-3.3,9-2.9,19.2-6.1,31.5-4.1,16,2.5,23.6,22,24.4,24.3,1.4,3.9-.6,8.2-4.5,9.6-.8.3-1.7.5-2.6.5Z"/>
    <path class="st4" d="M420.9,277.3l-17.8,1.5c-.2,1-.3,2-.3,3.1,0,8.4,6.8,15.2,15.2,15.2s14.9-6.5,15.2-14.7l-12.3-5.1Z"/>
    <path class="st2" d="M429.8,290c1.4,1.4,1.4,3.8,0,5.2-1.4,1.4-3.8,1.4-5.2,0s-1.4-3.8,0-5.2c1.4-1.4,3.8-1.4,5.2,0Z"/>
    <path class="st4" d="M535.2,274l-17.8,1.5c-.2,1-.3,2-.3,3.1,0,8.4,6.8,15.2,15.2,15.2s14.9-6.5,15.2-14.7l-12.3-5.1Z"/>
    <circle class="st2" cx="541.5" cy="289.4" r="3.7"/>
    <path class="st0" d="M345.5,365.2c-2.5,0-4.6-2.1-4.6-4.6s2.1-4.6,4.6-4.6,1.3-.2,1.7-1c1-1.8,1.1-4.7.7-6.7-3.9.3-7.3-1.5-9.3-5-2.7-4.7-2.4-12.1,2.4-15.7.4-.3.8-.6.3-1.8-.8-1.9-3.3-3.7-5.7-3.3-2.5.4-4.9-1.3-5.3-3.8-.4-2.5,1.3-4.9,3.8-5.3,7.2-1.1,13.4,3.7,15.6,8.8,2,4.8.8,9.7-3.2,12.7-.5.4-.7,2.6,0,3.8.2.3.4.5,1.5,0,2.1-.8,4.4-.4,6,1.3,3.3,3.3,4.2,12.1,1.8,17.9-1.9,4.6-5.7,7.2-10.5,7.2Z"/>
    <path class="st4" d="M517.5,160.6c-.8,0-1.5-.2-2.2-.6-2.2-1.2-3-4-1.8-6.3,21.5-39,3.4-77.8,3.2-78.2-1.1-2.3-.1-5,2.2-6.1,2.3-1.1,5-.1,6.1,2.1.8,1.7,20.5,43.4-3.4,86.7-.8,1.5-2.4,2.4-4,2.4Z"/>
    <path class="st4" d="M485.9,154.3c-.8,0-1.5-.2-2.2-.6-2.2-1.2-3-4-1.8-6.3,21.6-39.2,3.4-77.8,3.2-78.2-1.1-2.3-.1-5,2.1-6.2,2.3-1.1,5-.1,6.2,2.1.8,1.8,20.5,43.4-3.4,86.7-.8,1.5-2.4,2.4-4,2.4Z"/>
    <path class="st4" d="M451.1,153.3c-.8,0-1.7-.2-2.4-.7-2.2-1.3-2.8-4.2-1.5-6.3,22-35.7,3.4-70.9,3.3-71.3-1.2-2.2-.4-5,1.9-6.2,2.2-1.2,5-.4,6.2,1.9.9,1.6,21.3,40.3-3.5,80.5-.9,1.4-2.4,2.2-3.9,2.2Z"/>
    <path class="st4" d="M418.9,161.2c-.8,0-1.7-.2-2.4-.7-2.2-1.3-2.8-4.2-1.5-6.3,21.9-35.6,4-69.8,3.2-71.3-1.2-2.2-.4-5,1.9-6.2,2.2-1.2,5-.4,6.2,1.9.9,1.6,21.3,40.3-3.5,80.5-.9,1.4-2.4,2.2-3.9,2.2Z"/>
    <circle class="st0" cx="397" cy="352" r="21.4"/>
    <path class="st0" d="M550,350.7c0,7.3-1.3,12.8-1.2,16.8,0,2.5,3.6,4.9-.9,4.9-11.8,0-21.4-9.6-21.4-21.4s9.6-21.4,21.4-21.4,2.2,9.4,2.2,21.2Z"/>
    <path class="st4" d="M540.3,400.8c-.6,0-1.3,0-1.9-.2-4-1.1-6.4-5.2-5.3-9.2,6.8-25.8,10.4-54.6,10.4-83.3s3.4-7.5,7.5-7.5,7.5,3.4,7.5,7.5c0,30-3.8,60.1-10.9,87.1-.9,3.4-3.9,5.6-7.2,5.6Z"/>
    <path class="st4" d="M445.8,722.8c-.4,0-.9,0-1.3-.2-2.4-.7-3.8-3.3-3.1-5.7,4.3-14.4,35.2-84.4,66.4-91.8,2.5-.6,5,.9,5.5,3.4s-.9,5-3.4,5.5c-23.9,5.6-54.1,66.4-59.7,85.4-.6,2-2.4,3.3-4.4,3.3Z"/>
    <path class="st4" d="M468.4,630.5c-1.2,0-2.4-.5-3.3-1.4-1.8-1.8-1.7-4.8.2-6.5,5.9-5.6,11.6-9.7,17-12.1,2.3-1,5.1,0,6.1,2.3,1,2.3,0,5.1-2.3,6.1-4.4,2-9.2,5.4-14.4,10.3-.9.9-2,1.3-3.2,1.3Z"/>
    <path class="st4" d="M433.8,682c-.5,0-1,0-1.5-.3-2.4-.8-3.7-3.4-2.9-5.9,3.3-9.6,13.6-27.9,26.3-43.1,1.6-1.9,4.5-2.2,6.5-.6,2,1.6,2.2,4.5.6,6.5-12.7,15.2-22,32.6-24.6,40.2-.7,1.9-2.4,3.1-4.4,3.1Z"/>
    <path class="st4" d="M342.2,261.7c-.9,0-1.8-.3-2.6-.8-29.2-19.5-46.8-53.5-50.9-98.2-3-33.4,2.4-60.6,2.6-61.8.5-2.5,2.9-4.1,5.4-3.6,2.5.5,4.1,2.9,3.6,5.4-.2,1.1-20.7,106.9,44.4,150.5,2.1,1.4,2.7,4.3,1.3,6.4-.9,1.3-2.3,2-3.8,2Z"/>
    <path class="st4" d="M324.5,305.1c-.7,0-1.5-.2-2.2-.6-32-17.6-55.2-52-67.2-99.7-9-35.7-8.6-65.7-8.6-67,0-2.5,2.1-4.5,4.6-4.5s0,0,0,0c2.5,0,4.6,2.1,4.5,4.7,0,1.2-1,118.9,71,158.5,2.2,1.2,3,4,1.8,6.3-.8,1.5-2.4,2.4-4,2.4Z"/>
    <path class="st4" d="M325.6,363.6c-.4,0-.7,0-1.1-.1-18.9-4.8-36.6-14.7-52.5-29.5-1.9-1.7-2-4.6-.2-6.5,1.7-1.9,4.7-2,6.5-.2,14.8,13.8,31.1,22.9,48.5,27.3,2.5.6,4,3.1,3.3,5.6-.5,2.1-2.4,3.5-4.5,3.5Z"/>
    <g>
      <path class="st2" d="M274,340.8s-17.7-216.1,121.9-270.2c53.9-20.9-.9,28.5-24.6,46.2-76.2,57.2-95.3,236.3-95.3,236.3l-2-12.3Z"/>
      <path class="st4" d="M276,360.6c-3.7,0-6.8-2.6-7.4-6.3l-2-12.3c0-.2,0-.4,0-.6-.2-2.2-4.4-55.8,8.7-117,17.6-82.1,58.4-137.7,117.9-160.8,12.7-4.9,26.8-9.4,31.9-.2,2.6,4.8,3.1,20.1-49.3,59.4-72.7,54.5-92.1,229.3-92.3,231.1-.4,3.7-3.5,6.6-7.2,6.7,0,0-.1,0-.2,0ZM406.8,74.7c-2.2.7-4.8,1.6-8.2,2.9-83.7,32.4-108.5,127.5-115.3,193.9,13.8-56.5,39.3-127.5,83.5-160.7,15.5-11.6,32.1-26.8,40-36.1Z"/>
    </g>
    <g>
      <path class="st2" d="M433.8,68.8s-83.7-24.3-93-16.7c-15.8,12.8,3,75.4,20.5,80,12.1,3.2,72.5-63.3,72.5-63.3Z"/>
      <path class="st4" d="M362,139.6c-1.2,0-2-.2-2.6-.4-16-4.2-26.2-32.8-29.7-49-2.7-12.3-5.4-34.5,6.4-44,8.2-6.7,41.8-1.5,99.8,15.3,2.5.7,4.4,2.7,5.1,5.2.7,2.5,0,5.2-1.7,7.1-53.8,59.2-70.9,65.8-77.4,65.8ZM361.9,124.7h0ZM345.1,58.2c-2.4,2.7-4.4,12.1-.8,28.8,4.3,20.2,13.3,35.1,18.2,37.4,8-2.4,34.2-27,57.5-51.9-32.5-8.9-67.2-16.3-74.9-14.4ZM344.7,58.4h0Z"/>
    </g>
  </g>
  <circle class="st4" cx="346.2" cy="83.7" r="8.9" transform="translate(60.8 296.7) rotate(-50.3)"/>
  <circle class="st4" cx="378.4" cy="87.9" r="8.9" transform="translate(212 438.9) rotate(-77.7)"/>
  <circle class="st4" cx="370.7" cy="116.5" r="8.9"/>
  <circle class="st4" cx="406.6" cy="84.9" r="8.9" transform="translate(237.2 464.2) rotate(-77.7)"/>
  <circle class="st4" cx="467.7" cy="47.8" r="8.9" transform="translate(11.9 163.2) rotate(-20)"/>
  <circle class="st4" cx="510.7" cy="40.3" r="8.9" transform="translate(344.3 524.9) rotate(-75.6)"/>
  <circle class="st4" cx="493.3" cy="61" r="8.9"/>
  <circle class="st4" cx="371.8" cy="61.7" r="8.9"/>
  <path class="st4" d="M394.9,167.1c-2.1,0-4.1-1.5-4.5-3.7-2.7-13-1.4-42.4,2.5-58.2.6-2.5,3.1-4,5.6-3.4,2.5.6,4,3.1,3.4,5.6-4,15.8-4.6,43.4-2.4,54.1.5,2.5-1.1,4.9-3.6,5.5-.3,0-.6,0-.9,0Z"/>
  <path class="st4" d="M362.9,196.2c-1.4,0-2.7-.6-3.6-1.8-15.2-19.5-13.5-56.7-11.8-60.1,1.1-2.3,3.9-3.2,6.2-2.1,2.1,1,3,3.5,2.3,5.6-.9,4.5-1.2,35.7,10.6,50.9,1.6,2,1.2,4.9-.8,6.5-.8.7-1.8,1-2.8,1Z"/>
</svg>