<?xml version="1.0" encoding="UTF-8"?><svg id="Layer_2" xmlns="http://www.w3.org/2000/svg" width="715.5342" height="629.1987" viewBox="0 0 715.5342 629.1987"><g id="Layer_1-2"><polygon points="452.1404 482.474 377.027 482.474 338.5073 482.474 263.3939 482.474 207.5403 592.7912 338.5073 592.7912 377.027 592.7912 507.994 592.7912 452.1404 482.474" style="fill:#a0c7de;"/><path d="M507.9942,600.4199H207.5401c-2.6509,0-5.1114-1.376-6.4995-3.6348-1.3877-2.2583-1.5039-5.0752-.3067-7.4399l55.854-110.3169c1.2989-2.5659,3.9302-4.1831,6.8062-4.1831h188.7466c2.8759,0,5.5073,1.6172,6.8061,4.1831l55.8535,110.3169c1.1973,2.3647,1.0811,5.1816-.3066,7.4399-1.3882,2.2588-3.8486,3.6348-6.4995,3.6348ZM219.9537,585.1621h275.6274l-48.1289-95.0591h-179.3696l-48.1289,95.0591Z" style="fill:#3f3f5b;"/><path d="M683.9229,7.6291H31.6106c-13.2455,0-23.9817,10.7358-23.9817,23.9818v450.8631c0,13.2463,10.7362,23.9821,23.9817,23.9821h652.3123c13.2463,0,23.9825-10.7358,23.9825-23.9821V31.6109c0-13.246-10.7362-23.9818-23.9825-23.9818Z" style="fill:#fff;"/><path d="M683.9229,514.0849H31.6104c-17.4297,0-31.6104-14.1806-31.6104-31.6108V31.6108C0,14.1806,14.1807,0,31.6104,0h652.3125c17.4307,0,31.6113,14.1806,31.6113,31.6108v450.8633c0,17.4302-14.1806,31.6108-31.6113,31.6108ZM31.6104,15.2578c-9.0171,0-16.3525,7.3359-16.3525,16.353v450.8633c0,9.0171,7.3354,16.353,16.3525,16.353h652.3125c9.0176,0,16.3535-7.3359,16.3535-16.353V31.6108c0-9.0171-7.3359-16.353-16.3535-16.353H31.6104Z" style="fill:#3f3f5b;"/><rect x="49.3346" y="44.8965" width="616.8652" height="405.1057" style="fill:#3f3f5b;"/><path d="M666.1997,457.6313H49.3345c-4.2134,0-7.6289-3.4155-7.6289-7.6289V44.8965c0-4.2134,3.4155-7.629,7.6289-7.629h616.8652c4.2134,0,7.629,3.4156,7.629,7.629v405.1059c0,4.2134-3.4156,7.6289-7.629,7.6289ZM56.9634,442.3735h601.6074V52.5254H56.9634v389.8481Z" style="fill:#3f3f5b;"/><path d="M311.2432,75.8217h-82.102c-4.2256,0-7.6509-3.4252-7.6509-7.6508s3.4253-7.6509,7.6509-7.6509h82.102c4.2256,0,7.6509,3.4253,7.6509,7.6509s-3.4253,7.6508-7.6509,7.6508Z" style="fill:#a0c7de;"/><path d="M630.7593,434.3789c-4.2256,0-7.6509-3.4253-7.6509-7.6509V75.8217h-237.9721c-4.2256,0-7.6509-3.4252-7.6509-7.6508s3.4253-7.6509,7.6509-7.6509h245.623c4.2256,0,7.6509,3.4253,7.6509,7.6509v358.5571c0,4.2256-3.4253,7.6509-7.6509,7.6509Z" style="fill:#a0c7de;"/><path d="M504.0575,578.4019H211.4761c-13.2463,0-23.9817,10.7362-23.9817,23.9825v19.1855h340.5455v-19.1855c0-13.2463-10.7358-23.9825-23.9824-23.9825Z" style="fill:#a0c7de;"/><path d="M528.0401,629.1987H187.4942c-4.2134,0-7.6289-3.4155-7.6289-7.6289v-19.1856c0-17.4306,14.1806-31.6113,31.6108-31.6113h292.5816c17.4306,0,31.6113,14.1807,31.6113,31.6113v19.1856c0,4.2134-3.4155,7.6289-7.6289,7.6289ZM195.1231,613.9409h325.2881v-11.5567c0-9.0175-7.336-16.3535-16.3535-16.3535H211.4761c-9.0171,0-16.353,7.336-16.353,16.3535v11.5567Z" style="fill:#3f3f5b;"/><path d="M331.3751,296.1972c0-10.9922,2.3076-20.3623,6.9341-28.1104,4.6201-7.7417,11.4312-16.3623,20.4263-25.8613,7.7422-8.2456,13.5518-15.4897,17.4282-21.7383,3.8711-6.2427,5.8096-13.3638,5.8096-21.3638,0-9.7446-2.8755-17.4282-8.6206-23.0503-5.7505-5.6221-14.2422-8.4331-25.4863-8.4331-14.9922,0-27.9868,5.874-38.9795,17.6157-2.5005,3.2505-4.1226,5.751-4.8721,7.4961-.7495,1.751-1.0015,3.748-.7495,5.9971l-2.624,2.998-2.6235-1.874-25.1113-22.4878c8.9951-13.4927,20.1104-24.0459,33.3569-31.6709,13.2412-7.6187,27.6064-11.4312,43.1021-11.4312,13.7393,0,25.9199,2.998,36.5435,8.9951,10.6172,5.9966,18.7983,13.8677,24.5493,23.6123,5.7451,9.7451,8.6206,20.2393,8.6206,31.4834,0,12.2456-2.3135,22.1133-6.9341,29.6094-4.6265,7.4961-11.3081,15.4956-20.0518,23.9873-7.9995,7.7476-13.9321,14.6816-17.8032,20.8013-3.8765,6.126-5.8091,13.9321-5.8091,23.4253v20.6138h-37.1055v-20.6138ZM332.8741,383.5258c-5.001-4.9956-7.4956-10.9922-7.4956-17.9907,0-6.9922,2.4946-12.9307,7.4956-17.8027,4.9956-4.8726,10.9922-7.3086,17.9907-7.3086,6.9922,0,12.9307,2.436,17.8032,7.3086s7.3086,10.8105,7.3086,17.8027c0,6.9985-2.4365,12.9951-7.3086,17.9907-4.8726,4.9951-10.811,7.4961-17.8032,7.4961-6.9985,0-12.9951-2.501-17.9907-7.4961Z" style="fill:#fff;"/><path d="M389.7862,483.5854h-64.0381c-4.2256,0-7.6509-3.4253-7.6509-7.6509s3.4253-7.6508,7.6509-7.6508h64.0381c4.2256,0,7.6509,3.4253,7.6509,7.6508s-3.4253,7.6509-7.6509,7.6509Z" style="fill:#a0c7de;"/></g></svg>