<?xml version="1.0" encoding="UTF-8"?><svg id="Coming_Soon" xmlns="http://www.w3.org/2000/svg" width="992" height="500" viewBox="0 0 992 500"><polygon points="278.621 113.2703 264.5488 130.2047 272.4713 132.5641 289.0414 111.1076 278.621 113.2703" style="fill:#3f3f5b; stroke:#e6e1d0; stroke-miterlimit:10; stroke-width:2px;"/><path d="M277.5316,112.3195l25.653-6.4141-6.2626,33.4079,7.7613,2.5334-33.6979,140.8675,5.0249.5544,31.4933-135.3333,2.9234-.6092-25.8174,136.8901,18.6362,2.0564,24.2025-142.9883,6.4495-.5221,3.4681-20.6217,3.784.7607,1.6696,11.7742,14.82,2.9234,9.9885-5.257,5.2344-19.2937-2.8944-11.1456-16.9666-4.2191-8.7476,8.3705-3.0684-.5318,3.3392-13.5437-13.2213-6.6719-8.5059,44.4471,3.7937-44.4149-19.2228.7671-35.4352,15.7902-23.5805,26.9262,7.713,3.9419,21.4661-20.4444ZM358.6033,112.1132l9.0377-8.8121-6.356,8.9829-3.1394,12.0868-.6092,9.4825-1.8597-8.97,2.9266-12.7701ZM335.8189,102.8499l-3.2715,9.6565-.9928,11.5711-1.7856-12.4156,6.0498-8.8121Z" style="fill:#3f3f5b; stroke:#e6e1d0; stroke-miterlimit:10; stroke-width:2px;"/><polygon points="272.8774 264.9966 261.6931 254.3054 264.7325 249.5319 259.1403 248.955 254.7601 254.5826 267.34 265.2867 257.0389 274.9013 263.8204 281.9922 272.8258 282.9205 264.3941 276.2711 272.8774 264.9966" style="fill:#3f3f5b; stroke:#e6e1d0; stroke-miterlimit:10; stroke-width:2px;"/><polygon points="238.2351 107.8555 213.2525 40.972 203.7635 36.1437 229.7872 105.9732 238.2351 107.8555" style="fill:#3f3f5b; stroke:#e6e1d0; stroke-miterlimit:10; stroke-width:2px;"/><polygon points="157.2117 122.8302 148.9895 99.0531 192.4761 80.4523 189.3078 73.9319 141.1283 93.7864 151.9741 124.8704 157.2117 122.8302" style="fill:#3f3f5b; stroke:#e6e1d0; stroke-miterlimit:10; stroke-width:2px;"/><path d="M154.7944,177.6849l-2.9911-13.3761,59.5282-33.4659-55.7249,36.0799,5.5245,22.3718,2.6172,7.1747,35.3965-7.5937,18.7619,5.2247,4.68,12.8152,13.5082,1.8178-19.6418-60.9045,7.1457-16.5638,9.0248,5.2892-8.2964,12.7894,13.953,3.5842-7.5583,12.8893,13.5888,3.3037-9.1602,13.6629,10.9683,4.8669-5.7855,11.3165,11.8483,4.3416-3.5358,7.0877,4.9733.5769,3.929-10.2141-10.9554-3.1845,5.186-12.0803-8.5897-4.3996,6.2722-13.1375-9.4954-5.186,4.564-13.1697-10.9522-3.452,6.3077-12.9989-12.6154-6.8331,10.6428-15.1971-8.1352-1.3408-11.2617,12.7346,7.3939-15.5227-25.6337-71.9438-14.5911,7.684-5.6373,10.7073-46.8774,15.9578-6.5655-5.257-18.2817,6.601,36.7052,95.7435,9.7661,11.2004ZM189.7493,71.2921l9.8757,20.3123-14.5428,22.2171-34.1524,14.098-12.6315-35.4546,51.451-21.1728Z" style="fill:#3f3f5b; stroke:#e6e1d0; stroke-miterlimit:10; stroke-width:2px;"/><polygon points="237.2842 247.0243 244.0528 247.9365 254.7601 282.0438 249.1357 282.7883 237.2842 247.0243" style="fill:#3f3f5b; stroke:#e6e1d0; stroke-miterlimit:10; stroke-width:2px;"/><polygon points="89.4871 219.2892 64.6947 193.1688 64.0629 197.7747 86.322 221.0555 89.4871 219.2892" style="fill:#3f3f5b; stroke:#e6e1d0; stroke-miterlimit:10; stroke-width:2px;"/><polygon points="137.6408 257.9121 134.1243 250.0767 122.202 233.297 104.5552 232.1399 123.459 231.0891 136.4547 248.291 138.669 253.1676 143.2877 231.9175 134.8174 222.1836 139.6359 203.7601 124.0198 184.4986 102.7568 157.9753 97.4676 162.8358 110.8468 182.6582 93.2807 166.681 86.8054 172.6342 91.4371 179.7509 84.6588 174.6068 77.0618 181.5849 87.7304 195.5765 75.0732 183.696 65.9259 191.8151 91.0599 217.8807 114.4438 201.0236 93.2324 220.8008 86.2349 223.9241 102.0638 237.1099 119.4752 236.4685 128.7192 251.9558 135.4007 268.223 137.6408 257.9121" style="fill:#3f3f5b; stroke:#e6e1d0; stroke-miterlimit:10; stroke-width:2px;"/><path d="M117.7089,295.884l12.6412-3.1619,1.9758-7.4036-10.9877-5.07-13.4598-2.6784,1.5374-2.0951,11.5969.6769,12.2254,5.7372.8896-3.3327-12.0707-5.5116-13.9884-1.5278-5.8693-2.0145-2.0628-6.3399-8.8765-3.5938-3.9387,3.2618-50.4422-23.1035-2.2111-5.3859-18.1721-3.7614-2.9428,6.3399,14.4236,10.1948,6.2368-1.5084,49.0401,26.0043,1.618,6.8911,4.7477,2.4077,7.5776-1.1829,6.356,2.8911,7.2327,9.9144,6.9233,3.3521ZM17.105,236.9939l1.618-3.9161,13.5855,3.3327,1.5503,5.0313-16.7539-4.4479ZM86.2929,276.4162l5.0313-6.1304.448-7.7871,1.8308,8.7766-7.3101,5.1409Z" style="fill:#3f3f5b; stroke:#e6e1d0; stroke-miterlimit:10; stroke-width:2px;"/><polygon points="401.5452 215.4988 390.6961 213.104 395.6887 226.7862 401.5452 215.4988" style="fill:#3f3f5b; stroke:#e6e1d0; stroke-miterlimit:10; stroke-width:2px;"/><polygon points="332.9407 224.9845 318.7298 223.3342 315.7967 240.6651 330.7972 242.2863 332.9407 224.9845" style="fill:#3f3f5b; stroke:#e6e1d0; stroke-miterlimit:10; stroke-width:2px;"/><polygon points="330.3331 246.0574 315.1553 244.449 314.2432 249.8349 329.6659 251.4175 330.3331 246.0574" style="fill:#3f3f5b; stroke:#e6e1d0; stroke-miterlimit:10; stroke-width:2px;"/><polygon points="429.3512 284.9349 424.075 300.0644 435.7137 301.2731 429.3512 284.9349" style="fill:#3f3f5b; stroke:#e6e1d0; stroke-miterlimit:10; stroke-width:2px;"/><polygon points="386.8832 295.6809 395.5663 272.4807 393.3584 271.2172 366.7159 293.718 386.8832 295.6809" style="fill:#3f3f5b; stroke:#e6e1d0; stroke-miterlimit:10; stroke-width:2px;"/><polygon points="380.0533 235.6627 393.0587 230.6733 387.0701 213.7131 371.6667 216.3046 368.3082 244.2943 380.0533 235.6627" style="fill:#3f3f5b; stroke:#e6e1d0; stroke-miterlimit:10; stroke-width:2px;"/><polygon points="366.7321 180.4181 362.3808 158.8005 357.0175 161.379 361.82 185.7459 366.7321 180.4181" style="fill:#3f3f5b; stroke:#e6e1d0; stroke-miterlimit:10; stroke-width:2px;"/><polygon points="340.6891 201.1687 329.7884 289.2024 335.2097 289.7987 346.162 197.5588 338.5618 192.6596 334.3685 179.4447 339.8253 163.893 333.7561 166.8068 328.2832 181.4366 333.3661 195.2993 340.6891 201.1687" style="fill:#3f3f5b; stroke:#e6e1d0; stroke-miterlimit:10; stroke-width:2px;"/><path d="M340.6762,191.8764l7.7194,4.1514-10.4075,94.0803,3.4939.3836,5.8725-44.7018,1.228,5.6276-4.8057,39.3288,13.9788,1.5407,10.8878-90.7508,11.6774-11.2327-.0322-20.9827-8.8443-12.0256-7.3939.6446,4.622,23.0455-6.9684,6.9169-7.5067-1.5761-5.7114-23.6579-6.601.8187-4.8186,15.152,3.6099,13.2374ZM357.1497,196.6595l6.8331,6.3431-8.9668,70.503-1.473-7.5679,7.4841-61.5137-3.8774-7.7646Z" style="fill:#3f3f5b; stroke:#e6e1d0; stroke-miterlimit:10; stroke-width:2px;"/><polygon points="404.4009 262.4664 391.8307 296.0451 408.8166 297.9178 421.1032 266.2826 421.9638 257.8541 421.4127 243.3693 415.163 236.6361 422.428 227.9885 418.6085 236.4428 422.689 242.5442 424.0363 253.2579 437.6831 240.0301 453.0156 207.5054 448.1583 196.2083 441.0158 204.64 437.3124 219.2441 424.8421 224.6686 427.1305 212.1886 439.2076 203.8374 446.2631 194.384 434.2021 191.0577 407.5531 214.2546 397.2455 234.1156 399.1407 245.3128 407.1277 255.9137 396.8813 246.6827 394.2512 235.3146 382.3578 239.8786 367.5314 250.7761 364.3276 277.4734 395.1247 254.9855 404.4009 262.4664" style="fill:#3f3f5b; stroke:#e6e1d0; stroke-miterlimit:10; stroke-width:2px;"/><polygon points="439.3108 241.6965 423.9074 255.859 423.7301 269.1448 412.5361 298.3271 419.3756 299.0813 428.5294 272.8288 426.979 261.5865 426.3441 260.4068 441.1705 246.7794 457.5215 211.573 451.1752 199.1091 454.5981 208.3949 439.3108 241.6965" style="fill:#3f3f5b; stroke:#e6e1d0; stroke-miterlimit:10; stroke-width:2px;"/><polygon points="399.9046 269.4768 402.5444 263.0563 394.638 257.1966 363.9247 280.8577 362.7128 290.9654 392.8234 265.4285 399.9046 269.4768" style="fill:#3f3f5b; stroke:#e6e1d0; stroke-miterlimit:10; stroke-width:2px;"/><polygon points="432.4551 215.357 435.9651 213.6519 436.8064 207.9502 429.3771 213.1104 427.6108 220.9684 432.4551 215.357" style="fill:#3f3f5b; stroke:#e6e1d0; stroke-miterlimit:10; stroke-width:2px;"/><polygon points="244.0528 283.7746 213.4427 197.9359 200.0892 194.1003 230.1675 284.8511 244.0528 283.7746" style="fill:#3f3f5b; stroke:#e6e1d0; stroke-miterlimit:10; stroke-width:2px;"/><polygon points="277.1481 236.4975 281.3349 218.9894 223.6826 212.2885 230.8251 231.4984 277.1481 236.4975" style="fill:#3f3f5b; stroke:#e6e1d0; stroke-miterlimit:10; stroke-width:2px;"/><polygon points="274.9208 245.7899 276.2295 240.3299 232.4108 235.695 234.4866 241.6352 274.9208 245.7899" style="fill:#3f3f5b; stroke:#e6e1d0; stroke-miterlimit:10; stroke-width:2px;"/><path d="M259.6722,286.6625l-32.7375,1.8114-31.0807-94.3736-41.008,9.1247-19.2583,93.4969-29.7012,7.4551,6.0305,140.8062,153.0541,18.0528-5.2988-176.3736ZM123.2849,326.8551l2.1853-8.8217,4.2062-1.5213,3.9774,9.9176-2.8783,9.5727-4.8444-.2063-2.6462-8.941ZM136.4321,428.9192l-4.8444-.2095-2.6462-8.9378,2.1853-8.825,4.2062-1.5213,3.9773,9.9176-2.8783,9.5759ZM221.8164,321.1212l2.5011-10.1078,4.8186-1.7405,4.5543,11.3616-3.2973,10.9683-5.547-.2385-3.0298-10.2432ZM171.0583,221.742l2.5044-10.1078,4.8186-1.7437,4.5543,11.3648-3.2941,10.9651-5.5502-.2353-3.033-10.2431ZM235.1312,437.1189l-5.5535-.2353-3.0298-10.2432,2.5044-10.1046,4.8186-1.7437,4.5543,11.3616-3.2941,10.9651Z" style="fill:#3f3f5b; stroke:#e6e1d0; stroke-miterlimit:10; stroke-width:2px;"/><path d="M264.971,286.8431l5.821,176.1931,170.1335-19.0037,4.5962-137.2736-180.5507-19.9158ZM293.8214,311.5065l4.796,1.2796,3.2554,9.5502-2.0725,10.1336-5.3375.693-4.0901-10.3109,3.4488-11.3455ZM300.5771,436.4291l-5.3375.6898-4.0934-10.3108,3.4488-11.3455,4.7961,1.2828,3.2586,9.5469-2.0725,10.1368ZM425.5834,426.9047l-3.8001.4899-2.9137-7.3423,2.456-8.0772,3.4133.9122,2.3207,6.7976-1.4762,7.2198ZM426.9726,333.6399l-3.8001.4931-2.9169-7.3423,2.4593-8.0804,3.4133.9122,2.3207,6.8008-1.4762,7.2166Z" style="fill:#3f3f5b; stroke:#e6e1d0; stroke-miterlimit:10; stroke-width:2px;"/><path d="M572.4903,406.3393l-47.629,16.3213-9.797,7.4456-4.9382,2.2531-5.1241-2.7835-7.7983,3.057-.5359,4.4406-62.7115,22.3478-4.6456-2.089-13.7974,8.5476,1.9468,5.7913,15.2903-2.2039,3.0515-4.714,63.5646-19.66,5.1733,3.3988,4.4597-1.3234,4.0987-5.3101,5.7749-1.9906,10.5545,1.9441,48.9333-15.5639,10.9673-8.7444-2.5238-10.0459-14.3141-1.1183ZM419.7597,469.582l-1.3316-3.4589,10.631-6.0593,4.0085,2.2613-13.3079,7.2569ZM504.1872,446.3154l-.4949-6.9178-4.3968-5.2116,6.4393,4.4706-1.5476,7.6589ZM579.7581,412.1634l-5.6737.1586-45.3459,15.3452-10.1552,6.3983-.2844-2.2531,7.7709-6.5487,47.0767-15.5995,9.1326.1066-2.521,2.3925Z" style="fill:#3f3f5b; stroke:#e6e1d0; stroke-miterlimit:10; stroke-width:2px;"/><path d="M958.9825,411.3601l-30.3604,22.4955-5.3161,7.5516-3.0203,2.7335-4.2976-.8269-4.8835,3.9583.6255,3.298-39.7795,30.2328-3.7976-.4388-7.9271,9.2486,2.7083,3.7001,10.4363-5.0503,1.1117-4.0652,41.0004-28.504,4.4726,1.2557,2.8893-1.9598,1.7254-4.7294,3.6784-2.7359,7.9912-1.0073,31.4654-22.25,5.8581-8.7465-4.0876-6.6123-10.4928,2.4522ZM864.1045,491.2962l-1.7383-2.1716,6.2276-6.7494,3.381.7068-7.8703,8.2143ZM919.2084,455.4725l-1.9257-4.8358-4.329-2.7289,5.6217,1.7348.633,5.8299ZM965.5043,413.8748l-4.0223,1.4025-28.949,21.2785-5.8103,6.8839-.7153-1.547,4.0706-6.4497,30.1293-21.8536,6.5567-1.9986-1.2597,2.2841Z" style="fill:#3f3f5b; stroke:#e6e1d0; stroke-miterlimit:10; stroke-width:1.501px;"/><path d="M654.6013,460.6128l31.7044,12.8826,24.676-5.3149,1.5966-10.5425-23.9644-11.8061-30.4993,2.9081-18.149-1.7461-7.0154-12.7482-18.7874-2.4715-25.7361-3.5275-.3771,5.4766,17.8404,3.9549-18.1408.3767-.4615,6.7076,6.309,1.5089-6.4638.7108-.5434,7.8655,13.2731,2.1521-13.2655.0663-.8035,9.3129,27.6438,1.2375,4.1031-21.6429-1.3663,22.1224-2.2356,5.4081,15.7122-1.0102,9.3158-9.5101,13.2722,3.7286,31.1181,13.9858,22.7311-3.1074,3.2555-6.8413-23.8517,4.9304-31.2463-12.8502-15.435-3.0396-10.392,8.6391,9.9317-10.5252,16.2513,2.7086ZM690.7087,460.2144l7.4887-2.9,7.5873,4.8408-9.2339,1.7842-5.8421-3.7249Z" style="fill:#3f3f5b; stroke:#e6e1d0; stroke-miterlimit:10; stroke-width:2px;"/><polygon points="613.3033 469.2263 585.8214 467.7738 587.8918 470.6617 612.4793 471.8674 613.3033 469.2263" style="fill:#3f3f5b; stroke:#e6e1d0; stroke-miterlimit:10; stroke-width:2px;"/><path d="M856.2188,438.394l-18.0259-4.0426-10.5819,6.7549-84.7313-30.8356-7.2677-12.2344-17.9481-4.1611-12.0561,5.1552-.9257,6.4522,20.6326.6545,4.5202,7.3424-2.8478,6.1052-21.3736.1512-.6175,5.8129,11.9956,7.1495,12.041-.4435,5.0906-5.7702,87.5041,30.9349,6.933,14.466,13.8691,2.979,14.9262-5.3785,1.2495-4.9546-21.0127-4.3081-3.3754-7.1266,5.6737-5.3735,21.3817,3.8157.2016-4.6828-5.2552-8.4619ZM736.4138,419.122l6.7908-4.5722,58.5013,21.7614-57.8775-18.9493-7.4146,1.7602ZM817.6335,452.8292l-59.8976-22.5654,59.2215,20.0378,6.5087-2.6364-5.8326,5.1641Z" style="fill:#3f3f5b; stroke:#e6e1d0; stroke-miterlimit:10; stroke-width:2px;"/><polygon points="724.4427 407.6834 705.0852 407.0836 706.2169 412.185 728.0157 412.9492 724.4427 407.6834" style="fill:#3f3f5b; stroke:#e6e1d0; stroke-miterlimit:10; stroke-width:2px;"/><polygon points="836.0361 453.5115 838.1113 457.9592 857.6275 458.7545 861.2724 451.5387 840.7537 449.9139 836.0361 453.5115" style="fill:#3f3f5b; stroke:#e6e1d0; stroke-miterlimit:10; stroke-width:2px;"/><polygon points="826.3286 473.4634 820.4782 459.6939 734.987 428.7034 729.2775 434.2198 717.1404 435.1684 704.9291 427.389 706.21 433.1633 717.6253 440.7649 730.4986 439.1917 736.9787 434.1062 818.8477 464.2492 823.8927 477.888 840.1973 482.425 854.583 477.6024 856.5765 472.5024 842.279 477.1395 826.3286 473.4634" style="fill:#3f3f5b; stroke:#e6e1d0; stroke-miterlimit:10; stroke-width:2px;"/><text transform="translate(475.3654 163.4815)" style="fill:#3f3f5b; font-family:NeulisSans-Black, &apos;Neulis Sans&apos;; font-size:119.0714px; font-weight:800; stroke:#e6e1d0; stroke-miterlimit:10; stroke-width:3px;"><tspan x="0" y="0">COMING</tspan><tspan x="0" y="142.8862">SOON</tspan></text></svg>