<?xml version="1.0" encoding="UTF-8"?>
<svg id="Layer_1" xmlns="http://www.w3.org/2000/svg" version="1.1" viewBox="0 0 1000 1000">
  <!-- Generator: Adobe Illustrator 29.2.1, SVG Export Plug-In . SVG Version: 2.1.0 Build 116)  -->
  <defs>
    <style>
      .st0 {
        fill: #a0c7de;
      }

      .st1 {
        fill: #8fb3c6;
      }

      .st2, .st3 {
        fill: #3f3f5b;
      }

      .st4 {
        fill: #fff;
      }

      .st3 {
        stroke: #e7f1f7;
        stroke-miterlimit: 10;
        stroke-width: 6px;
      }
    </style>
  </defs>
  <g>
    <circle class="st0" cx="500.3" cy="559.9" r="384.8"/>
    <path class="st2" d="M500.3,175.1c212.5,0,384.8,172.3,384.8,384.8s-172.3,384.8-384.8,384.8S115.5,772.4,115.5,559.9,287.8,175.1,500.3,175.1M500.3,159.9c-220.6,0-400,179.4-400,400s179.4,400,400,400,400-179.4,400-400-179.4-400-400-400h0Z"/>
  </g>
  <g>
    <g>
      <path class="st4" d="M71.3,535.3c-13.2,4.8-20,19.4-15.2,32.6l38.8,106.6c4.8,13.2,19.4,20,32.6,15.2l171.8-62.5-56.2-154.4-171.8,62.5Z"/>
      <path class="st2" d="M302.4,635.7l-171.8,62.5c-17.9,6.5-37.7-2.7-44.2-20.6l-38.8-106.6c-6.5-17.9,2.7-37.7,20.6-44.2l171.8-62.5c4.7-1.7,9.9.7,11.6,5.4l56.2,154.4c1.7,4.7-.7,9.9-5.4,11.6ZM74.4,543.8c-8.5,3.1-12.9,12.5-9.8,21l38.8,106.6c3.1,8.5,12.5,12.9,21,9.8l163.3-59.4-50-137.4-163.3,59.4Z"/>
    </g>
    <g>
      <circle class="st4" cx="678.1" cy="401.9" r="107" transform="translate(-85.6 597.2) rotate(-45)"/>
      <path class="st2" d="M717.7,510.9c-60.1,21.9-126.8-9.2-148.7-69.3-21.9-60.1,9.2-126.8,69.3-148.7,60.1-21.9,126.8,9.2,148.7,69.3,21.9,60.1-9.2,126.8-69.3,148.7ZM644.6,309.9c-50.7,18.5-77,74.7-58.5,125.5,18.5,50.7,74.7,77,125.5,58.5,50.7-18.5,77-74.7,58.5-125.5-18.5-50.7-74.7-77-125.5-58.5Z"/>
    </g>
    <g>
      <path class="st1" d="M194.8,530.9l-17.4,6.3c-26.3,9.6-39.8,38.6-30.2,64.8l148.1,259c15.5,27.9,30.5,42.7,56.8,33.2l47-17.1c26.3-9.6,22.7-30.9,8.6-57l-148.1-259c-9.6-26.3-38.6-39.8-64.8-30.2Z"/>
      <path class="st2" d="M402.2,885.6l-47,17.1c-34.5,12.6-53-10.5-67.8-37.2l-148.1-258.9c-.3-.4-.5-.9-.6-1.4-11.2-30.9,4.7-65.2,35.6-76.5l17.4-6.3c30.7-11.2,64.6,4.5,76.2,34.9l147.7,258.3c0,0,0,.1.1.2,7.2,13.3,16,32.8,9.8,49.1-3.6,9.4-11.4,16.3-23.4,20.7ZM155.4,598.3l147.7,258.3s0,0,0,.1c17.7,32,29.7,34.9,45.8,29l47-17.1c6.9-2.5,11-5.8,12.6-10.1,2.6-6.9-.3-18.3-8.8-34l-148-258.9c-.3-.4-.5-.9-.6-1.4-7.8-21.5-31.7-32.7-53.2-24.8l-17.4,6.3c-21.3,7.7-32.4,31.2-25.1,52.5Z"/>
    </g>
    <g>
      <g>
        <path class="st3" d="M903.5,330.5l-67.9,24.7c-7,2.5-14.7-1.1-17.2-8s1.1-14.7,8-17.2l67.9-24.7c7-2.5,14.7,1.1,17.2,8,2.5,7-1.1,14.7-8,17.2Z"/>
        <path class="st3" d="M784.6,285.9c-4.4,1.6-9.4.9-13.2-2.3-5.7-4.8-6.4-13.2-1.7-18.9l46.4-55.3c4.8-5.7,13.2-6.4,18.9-1.7,5.7,4.8,6.4,13.2,1.7,18.9l-46.4,55.3c-1.6,1.9-3.5,3.2-5.7,4Z"/>
        <path class="st3" d="M705.8,251.4c-2.1.8-4.5,1-6.9.6-7.3-1.3-12.2-8.2-10.9-15.5l12.5-71.1c1.3-7.3,8.2-12.2,15.5-10.9,7.3,1.3,12.2,8.2,10.9,15.5l-12.5,71.1c-.9,4.9-4.3,8.7-8.6,10.3Z"/>
      </g>
      <g>
        <path class="st3" d="M918.6,454c-2.1.8-4.5,1-6.9.6l-71.1-12.5c-7.3-1.3-12.2-8.2-10.9-15.5,1.3-7.3,8.2-12.2,15.5-10.9l71.1,12.5c7.3,1.3,12.2,8.2,10.9,15.5-.9,4.9-4.3,8.7-8.6,10.3Z"/>
        <path class="st3" d="M870.1,567.5c-4.4,1.6-9.4.9-13.2-2.3l-55.3-46.4c-5.7-4.8-6.4-13.2-1.7-18.9,4.8-5.7,13.2-6.4,18.9-1.7l55.3,46.4c5.7,4.8,6.4,13.2,1.7,18.9-1.6,1.9-3.5,3.2-5.7,4Z"/>
      </g>
    </g>
    <g>
      <polygon class="st1" points="261.7 391.4 313.8 534.5 365.9 677.6 785.1 627.2 700.1 393.9 615.2 160.5 261.7 391.4"/>
      <path class="st2" d="M788.2,635.7c-.6.2-1.3.4-2,.5l-419.2,50.3c-4.2.5-8.2-1.9-9.6-5.9l-104.2-286.2c-1.4-4,0-8.4,3.6-10.7l353.5-230.9c2.3-1.5,5.2-1.9,7.8-1,2.6.9,4.7,2.9,5.7,5.5l169.9,466.7c.9,2.6.7,5.5-.8,7.8-1.1,1.8-2.7,3.1-4.6,3.8ZM371.9,667.7l400.7-48.1-162.1-445.3-337.9,220.7,99.2,272.7Z"/>
    </g>
    <path class="st4" d="M309.1,419.2c-4.1,1.5-8.8,0-11.3-3.8-2.9-4.4-1.6-10.3,2.8-13.2l280.8-183.4c4.4-2.9,10.3-1.6,13.2,2.8,2.9,4.4,1.6,10.3-2.8,13.2l-280.8,183.4c-.6.4-1.3.7-2,1Z"/>
    <g>
      <path class="st1" d="M261.7,391.4l-138,50.2c-33.1,12.1-50.2,48.7-38.2,81.8l60.5,166.2c12.1,33.1,48.7,50.2,81.8,38.2l138-50.2-104.2-286.2Z"/>
      <path class="st2" d="M369,686.1l-138,50.2c-37.8,13.8-79.7-5.8-93.5-43.6l-60.5-166.2c-13.8-37.8,5.8-79.7,43.6-93.5l138-50.2c4.7-1.7,9.9.7,11.6,5.4l104.2,286.2c1.7,4.7-.7,9.9-5.4,11.6ZM126.8,450.1c-28.4,10.3-43.1,41.8-32.7,70.2l60.5,166.2c10.3,28.4,41.8,43.1,70.2,32.7l129.5-47.1-98-269.1-129.5,47.1Z"/>
    </g>
    <path class="st2" d="M129.5,531.8c-4.8,1.7-10.1-.7-11.8-5.5-9.4-25.8,4-54.4,29.7-63.8l87.6-31.9c4.8-1.7,10.1.7,11.8,5.5s-.7,10.1-5.5,11.8l-87.6,31.9c-16.2,5.9-24.6,23.9-18.7,40.2s-.7,10.1-5.5,11.8Z"/>
    <g>
      <path class="st1" d="M609.7,137.4c-12.7,4.6-19.2,18.7-14.6,31.4l169.2,465c4.6,12.7,18.7,19.2,31.4,14.6s19.2-18.7,14.6-31.4l-169.2-465c-4.6-12.7-18.7-19.2-31.4-14.6Z"/>
      <path class="st2" d="M798.8,657c-17.4,6.3-36.7-2.7-43-20l-169.2-465c-6.3-17.4,2.7-36.7,20-43,17.4-6.3,36.7,2.7,43,20l169.2,465c6.3,17.4-2.7,36.7-20,43ZM612.8,146c-8,2.9-12.1,11.8-9.2,19.8l169.2,465c2.9,8,11.8,12.1,19.8,9.2,8-2.9,12.1-11.8,9.2-19.8l-169.2-465c-2.9-8-11.8-12.1-19.8-9.2Z"/>
    </g>
    <g>
      <path class="st2" d="M354.2,743.9l-41.2,15c-4.7,1.7-9.9-.7-11.6-5.4s.7-9.9,5.4-11.6l41.2-15c4.7-1.7,9.9.7,11.6,5.4s-.7,9.9-5.4,11.6Z"/>
      <path class="st2" d="M379,782.2l-41.2,15c-4.7,1.7-9.9-.7-11.6-5.4s.7-9.9,5.4-11.6l41.2-15c4.7-1.7,9.9.7,11.6,5.4s-.7,9.9-5.4,11.6Z"/>
      <path class="st2" d="M403.9,820.6l-41.2,15c-4.7,1.7-9.9-.7-11.6-5.4-1.7-4.7.7-9.9,5.4-11.6l41.2-15c4.7-1.7,9.9.7,11.6,5.4s-.7,9.9-5.4,11.6Z"/>
    </g>
  </g>
</svg>