<?xml version="1.0" encoding="UTF-8"?>
<svg id="Layer_1" xmlns="http://www.w3.org/2000/svg" version="1.1" viewBox="0 0 1000 1000">
  <!-- Generator: Adobe Illustrator 29.2.1, SVG Export Plug-In . SVG Version: 2.1.0 Build 116)  -->
  <defs>
    <style>
      .st0 {
        fill: #a0c7de;
      }

      .st1 {
        fill: #75b4d3;
      }

      .st2 {
        fill: #3f3f5b;
      }

      .st3 {
        fill: #fff;
      }
    </style>
  </defs>
  <g>
    <circle class="st0" cx="500.3" cy="559.9" r="384.8"/>
    <path class="st2" d="M500.3,175.1c212.5,0,384.8,172.3,384.8,384.8s-172.3,384.8-384.8,384.8S115.5,772.4,115.5,559.9,287.8,175.1,500.3,175.1M500.3,159.9c-220.6,0-400,179.4-400,400s179.4,400,400,400,400-179.4,400-400-179.4-400-400-400h0Z"/>
  </g>
  <g>
    <g>
      <path class="st2" d="M719.1,399.7h0c-6.2,0-12.2-3.1-17-8.7l-21.6-24-32.2-1.6c-.2,0-.3,0-.5,0-9-.9-16-5.4-19.3-12.5-3-6.2-2.2-14.3,2.1-21.4l16.2-27.6-7.9-31.5c-2.8-10.8.9-17.9,4.6-22,.3-.3.5-.5.8-.8,5.4-4.9,13-6.5,21.3-4.4l31.2,6.6,27.3-17c4.5-2.8,9.1-4.2,13.5-4.2s6.2.7,9,2.1c3.8,1.9,10.4,6.8,11.7,18.8l3.4,32,25.1,20.9c7,5.9,10.2,14,8.3,21.4-1,6.7-6.1,12.5-14,15.9l-29.7,13.1-11.8,29.8c-3.1,8.3-9.4,13.8-17.4,15-1,.2-2,.3-3,.3Z"/>
      <path class="st3" d="M719.1,399.7h0c-6.2,0-12.2-3.1-17-8.7l-21.6-24-32.2-1.6c-.2,0-.3,0-.5,0-9-.9-16-5.4-19.3-12.5-3-6.2-2.2-14.3,2.1-21.4l16.2-27.6-7.9-31.5c-2.8-10.8.9-17.9,4.6-22,.3-.3.5-.5.8-.8,5.4-4.9,13-6.5,21.3-4.4l31.2,6.6,27.3-17c4.5-2.8,9.1-4.2,13.5-4.2s6.2.7,9,2.1c3.8,1.9,10.4,6.8,11.7,18.8l3.4,32,25.1,20.9c7,5.9,10.2,14,8.3,21.4-1,6.7-6.1,12.5-14,15.9l-29.7,13.1-11.8,29.8c-3.1,8.3-9.4,13.8-17.4,15-1,.2-2,.3-3,.3ZM649.7,343.4l36.4,1.9c2.9.1,5.6,1.4,7.6,3.6l24.8,27.5c0,0,.2.2.3.3,0,0,0,0,0,.1,0,0,0-.2,0-.3l13.5-34.1c1.1-2.7,3.1-4.8,5.8-6l33.8-15s0,0,0,0c.2,0,.3-.2.5-.2,0,0-.1,0-.2-.1l-28.5-23.7c-2.2-1.8-3.6-4.4-3.9-7.3l-3.8-36.4c0-.3,0-.5,0-.7-.2,0-.4.2-.6.4l-31,19.4c-2.4,1.5-5.3,2-8.1,1.4l-35.8-7.6c-.2,0-.3,0-.5-.1,0,0-.1,0-.2,0,0,.1,0,.3.1.4,0,0,0,0,0,0l9,35.9c.7,2.8.3,5.7-1.2,8.2l-18.5,31.7c0,.1-.1.2-.2.3,0,.1-.1.2-.2.3.2,0,.4,0,.6,0Z"/>
    </g>
    <g>
      <path class="st2" d="M546.2,214.9h0c-4.1,0-8.3-1.3-12.3-3.9l-23.6-14.1-26.5,6.7c-.2,0-.3,0-.5.1-1.8.4-3.6.6-5.4.6-6.1,0-11.4-2.3-15.2-6.5-4.4-4.7-5.9-12.2-4-19.6l6.3-26.5-14.3-23.6c-4.2-6.9-4.9-14.3-1.9-20.8.2-.3.3-.7.5-1,3.5-5.8,9.9-9.4,17.7-9.8l27-2.4,17.9-20.7c5.9-6.8,12.2-8.2,16.4-8.2s2,0,3,.2c3.9.6,11.2,3.2,15.6,13.5l10.7,25.2,25.6,10.8c7.8,3.3,12.8,9.7,13.3,16.9.9,6.3-2,12.8-8.1,18l-20.9,18.1-2.2,27.1c-.4,8.1-4.7,14.8-11.4,18-2.4,1.2-5.1,1.8-7.9,1.8Z"/>
      <path class="st3" d="M546.2,214.9h0c-4.1,0-8.3-1.3-12.3-3.9l-23.6-14.1-26.5,6.7c-.2,0-.3,0-.5.1-1.8.4-3.6.6-5.4.6-6.1,0-11.4-2.3-15.2-6.5-4.4-4.7-5.9-12.2-4-19.6l6.3-26.5-14.3-23.6c-4.2-6.9-4.9-14.3-1.9-20.8.2-.3.3-.7.5-1,3.5-5.8,9.9-9.4,17.7-9.8l27-2.4,17.9-20.7c5.9-6.8,12.2-8.2,16.4-8.2s2,0,3,.2c3.9.6,11.2,3.2,15.6,13.5l10.7,25.2,25.6,10.8c7.8,3.3,12.8,9.7,13.3,16.9.9,6.3-2,12.8-8.1,18l-20.9,18.1-2.2,27.1c-.4,8.1-4.7,14.8-11.4,18-2.4,1.2-5.1,1.8-7.9,1.8ZM512.1,174.2c2,0,3.9.5,5.6,1.6l26,15.6,2.4-29.7c.2-2.9,1.6-5.5,3.8-7.4l23-19.9-27.7-11.7c-2.6-1.1-4.7-3.2-5.9-5.8l-11.8-27.7-19.8,22.7c-1.9,2.1-4.5,3.5-7.3,3.7l-29.9,2.7,15.6,25.9c1.5,2.5,2,5.4,1.3,8.2l-7,29.4,29-7.3c.9-.2,1.8-.3,2.7-.3Z"/>
    </g>
    <g>
      <path class="st2" d="M265.9,397.1c-3.8,0-7.4-.9-10.8-2.6-7-3.4-11.9-11.4-12.9-21l-5.4-42.1-33.7-26.6c-10.3-8-11.9-17-11.4-23.3,0-.4,0-.7.1-1.1.9-4.8,4.1-13.6,16.4-18.9l38.1-18.3,14.8-39.9c4.6-12.5,12.8-16.6,18.9-17.9,1.4-.3,2.8-.4,4.2-.4,4.8,0,12,1.7,19.5,9.5l29.4,30.8,43.2,1.6c10.6.4,19.1,5.6,22.6,13.5,3.8,6.7,3.2,15.5-1.7,24.3l-20.5,37.7,11.7,40.8c3.1,9.8,1.2,19.2-5.2,25.8-4.1,4.5-10.1,6.9-17.1,6.9h0c-2.2,0-4.6-.3-7-.8l-42.2-7.7-35,24.3c-.1,0-.3.2-.4.3-5.2,3.3-10.4,4.9-15.7,4.9Z"/>
      <path class="st3" d="M265.9,397.1c-3.8,0-7.4-.9-10.8-2.6-7-3.4-11.9-11.4-12.9-21l-5.4-42.1-33.7-26.6c-10.3-8-11.9-17-11.4-23.3,0-.4,0-.7.1-1.1.9-4.8,4.1-13.6,16.4-18.9l38.1-18.3,14.8-39.9c4.6-12.5,12.8-16.6,18.9-17.9,1.4-.3,2.8-.4,4.2-.4,4.8,0,12,1.7,19.5,9.5l29.4,30.8,43.2,1.6c10.6.4,19.1,5.6,22.6,13.5,3.8,6.7,3.2,15.5-1.7,24.3l-20.5,37.7,11.7,40.8c3.1,9.8,1.2,19.2-5.2,25.8-4.1,4.5-10.1,6.9-17.1,6.9h0c-2.2,0-4.6-.3-7-.8l-42.2-7.7-35,24.3c-.1,0-.3.2-.4.3-5.2,3.3-10.4,4.9-15.7,4.9ZM265.3,375c.2,0,.3.1.6.1s1.6-.1,3.8-1.4l38.6-26.7c2.4-1.7,5.4-2.3,8.2-1.8l46.8,8.5c.1,0,.2,0,.4,0,.9.2,1.8.3,2.5.3h0c.6,0,1,0,1.2-.1,0,0,0,0,0,0,.8-.9.5-2.6,0-4,0-.1,0-.2-.1-.4l-13-45.3c-.8-2.8-.5-5.7.9-8.3l22.6-41.7s0,0,0,0c1-1.7,1.3-3,1.4-3.6-.1-.3-.3-.6-.4-.9-.5-.3-1.8-.7-3.5-.8l-47.6-1.8c-2.9-.1-5.6-1.3-7.5-3.4l-32.4-34c-1.9-2-3.2-2.6-3.6-2.7-1.2.5-2.2,3.1-2.6,4l-16.3,44.1c-1,2.7-3,4.8-5.5,6.1l-42.3,20.3c-.2,0-.3.1-.5.2-2.1.9-3,1.8-3.4,2.3.2.7.8,1.9,2.9,3.5,0,0,0,0,0,0l37.3,29.4c2.3,1.8,3.7,4.4,4.1,7.2l6,46.7c0,.1,0,.3,0,.4.2,2.1.8,3.3,1.2,3.7Z"/>
    </g>
    <g>
      <path class="st2" d="M741.4,515.4c-1.6,0-3.3-.4-4.8-1.3l-232.8-130.9-232.8,130.9c-4.7,2.6-10.7,1-13.3-3.7-2.6-4.7-1-10.7,3.7-13.3l237.5-133.6c3-1.7,6.6-1.7,9.6,0l237.5,133.6c4.7,2.6,6.4,8.6,3.7,13.3-1.8,3.2-5.1,5-8.5,5Z"/>
      <path class="st2" d="M503.8,916.2c-1.7,0-3.3-.4-4.8-1.3l-118.8-66.8-118.8-66.8c-3.1-1.7-5-5-5-8.5v-124.6c0-5.4,4.4-9.8,9.8-9.8s9.8,4.4,9.8,9.8v118.9l113.8,64,114,64.1,227.8-128.1v-116.5c0-5.4,4.4-9.8,9.8-9.8s9.8,4.4,9.8,9.8v122.2c0,3.5-1.9,6.8-5,8.5l-237.5,133.6c-1.5.8-3.1,1.3-4.8,1.3Z"/>
      <path class="st2" d="M503.8,916.2c-1.7,0-3.4-.4-4.9-1.3-3-1.8-4.8-5-4.8-8.4v-267.2c0-3.5,1.9-6.8,5-8.5l237.5-133.6c4.7-2.6,10.7-1,13.3,3.7,2.6,4.7,1,10.7-3.7,13.3l-232.6,130.8v244.8l218-122.6v-102.2c0-5.4,4.4-9.8,9.8-9.8s9.8,4.4,9.8,9.8v107.9c0,3.5-1.9,6.8-5,8.5l-237.5,133.6c-1.5.8-3.1,1.3-4.8,1.3Z"/>
      <path class="st2" d="M503.8,916.2c-1.7,0-3.3-.4-4.8-1.3l-118.8-66.8-118.8-66.8c-3.1-1.7-5-5-5-8.5v-104.4c0-5.4,4.4-9.8,9.8-9.8s9.8,4.4,9.8,9.8v98.7l113.8,64,104.2,58.6v-244.8l-113.8-64-118.8-66.8c-4.7-2.6-6.4-8.6-3.7-13.3,2.6-4.7,8.6-6.4,13.3-3.7l118.8,66.8,118.8,66.8c3.1,1.7,5,5,5,8.5v267.2c0,3.5-1.8,6.7-4.8,8.4-1.5.9-3.2,1.3-4.9,1.3Z"/>
      <path class="st1" d="M494,815l-218-132v-18c0,0,76.5-95,76.5-95,2.9-4,8.4-5.1,12.6-2.7l128.8,102.7v145Z"/>
      <path class="st1" d="M732,683l-218,136v-175.9l214-51.4,4,91.3Z"/>
      <path class="st3" d="M429,749.9c-1.6,0-3.3-.4-4.8-1.3l-237.6-133.6c-2.4-1.4-4.2-3.7-4.8-6.5-.6-2.7,0-5.6,1.7-7.9l74.9-100.7c2.9-4,8.4-5.1,12.6-2.7l237.6,133.6c2.4,1.4,4.2,3.7,4.8,6.5.6,2.7,0,5.6-1.7,7.9l-74.9,100.7c-1.9,2.6-4.8,3.9-7.9,3.9Z"/>
      <path class="st2" d="M429,749.9c-1.6,0-3.3-.4-4.8-1.3l-237.6-133.6c-2.4-1.4-4.2-3.7-4.8-6.5-.6-2.7,0-5.6,1.7-7.9l74.9-100.7c2.9-4,8.4-5.1,12.6-2.7l237.6,133.6c2.4,1.4,4.2,3.7,4.8,6.5.6,2.7,0,5.6-1.7,7.9l-74.9,100.7c-1.9,2.6-4.8,3.9-7.9,3.9ZM206,603.4l220.4,123.9,63.1-84.8-220.4-124-63.1,84.8Z"/>
      <path class="st3" d="M578.7,749.9c-3,0-5.9-1.4-7.9-3.9l-74.9-100.7c-1.7-2.3-2.3-5.1-1.7-7.9.6-2.7,2.3-5.1,4.8-6.5l237.6-133.6c4.3-2.4,9.7-1.3,12.6,2.7l74.9,100.7c1.7,2.3,2.3,5.1,1.7,7.9-.6,2.7-2.3,5.1-4.8,6.5l-237.6,133.6c-1.5.8-3.2,1.3-4.8,1.3Z"/>
      <path class="st2" d="M578.7,749.9c-3,0-5.9-1.4-7.9-3.9l-74.9-100.7c-1.7-2.3-2.3-5.1-1.7-7.9.6-2.7,2.3-5.1,4.8-6.5l237.6-133.6c4.3-2.4,9.7-1.3,12.6,2.7l74.9,100.7c1.7,2.3,2.3,5.1,1.7,7.9-.6,2.7-2.3,5.1-4.8,6.5l-237.6,133.6c-1.5.8-3.2,1.3-4.8,1.3ZM518.3,642.5l63.1,84.8,220.4-123.9-63.1-84.8-220.4,124Z"/>
    </g>
    <path class="st2" d="M503.8,649.2c-5.4,0-9.8-4.4-9.8-9.8v-267.5c0-5.4,4.4-9.8,9.8-9.8s9.8,4.4,9.8,9.8v267.5c0,5.4-4.4,9.8-9.8,9.8Z"/>
  </g>
</svg>