<?xml version="1.0" encoding="UTF-8"?>
<svg id="Layer_1" xmlns="http://www.w3.org/2000/svg" version="1.1" viewBox="0 0 1000 1000">
  <!-- Generator: Adobe Illustrator 29.2.1, SVG Export Plug-In . SVG Version: 2.1.0 Build 116)  -->
  <defs>
    <style>
      .st0 {
        fill: #a0c7de;
      }

      .st1 {
        fill: #3f3f5b;
      }

      .st2 {
        fill: #fff;
      }

      .st3 {
        fill: #ea9854;
      }
    </style>
  </defs>
  <g>
    <circle class="st0" cx="485.6" cy="556.9" r="384.8"/>
    <path class="st1" d="M485.6,172.1c212.5,0,384.8,172.3,384.8,384.8s-172.3,384.8-384.8,384.8S100.8,769.4,100.8,556.9,273.1,172.1,485.6,172.1M485.6,156.9c-220.6,0-400,179.4-400,400s179.4,400,400,400,400-179.4,400-400-179.4-400-400-400h0Z"/>
  </g>
  <g>
    <g>
      <g>
        <g>
          <polyline class="st1" points="711.1 243.4 749.8 221.3 805.9 277.4 781.9 314.3"/>
          <path class="st1" d="M781.9,321.9c-1.4,0-2.9-.4-4.2-1.2-3.5-2.3-4.6-7-2.2-10.6l20.6-31.7-47.6-47.6-33.6,19.3c-3.7,2.1-8.3.8-10.4-2.8-2.1-3.7-.8-8.3,2.8-10.4l38.7-22.2c3-1.7,6.8-1.2,9.2,1.2l56.1,56.1c2.6,2.6,3,6.5,1,9.6l-24,36.9c-1.5,2.3-3.9,3.5-6.4,3.5Z"/>
        </g>
        <g>
          <g>
            <polyline class="st1" points="283.9 659.6 409.6 537.5 488.4 617.1 366.5 742.2"/>
            <path class="st1" d="M366.5,749.8c-1.9,0-3.9-.7-5.3-2.2-3-3-3.1-7.8-.1-10.8l116.7-119.7-68.2-68.9-120.2,116.9c-3,2.9-7.9,2.9-10.8-.2-2.9-3-2.9-7.9.2-10.8l125.7-122.2c3-2.9,7.8-2.9,10.8.1l78.8,79.7c2.9,3,3,7.7,0,10.7l-121.9,125c-1.5,1.5-3.5,2.3-5.5,2.3Z"/>
          </g>
          <g>
            <polygon class="st1" points="781.9 314.3 557.6 544.2 482.1 465.3 711.1 243.4 781.9 314.3"/>
            <path class="st1" d="M557.6,551.9h0c-2.1,0-4.1-.9-5.5-2.4l-75.5-79c-2.9-3-2.8-7.9.2-10.8l229-221.8c3-2.9,7.8-2.9,10.7,0l70.8,70.8c3,3,3,7.8,0,10.8l-224.3,229.9c-1.4,1.5-3.4,2.3-5.5,2.3ZM492.9,465.5l64.7,67.7,213.5-218.9-60.2-60.2-218.1,211.3Z"/>
          </g>
        </g>
        <g>
          <g>
            <path class="st0" d="M234.5,786c-2.2-4.1-1.9-9,1.2-12,3.9-3.9,10.7-3.3,15.2,1.2s5.1,11.3,1.2,15.2c-3,3-7.9,3.4-12,1.2l-63.6,63.6,5.6,5.6c65.4-54.4,114.4-29.9,114.4-29.9l41.1-89.8-10.8-10.8-12.7-12.7-21.8-21.8-7.3-7.3-89.8,41.1s24.5,49-29.9,114.4l5.6,5.6,63.6-63.6Z"/>
            <path class="st1" d="M182.1,868.4c-2,0-3.9-.8-5.4-2.2l-5.6-5.6c-1-1-1.7-2.2-2-3.6-1.3-.3-2.5-1-3.6-2l-5.6-5.6c-2.8-2.8-3-7.2-.5-10.3,20.8-25.1,32.4-51.4,33.5-76.1.8-18.6-4.6-29.9-4.6-30-.9-1.8-1-4-.3-5.9.7-1.9,2.1-3.5,4-4.4l89.8-41.1c2.9-1.3,6.3-.7,8.6,1.5l52.5,52.5c2.3,2.3,2.9,5.7,1.5,8.6l-41.1,89.8c-.9,1.9-2.4,3.3-4.4,4s-4.1.6-5.9-.4c0,0-9.9-4.7-26.1-4.7-32.7,0-61.5,18.3-80,33.6-1.4,1.2-3.2,1.8-4.9,1.8ZM242.2,800.3l-32.8,32.8c16.7-8.8,36.3-15.4,57.6-15.4s19.9,1.8,25.6,3.5l36-78.6-45-45-78.6,36c4.1,13.4,8.9,43.8-11.7,82.9l32.6-32.6c-1.1-5.6.5-11.4,4.5-15.3,3.1-3.1,7.3-4.8,11.9-4.8s10.3,2.2,14.1,6c7.5,7.5,8,19.2,1.2,26-3.1,3.1-7.3,4.8-11.9,4.8-1.1,0-2.3-.1-3.4-.3ZM242,784.2c.6.1,1.2.4,1.7.7.6.3,1.3.5,1.9.5s.8,0,1.1-.3c.6-.6.5-2.7-1.2-4.4-1-1-2.2-1.5-3.3-1.5s-.8,0-1.1.4c-.5.5-.5,1.7.2,3.1.3.6.5,1.1.7,1.7Z"/>
          </g>
          <g>
            <path class="st0" d="M234.5,786c-2.2-4.1-1.9-9,1.2-12,3.9-3.9,10.7-3.3,15.2,1.2s.9,1,1.4,1.6l60.5-60.5-20.5-20.5-7.3-7.3-89.8,41.1s24.5,49-29.9,114.4l5.6,5.6,63.6-63.6Z"/>
            <path class="st1" d="M171,857.2c-2,0-3.9-.7-5.4-2.2l-5.6-5.6c-2.8-2.8-3-7.2-.5-10.3,20.8-25.1,32.4-51.4,33.5-76.1.8-18.6-4.6-29.9-4.6-30-.9-1.8-1-4-.3-5.9.7-1.9,2.1-3.5,4-4.4l89.8-41.1c2.9-1.3,6.3-.7,8.6,1.5l27.7,27.7c1.4,1.4,2.2,3.4,2.2,5.4s-.8,4-2.2,5.4l-60.5,60.5c-1.6,1.6-3.8,2.4-6,2.2-2.2-.2-4.3-1.3-5.6-3.1-.2-.3-.4-.5-.6-.7-1-1-2.2-1.5-3.3-1.5s-.8,0-1.1.4c-.5.5-.5,1.7.2,3.1,1.6,3,1,6.6-1.4,9l-63.6,63.6c-1.5,1.5-3.4,2.2-5.4,2.2ZM204.9,733.6c4.1,13.4,8.9,43.8-11.7,82.9l32.6-32.6c-1.1-5.6.5-11.4,4.5-15.3,3.1-3.1,7.3-4.8,11.9-4.8s6.7.9,9.6,2.6l50.2-50.2-18.6-18.6-78.6,36Z"/>
          </g>
        </g>
        <g>
          <polyline class="st1" points="283.9 659.6 277.7 680.9 345.5 748.7 366.5 742.2"/>
          <path class="st1" d="M345.5,756.4c-2,0-4-.8-5.4-2.2l-67.8-67.8c-2-2-2.7-4.9-1.9-7.6l6.3-21.3c1.2-4.1,5.4-6.4,9.5-5.2,4.1,1.2,6.4,5.4,5.2,9.5l-5,16.9,61.3,61.3,16.6-5.2c4-1.3,8.3,1,9.6,5,1.3,4-1,8.3-5,9.6l-21,6.5c-.7.2-1.5.3-2.3.3Z"/>
        </g>
        <path class="st1" d="M366.5,749.8c-1.9,0-3.9-.7-5.3-2.2-3-3-3.1-7.8-.1-10.8l116.7-119.7-68.2-68.9-120.2,116.9c-3,2.9-7.9,2.9-10.8-.2-2.9-3-2.9-7.9.2-10.8l125.7-122.2c3-2.9,7.8-2.9,10.8.1l78.8,79.7c2.9,3,3,7.7,0,10.7l-121.9,125c-1.5,1.5-3.5,2.3-5.5,2.3Z"/>
        <g>
          <g>
            <polyline class="st0" points="691.5 818.7 801 858 764.8 745.4"/>
            <path class="st1" d="M801,865.6c-.9,0-1.7-.1-2.6-.4l-109.5-39.3c-4-1.4-6-5.8-4.6-9.8,1.4-4,5.8-6,9.8-4.6l94.9,34.1-31.5-97.8c-1.3-4,.9-8.3,4.9-9.6,4-1.3,8.3.9,9.6,4.9l36.2,112.5c.9,2.8.1,5.8-2,7.8-1.4,1.4-3.4,2.1-5.3,2.1Z"/>
          </g>
          <g>
            <polyline class="st1" points="739.7 836 801 858 780.7 794.9"/>
            <path class="st1" d="M801,865.7c-.9,0-1.8-.1-2.6-.5l-61.3-22c-4-1.4-6.1-5.9-4.7-9.9,1.4-4,5.9-6.1,9.9-4.7l46.5,16.7-15.5-48c-1.3-4.1.9-8.4,5-9.8,4.1-1.3,8.4.9,9.8,5l20.3,63c.9,2.8.1,5.9-2,8-1.5,1.4-3.4,2.2-5.4,2.2Z"/>
          </g>
          <g>
            <path class="st3" d="M177,274.8c-8.1,8.1-9.1,20.3-2.1,27.2l516.6,516.6,73.4-73.4L248.2,228.7c-6.9-6.9-19.1-6-27.2,2.1l-44,44Z"/>
            <path class="st1" d="M691.5,826.4c-2,0-4-.8-5.5-2.3L169.4,307.5c-5-5-7.4-11.8-6.8-19.3.5-7,3.7-13.7,8.9-18.9l44-44c5.7-5.7,13.4-9,21-9s12.7,2.5,17.1,6.9l516.6,516.6c1.5,1.5,2.3,3.4,2.3,5.5s-.8,4-2.3,5.5l-73.4,73.4c-1.5,1.5-3.5,2.3-5.5,2.3ZM236.6,231.8c-3.5,0-7.2,1.6-10.1,4.5l-44,44c-2.6,2.6-4.2,5.9-4.5,9.2-.1,1.6,0,4.8,2.3,7.1l511.2,511.2,62.4-62.4L242.8,234.1c-1.9-1.9-4.4-2.4-6.2-2.4Z"/>
          </g>
          <g>
            <path class="st2" d="M177,274.8c-8.1,8.1-9.1,20.3-2.1,27.2l516.6,516.6,73.4-73.4L248.2,228.7c-6.9-6.9-19.1-6-27.2,2.1l-44,44Z"/>
            <path class="st1" d="M691.5,826.3c-2,0-3.9-.7-5.4-2.2L169.5,307.4c-5-5-7.4-11.8-6.8-19.2.5-7,3.7-13.6,8.9-18.8l44-44c5.7-5.7,13.4-9,20.9-9s12.6,2.4,17.1,6.9l516.6,516.6c1.4,1.4,2.2,3.4,2.2,5.4s-.8,4-2.2,5.4l-73.4,73.4c-1.5,1.5-3.4,2.2-5.4,2.2ZM236.6,231.7c-3.6,0-7.3,1.6-10.2,4.5l-44,44c-2.6,2.6-4.2,5.9-4.5,9.2-.2,2.9.6,5.4,2.4,7.2l511.2,511.2,62.6-62.6L242.8,234.1c-2-2-4.5-2.4-6.3-2.4Z"/>
          </g>
          <g>
            <polyline class="st2" points="195.8 323 691.5 818.7 716 794.2 220.3 298.5"/>
            <path class="st1" d="M691.5,826.3c-2,0-3.9-.7-5.4-2.2L190.4,328.4c-3-3-3-7.8,0-10.8,3-3,7.8-3,10.8,0l490.3,490.3,13.7-13.7L214.9,303.9c-3-3-3-7.8,0-10.8,3-3,7.8-3,10.8,0l495.7,495.7c1.4,1.4,2.2,3.4,2.2,5.4s-.8,4-2.2,5.4l-24.4,24.4c-1.5,1.5-3.4,2.2-5.4,2.2Z"/>
          </g>
          <g>
            <polyline class="st2" points="245.1 274.4 740.4 769.8 764.9 745.3 269 249.4"/>
            <path class="st1" d="M740.4,777.4c-2,0-3.9-.7-5.4-2.2L239.7,279.8c-3-3-3-7.8,0-10.8,3-3,7.8-3,10.8,0l490,490,13.7-13.7L263.6,254.8c-3-3-3-7.8,0-10.8,3-3,7.8-3,10.8,0l495.9,495.9c1.4,1.4,2.2,3.4,2.2,5.4s-.8,4-2.2,5.4l-24.5,24.5c-1.5,1.5-3.4,2.2-5.4,2.2Z"/>
          </g>
          <g>
            <path class="st0" d="M177,274.8c-8.1,8.1-9.1,20.3-2.1,27.2l20.9,20.9,73.4-73.4-20.9-20.9c-6.9-6.9-19.1-6-27.2,2.1l-44,44Z"/>
            <path class="st1" d="M195.8,330.5h0c-2,0-4-.8-5.4-2.2l-20.9-20.9c-5-4.9-7.4-11.8-6.8-19.2.5-7,3.7-13.6,8.9-18.8l44-44c5.7-5.7,13.4-9,20.9-9s12.6,2.4,17.1,6.9l20.9,20.9c1.4,1.4,2.2,3.4,2.2,5.4s-.8,4-2.2,5.4l-73.4,73.4c-1.4,1.4-3.4,2.2-5.4,2.2ZM236.6,231.7c-3.6,0-7.3,1.6-10.2,4.5l-44,44c-2.6,2.6-4.2,5.9-4.5,9.2-.2,2.9.6,5.4,2.4,7.2l15.5,15.5,62.6-62.6-15.5-15.5c-2-2-4.5-2.4-6.3-2.4Z"/>
          </g>
          <g>
            <line class="st3" x1="781.8" y1="801.6" x2="747.7" y2="835.7"/>
            <path class="st1" d="M747.7,843.5c-2,0-4-.8-5.5-2.3-3-3-3-7.9,0-11l34.1-34.1c3-3,7.9-3,11,0s3,7.9,0,11l-34.1,34.1c-1.5,1.5-3.5,2.3-5.5,2.3Z"/>
          </g>
        </g>
        <path class="st0" d="M579.8,490.8c-1.9,0-3.9-.7-5.3-2.2-3-2.9-3.1-7.8-.1-10.8l165.4-169.6c2.9-3,7.8-3.1,10.8-.1,3,2.9,3.1,7.8.1,10.8l-165.4,169.6c-1.5,1.5-3.5,2.3-5.5,2.3Z"/>
        <path class="st0" d="M359.9,710.6c-2,0-3.9-.7-5.4-2.2-3-3-3-7.8,0-10.8l64.8-64.8c3-3,7.8-3,10.8,0,3,3,3,7.8,0,10.8l-64.8,64.8c-1.5,1.5-3.5,2.2-5.4,2.2Z"/>
        <path class="st2" d="M283.8,811.1c-1.1,0-2.3-.2-3.3-.8-3.8-1.8-5.4-6.4-3.5-10.2l26.9-55.5c1.8-3.8,6.4-5.4,10.2-3.5,3.8,1.8,5.4,6.4,3.5,10.2l-26.9,55.5c-1.3,2.7-4,4.3-6.9,4.3Z"/>
        <path class="st2" d="M763,806.6c-3.2,0-6.2-2.1-7.3-5.3l-5.8-18c-1.3-4,.9-8.3,4.9-9.6,4-1.3,8.3.9,9.6,4.9l5.8,18c1.3,4-.9,8.3-4.9,9.6-.8.3-1.6.4-2.4.4Z"/>
      </g>
      <g>
        <g>
          <g>
            <g>
              <path class="st2" d="M143,552.3c-3.2,0-6.4-1.3-8.6-4-4.1-4.7-3.5-11.9,1.2-15.9,27.5-23.5,55.9-47.9,106-47.9s11.3,5.1,11.3,11.3-5.1,11.3-11.3,11.3c-41.7,0-64.7,19.7-91.3,42.5-2.1,1.8-4.7,2.7-7.3,2.7Z"/>
              <path class="st2" d="M340.2,552.3c-2.6,0-5.2-.9-7.3-2.7-26.6-22.8-49.6-42.5-91.3-42.5s-11.3-5.1-11.3-11.3,5.1-11.3,11.3-11.3c50.1,0,78.5,24.4,106,47.9,4.7,4.1,5.3,11.2,1.2,15.9-2.2,2.6-5.4,4-8.6,4Z"/>
            </g>
            <g>
              <path class="st2" d="M241.6,597.5c-50.1,0-78.5-24.4-106-47.9-4.7-4.1-5.3-11.2-1.2-15.9,4.1-4.7,11.2-5.3,15.9-1.2,26.6,22.8,49.6,42.5,91.3,42.5s11.3,5.1,11.3,11.3-5.1,11.3-11.3,11.3Z"/>
              <path class="st2" d="M241.6,598.3c-6.7,0-12.1-5.4-12.1-12.1s5.4-12.1,12.1-12.1c41.4,0,64.3-19.6,90.8-42.3,5.1-4.3,12.7-3.7,17,1.3,4.3,5.1,3.7,12.7-1.3,17-27.6,23.6-56.2,48.1-106.5,48.1Z"/>
            </g>
          </g>
          <path class="st2" d="M241.6,592.4c-29.7,0-53.9-24.2-53.9-53.9s24.2-53.9,53.9-53.9,53.9,24.2,53.9,53.9-24.2,53.9-53.9,53.9ZM241.6,507.1c-17.3,0-31.3,14.1-31.3,31.3s14.1,31.3,31.3,31.3,31.3-14.1,31.3-31.3-14.1-31.3-31.3-31.3Z"/>
        </g>
        <g>
          <g>
            <g>
              <path class="st2" d="M631,552.3c-3.2,0-6.4-1.3-8.6-4-4.1-4.7-3.5-11.9,1.2-15.9,27.5-23.5,55.9-47.9,106-47.9s11.3,5.1,11.3,11.3-5.1,11.3-11.3,11.3c-41.7,0-64.7,19.7-91.3,42.5-2.1,1.8-4.7,2.7-7.3,2.7Z"/>
              <path class="st2" d="M828.3,552.3c-2.6,0-5.2-.9-7.3-2.7-26.6-22.8-49.6-42.5-91.3-42.5s-11.3-5.1-11.3-11.3,5.1-11.3,11.3-11.3c50.1,0,78.5,24.4,106,47.9,4.7,4.1,5.3,11.2,1.2,15.9-2.2,2.6-5.4,4-8.6,4Z"/>
            </g>
            <g>
              <path class="st2" d="M729.7,597.5c-50.1,0-78.5-24.4-106-47.9-4.7-4.1-5.3-11.2-1.2-15.9,4.1-4.7,11.2-5.3,15.9-1.2,26.6,22.8,49.6,42.5,91.3,42.5s11.3,5.1,11.3,11.3-5.1,11.3-11.3,11.3Z"/>
              <path class="st2" d="M729.7,597.5c-6.2,0-11.3-5.1-11.3-11.3s5.1-11.3,11.3-11.3c41.7,0,64.7-19.7,91.3-42.5,4.7-4.1,11.9-3.5,15.9,1.2,4.1,4.7,3.5,11.9-1.2,15.9-27.5,23.5-55.9,47.9-106,47.9Z"/>
            </g>
          </g>
          <path class="st2" d="M729.7,592.4c-29.7,0-53.9-24.2-53.9-53.9s24.2-53.9,53.9-53.9,53.9,24.2,53.9,53.9-24.2,53.9-53.9,53.9ZM729.7,507.1c-17.3,0-31.3,14.1-31.3,31.3s14.1,31.3,31.3,31.3,31.3-14.1,31.3-31.3-14.1-31.3-31.3-31.3Z"/>
        </g>
      </g>
      <g>
        <path class="st2" d="M485.6,385.6c-3.8,0-7.3-1.9-9.4-5l-70.3-104c-2.3-3.5-2.6-7.9-.6-11.6,2-3.7,5.8-6,10-6h27.5l-.9-49.3c0-3,1.1-6,3.2-8.1,2.1-2.2,5-3.4,8.1-3.4h63.2c6.2,0,11.2,4.9,11.3,11.1l.9,49.7h27.3c4.2,0,8,2.3,10,6,2,3.7,1.7,8.2-.6,11.6l-70.3,104c-2.1,3.1-5.6,5-9.4,5ZM436.6,281.6l49,72.5,49-72.5h-17.1c-6.2,0-11.2-4.9-11.3-11.1l-.9-49.7h-40.5l.9,49.3c0,3-1.1,6-3.2,8.1s-5,3.4-8.1,3.4h-17.8Z"/>
        <path class="st2" d="M516.4,883.8h-63.2c-3,0-5.9-1.2-8.1-3.4-2.1-2.2-3.3-5.1-3.2-8.1l.9-49.3h-27.5c-4.2,0-8-2.3-10-6-2-3.7-1.7-8.2.6-11.6l70.3-104c2.1-3.1,5.6-5,9.4-5s7.3,1.9,9.4,5l70,103.5c1.4,1.9,2.3,4.3,2.3,6.8,0,6.2-5.1,11.3-11.3,11.3,0,0,0,0,0,0h-27.3l-.9,49.7c-.1,6.2-5.1,11.1-11.3,11.1ZM464.8,861.2h40.5l.9-49.7c.1-6.2,5.1-11.1,11.3-11.1h17.1l-49-72.5-49,72.5h17.8c3,0,5.9,1.2,8.1,3.4,2.1,2.2,3.3,5.1,3.2,8.1l-.9,49.3Z"/>
      </g>
    </g>
    <path class="st2" d="M240.2,557.7c-6.2,0-11.3-5.1-11.3-11.3s4.3-10.5,9.9-11.2c.7-5.6,5.4-9.9,11.2-9.9s11.3,5.1,11.3,11.3c0,11.7-9.5,21.2-21.2,21.2Z"/>
    <path class="st2" d="M724.7,554.7c-6.2,0-11.3-5.1-11.3-11.3s4.3-10.5,9.9-11.2c.7-5.6,5.4-9.9,11.2-9.9s11.3,5.1,11.3,11.3c0,11.7-9.5,21.2-21.2,21.2Z"/>
  </g>
</svg>