<svg xmlns="http://www.w3.org/2000/svg" xmlns:xlink="http://www.w3.org/1999/xlink" width="116" height="95" viewBox="0 0 116 95"><defs><linearGradient id="a" x1="50%" x2="50%" y1="139.747%" y2="13.049%"><stop offset="0%" stop-color="#FFF"/><stop offset="2%" stop-color="#F4F4F4"/><stop offset="18%" stop-color="#B5B5B5"/><stop offset="34%" stop-color="#7E7E7E"/><stop offset="49%" stop-color="#515151"/><stop offset="64%" stop-color="#2D2D2D"/><stop offset="78%" stop-color="#141414"/><stop offset="90%" stop-color="#050505"/><stop offset="100%"/></linearGradient><path id="b" d="M50.17,24.5891258 C50.17,38.4491258 48.64,62.9491258 25.09,62.9491258 C1.54,62.9491258 0,38.4491258 0,24.5891258 C0.272728113,10.9302385 11.4233902,2.84217094e-14 25.085,2.84217094e-14 C38.7466098,2.84217094e-14 49.8972719,10.9302385 50.17,24.5891258 L50.17,24.5891258 Z"/></defs><g fill="none" fill-rule="evenodd" transform="translate(18)"><path stroke="#064672" stroke-linecap="round" stroke-linejoin="round" stroke-width="2" d="M40.66,20.22 C40.66,20.22 38.95,10.62 47.52,5.64"/><circle cx="48.97" cy="4.31" r="4.31" fill="#064672" fill-rule="nonzero"/><path fill="#064672" fill-rule="nonzero" d="M51.37,0.74 C51.8541662,1.45027472 52.1121317,2.29040561 52.11,3.15 C52.108805,4.74308498 51.228939,6.20559138 49.8220602,6.95299574 C48.4151815,7.70040009 46.7107576,7.61079764 45.39,6.72 C46.3747722,8.13389627 48.1070138,8.82541045 49.7947495,8.47838444 C51.4824852,8.13135843 52.8013584,6.81248525 53.1483844,5.12474953 C53.4954105,3.43701381 52.8038963,1.70477217 51.39,0.72 L51.37,0.74 Z" opacity=".5" style="mix-blend-mode:multiply"/><path fill="#064672" fill-rule="nonzero" d="M46.56,7.89 C46.0758338,7.17972528 45.8178683,6.33959439 45.82,5.48 C45.82,3.09965273 47.7496527,1.17 50.13,1.17 C50.9895944,1.16786832 51.8297253,1.42583382 52.54,1.91 C51.5552278,0.496103726 49.8229862,-0.19541045 48.1352505,0.15161556 C46.4475148,0.498641571 45.1286416,1.81751475 44.7816156,3.50525047 C44.4345895,5.19298619 45.1261037,6.92522783 46.54,7.91 L46.56,7.89 Z" opacity=".5" style="mix-blend-mode:screen"/><g fill="#F9F9F9" fill-rule="nonzero" opacity=".3" style="mix-blend-mode:screen" transform="translate(45.84 1.11)"><circle cx="1.62" cy="1.62" r="1.62"/><circle cx="3.45" cy="3.68" r="1"/></g><path fill="#064672" fill-rule="nonzero" d="M52.97,87.95 C52.97,89.23 47.46,94.95 40.66,94.95 C33.86,94.95 28.35,89.24 28.35,87.95 C28.35,86.66 33.86,85.62 40.66,85.62 C47.46,85.62 52.97,86.66 52.97,87.95 Z"/><ellipse cx="40.66" cy="87.95" fill="#064672" fill-rule="nonzero" opacity=".5" rx="12.31" ry="2.33" style="mix-blend-mode:multiply"/><ellipse cx="40.66" cy="87.95" fill="#001B21" fill-rule="nonzero" rx="8.51" ry="1.2"/><path fill="#001B21" fill-rule="nonzero" d="M57.19,68.46 C57.19,75.87 53.02,85.28 40.71,85.28 C28.4,85.28 24.19,75.87 24.19,68.46 C24.19,61.05 31.57,52.18 40.67,52.18 C49.77,52.18 57.19,61.09 57.19,68.46 Z"/><path fill="#064672" fill-rule="nonzero" d="M65.74,43.36 C65.74,57.22 64.21,81.72 40.66,81.72 C17.11,81.72 15.57,57.22 15.57,43.36 C15.8427281,29.7011127 26.9933902,18.7708742 40.655,18.7708742 C54.3166098,18.7708742 65.4672719,29.7011127 65.74,43.36 L65.74,43.36 Z"/><path fill="#064672" fill-rule="nonzero" d="M19.67,47.45 C19.6706427,37.8318783 25.1717198,29.0613084 33.8303422,24.8736451 C42.4889646,20.6859817 52.779793,21.8189411 60.32,27.79 C53.6894939,19.4275384 42.4946107,16.1745937 32.4151517,19.6815697 C22.3356927,23.1885457 15.577745,32.6878721 15.57,43.36 C15.57,53.69 16.43,69.94 26.63,77.54 C20.28,69.15 19.67,56.19 19.67,47.45 Z" opacity=".5" style="mix-blend-mode:screen"/><path fill="#064672" fill-rule="nonzero" d="M55.79,23.36 C59.0909281,27.7128428 60.875224,33.0270942 60.87,38.49 C60.87,52.35 59.34,76.85 35.79,76.85 C30.04,76.85 25.62,75.39 22.2,72.98 C25.91,78.16 31.68,81.72 40.66,81.72 C64.21,81.72 65.7400283,57.22 65.7400283,43.36 C65.7518143,35.4998548 62.066309,28.0918039 55.79,23.36 Z" opacity=".5" style="mix-blend-mode:multiply"/><circle cx="42.75" cy="39.71" r="14.81" fill="#064672" fill-rule="nonzero" opacity=".5" style="mix-blend-mode:multiply"/><circle cx="40.85" cy="37.81" r="14.81" fill="#3278A8" fill-rule="nonzero"/><path fill="#5698C4" fill-rule="nonzero" d="M27.19,38.94 C27.1852196,33.0956092 30.6224934,27.7964972 35.961025,25.4180506 C41.2995565,23.039604 47.538038,24.0279298 51.88,27.94 C48.2167803,23.8902268 42.6201131,22.1884704 37.3225738,23.5135812 C32.0250344,24.8386919 27.8886919,28.9750344 26.5635812,34.2725738 C25.2384704,39.5701131 26.9402268,45.1667803 30.99,48.83 C28.543016,46.1172214 27.1890477,42.5933406 27.19,38.94 L27.19,38.94 Z"/><path fill="#1C5780" fill-rule="nonzero" d="M54.53,36.68 C54.5347804,42.5243908 51.0975066,47.8235028 45.758975,50.2019494 C40.4204435,52.580396 34.181962,51.5920702 29.84,47.68 C33.5032197,51.7297732 39.0998869,53.4315296 44.3974262,52.1064188 C49.6949656,50.7813081 53.8313081,46.6449656 55.1564188,41.3474262 C56.4815296,36.0498869 54.7797732,30.4532197 50.73,26.79 C53.176984,29.5027786 54.5309523,33.0266594 54.53,36.68 L54.53,36.68 Z"/><circle cx="42.09" cy="39.05" r="11.4" fill="#064672" fill-rule="nonzero" opacity=".5" style="mix-blend-mode:multiply"/><circle cx="40.85" cy="37.81" r="11.4" fill="#D1D3D4" fill-rule="nonzero"/><path fill="#F9F9F9" fill-rule="nonzero" d="M31.29,39.65 C31.2888607,35.2745219 33.7921249,31.2844582 37.7321525,29.3815676 C41.67218,27.4786771 46.3536813,27.9987595 49.78,30.72 C47.0688229,27.2430857 42.5957911,25.6412658 38.2937771,26.6067138 C33.9917631,27.5721618 30.6321618,30.9317631 29.6667138,35.2337771 C28.7012658,39.5357911 30.3030857,44.0088229 33.78,46.72 C32.1733108,44.7133131 31.2954119,42.2206445 31.29,39.65 Z"/><path fill="#B5B7B8" fill-rule="nonzero" d="M50.41,35.97 C50.4152693,40.3473194 47.9115301,44.3403786 43.9690071,46.2423421 C40.0264841,48.1443056 35.3428007,47.6186239 31.92,44.89 C34.6311771,48.3669143 39.1042089,49.9687342 43.4062229,49.0032862 C47.7082369,48.0378382 51.0678382,44.6782369 52.0332862,40.3762229 C52.9987342,36.0742089 51.3969143,31.6011771 47.92,28.89 C49.5253199,30.9013109 50.4029013,33.3966028 50.41,35.97 Z"/><circle cx="40.85" cy="37.81" r="6.04" fill="#001B21" fill-rule="nonzero"/><path fill="url(#a)" fill-rule="nonzero" d="M40.85,39.09 C44.8072916,39.1404279 48.7023768,38.102661 52.11,36.09 C51.2621314,30.5263328 46.4779014,26.4159545 40.85,26.4159545 C35.2220986,26.4159545 30.4378686,30.5263328 29.59,36.09 C32.9976232,38.102661 36.8927084,39.1404279 40.85,39.09 Z" style="mix-blend-mode:screen"/><g fill="#F9F9F9" fill-rule="nonzero" opacity=".7" style="mix-blend-mode:screen" transform="translate(33.68 28.43)"><circle cx="3.41" cy="3.41" r="3.41"/><circle cx="7.27" cy="7.76" r="1.14"/></g><g transform="translate(15.57 18.77)"><mask id="c" fill="#fff"><use xlink:href="#b"/></mask><g mask="url(#c)"><g transform="translate(-2.71 28.89)"><path stroke="#064672" d="M0.64,1.00007029 C1.84385589,0.338489768 3.19634611,-0.00565532538 4.57,0 C9.41401719,0.136377943 13.2408141,4.15518444 13.14,9.00007029 C13.145902,10.661761 12.7074292,12.2948131 11.87,13.7300703 C11.1204393,14.9418403 10.8628341,16.3944473 11.15,17.7900703 C11.5352552,19.6800292 12.0395942,21.5437453 12.66,23.3700703 C13.1019176,24.5350398 13.6509358,25.6565098 14.3,26.7200703 C14.8610733,27.6657051 15.7456044,28.3761718 16.79,28.7200703 L16.79,28.7200703 C18.2606803,29.1914666 19.3908621,30.3781574 19.79,31.8700703 C20.1836703,33.27169 20.864783,34.5760207 21.79,35.7000703" opacity=".5" style="mix-blend-mode:screen"/><ellipse cx="4.57" cy="9.02" fill="#001B21" fill-rule="nonzero" rx="4.57" ry="5.03"/><path stroke="#064672" d="M54.96,1.00007029 C53.7561441,0.338489768 52.4036539,-0.00565532538 51.03,0 C46.1859828,0.136377943 42.3591859,4.15518444 42.46,9.00007029 C42.454098,10.661761 42.8925708,12.2948131 43.73,13.7300703 C44.4795607,14.9418403 44.7371659,16.3944473 44.45,17.7900703 C44.0553546,19.6777916 43.5511687,21.5409423 42.94,23.3700703 C42.4980824,24.5350398 41.9490642,25.6565098 41.3,26.7200703 C40.7389267,27.6657051 39.8543956,28.3761718 38.81,28.7200703 L38.81,28.7200703 C37.3393197,29.1914666 36.2091379,30.3781574 35.81,31.8700703 C35.4163297,33.27169 34.735217,34.5760207 33.81,35.7000703" opacity=".5" style="mix-blend-mode:screen"/><ellipse cx="51.03" cy="9.02" fill="#001B21" fill-rule="nonzero" rx="4.57" ry="5.03"/></g></g></g><ellipse cx="64.55" cy="56.61" fill="#3278A8" fill-rule="nonzero" rx="3.56" ry="3.91"/><ellipse cx="65.92" cy="56.61" fill="#064672" fill-rule="nonzero" rx="3.56" ry="3.91"/><path fill="#064672" fill-rule="nonzero" d="M64.06,57.22 C63.47,55.71 63.56,54.22 64.27,53.89 C64.98,53.56 66.17,54.48 66.93,55.89 C67.69,57.3 67.62,58.83 66.73,59.23 C65.84,59.63 64.64,58.73 64.06,57.22 Z"/><path fill="#3278A8" fill-rule="nonzero" d="M64.61,56.97 C63.99,55.47 64.06,53.97 64.77,53.67 C65.48,53.37 66.65,54.16 67.46,55.58 C68.27,57 68.23,58.58 67.33,58.95 C66.43,59.32 65.19,58.47 64.61,56.97 Z"/><path fill="#064672" fill-rule="nonzero" d="M65.77,56.43 C65.08,54.94 65.14,53.55 65.77,53.15 C66.4,52.75 67.66,53.56 68.53,54.93 C69.4,56.3 69.42,57.81 68.53,58.31 C67.64,58.81 66.45,57.88 65.77,56.43 Z"/><path fill="#3278A8" fill-rule="nonzero" d="M66.33,56.18 C66.0092305,55.5595495 65.8250992,54.8775815 65.79,54.18 C65.713913,53.7036156 65.8921186,53.2220811 66.26,52.91 C66.92,52.52 68.19,53.31 69.09,54.65 C69.99,55.99 70.03,57.5 69.17,58 C68.6932234,58.2365492 68.1235533,58.1822949 67.7,57.86 C67.1032146,57.4305677 66.6305771,56.850983 66.33,56.18 Z"/><path fill="#064672" fill-rule="nonzero" d="M67.46,55.58 C66.68,54.15 66.59,52.68 67.25,52.3 C67.91,51.92 69.15,52.56 70.13,53.87 C71.11,55.18 71.25,56.74 70.4,57.25 C69.55,57.76 68.19,57 67.46,55.58 Z"/><path fill="#3278A8" fill-rule="nonzero" d="M67.98,55.27 C67.17,53.86 67.07,52.43 67.71,52.01 C68.35,51.59 69.62,52.24 70.62,53.51 C71.62,54.78 71.77,56.31 70.97,56.89 C70.17,57.47 68.78,56.67 67.98,55.27 Z"/><path fill="#064672" fill-rule="nonzero" d="M69.09,54.62 C68.23,53.27 68.01,51.78 68.62,51.34 C69.0527206,51.1272267 69.5654373,51.1576099 69.97,51.42 C70.6083637,51.7275941 71.1715719,52.1713338 71.62,52.72 C72.1205483,53.2579902 72.4661059,53.9214607 72.62,54.64 C72.7438711,55.1611204 72.5617691,55.7074264 72.15,56.05 C71.32,56.63 69.97,56.01 69.09,54.62 Z"/><path fill="#3278A8" fill-rule="nonzero" d="M69.58,54.27 C68.68,52.93 68.44,51.47 69.05,51.02 C69.66,50.57 70.96,51.1 72.05,52.31 C72.5415569,52.8426461 72.8861653,53.493956 73.05,54.2 C73.2125631,54.721878 73.0517744,55.2905209 72.64,55.65 C71.87,56.24 70.48,55.62 69.58,54.27 Z"/><path fill="#064672" fill-rule="nonzero" d="M70.62,53.51 C69.62,52.2 69.39,50.83 69.92,50.3 C70.45,49.77 71.87,50.3 73.02,51.45 C74.17,52.6 74.52,54.06 73.77,54.73 C73.02,55.4 71.58,54.8 70.62,53.51 Z"/><path fill="#3278A8" fill-rule="nonzero" d="M71.11,53.16 C70.11,51.9 69.76,50.45 70.32,49.94 C70.7356735,49.7046823 71.2443265,49.7046823 71.66,49.94 C72.3281081,50.1786516 72.9357243,50.5609719 73.44,51.06 C73.9785765,51.5512749 74.378601,52.1754511 74.6,52.87 C74.7694144,53.3785108 74.6465748,53.9389663 74.28,54.33 C73.54,54.95 72.12,54.45 71.11,53.16 Z"/><path fill="#064672" fill-rule="nonzero" d="M72.07,52.31 C71,51.09 70.61,49.7 71.15,49.18 C71.69,48.66 73.06,49.02 74.3,50.06 C75.54,51.1 76,52.56 75.3,53.3 C74.6,54.04 73.13,53.53 72.07,52.31 Z"/><path fill="#3278A8" fill-rule="nonzero" d="M72.52,51.91 C71.42,50.7 71.03,49.36 71.52,48.78 C72.01,48.2 73.46,48.6 74.73,49.61 C76,50.62 76.48,52.05 75.81,52.8 C75.14,53.55 73.61,53.09 72.52,51.91 Z"/><path fill="#064672" fill-rule="nonzero" d="M73.44,51.01 C72.29,49.88 71.75,48.5 72.26,47.95 C72.77,47.4 74.15,47.63 75.48,48.58 C76.81,49.53 77.4,50.97 76.75,51.73 C76.1,52.49 74.6,52.15 73.44,51.01 Z"/><path fill="#3278A8" fill-rule="nonzero" d="M73.85,50.56 C72.66,49.45 72.13,48.12 72.6,47.56 C73.07,47 74.5,47.2 75.84,48.12 C77.18,49.04 77.78,50.42 77.18,51.22 C76.58,52.02 75.02,51.66 73.85,50.56 Z"/><path fill="#064672" fill-rule="nonzero" d="M74.71,49.61 C73.47,48.61 72.82,47.23 73.27,46.61 C73.72,45.99 75.14,46.15 76.54,47 C77.94,47.85 78.66,49.24 78.04,50 C77.42,50.76 75.96,50.66 74.71,49.61 Z"/><path fill="#3278A8" fill-rule="nonzero" d="M75.07,49.09 C73.81,48.09 73.14,46.76 73.59,46.16 C74.04,45.56 75.44,45.65 76.85,46.47 C78.26,47.29 78.99,48.63 78.44,49.47 C77.89,50.31 76.34,50.14 75.07,49.09 Z"/><path fill="#064672" fill-rule="nonzero" d="M75.84,48.09 C75.2513925,47.6912335 74.7566118,47.1691546 74.39,46.56 C73.9039894,46.2645277 73.7495277,45.6310106 74.045,45.145 C74.3404723,44.6589894 74.9739894,44.5045277 75.46,44.8 C76.1611899,44.844003 76.8440591,45.042035 77.46,45.38 C78.112817,45.7020432 78.6709789,46.1878508 79.08,46.79 C79.3861908,47.2299994 79.4246494,47.8030314 79.18,48.28 C78.8734494,48.7164762 78.3481625,48.9443581 77.82,48.87 C77.1027361,48.7892676 76.4196114,48.5201579 75.84,48.09 L75.84,48.09 Z"/><path fill="#3278A8" fill-rule="nonzero" d="M76.19,47.6 C74.85,46.69 74.07,45.43 74.47,44.78 C74.87,44.13 76.28,44.13 77.75,44.85 C79.22,45.57 80.08,46.85 79.55,47.71 C79.02,48.57 77.53,48.51 76.19,47.6 Z"/><path fill="#064672" fill-rule="nonzero" d="M76.85,46.51 C75.46,45.66 74.69,44.51 75.01,43.78 C75.33,43.05 76.84,43.06 78.31,43.69 C79.78,44.32 80.68,45.57 80.23,46.46 C79.78,47.35 78.19,47.34 76.85,46.51 Z"/><path fill="#3278A8" fill-rule="nonzero" d="M77.19,45.99 C75.8,45.19 74.93,43.99 75.27,43.3 C75.61,42.61 77.04,42.52 78.56,43.13 C80.08,43.74 81.01,44.97 80.56,45.85 C80.11,46.73 78.59,46.8 77.19,45.99 Z"/><path fill="#064672" fill-rule="nonzero" d="M77.75,44.85 C76.3,44.1 75.45,42.98 75.75,42.26 C76.05,41.54 77.52,41.4 79.05,41.94 C80.58,42.48 81.52,43.65 81.15,44.56 C80.78,45.47 79.19,45.58 77.75,44.85 Z"/><path fill="#3278A8" fill-rule="nonzero" d="M78.02,44.3 C77.3733525,44.010016 76.799446,43.5795797 76.34,43.04 C75.95,42.57 75.78,42.12 75.93,41.76 C76.23,41.05 77.67,40.86 79.2,41.36 C80.73,41.86 81.76,43.03 81.38,43.94 C81.1417118,44.415848 80.6619032,44.7229255 80.13,44.74 C79.4001544,44.7822038 78.6721479,44.630392 78.02,44.3 Z"/><path fill="#064672" fill-rule="nonzero" d="M78.54,43.09 C77.04,42.45 76.09,41.37 76.34,40.64 C76.59,39.91 78.04,39.64 79.6,40.1 C81.16,40.56 82.18,41.65 81.88,42.58 C81.58,43.51 80.02,43.76 78.54,43.09 Z"/><path fill="#3278A8" fill-rule="nonzero" d="M78.76,42.57 C77.26,41.96 76.29,40.91 76.51,40.16 C76.73,39.41 78.2,39.16 79.76,39.56 C81.32,39.96 82.4,41.06 82.09,41.99 C81.78,42.92 80.27,43.17 78.76,42.57 Z"/><path fill="#064672" fill-rule="nonzero" d="M79.19,41.36 C77.66,40.83 76.63,39.8 76.85,39.06 C77.07,38.32 78.48,37.97 80.06,38.31 C81.64,38.65 82.74,39.7 82.5,40.64 C82.26,41.58 80.73,41.9 79.19,41.36 Z"/><path fill="#3278A8" fill-rule="nonzero" d="M79.39,40.79 C77.84,40.28 76.82,39.29 76.99,38.52 C77.16,37.75 78.62,37.4 80.2,37.72 C81.78,38.04 82.92,39.06 82.67,40 C82.42,40.94 80.92,41.29 79.39,40.79 Z"/><path fill="#064672" fill-rule="nonzero" d="M79.76,39.56 C78.19,39.12 77.09,38.15 77.27,37.39 C77.45,36.63 78.84,36.2 80.44,36.46 C82.04,36.72 83.19,37.7 83.01,38.64 C82.83,39.58 81.31,39.99 79.76,39.56 Z"/><path fill="#3278A8" fill-rule="nonzero" d="M79.91,38.97 C78.33,38.56 77.25,37.62 77.38,36.85 C77.51,36.08 78.94,35.63 80.53,35.85 C82.12,36.07 83.33,37.04 83.13,37.99 C82.93,38.94 81.46,39.37 79.91,38.97 Z"/><path fill="#064672" fill-rule="nonzero" d="M80.19,37.72 C78.6,37.37 77.45,36.47 77.58,35.72 C77.71,34.97 79.09,34.45 80.7,34.62 C82.31,34.79 83.51,35.7 83.38,36.62 C83.25,37.54 81.78,38.09 80.19,37.72 Z"/><path fill="#3278A8" fill-rule="nonzero" d="M80.31,37.09 C78.72,36.78 77.57,35.9 77.67,35.09 C77.77,34.28 79.15,33.79 80.77,33.94 C82.39,34.09 83.63,34.94 83.48,35.94 C83.33,36.94 81.9,37.44 80.31,37.09 Z"/><path fill="#064672" fill-rule="nonzero" d="M80.53,35.86 C78.92,35.6 77.74,34.76 77.82,33.97 C77.9,33.18 79.26,32.62 80.87,32.71 C82.48,32.8 83.75,33.65 83.66,34.6 C83.57,35.55 82.13,36.09 80.53,35.86 Z"/><path fill="#3278A8" fill-rule="nonzero" d="M80.62,35.26 C79.01,35.03 77.81,34.26 77.87,33.42 C77.93,32.58 79.28,32.03 80.87,32.1 C82.46,32.17 83.78,33 83.68,33.95 C83.58,34.9 82.19,35.49 80.62,35.26 Z"/><path fill="#064672" fill-rule="nonzero" d="M80.77,33.99 C79.14,33.81 77.93,32.99 77.96,32.24 C77.99,31.49 79.33,30.81 80.96,30.82 C82.59,30.83 83.89,31.62 83.83,32.57 C83.77,33.52 82.37,34.16 80.77,33.99 Z"/><path fill="#3278A8" fill-rule="nonzero" d="M80.82,33.38 C79.22,33.24 77.95,32.48 77.99,31.68 C78.03,30.88 79.33,30.23 80.99,30.21 C82.65,30.19 83.92,30.96 83.88,31.92 C83.84,32.88 82.45,33.53 80.82,33.38 Z"/><path fill="#D1D3D4" fill-rule="nonzero" d="M88.35,24.42 C88.35,25.71 85.04,31.42 80.96,31.42 C76.88,31.42 73.57,25.72 73.57,24.42 C73.57,23.12 76.88,22.09 80.96,22.09 C85.04,22.09 88.35,23.09 88.35,24.42 Z"/><path fill="#B5B7B8" fill-rule="nonzero" d="M80.96,22.09 C76.88,22.09 73.57,23.09 73.57,24.42 C73.5842022,24.6187293 73.6280193,24.814221 73.7,25 C74.0016735,25.4291829 74.3900397,25.7902954 74.84,26.06 C75.86695,26.6074847 76.9916988,26.947288 78.15,27.06 C78.89,27.17 79.63,27.23 80.37,27.27 C80.9372378,27.2490383 81.5017218,27.358514 82.02,27.59 C82.4970947,27.8352787 82.6956577,28.4133178 82.47,28.9 C82.1811859,29.535137 81.6174561,30.0030695 80.94,30.17 C79.8278743,30.4800663 78.6521257,30.4800663 77.54,30.17 C78.5104429,30.9586302 79.710471,31.4112724 80.96,31.46 C85.04,31.46 88.35,25.76 88.35,24.46 C88.35,23.16 85.04,22.09 80.96,22.09 Z"/><ellipse cx="80.96" cy="24.42" fill="#F0F0F0" fill-rule="nonzero" rx="7.39" ry="2.33"/><path fill="#E8E8E8" fill-rule="nonzero" d="M78.3,23.57 C78.3,23.89 77.46,24.16 76.42,24.16 C75.38,24.16 74.55,23.89 74.55,23.57 C74.55,23.25 75.39,19.88 76.42,19.88 C77.45,19.88 78.3,23.24 78.3,23.57 Z"/><path fill="#D1D3D4" fill-rule="nonzero" d="M76.93,20.14 C76.93,20.29 76.99,20.43 77.01,20.57 C77.0703002,21.7371113 76.506937,22.8486117 75.53,23.49 C75.3009432,23.6494778 75.0477022,23.7710335 74.78,23.85 C75.2957094,24.0775744 75.8568059,24.1836353 76.42,24.16 C77.42,24.16 78.3,23.89 78.3,23.57 C78.1080864,22.3379144 77.6397117,21.1652682 76.93,20.14 L76.93,20.14 Z"/><path fill="#E8E8E8" fill-rule="nonzero" d="M87.46,23.57 C87.46,23.89 86.62,24.16 85.58,24.16 C84.54,24.16 83.71,23.89 83.71,23.57 C83.71,23.25 84.55,19.88 85.58,19.88 C86.61,19.88 87.46,23.24 87.46,23.57 Z"/><path fill="#D1D3D4" fill-rule="nonzero" d="M86.09,20.14 C86.09,20.29 86.15,20.43 86.17,20.57 C86.2303002,21.7371113 85.666937,22.8486117 84.69,23.49 C84.4609432,23.6494778 84.2077022,23.7710335 83.94,23.85 C84.4557094,24.0775744 85.0168059,24.1836353 85.58,24.16 C86.58,24.16 87.46,23.89 87.46,23.57 C87.2680864,22.3379144 86.7997117,21.1652682 86.09,20.14 Z"/><path fill="#D1D3D4" fill-rule="nonzero" d="M80.96,25.2 C77.96,25.2 76.27,24.5 75.96,24.14 C76.29,23.79 77.96,20.98 80.96,20.98 C83.96,20.98 85.64,23.79 85.96,24.14 C85.64,24.5 83.97,25.2 80.96,25.2 Z"/><path fill="#B5B7B8" fill-rule="nonzero" d="M83.29,21.6 C82.9887924,22.5678086 82.2468783,23.3356897 81.29,23.67 C79.647852,24.4087823 77.7941066,24.5295244 76.07,24.01 C76.0376223,24.0567876 76.0007831,24.1003247 75.96,24.14 C76.29,24.5 77.96,25.2 80.96,25.2 C83.96,25.2 85.64,24.5 85.96,24.14 C85.2562786,23.1169051 84.3469184,22.2518209 83.29,21.6 L83.29,21.6 Z"/><path fill="#064672" fill-rule="nonzero" d="M83.51,21.72 C82.7460442,21.2394602 81.8625173,20.9830642 80.96,20.98 C80.0545395,20.9843892 79.1681555,21.2406096 78.4,21.72 C79.1681555,22.1993904 80.0545395,22.4556108 80.96,22.46 C81.8625173,22.4569358 82.7460442,22.2005398 83.51,21.72 Z"/><path fill="#064672" fill-rule="nonzero" d="M82.95,21.42 C81.6207092,22.1965772 79.9949415,22.2713251 78.6,21.62 L78.4,21.72 C79.1681555,22.1993904 80.0545395,22.4556108 80.96,22.46 C81.8625173,22.4569358 82.7460442,22.2005398 83.51,21.72 C83.3287622,21.6101809 83.1418335,21.5100405 82.95,21.42 L82.95,21.42 Z" opacity=".5" style="mix-blend-mode:multiply"/><rect width="32.49" height="18.72" x="65.35" y="5.43" fill="#D1D3D4" fill-rule="nonzero"/><polygon fill="#B5B7B8" fill-rule="nonzero" points="80.56 14.8 65.35 24.16 65.35 5.43"/><polygon fill="#E8E8E8" fill-rule="nonzero" points="77.56 14.8 65.35 24.16 65.35 5.43"/><polygon fill="#B5B7B8" fill-rule="nonzero" points="82.63 14.8 97.84 24.16 97.84 5.43"/><polygon fill="#B5B7B8" fill-rule="nonzero" points="81.6 19.22 65.35 5.43 97.84 5.43"/><polygon fill="#F0F0F0" fill-rule="nonzero" points="81.6 16.5 65.35 5.43 97.84 5.43"/><path fill="#E8E8E8" fill-rule="nonzero" d="M82.83,25.83 C82.83,26.16 81.99,26.43 80.96,26.43 C79.93,26.43 79.09,26.16 79.09,25.83 C79.09,25.5 79.92,22.15 80.96,22.15 C82,22.15 82.83,25.51 82.83,25.83 Z"/><path fill="#D1D3D4" fill-rule="nonzero" d="M81.46,22.41 C81.5010804,22.5502733 81.5278832,22.6943382 81.54,22.84 C81.6071274,24.0058331 81.0416977,25.11759 80.06,25.75 C79.8380476,25.9152714 79.58703,26.0373881 79.32,26.11 C79.8342618,26.3421995 80.3964654,26.4484697 80.96,26.42 C81.96,26.42 82.83,26.16 82.83,25.83 C82.635969,24.60158 82.1677122,23.4326471 81.46,22.41 Z"/><ellipse cx="16.77" cy="56.61" fill="#3278A8" fill-rule="nonzero" rx="3.56" ry="3.91"/><ellipse cx="15.4" cy="56.61" fill="#064672" fill-rule="nonzero" rx="3.56" ry="3.91"/><path fill="#064672" fill-rule="nonzero" d="M17.26,56 C17.54,57.6 17.5,59 17.15,59.1 C16.95,59.1 16.67,58.94 16.3,58.53 C15.8314853,58.0076448 15.4285035,57.4300375 15.1,56.81 C14.7448295,56.2007089 14.5424003,55.5145083 14.51,54.81 C14.51,54.21 14.73,53.71 15.16,53.6 C16.04,53.3 16.98,54.41 17.26,56 Z"/><path fill="#3278A8" fill-rule="nonzero" d="M16.84,56.09 C17.21,57.68 17.22,59.03 16.84,59.15 C16.46,59.27 15.54,58.34 14.67,56.98 C13.8,55.62 13.74,54.14 14.55,53.74 C15.0426288,53.6099906 15.5648655,53.7919822 15.87,54.2 C16.3425114,54.7415464 16.6755058,55.3903707 16.84,56.09 L16.84,56.09 Z"/><path fill="#064672" fill-rule="nonzero" d="M15.94,56.4 C16.48,57.89 16.68,59.31 16.35,59.47 C16.02,59.63 15.84,59.38 15.41,59.05 C14.8637175,58.612196 14.3703821,58.1121486 13.94,57.56 C13.4900466,57.0028613 13.1751616,56.3491327 13.02,55.65 C12.92,55.06 13.02,54.55 13.46,54.36 C14.27,53.94 15.38,54.85 15.94,56.4 Z"/><path fill="#3278A8" fill-rule="nonzero" d="M15.54,56.59 C16.17,58.08 16.43,59.43 16.1,59.59 C15.77,59.75 14.66,59.04 13.59,57.82 C12.52,56.6 12.22,55.17 12.93,54.65 C13.64,54.13 14.91,55.09 15.54,56.59 Z"/><path fill="#064672" fill-rule="nonzero" d="M14.71,57.02 C15.5,58.4 15.91,59.74 15.6,60.02 C15.29,60.3 14.1,59.65 12.91,58.51 C12.3865177,58.0238026 11.979713,57.4255605 11.72,56.76 C11.4864804,56.3208624 11.5766801,55.7796643 11.94,55.44 C12.64,54.85 13.89,55.59 14.71,57.02 Z"/><path fill="#3278A8" fill-rule="nonzero" d="M14.34,57.26 C15.21,58.62 15.68,59.93 15.34,60.16 C15,60.39 13.8,59.85 12.58,58.78 C11.36,57.71 10.84,56.35 11.45,55.78 C12.06,55.21 13.46,55.89 14.34,57.26 Z"/><path fill="#064672" fill-rule="nonzero" d="M13.59,57.82 C14.0376839,58.3579112 14.4172231,58.9490519 14.72,59.58 C14.96,60.1 15.05,60.48 14.89,60.64 C14.57,60.92 13.31,60.48 12.01,59.5 C10.71,58.52 10.01,57.2 10.63,56.61 C11.0017406,56.3055578 11.5226952,56.2618135 11.94,56.5 C12.5863645,56.8037801 13.1517442,57.2560839 13.59,57.82 Z"/><path fill="#3278A8" fill-rule="nonzero" d="M13.26,58.09 C14.33,59.3 14.97,60.55 14.66,60.85 C14.35,61.15 13.07,60.77 11.74,59.85 C10.41,58.93 9.74,57.63 10.24,57 C10.74,56.37 12.19,56.9 13.26,58.09 Z"/><path fill="#064672" fill-rule="nonzero" d="M12.6,58.78 C13.116644,59.2496038 13.5704052,59.7840336 13.95,60.37 C14.24,60.86 14.37,61.24 14.22,61.44 C14.07,61.64 13.67,61.62 13.13,61.44 C12.4543745,61.2538725 11.810529,60.9673444 11.22,60.59 C9.83,59.75 9.02,58.53 9.52,57.88 C9.8567234,57.5522176 10.3568829,57.4576993 10.79,57.64 C11.4715535,57.8787029 12.0903141,58.2684195 12.6,58.78 L12.6,58.78 Z"/><path fill="#3278A8" fill-rule="nonzero" d="M12.3,59.09 C13.53,60.15 14.3,61.32 14.02,61.69 C13.74,62.06 12.41,61.81 11.02,61 C9.63,60.19 8.76,59 9.23,58.34 C9.7,57.68 11.08,58.09 12.3,59.09 Z"/><path fill="#064672" fill-rule="nonzero" d="M11.74,59.86 C13.04,60.86 13.85,61.86 13.61,62.35 C13.37,62.84 11.97,62.55 10.53,61.83 C9.09,61.11 8.19,59.97 8.59,59.3 C8.99,58.63 10.45,58.89 11.74,59.86 Z"/><path fill="#3278A8" fill-rule="nonzero" d="M11.47,60.21 C12.8,61.12 13.69,62.21 13.47,62.66 C13.25,63.11 11.86,62.94 10.38,62.23 C8.9,61.52 7.95,60.42 8.38,59.75 C8.81,59.08 10.13,59.28 11.47,60.21 Z"/><path fill="#064672" fill-rule="nonzero" d="M10.99,61.02 C12.39,61.87 13.27,62.85 13.06,63.34 C12.85,63.83 11.44,63.7 9.94,63.08 C8.44,62.46 7.49,61.4 7.81,60.72 C8.13,60.04 9.62,60.18 10.99,61.02 Z"/><path fill="#3278A8" fill-rule="nonzero" d="M10.77,61.4 C12.17,62.19 13.12,63.2 12.9,63.69 C12.68,64.18 11.28,64.09 9.78,63.49 C8.28,62.89 7.26,61.86 7.59,61.18 C7.92,60.5 9.34,60.59 10.77,61.4 Z"/><path fill="#064672" fill-rule="nonzero" d="M10.34,62.23 C11.8,62.96 12.77,63.92 12.57,64.41 C12.37,64.9 10.97,64.9 9.44,64.41 C7.91,63.92 6.88,62.88 7.15,62.19 C7.42,61.5 8.9,61.51 10.34,62.23 Z"/><path fill="#3278A8" fill-rule="nonzero" d="M10.19,62.63 C11.66,63.33 12.65,64.26 12.47,64.78 C12.29,65.3 10.86,65.29 9.33,64.78 C7.8,64.27 6.75,63.3 7.01,62.62 C7.27,61.94 8.69,61.94 10.19,62.63 Z"/><path fill="#064672" fill-rule="nonzero" d="M9.78,63.49 C11.27,64.11 12.33,65.03 12.13,65.49 C11.93,65.95 10.57,66.09 9.01,65.63 C7.45,65.17 6.36,64.23 6.59,63.55 C6.82,62.87 8.28,62.87 9.78,63.49 Z"/><path fill="#3278A8" fill-rule="nonzero" d="M9.62,63.9 C11.13,64.51 12.17,65.38 12.01,65.9 C11.85,66.42 10.44,66.52 8.88,66.08 C7.32,65.64 6.22,64.73 6.44,64.08 C6.66,63.43 8.12,63.31 9.62,63.9 Z"/><path fill="#064672" fill-rule="nonzero" d="M9.29,64.78 C10.82,65.32 11.93,66.19 11.76,66.72 C11.59,67.25 10.22,67.4 8.64,67 C7.06,66.6 5.91,65.74 6.13,65.05 C6.35,64.36 7.76,64.25 9.29,64.78 Z"/><path fill="#3278A8" fill-rule="nonzero" d="M9.19,65.2 C10.73,65.72 11.83,66.56 11.67,67.1 C11.51,67.64 10.14,67.81 8.56,67.43 C6.98,67.05 5.84,66.2 6.02,65.52 C6.2,64.84 7.62,64.69 9.19,65.2 Z"/><path fill="#064672" fill-rule="nonzero" d="M8.88,66.09 C10.42,66.55 11.57,67.36 11.43,67.92 C11.29,68.48 9.9,68.67 8.32,68.34 C6.74,68.01 5.55,67.18 5.74,66.5 C5.93,65.82 7.31,65.64 8.88,66.09 Z"/><path fill="#3278A8" fill-rule="nonzero" d="M8.76,66.53 C10.32,66.96 11.47,67.77 11.33,68.32 C11.19,68.87 9.83,69.1 8.23,68.78 C6.63,68.46 5.45,67.66 5.62,66.97 C5.79,66.28 7.19,66.09 8.76,66.53 Z"/><path fill="#064672" fill-rule="nonzero" d="M8.53,67.43 C10.1,67.83 11.25,68.59 11.15,69.16 C11.05,69.73 9.64,69.97 8.05,69.7 C6.46,69.43 5.26,68.65 5.4,67.96 C5.54,67.27 6.96,67.09 8.53,67.43 Z"/><path fill="#3278A8" fill-rule="nonzero" d="M8.42,67.86 C9.99,68.23 11.18,69 11.07,69.56 C10.96,70.12 9.58,70.4 7.98,70.14 C6.38,69.88 5.16,69.14 5.31,68.43 C5.46,67.72 6.84,67.49 8.42,67.86 Z"/><path fill="#064672" fill-rule="nonzero" d="M8.19,68.78 C9.78,69.11 10.95,69.84 10.87,70.42 C10.79,71 9.4,71.28 7.79,71.06 C6.18,70.84 4.97,70.11 5.08,69.42 C5.19,68.73 6.65,68.45 8.19,68.78 Z"/><path fill="#3278A8" fill-rule="nonzero" d="M8.19,69.22 C9.78,69.53 10.98,70.22 10.89,70.82 C10.8,71.42 9.43,71.71 7.82,71.5 C6.21,71.29 4.98,70.58 5.1,69.89 C5.22,69.2 6.55,68.9 8.19,69.22 Z"/><path fill="#064672" fill-rule="nonzero" d="M7.98,70.14 C9.58,70.41 10.79,71.14 10.71,71.68 C10.63,72.22 9.27,72.6 7.71,72.43 C6.15,72.26 4.86,71.57 4.94,70.88 C5.02,70.19 6.38,69.86 7.98,70.14 Z"/><path fill="#3278A8" fill-rule="nonzero" d="M7.91,70.58 C9.51,70.83 10.72,71.51 10.66,72.09 C10.6,72.67 9.22,73.03 7.61,72.87 C6,72.71 4.75,72.04 4.83,71.35 C4.91,70.66 6.31,70.32 7.91,70.58 Z"/><path fill="#064672" fill-rule="nonzero" d="M7.77,71.5 C9.38,71.72 10.62,72.38 10.55,72.96 C10.48,73.54 9.15,73.96 7.55,73.81 C5.95,73.66 4.67,73.03 4.73,72.35 C4.79,71.67 6.19,71.28 7.77,71.5 Z"/><path fill="#3278A8" fill-rule="nonzero" d="M7.72,71.94 C9.33,72.15 10.56,72.79 10.51,73.37 C10.46,73.95 9.11,74.37 7.51,74.25 C5.91,74.13 4.63,73.5 4.69,72.82 C4.75,72.14 6.12,71.74 7.72,71.94 Z"/><path fill="#064672" fill-rule="nonzero" d="M7.61,72.87 C9.22,73.04 10.49,73.66 10.44,74.25 C10.39,74.84 9.07,75.25 7.44,75.18 C5.81,75.11 4.53,74.5 4.58,73.81 C4.63,73.12 6,72.7 7.61,72.87 Z"/><path fill="#3278A8" fill-rule="nonzero" d="M7.57,73.31 C9.19,73.47 10.45,74.07 10.41,74.66 C10.37,75.25 9.04,75.66 7.41,75.66 C5.78,75.66 4.5,75 4.54,74.31 C4.58,73.62 5.96,73.16 7.57,73.31 Z"/><path fill="#064672" fill-rule="nonzero" d="M7.49,74.25 C9.11,74.37 10.39,74.94 10.36,75.53 C10.33,76.12 9.03,76.53 7.36,76.53 C5.69,76.53 4.42,75.95 4.46,75.25 C4.5,74.55 5.87,74.09 7.49,74.25 Z"/><path fill="#3278A8" fill-rule="nonzero" d="M7.47,74.69 C9.09,74.79 10.37,75.35 10.35,75.94 C10.33,76.53 9.01,77 7.35,77.01 C5.69,77.02 4.43,76.46 4.44,75.76 C4.45,75.06 5.85,74.59 7.47,74.69 Z"/><path fill="#D1D3D4" fill-rule="nonzero" d="M14.78,82.8 C14.78,81.51 11.47,75.8 7.39,75.8 C3.31,75.8 0.01,81.5 0.01,82.8 C0.01,84.1 3.31,85.13 7.39,85.13 C11.47,85.13 14.78,84.09 14.78,82.8 Z"/><path fill="#B5B7B8" fill-rule="nonzero" d="M7.39,85.09 C3.31,85.09 0.01,84.09 0.01,82.76 C0.0197598899,82.5616236 0.0602414381,82.3659628 0.13,82.18 C0.43167346,81.7508171 0.820039687,81.3897046 1.27,81.12 C2.29694996,80.5725153 3.42169877,80.232712 4.58,80.12 C5.32,80.01 6.06,79.95 6.81,79.91 C7.37399984,79.9308547 7.93521086,79.8213501 8.45,79.59 C8.92709468,79.3447213 9.12565772,78.7666822 8.9,78.28 C8.61328115,77.6472002 8.05369307,77.1796496 7.38,77.01 C6.26787426,76.6999337 5.09212574,76.6999337 3.98,77.01 C4.94809641,76.2240139 6.14407673,75.7715756 7.39,75.72 C11.47,75.72 14.78,81.42 14.78,82.72 C14.78,84.02 11.47,85.09 7.39,85.09 Z"/><ellipse cx="7.39" cy="82.8" fill="#F0F0F0" fill-rule="nonzero" rx="7.39" ry="2.33"/><path fill="#E8E8E8" fill-rule="nonzero" d="M4.73,83.66 C4.73,83.33 3.89,83.06 2.86,83.06 C1.83,83.06 0.99,83.33 0.99,83.66 C0.99,83.99 1.82,87.34 2.86,87.34 C3.9,87.34 4.73,83.98 4.73,83.66 Z"/><path fill="#D1D3D4" fill-rule="nonzero" d="M3.36,87.09 C3.36,86.95 3.42,86.8 3.44,86.66 C3.50445853,85.4920117 2.94010282,84.3785531 1.96,83.74 C1.73529728,83.5816444 1.48495945,83.4632414 1.22,83.39 C1.73281419,83.1524924 2.29551546,83.042697 2.86,83.07 C3.86,83.07 4.73,83.34 4.73,83.67 C4.53596901,84.89842 4.06771224,86.0673529 3.36,87.09 Z"/><path fill="#E8E8E8" fill-rule="nonzero" d="M13.89,83.66 C13.89,83.33 13.05,83.06 12.02,83.06 C10.99,83.06 10.15,83.33 10.15,83.66 C10.15,83.99 10.98,87.34 12.02,87.34 C13.06,87.34 13.89,83.98 13.89,83.66 Z"/><path fill="#D1D3D4" fill-rule="nonzero" d="M12.52,87.09 C12.8587293,85.7856355 12.2861232,84.4154709 11.12,83.74 C10.8952973,83.5816444 10.6449595,83.4632414 10.38,83.39 C10.8928142,83.1524924 11.4555155,83.042697 12.02,83.07 C13.02,83.07 13.89,83.34 13.89,83.67 C13.695969,84.89842 13.2277122,86.0673529 12.52,87.09 L12.52,87.09 Z"/><path fill="#D1D3D4" fill-rule="nonzero" d="M7.39,82.03 C4.39,82.03 2.71,82.72 2.39,83.08 C2.72,83.43 4.39,86.24 7.39,86.24 C10.39,86.24 12.08,83.43 12.39,83.08 C12.08,82.72 10.4,82.03 7.39,82.03 Z"/><path fill="#B5B7B8" fill-rule="nonzero" d="M9.73,85.62 C9.42324073,84.6554931 8.6833877,83.8897452 7.73,83.55 C6.08807359,82.8103278 4.23400238,82.6895645 2.51,83.21 L2.41,83.08 C2.74,82.72 4.41,82.03 7.41,82.03 C10.41,82.03 12.1,82.72 12.41,83.08 C11.7051923,84.1056817 10.7919858,84.9711834 9.73,85.62 L9.73,85.62 Z"/><path fill="#064672" fill-rule="nonzero" d="M9.95,85.5 C9.18184455,85.9793904 8.2954605,86.2356108 7.39,86.24 C6.48748268,86.2369358 5.60395577,85.9805398 4.84,85.5 C5.60395577,85.0194602 6.48748268,84.7630642 7.39,84.76 C8.2954605,84.7643892 9.18184455,85.0206096 9.95,85.5 Z"/><path fill="#064672" fill-rule="nonzero" d="M9.38,85.8 C8.66142413,85.3873535 7.84860149,85.166927 7.02,85.16 C6.32975073,85.1638653 5.64813998,85.3138197 5.02,85.6 L4.83,85.5 C5.59395577,85.0194602 6.47748268,84.7630642 7.38,84.76 C8.2854605,84.7643892 9.17184455,85.0206096 9.94,85.5 C9.75972334,85.6114957 9.57269673,85.7116885 9.38,85.8 L9.38,85.8 Z" opacity=".5" style="mix-blend-mode:multiply"/><path fill="#E8E8E8" fill-rule="nonzero" d="M9.27,81.39 C9.27,81.06 8.43,80.8 7.39,80.8 C6.35,80.8 5.52,81.06 5.52,81.39 C5.52,81.72 6.36,85.07 7.39,85.07 C8.42,85.07 9.27,81.71 9.27,81.39 Z"/><path fill="#D1D3D4" fill-rule="nonzero" d="M7.89,84.81 C8.26696146,83.508477 7.6890405,82.1198036 6.5,81.47 C6.27555753,81.3027526 6.02087812,81.1805065 5.75,81.11 C6.26426177,80.8778005 6.82646541,80.7715303 7.39,80.8 C8.39,80.8 9.27,81.06 9.27,81.39 C9.07163161,82.6188796 8.60004774,83.7875875 7.89,84.81 Z"/><path fill="#3278A8" fill-rule="nonzero" d="M27.24,43.61 C29.5585806,49.0741613 34.9192714,52.6228143 40.855,52.6228143 C46.7907286,52.6228143 52.1514194,49.0741613 54.47,43.61 C54.47,43.61 49.78,41.77 40.85,41.77 C31.92,41.77 27.24,43.61 27.24,43.61 Z"/><path fill="#5698C4" fill-rule="nonzero" d="M28.63,44.56 C28.63,44.56 33.32,42.73 42.25,42.73 C46.2904581,42.6697726 50.3223505,43.1200006 54.25,44.07 C54.32,43.91 54.4,43.76 54.47,43.61 C54.54,43.46 49.78,41.77 40.85,41.77 C31.92,41.77 27.24,43.61 27.24,43.61 C28.4680309,46.473827 30.5674995,48.8777185 33.24,50.48 C31.2266313,48.9290696 29.6403376,46.892007 28.63,44.56 L28.63,44.56 Z"/><path fill="#1C5780" fill-rule="nonzero" d="M51.19,42.73 C48.923002,46.5164381 45.082569,49.0917295 40.7189722,49.7515905 C36.3553755,50.4114515 31.9252006,49.0868373 28.64,46.14 C31.678933,50.6200685 36.9239799,53.0802682 42.3117304,52.5527524 C47.6994809,52.0252366 52.3677374,48.5944232 54.48,43.61 C53.4079711,43.2312832 52.3079455,42.9370514 51.19,42.73 Z"/></g></svg>