<?xml version="1.0" encoding="UTF-8"?>
<svg id="Layer_1" xmlns="http://www.w3.org/2000/svg" version="1.1" viewBox="0 0 1000 1000">
  <!-- Generator: Adobe Illustrator 29.2.1, SVG Export Plug-In . SVG Version: 2.1.0 Build 116)  -->
  <defs>
    <style>
      .st0 {
        fill: #a0c7de;
      }

      .st1 {
        fill: #e6e1d0;
      }

      .st2 {
        fill: #75b4d3;
      }

      .st3 {
        fill: #3f3f5b;
      }

      .st4, .st5 {
        fill: #fff;
      }

      .st5 {
        stroke: #3f3f5b;
        stroke-miterlimit: 10;
        stroke-width: 11.1px;
      }
    </style>
  </defs>
  <g>
    <circle class="st0" cx="490.4" cy="556.9" r="384.8"/>
    <path class="st3" d="M490.4,172.1c212.5,0,384.8,172.3,384.8,384.8s-172.3,384.8-384.8,384.8S105.7,769.4,105.7,556.9,277.9,172.1,490.4,172.1M490.4,156.9c-220.6,0-400,179.4-400,400s179.4,400,400,400,400-179.4,400-400-179.4-400-400-400h0Z"/>
  </g>
  <g>
    <g>
      <polyline class="st2" points="534 597.3 590.5 650.5 641.8 596 585.2 542.8"/>
      <path class="st3" d="M590.5,659c-2.1,0-4.2-.8-5.8-2.3l-56.6-53.2c-3.4-3.2-3.6-8.6-.4-12,3.2-3.4,8.6-3.6,12-.4l50.4,47.4,39.6-42.1-50.4-47.4c-3.4-3.2-3.6-8.6-.4-12,3.2-3.4,8.6-3.6,12-.4l56.6,53.2c1.6,1.5,2.6,3.7,2.7,5.9,0,2.2-.8,4.4-2.3,6.1l-51.2,54.5c-1.7,1.8-3.9,2.7-6.2,2.7Z"/>
    </g>
    <g>
      <circle class="st4" cx="418.2" cy="437.1" r="194.9"/>
      <path class="st3" d="M418.1,640.5c-51.9,0-101.4-19.6-139.2-55.2-39.6-37.2-62.3-87.6-64-141.9-1.7-54.3,17.9-106,55.1-145.6,19.6-20.8,42.7-37,68.8-48,25.2-10.7,51.9-16.1,79.4-16.1,51.9,0,101.4,19.6,139.2,55.2,81.7,76.8,85.7,205.7,8.9,287.4-19.6,20.8-42.7,37-68.8,48-25.2,10.7-51.9,16.1-79.4,16.1ZM418.2,250.8c-52,0-100.2,20.9-135.8,58.7-34.1,36.3-52,83.7-50.5,133.4,1.5,49.8,22.4,95.9,58.6,130,34.7,32.6,80,50.6,127.6,50.6s100.2-20.9,135.8-58.7c70.4-74.9,66.7-193.1-8.1-263.5-34.7-32.6-80-50.6-127.6-50.6Z"/>
    </g>
    <g>
      <g>
        <circle class="st3" cx="418.2" cy="437.1" r="142.2"/>
        <path class="st3" d="M418.1,587.8c-38.5,0-75.1-14.5-103.2-40.9-29.3-27.6-46.2-64.9-47.4-105.1-1.2-40.2,13.3-78.5,40.8-107.9,28.4-30.2,68.4-47.5,109.8-47.5s75.1,14.5,103.2,40.9c60.5,56.9,63.5,152.5,6.6,213-28.4,30.2-68.4,47.5-109.8,47.5ZM418.2,303.5c-37.3,0-71.9,15-97.4,42.1-24.5,26-37.3,60-36.2,95.7,1.1,35.7,16,68.8,42.1,93.3,24.9,23.4,57.4,36.3,91.5,36.3s71.9-15,97.4-42.1c50.5-53.7,47.9-138.5-5.8-189-24.9-23.4-57.4-36.3-91.5-36.3Z"/>
      </g>
      <path class="st0" d="M438.2,560.5c-4.1,0-7.6-2.9-8.4-7-.8-4.6,2.3-9,6.9-9.8,10.8-1.9,21.1-5.3,30.8-10.3,4.2-2.1,9.3-.5,11.4,3.7,2.1,4.2.5,9.3-3.7,11.4-11.2,5.8-23.2,9.8-35.7,11.9-.5,0-1,.1-1.5.1Z"/>
      <path class="st0" d="M534.7,450c-.1,0-.2,0-.3,0-4.7-.2-8.4-4.1-8.2-8.8.3-7.5-.2-15.1-1.5-22.5-.8-4.6,2.3-9,6.9-9.8,4.6-.8,9,2.3,9.8,6.9,1.5,8.6,2.1,17.4,1.7,26.1-.2,4.6-3.9,8.2-8.5,8.2Z"/>
      <path class="st0" d="M412,562.1c-.1,0-.3,0-.5,0-29.5-1.5-57.6-13.5-79.1-33.8-12.3-11.6-22-25.2-28.8-40.5-1.9-4.3,0-9.3,4.3-11.2,4.3-1.9,9.3,0,11.2,4.3,5.8,13.2,14.2,25,24.8,35,18.6,17.5,42.9,27.9,68.4,29.2,4.7.2,8.3,4.2,8,8.9-.2,4.5-4,8.1-8.5,8.1Z"/>
      <path class="st1" d="M342.8,375.3c-2.2,0-4.4-.8-6.1-2.4-3.6-3.4-3.8-9-.4-12.6,42.4-45.1,113.6-47.3,158.8-4.9,3.6,3.4,3.8,9,.4,12.6-3.4,3.6-9,3.8-12.6.4-37.9-35.7-97.8-33.8-133.5,4.1-1.8,1.9-4.1,2.8-6.5,2.8Z"/>
    </g>
    <g>
      <path class="st2" d="M866.1,756.4l-187.3-176c-6.5-6.1-16.8-5.8-22.9.7l-79.4,84.5c-6.1,6.5-5.8,16.8.7,22.9l187.3,176c6.5,6.1,16.8,5.8,22.9-.7l79.4-84.5c6.1-6.5,5.8-16.8-.7-22.9Z"/>
      <path class="st3" d="M775.6,877.3h0c-6.3,0-12.3-2.4-16.9-6.7l-187.3-176c-4.8-4.5-7.6-10.6-7.8-17.2-.2-6.6,2.2-12.9,6.7-17.7l79.4-84.5c4.7-4.9,11.2-7.8,18-7.8s12.3,2.4,16.9,6.7l187.3,176c4.8,4.5,7.6,10.6,7.8,17.2.2,6.6-2.2,12.9-6.7,17.7l-79.4,84.5c-4.7,4.9-11.2,7.8-18,7.8ZM667.7,584.4c-2.2,0-4.2.9-5.7,2.4l-79.4,84.5c-2.9,3.1-2.8,8,.3,11l187.3,176c1.4,1.4,3.3,2.1,5.3,2.1h0c2.2,0,4.2-.9,5.6-2.4l79.4-84.5c1.4-1.5,2.2-3.5,2.1-5.5,0-2.1-.9-4-2.4-5.4l-187.3-176c-1.4-1.4-3.3-2.1-5.3-2.1Z"/>
    </g>
    <path class="st1" d="M843.8,781.9c-2.1,0-4.2-.8-5.8-2.3l-175.9-165.4c-3.4-3.2-3.6-8.6-.4-12,3.2-3.4,8.6-3.6,12-.4l175.9,165.4c3.4,3.2,3.6,8.6.4,12-1.7,1.8-3.9,2.7-6.2,2.7Z"/>
    <path class="st5" d="M205.4,570.7c-4.4,0-8.6-2.3-10.9-6.3-22-38.6-33.6-82.6-33.6-127.2s7-69.6,21-101.9c13.4-31.1,32.6-58.9,57-82.6,5-4.8,12.9-4.7,17.8.2,4.8,5,4.7,12.9-.2,17.8-45.4,44.1-70.3,103.2-70.3,166.5s10.5,80,30.3,114.8c3.4,6,1.3,13.7-4.7,17.1-2,1.1-4.1,1.6-6.2,1.6Z"/>
    <path class="st5" d="M418.2,694.5c-58.2,0-113.1-18.9-158.8-54.8-5.5-4.3-6.4-12.2-2.1-17.6,4.3-5.5,12.2-6.4,17.6-2.1,41.2,32.3,90.7,49.4,143.2,49.4s12.6,5.6,12.6,12.6-5.6,12.6-12.6,12.6Z"/>
    <path class="st5" d="M607.9,295.1c-3.6,0-7.3-1.6-9.7-4.6-44.3-54.3-110-85.5-180-85.5s-57.4,5.3-84.2,15.7c-6.5,2.5-13.7-.7-16.3-7.1-2.5-6.5.7-13.7,7.1-16.3,29.7-11.6,61.1-17.4,93.3-17.4,77.6,0,150.3,34.5,199.5,94.8,4.4,5.4,3.6,13.3-1.8,17.7-2.3,1.9-5.1,2.8-7.9,2.8Z"/>
    <path class="st5" d="M249.7,733.2c-2.2,0-4.4-.6-6.4-1.8-50.1-29.8-92-72.2-121.3-122.6-30.2-51.9-46.1-111.3-46.1-171.7s5.6-12.6,12.6-12.6,12.6,5.6,12.6,12.6c0,56,14.8,111,42.7,159.1,27.1,46.7,66,86,112.4,113.6,6,3.5,7.9,11.3,4.4,17.2-2.3,3.9-6.5,6.1-10.8,6.1Z"/>
    <path class="st5" d="M418.2,779.4c-6.9,0-12.6-5.6-12.6-12.6s5.6-12.6,12.6-12.6c43.4,0,85.5-8.6,125-25.6,6.4-2.7,13.8.2,16.5,6.6,2.7,6.4-.2,13.8-6.6,16.5-42.7,18.3-88.1,27.6-134.9,27.6Z"/>
    <path class="st5" d="M734.6,542.6c-1.2,0-2.4-.2-3.5-.5-6.7-2-10.5-8.9-8.5-15.6,8.5-28.9,12.8-58.9,12.8-89.3,0-96.9-43.5-187.3-119.3-247.9-5.4-4.3-6.3-12.2-2-17.7,4.3-5.4,12.2-6.3,17.7-2,81.8,65.4,128.7,162.9,128.7,267.5s-4.6,65.2-13.8,96.4c-1.6,5.5-6.6,9-12,9Z"/>
    <path class="st5" d="M138.4,275.1c-2.3,0-4.6-.6-6.6-1.9-5.9-3.7-7.7-11.4-4-17.3,52.5-83.9,138.4-141,235.7-156.6,18-2.9,36.3-4.3,54.7-4.3,40.9,0,80.9,7.1,118.9,21.2,6.5,2.4,9.8,9.6,7.4,16.1-2.4,6.5-9.6,9.8-16.1,7.4-35.2-13-72.3-19.7-110.2-19.7s-34,1.4-50.7,4c-90.1,14.5-169.7,67.4-218.4,145.1-2.4,3.8-6.5,5.9-10.7,5.9Z"/>
  </g>
</svg>