<?xml version="1.0" encoding="UTF-8"?>
<svg id="Layer_1" xmlns="http://www.w3.org/2000/svg" version="1.1" viewBox="0 0 1000 1000">
  <!-- Generator: Adobe Illustrator 29.2.1, SVG Export Plug-In . SVG Version: 2.1.0 Build 116)  -->
  <defs>
    <style>
      .st0 {
        fill: #a0c7de;
      }

      .st1 {
        fill: #75b4d3;
      }

      .st2 {
        fill: #3f3f5b;
      }

      .st3 {
        fill: #fff;
      }

      .st4 {
        fill: #ea9854;
      }
    </style>
  </defs>
  <g>
    <circle class="st0" cx="490.4" cy="556.9" r="384.8"/>
    <path class="st2" d="M490.4,172.1c212.5,0,384.8,172.3,384.8,384.8s-172.3,384.8-384.8,384.8S105.7,769.4,105.7,556.9,277.9,172.1,490.4,172.1M490.4,156.9c-220.6,0-400,179.4-400,400s179.4,400,400,400,400-179.4,400-400-179.4-400-400-400h0Z"/>
  </g>
  <g>
    <g>
      <g>
        <path class="st3" d="M804.2,280.2H203.2v501.3h587.7c47.7,0,86.8-39.1,86.8-86.8v-275.7l-73.4-138.9Z"/>
        <path class="st2" d="M790.9,790.1H203.2c-4.7,0-8.6-3.8-8.6-8.6v-501.3c0-4.7,3.8-8.6,8.6-8.6h601c3.2,0,6.1,1.8,7.6,4.6l73.4,138.9c.7,1.2,1,2.6,1,4v275.7c0,52.6-42.8,95.4-95.4,95.4ZM211.8,772.9h579.1c43.1,0,78.2-35.1,78.2-78.2v-273.5l-70-132.4H211.8v484.1Z"/>
      </g>
      <g>
        <path class="st0" d="M790.9,164.1h-29v443.9h29c47.7,0,86.8,39,86.8,86.8V250.9c0-47.7-39-86.8-86.8-86.8Z"/>
        <path class="st2" d="M877.6,703.3c-4.7,0-8.6-3.8-8.6-8.6,0-43.1-35.1-78.2-78.2-78.2h-29c-4.7,0-8.6-3.8-8.6-8.6V164.1c0-4.7,3.8-8.6,8.6-8.6h29c52.6,0,95.4,42.8,95.4,95.4v443.9c0,4.7-3.8,8.6-8.6,8.6ZM770.5,599.4h20.4c32.3,0,60.9,16.2,78.2,40.8V250.9c0-43.1-35.1-78.2-78.2-78.2h-20.4v426.7Z"/>
      </g>
      <g>
        <rect class="st2" x="277.6" y="354.1" width="420.7" height="124.8"/>
        <path class="st2" d="M698.3,487.4h-420.7c-4.7,0-8.6-3.8-8.6-8.6v-124.8c0-4.7,3.8-8.6,8.6-8.6h420.7c4.7,0,8.6,3.8,8.6,8.6v124.8c0,4.7-3.8,8.6-8.6,8.6ZM286.2,470.2h403.5v-107.6h-403.5v107.6Z"/>
      </g>
      <g>
        <rect class="st0" x="277.6" y="526.5" width="185.7" height="73.1"/>
        <path class="st2" d="M463.3,608.2h-185.7c-4.7,0-8.6-3.8-8.6-8.6v-73.1c0-4.7,3.8-8.6,8.6-8.6h185.7c4.7,0,8.6,3.8,8.6,8.6v73.1c0,4.7-3.8,8.6-8.6,8.6ZM286.2,591.1h168.5v-56h-168.5v56Z"/>
      </g>
      <path class="st2" d="M463.3,655.9h-185.7c-4.7,0-8.6-3.8-8.6-8.6s3.8-8.6,8.6-8.6h185.7c4.7,0,8.6,3.8,8.6,8.6s-3.8,8.6-8.6,8.6Z"/>
      <path class="st2" d="M463.3,703.6h-185.7c-4.7,0-8.6-3.8-8.6-8.6s3.8-8.6,8.6-8.6h185.7c4.7,0,8.6,3.8,8.6,8.6s-3.8,8.6-8.6,8.6Z"/>
      <g>
        <rect class="st0" x="512.7" y="526.5" width="185.7" height="73.1"/>
        <path class="st2" d="M698.3,608.2h-185.7c-4.7,0-8.6-3.8-8.6-8.6v-73.1c0-4.7,3.8-8.6,8.6-8.6h185.7c4.7,0,8.6,3.8,8.6,8.6v73.1c0,4.7-3.8,8.6-8.6,8.6ZM521.2,591.1h168.5v-56h-168.5v56Z"/>
      </g>
      <path class="st2" d="M698.3,655.9h-185.7c-4.7,0-8.6-3.8-8.6-8.6s3.8-8.6,8.6-8.6h185.7c4.7,0,8.6,3.8,8.6,8.6s-3.8,8.6-8.6,8.6Z"/>
      <path class="st2" d="M698.3,703.6h-185.7c-4.7,0-8.6-3.8-8.6-8.6s3.8-8.6,8.6-8.6h185.7c4.7,0,8.6,3.8,8.6,8.6s-3.8,8.6-8.6,8.6Z"/>
      <path class="st2" d="M841.2,584.8c-4.8,0-8.7-3.9-8.7-8.7V236.6c0-4.8,3.9-8.7,8.7-8.7s8.7,3.9,8.7,8.7v339.4c0,4.8-3.9,8.7-8.7,8.7Z"/>
    </g>
    <g>
      <g>
        <polyline class="st3" points="319.9 569.7 409.3 619.2 393.8 516.5"/>
        <path class="st2" d="M413.9,625.7s0,0-.1,0c-2.5,1.7-5.7,1.9-8.4.4l-89.3-49.6c-3.8-2.1-5.2-7-3.1-10.8,2.1-3.8,7-5.2,10.8-3.1l75.2,41.8-13.1-86.8c-.7-4.3,2.3-8.4,6.7-9,4.3-.7,8.4,2.3,9,6.7l15.5,102.7c.4,2.9-.8,5.9-3.2,7.6Z"/>
      </g>
      <g>
        <polyline class="st2" points="359.2 591.5 409.3 619.2 400.6 561.7"/>
        <path class="st2" d="M414,625.8s0,0-.1,0c-2.5,1.8-5.8,1.9-8.5.4l-50-27.8c-3.9-2.2-5.3-7.1-3.1-11,2.2-3.9,7.1-5.3,11-3.1l35.7,19.8-6.2-41.3c-.7-4.4,2.4-8.5,6.8-9.2,4.4-.7,8.5,2.4,9.2,6.8l8.7,57.5c.5,3-.8,6-3.3,7.8Z"/>
      </g>
      <g>
        <path class="st4" d="M52.6,166.8c-8.2,5.9-10.7,16.3-5.7,23.3l273,379.6,74-53.2L120.9,136.9c-5-7-15.7-7.9-23.9-2l-44.4,31.9Z"/>
        <path class="st2" d="M398.6,523l-74,53.2c-3.6,2.6-8.7,1.8-11.3-1.8L40.3,194.8c-3.8-5.2-5-12.1-3.4-18.7,1.5-6.3,5.4-11.9,10.9-15.9l44.4-31.9c5.5-4,12.1-5.8,18.5-5.3,6.8.6,12.9,3.9,16.6,9.2l273,379.6c1.2,1.7,1.8,3.9,1.4,6-.3,2.1-1.5,4-3.3,5.3ZM321.8,558.4l60.9-43.8L114.3,141.6c-1.4-1.9-3.7-2.4-4.9-2.5-2.6-.2-5.4.6-7.7,2.3l-44.4,31.9c-2.4,1.7-4.1,4.1-4.7,6.6-.3,1.2-.6,3.5.8,5.4l268.3,373Z"/>
      </g>
      <g>
        <path class="st1" d="M52.6,166.8c-8.2,5.9-10.7,16.3-5.7,23.3l273,379.6,74-53.2L120.9,136.9c-5-7-15.7-7.9-23.9-2l-44.4,31.9Z"/>
        <path class="st2" d="M398.5,522.9l-74,53.2c-3.6,2.6-8.5,1.7-11.1-1.8L40.4,194.7c-3.8-5.2-5-12-3.4-18.6,1.5-6.2,5.4-11.8,10.9-15.8l44.4-31.9c5.5-3.9,12-5.8,18.4-5.3,6.8.6,12.8,3.9,16.5,9.1l273,379.6c1.2,1.7,1.7,3.8,1.4,5.9-.3,2.1-1.5,3.9-3.2,5.2ZM321.7,558.6l61.1-43.9L114.4,141.5c-1.4-2-3.7-2.4-5-2.6-2.6-.2-5.4.6-7.8,2.4l-44.4,31.9c-2.4,1.7-4.1,4.1-4.7,6.7-.3,1.2-.6,3.6.8,5.5l268.4,373.1Z"/>
      </g>
      <g>
        <polyline class="st1" points="62.1 211.2 319.9 569.7 344.6 551.9 86.7 193.5"/>
        <path class="st2" d="M349.2,558.4h0l-24.7,17.7c-3.6,2.6-8.5,1.7-11.1-1.8L55.6,215.8c-2.6-3.6-1.7-8.5,1.8-11.1,3.6-2.6,8.5-1.7,11.1,1.8l253.2,352,11.8-8.5L80.3,198.1c-2.6-3.6-1.7-8.5,1.8-11.1s8.5-1.7,11.1,1.8l257.8,358.5c1.2,1.7,1.7,3.8,1.4,5.9-.3,2.1-1.5,3.9-3.2,5.2Z"/>
      </g>
      <g>
        <polyline class="st1" points="111.6 176 369.2 534.2 393.9 516.4 135.9 157.8"/>
        <path class="st2" d="M398.5,522.9l-24.7,17.7c-3.6,2.6-8.5,1.7-11.1-1.8L105.2,180.7c-2.6-3.6-1.7-8.5,1.8-11.1s8.5-1.7,11.1,1.8l253,351.7,11.8-8.5L129.5,162.4c-2.6-3.6-1.7-8.5,1.8-11.1s8.5-1.7,11.1,1.8l258,358.7c1.2,1.7,1.7,3.8,1.4,5.9-.3,2.1-1.5,3.9-3.2,5.2Z"/>
      </g>
      <g>
        <path class="st3" d="M52.6,166.8c-8.2,5.9-10.7,16.3-5.7,23.3l15.2,21.1,74-53.2-15.2-21.1c-5-7-15.7-7.9-23.9-2l-44.4,31.9Z"/>
        <path class="st2" d="M140.7,164.4h0l-74,53.2c-1.7,1.2-3.8,1.7-5.9,1.4-2.1-.3-3.9-1.5-5.2-3.2l-15.2-21.1c-3.8-5.2-5-12-3.4-18.6,1.5-6.2,5.4-11.8,10.9-15.8l44.4-31.9c5.5-3.9,12-5.8,18.4-5.3,6.8.6,12.8,3.9,16.5,9.1l15.2,21.1c1.2,1.7,1.7,3.8,1.4,5.9-.3,2.1-1.5,3.9-3.2,5.2ZM63.9,200.1l61.1-43.9-10.5-14.6c-1.4-2-3.7-2.4-5-2.6-2.6-.2-5.4.6-7.8,2.4l-44.4,31.9c-2.4,1.7-4.1,4.1-4.7,6.7-.3,1.2-.6,3.6.8,5.5l10.5,14.6Z"/>
      </g>
      <g>
        <line class="st4" x1="400.6" y1="567.7" x2="366.2" y2="592.4"/>
        <path class="st2" d="M405.3,574.2l-34.4,24.7c-3.6,2.6-8.7,1.8-11.3-1.8s-1.8-8.7,1.8-11.3l34.4-24.7c3.6-2.6,8.7-1.8,11.3,1.8,2.6,3.6,1.8,8.7-1.8,11.3Z"/>
      </g>
    </g>
  </g>
</svg>