<svg xmlns="http://www.w3.org/2000/svg" xmlns:xlink="http://www.w3.org/1999/xlink" width="116" height="99" viewBox="0 0 116 99"><defs><path id="b" d="M50.1650212,25.5908742 C50.1650212,39.4408742 48.6350212,63.9508742 25.0750212,63.9508742 C1.51502121,63.9508742 0.00502121024,39.4408742 0.00502121024,25.5908742 C-0.176307745,16.5094791 4.5648115,8.03923803 12.4007005,3.44538773 C20.2365895,-1.14846258 29.9434529,-1.14846258 37.7793419,3.44538773 C45.6152309,8.03923803 50.3563502,16.5094791 50.1750212,25.5908742 L50.1650212,25.5908742 Z"/><path id="d" d="M25.52,45.42 C15.05,45.42 7.38,41.69 3.35,34.63 C0.35,29.44 2.84217094e-14,23.5 2.84217094e-14,18.92 C2.84217094e-14,8.49 11.45,0 25.52,0 C39.59,0 51.05,8.49 51.05,18.92 C51.05,23.5 50.66,29.44 47.7,34.63 C43.66,41.69 36,45.42 25.52,45.42 Z"/><linearGradient id="a" x1="50%" x2="50%" y1="140.141%" y2="13.443%"><stop offset="0%" stop-color="#FFF"/><stop offset="2%" stop-color="#F4F4F4"/><stop offset="18%" stop-color="#B5B5B5"/><stop offset="34%" stop-color="#7E7E7E"/><stop offset="49%" stop-color="#515151"/><stop offset="64%" stop-color="#2D2D2D"/><stop offset="78%" stop-color="#141414"/><stop offset="90%" stop-color="#050505"/><stop offset="100%"/></linearGradient></defs><g fill="none" fill-rule="evenodd" transform="translate(14)"><path fill="#064672" fill-rule="nonzero" d="M56.64,91.92 C56.64,93.21 51.13,98.92 44.33,98.92 C37.53,98.92 32.02,93.22 32.02,91.92 C32.02,90.62 37.53,89.59 44.33,89.59 C51.13,89.59 56.64,90.64 56.64,91.92 Z"/><ellipse cx="44.33" cy="91.92" fill="#064672" fill-rule="nonzero" opacity=".5" rx="12.31" ry="2.33" style="mix-blend-mode:multiply"/><ellipse cx="44.33" cy="91.92" fill="#001B21" fill-rule="nonzero" rx="8.51" ry="1.2"/><path fill="#001B21" fill-rule="nonzero" d="M60.81,72.43 C60.81,79.84 56.64,89.24 44.33,89.24 C32.02,89.24 27.85,79.84 27.85,72.43 C27.85,65.02 35.23,56.15 44.33,56.15 C53.43,56.15 60.81,65.03 60.81,72.43 Z"/><path fill="#BE1E2D" fill-rule="nonzero" d="M44.33,59.67 C33.86,59.67 26.19,55.94 22.16,48.88 C19.16,43.69 18.81,37.75 18.81,33.17 C18.81,22.74 30.26,14.25 44.33,14.25 C58.4,14.25 69.86,22.74 69.86,33.17 C69.86,37.75 69.47,43.69 66.51,48.88 C62.47,55.94 54.81,59.67 44.33,59.67 Z"/><path fill="#BE1E2D" fill-rule="nonzero" d="M68,34.69 C67.2872565,33.2151137 66.34184,31.8645187 65.2,30.69 C64.6385635,30.1034228 64.0442737,29.5491975 63.42,29.03 C62.8141328,28.6488861 62.2390414,28.2209111 61.7,27.75 C61.42,27.43 60.9,26.84 61.29,26.42 C61.54,26.16 62.2,26.15 62.54,26.15 C62.6960432,26.1302336 62.8539568,26.1302336 63.01,26.15 L63.01,26.15 C62.9535734,25.9357167 62.8834287,25.7252827 62.8,25.52 C62.4461878,24.9878928 62.0029855,24.5210079 61.49,24.14 C60.4098027,23.429117 59.4678241,22.5277993 58.71,21.48 C58.0800175,20.5561812 58.220311,19.3105452 59.04,18.55 C59.2621861,18.3676719 59.5165782,18.2286042 59.79,18.14 C55.0502405,15.5443611 49.7237026,14.2084227 44.32,14.26 C33.32,14.26 23.89,19.47 20.32,26.73 C22.03,27.29 22.18,29.04 21.93,30.6 C21.6,32.71 20.52,34.6 19.93,36.6 C19.6100972,37.6894569 19.3793364,38.8031285 19.24,39.93 C19.6415775,43.0876574 20.6356501,46.141123 22.17,48.93 C26.17,55.99 33.87,59.72 44.34,59.72 C54.81,59.72 62.48,55.99 66.52,48.93 C68.1147864,46.0436316 69.1336595,42.8749362 69.52,39.6 C69.2778549,37.8928731 68.7647312,36.2353488 68,34.69 Z" style="mix-blend-mode:multiply"/><path fill="#064672" fill-rule="nonzero" d="M69.42,47.34 C69.42,61.19 67.89,85.7 44.33,85.7 C20.77,85.7 19.26,61.19 19.26,47.34 C19.078671,38.2586049 23.8197903,29.7883638 31.6556793,25.1945135 C39.4915683,20.6006632 49.1984317,20.6006632 57.0343207,25.1945135 C64.8702097,29.7883638 69.611329,38.2586049 69.43,47.34 L69.42,47.34 Z"/><path fill="#064672" fill-rule="nonzero" d="M23.34,51.43 C23.332702,41.8082481 28.8327961,33.0312013 37.494689,28.8419562 C46.1565819,24.6527111 56.4518773,25.7904624 63.99,31.77 C57.3666495,23.3992689 46.1693396,20.1403492 36.0884411,23.6493943 C26.0075426,27.1584395 19.2540393,36.6658314 19.2599961,47.34 C19.2599961,57.67 20.12,73.92 30.2599961,81.52 C23.95,73.12 23.34,60.16 23.34,51.43 Z" opacity=".5" style="mix-blend-mode:screen"/><path fill="#064672" fill-rule="nonzero" d="M19.76,44.88 C20.28,43.88 20.82,42.81 21.33,41.76 C22.6176145,39.1543188 24.1441538,36.6736925 25.89,34.35 C26.89,33.01 27.89,31.19 29.6,30.74 C30.1139202,30.6396319 30.636371,30.5893963 31.16,30.59 C31.6754558,30.5455622 32.1829994,30.4346421 32.67,30.26 C33.7284608,29.8945676 34.7211685,29.3610717 35.61,28.68 C36.3392069,27.9338016 37.1832316,27.3092234 38.11,26.83 C39.0460451,26.6080548 40.0105163,26.5304924 40.97,26.6 C43.28,26.51 45.37,25.18 47.63,24.81 C49.89,24.44 52.09,25.3 54.16,26.24 C56.3966586,27.1466698 58.5684315,28.2058267 60.66,29.41 C61.2,29.7633333 61.72,30.1233333 62.22,30.49 C62.83,30.89 63.42,31.32 63.99,31.77 C57.5343416,23.5718292 46.675635,20.22967 36.7273896,23.3789469 C26.7791443,26.5282237 19.8218773,35.5103156 19.26,45.93 C19.44,45.58 19.59,45.23 19.76,44.88 Z" style="mix-blend-mode:multiply"/><path fill="#064672" fill-rule="nonzero" d="M59.47,27.33 C62.7647198,31.6746626 64.5486741,36.9773612 64.55,42.43 C64.55,56.28 63.02,80.79 39.46,80.79 C33.72,80.79 29.29,79.32 25.87,76.92 C29.58,82.09 35.35,85.66 44.33,85.66 C67.89,85.66 69.42,61.15 69.42,47.3 C69.4114633,39.4529789 65.729239,32.0626252 59.47,27.33 Z" opacity=".5" style="mix-blend-mode:multiply"/><circle cx="46.42" cy="43.68" r="14.81" fill="#064672" fill-rule="nonzero" opacity=".5" style="mix-blend-mode:multiply"/><circle cx="44.52" cy="41.78" r="14.81" fill="#3278A8" fill-rule="nonzero"/><path fill="#5698C4" fill-rule="nonzero" d="M30.85,42.91 C30.839886,37.0654837 34.2747501,31.7639161 39.6130441,29.3846117 C44.9513381,27.0053072 51.1903322,27.9951876 55.53,31.91 C51.8818342,27.804973 46.2594611,26.0593743 40.9278824,27.3764274 C35.5963037,28.6934805 31.4334805,32.8563037 30.1164274,38.1878824 C28.7993743,43.5194611 30.544973,49.1418342 34.65,52.79 C32.1995325,50.0833415 30.8448365,46.561132 30.85,42.91 Z"/><path fill="#1C5780" fill-rule="nonzero" d="M58.2,40.65 C58.210114,46.4945163 54.7752499,51.7960839 49.4369559,54.1753883 C44.0986619,56.5546928 37.8596678,55.5648124 33.52,51.65 C37.1681658,55.755027 42.7905389,57.5006257 48.1221176,56.1835726 C53.4536963,54.8665195 57.6165195,50.7036963 58.9335726,45.3721176 C60.2506257,40.0405389 58.505027,34.4181658 54.4,30.77 C56.8512999,33.4761464 58.2061245,36.9986903 58.2,40.65 L58.2,40.65 Z"/><circle cx="45.76" cy="43.02" r="11.4" fill="#064672" fill-rule="nonzero" opacity=".5" style="mix-blend-mode:multiply"/><circle cx="44.52" cy="41.78" r="11.4" fill="#D1D3D4" fill-rule="nonzero"/><path fill="#F9F9F9" fill-rule="nonzero" d="M34.96,43.63 C34.9508787,39.2508756 37.4531577,35.254297 41.3964771,33.3498166 C45.3397966,31.4453362 50.025788,31.9702406 53.45,34.7 C50.7388229,31.2230857 46.2657911,29.6212658 41.9637771,30.5867138 C37.6617631,31.5521618 34.3021618,34.9117631 33.3367138,39.2137771 C32.3712658,43.5157911 33.9730857,47.9888229 37.45,50.7 C35.841197,48.6944875 34.9630288,46.201054 34.96,43.63 L34.96,43.63 Z"/><path fill="#B5B7B8" fill-rule="nonzero" d="M54.09,39.94 C54.0991213,44.3191244 51.5968423,48.315703 47.6535229,50.2201834 C43.7102034,52.1246638 39.024212,51.5997594 35.6,48.87 C38.3111771,52.3469143 42.7842089,53.9487342 47.0862229,52.9832862 C51.3882369,52.0178382 54.7478382,48.6582369 55.7132862,44.3562229 C56.6787342,40.0542089 55.0769143,35.5811771 51.6,32.87 C53.2102188,34.8747252 54.0885679,37.3686724 54.09,39.94 L54.09,39.94 Z"/><circle cx="44.52" cy="41.78" r="6.04" fill="#001B21" fill-rule="nonzero"/><path fill="url(#a)" fill-rule="nonzero" d="M44.52,43.02 C48.4772916,43.0704279 52.3723768,42.032661 55.78,40.02 C54.9321314,34.4563328 50.1479014,30.3459545 44.52,30.3459545 C38.8920986,30.3459545 34.1078686,34.4563328 33.26,40.02 C36.6680233,42.0317063 40.5628363,43.0694008 44.52,43.02 L44.52,43.02 Z" style="mix-blend-mode:screen"/><g fill="#F9F9F9" fill-rule="nonzero" opacity=".7" style="mix-blend-mode:screen" transform="translate(37.35 32.41)"><circle cx="3.41" cy="3.41" r="3.41"/><circle cx="7.28" cy="7.75" r="1.14"/></g><g transform="translate(19.255 21.75)"><mask id="c" fill="#fff"><use xlink:href="#b"/></mask><g mask="url(#c)"><g transform="translate(-2.725 29.88)"><path stroke="#064672" d="M0.64,1.00000394 C1.84592969,0.343694832 3.19704404,3.93587962e-06 4.57,3.93587962e-06 C9.42036232,0.125509506 13.2562634,4.14918193 13.15,9.00000394 C13.1541678,10.6659451 12.7121973,12.3026171 11.87,13.740004 C11.1430531,14.9382132 10.8864989,16.3635141 11.15,17.740004 C11.5445083,19.6320369 12.0520854,21.4987184 12.67,23.330004 C13.1088744,24.4945425 13.6545324,25.6159868 14.3,26.680004 C14.8596755,27.6268508 15.7447223,28.3377318 16.79,28.680004 L16.79,28.680004 C18.258654,29.154628 19.3875393,30.3399576 19.79,31.830004 C20.1812856,33.2355887 20.8625727,34.5436597 21.79,35.670004" opacity=".5" style="mix-blend-mode:screen"/><ellipse cx="4.57" cy="9.02" fill="#001B21" fill-rule="nonzero" rx="4.57" ry="5.03"/><path stroke="#064672" d="M54.97,1 C53.7609402,0.342474401 52.4062881,-0.001345919 51.03,0 C46.1835794,0.130911138 42.3536744,4.15298177 42.46,9 C42.4420096,10.6853448 42.8808846,12.3440848 43.73,13.800004 C44.4590066,14.9974629 44.7123594,16.4248025 44.44,17.800004 C44.0534343,19.6929328 43.5491209,21.5598942 42.93,23.390004 C42.4880824,24.5549735 41.9390642,25.6764435 41.29,26.740004 C40.735336,27.6911801 39.8484241,28.4035591 38.8,28.740004 L38.8,28.740004 C37.3333539,29.2178183 36.205745,30.4018077 35.8,31.890004 C35.410104,33.2961366 34.7286729,34.6044843 33.8,35.730004" opacity=".5" style="mix-blend-mode:screen"/><ellipse cx="51.03" cy="9.02" fill="#001B21" fill-rule="nonzero" rx="4.57" ry="5.03"/></g></g></g><ellipse cx="20.44" cy="60.59" fill="#064672" fill-rule="nonzero" rx="3.56" ry="3.91"/><ellipse cx="19.08" cy="60.59" fill="#3278A8" fill-rule="nonzero" rx="3.56" ry="3.91"/><path fill="#064672" fill-rule="nonzero" d="M20.13,60.59 C20.13,62.21 19.71,63.52 19.23,63.52 C18.75,63.52 18.46,62.25 18.31,60.63 C18.16,59.01 18.56,57.68 19.21,57.63 C19.86,57.58 20.12,58.97 20.13,60.59 Z"/><path fill="#3278A8" fill-rule="nonzero" d="M19.78,60.59 C19.792924,61.2895589 19.7019323,61.9871615 19.51,62.6599928 C19.4481456,62.8826231 19.3537972,63.094907 19.23,63.29 C19.15,63.45 19.06,63.53 18.96,63.54 C18.61,63.54 18.16,62.25 17.96,60.6599928 C17.76,59.07 18.13,57.71 18.78,57.6599928 C18.9510408,57.6591312 19.1131003,57.7364778 19.22,57.87 C19.3526178,58.0615091 19.4507598,58.274714 19.51,58.5 C19.7027362,59.1795066 19.7937242,59.8838215 19.78,60.59 L19.78,60.59 Z"/><path fill="#064672" fill-rule="nonzero" d="M19.05,60.6 C19.05,62.22 18.77,63.6 18.41,63.6 C18.05,63.6 17.53,62.41 17.24,60.81 C16.95,59.21 17.24,57.81 17.86,57.76 C18.48,57.71 19.04,58.98 19.05,60.6 Z"/><path fill="#3278A8" fill-rule="nonzero" d="M18.7,60.61 C18.75,62.24 18.5,63.54 18.15,63.61 C17.8,63.68 17.24,62.42 16.89,60.83 C16.54,59.24 16.79,57.88 17.43,57.83 C18.07,57.78 18.65,59 18.7,60.61 Z"/><path fill="#064672" fill-rule="nonzero" d="M17.96,60.66 C18.12,62.27 17.96,63.66 17.6,63.66 C17.24,63.66 16.6,62.55 16.18,60.98 C15.76,59.41 15.89,57.98 16.53,57.89 C17.17,57.8 17.81,59.04 17.96,60.66 Z"/><path fill="#3278A8" fill-rule="nonzero" d="M17.62,60.71 C17.82,62.33 17.69,63.66 17.35,63.71 C17.01,63.76 16.35,62.61 15.84,61.07 C15.33,59.53 15.47,58.13 16.1,57.97 C16.73,57.81 17.42,59.11 17.62,60.71 Z"/><path fill="#064672" fill-rule="nonzero" d="M16.89,60.82 C17.19,62.41 17.16,63.82 16.81,63.87 C16.46,63.92 15.74,62.87 15.15,61.33 C14.56,59.79 14.58,58.33 15.21,58.22 C15.84,58.11 16.59,59.22 16.89,60.82 Z"/><path fill="#3278A8" fill-rule="nonzero" d="M16.56,60.9 C16.9,62.49 16.9,63.84 16.56,63.9 C16.22,63.96 15.45,62.9 14.82,61.42 C14.19,59.94 14.18,58.53 14.82,58.31 C15.46,58.09 16.26,59.32 16.56,60.9 Z"/><path fill="#064672" fill-rule="nonzero" d="M15.84,61.09 C16.28,62.63 16.38,64.01 16.04,64.09 C15.7,64.17 14.88,63.18 14.15,61.71 C13.42,60.24 13.31,58.82 13.93,58.61 C14.55,58.4 15.4,59.52 15.84,61.09 Z"/><path fill="#3278A8" fill-rule="nonzero" d="M15.51,61.2 C16,62.74 16.13,64.1 15.8,64.2 C15.47,64.3 14.6,63.32 13.8,61.89 C13,60.46 12.89,59.06 13.48,58.79 C14.07,58.52 15.02,59.65 15.51,61.2 Z"/><path fill="#064672" fill-rule="nonzero" d="M14.82,61.43 C15.4,62.93 15.62,64.27 15.3,64.43 C14.98,64.59 14.05,63.63 13.2,62.24 C12.35,60.85 12.1,59.44 12.69,59.18 C13.28,58.92 14.26,59.93 14.82,61.43 Z"/><path fill="#3278A8" fill-rule="nonzero" d="M14.5,61.58 C15.13,63.08 15.38,64.42 15.06,64.58 C14.74,64.74 13.79,63.81 12.9,62.45 C12.01,61.09 11.74,59.71 12.3,59.45 C12.86,59.19 13.87,60.09 14.5,61.58 Z"/><path fill="#064672" fill-rule="nonzero" d="M13.84,61.9 C14.56,63.34 14.84,64.65 14.59,64.85 C14.34,65.05 13.27,64.15 12.29,62.85 C11.31,61.55 10.95,60.18 11.51,59.85 C12.07,59.52 13.11,60.43 13.84,61.9 Z"/><path fill="#3278A8" fill-rule="nonzero" d="M13.53,62.06 C14.29,63.49 14.67,64.8 14.36,64.98 C14.05,65.16 13.03,64.34 12.02,63.06 C11.01,61.78 10.6,60.43 11.14,60.06 C11.68,59.69 12.77,60.63 13.53,62.06 Z"/><path fill="#064672" fill-rule="nonzero" d="M12.9,62.43 C13.75,63.81 14.19,65.07 13.9,65.3 C13.61,65.53 12.51,64.72 11.43,63.52 C10.35,62.32 9.85,60.98 10.38,60.6 C10.91,60.22 12.05,61.06 12.9,62.43 Z"/><path fill="#3278A8" fill-rule="nonzero" d="M12.61,62.62 C13.5,63.98 13.99,65.25 13.7,65.46 C13.41,65.67 12.32,64.94 11.19,63.76 C10.06,62.58 9.54,61.27 10.05,60.87 C10.56,60.47 11.71,61.27 12.61,62.62 Z"/><path fill="#064672" fill-rule="nonzero" d="M12.02,63.06 C13.02,64.36 13.54,65.57 13.29,65.83 C13.04,66.09 11.85,65.37 10.67,64.28 C9.49,63.19 8.86,61.89 9.35,61.47 C9.84,61.05 11.04,61.77 12.02,63.06 Z"/><path fill="#3278A8" fill-rule="nonzero" d="M11.74,63.27 C12.74,64.53 13.36,65.76 13.09,66 C12.82,66.24 11.66,65.61 10.43,64.53 C9.2,63.45 8.56,62.2 9.03,61.76 C9.5,61.32 10.72,62 11.74,63.27 Z"/><path fill="#064672" fill-rule="nonzero" d="M11.19,63.76 C12.28,64.97 12.93,66.12 12.71,66.4 C12.49,66.68 11.23,66.08 9.96,65.09 C8.69,64.1 7.96,62.89 8.39,62.41 C8.82,61.93 10.11,62.56 11.19,63.76 Z"/><path fill="#3278A8" fill-rule="nonzero" d="M10.93,64 C12.05,65.16 12.77,66.33 12.53,66.59 C12.29,66.85 11.07,66.33 9.75,65.37 C8.43,64.41 7.66,63.21 8.1,62.74 C8.54,62.27 9.8,62.82 10.93,64 Z"/><path fill="#064672" fill-rule="nonzero" d="M10.43,64.53 C11.63,65.64 12.43,66.72 12.18,67.02 C11.93,67.32 10.68,66.83 9.32,65.97 C7.96,65.11 7.13,63.97 7.52,63.45 C7.91,62.93 9.26,63.43 10.43,64.53 Z"/><path fill="#3278A8" fill-rule="nonzero" d="M10.2,64.79 C11.41,65.85 12.2,66.94 12.02,67.23 C11.84,67.52 10.55,67.1 9.14,66.23 C7.73,65.36 6.86,64.23 7.26,63.75 C7.66,63.27 8.97,63.72 10.2,64.79 Z"/><path fill="#064672" fill-rule="nonzero" d="M9.75,65.37 C11.05,66.37 11.88,67.37 11.75,67.69 C11.62,68.01 10.24,67.69 8.81,66.9 C7.38,66.11 6.45,65.1 6.81,64.55 C7.17,64 8.47,64.43 9.75,65.37 Z"/><path fill="#3278A8" fill-rule="nonzero" d="M9.54,65.65 C10.84,66.59 11.76,67.6 11.54,67.91 C11.32,68.22 10.05,67.91 8.54,67.22 C7.03,66.53 6.1,65.47 6.45,64.92 C6.8,64.37 8.26,64.7 9.54,65.65 Z"/><path fill="#064672" fill-rule="nonzero" d="M9.14,66.27 C10.52,67.14 11.45,68.07 11.31,68.39 C11.17,68.71 9.8,68.48 8.31,67.88 C6.82,67.28 5.8,66.31 6.08,65.72 C6.36,65.13 7.78,65.43 9.14,66.27 Z"/><path fill="#3278A8" fill-rule="nonzero" d="M8.96,66.57 C10.35,67.39 11.34,68.3 11.2,68.63 C11.06,68.96 9.71,68.77 8.2,68.21 C6.69,67.65 5.61,66.69 5.9,66.11 C6.19,65.53 7.56,65.74 8.96,66.57 Z"/><path fill="#064672" fill-rule="nonzero" d="M8.62,67.22 C10.07,67.96 11.09,68.8 10.97,69.13 C10.85,69.46 9.49,69.36 7.97,68.9 C6.45,68.44 5.33,67.56 5.56,66.95 C5.79,66.34 7.18,66.48 8.62,67.22 Z"/><path fill="#3278A8" fill-rule="nonzero" d="M8.47,67.53 C9.93,68.22 10.99,69.04 10.88,69.38 C10.77,69.72 9.41,69.65 7.88,69.23 C6.35,68.81 5.17,67.97 5.41,67.36 C5.65,66.75 7,66.83 8.47,67.53 Z"/><path fill="#064672" fill-rule="nonzero" d="M8.19,68.21 C9.7,68.81 10.8,69.56 10.7,69.9 C10.6,70.24 9.25,70.26 7.7,69.95 C6.15,69.64 4.95,68.86 5.11,68.23 C5.27,67.6 6.69,67.61 8.19,68.21 Z"/><path fill="#3278A8" fill-rule="nonzero" d="M8.07,68.53 C9.59,69.09 10.71,69.81 10.64,70.15 C10.57,70.49 9.19,70.56 7.64,70.29 C6.09,70.02 4.83,69.29 5,68.65 C5.17,68.01 6.55,67.98 8.07,68.53 Z"/><path fill="#064672" fill-rule="nonzero" d="M7.84,69.23 C9.4,69.69 10.59,70.34 10.5,70.69 C10.41,71.04 9.1,71.19 7.5,71.01 C5.9,70.83 4.65,70.18 4.76,69.54 C4.87,68.9 6.26,68.77 7.84,69.23 Z"/><path fill="#3278A8" fill-rule="nonzero" d="M7.76,69.57 C9.34,69.99 10.5,70.57 10.47,70.95 C10.44,71.33 9.05,71.48 7.47,71.36 C5.89,71.24 4.6,70.61 4.7,69.97 C4.8,69.33 6.2,69.16 7.76,69.57 Z"/><path fill="#064672" fill-rule="nonzero" d="M7.6,70.29 C9.19,70.6 10.44,71.14 10.38,71.49 C10.32,71.84 9.03,72.12 7.38,72.09 C5.73,72.06 4.46,71.52 4.51,70.88 C4.56,70.24 6.01,69.97 7.6,70.29 Z"/><path fill="#3278A8" fill-rule="nonzero" d="M7.55,70.63 C9.16,70.9 10.37,71.4 10.37,71.76 C10.37,72.12 9.01,72.42 7.37,72.44 C5.73,72.46 4.46,71.96 4.49,71.31 C4.52,70.66 5.96,70.36 7.55,70.63 Z"/><path fill="#D1D3D4" fill-rule="nonzero" d="M14.78,78.23 C14.78,76.95 11.47,71.23 7.39,71.23 C3.31,71.23 0.01,76.94 0.01,78.23 C0.01,79.52 3.31,80.56 7.39,80.56 C11.47,80.56 14.78,79.52 14.78,78.23 Z"/><path fill="#B5B7B8" fill-rule="nonzero" d="M7.39,80.56 C3.31,80.56 0.01,79.56 0.01,78.23 C0.0209926107,78.0317825 0.0614359846,77.8363062 0.13,77.65 C0.434491459,77.2232836 0.822295014,76.8626943 1.27,76.59 C2.29694996,76.0425153 3.42169877,75.702712 4.58,75.59 C5.32,75.49 6.06,75.42 6.81,75.39 C7.37789682,75.4064097 7.94209896,75.2935692 8.46,75.06 C8.93332392,74.811206 9.12716969,74.2340743 8.9,73.75 C8.60974169,73.1199001 8.05166535,72.6536127 7.38,72.48 C6.26719559,72.1749353 5.09280441,72.1749353 3.98,72.48 C4.94809641,71.6940139 6.14407673,71.2415756 7.39,71.19 C11.47,71.19 14.78,76.9 14.78,78.19 C14.78,79.48 11.47,80.56 7.39,80.56 Z"/><ellipse cx="7.39" cy="78.23" fill="#F0F0F0" fill-rule="nonzero" rx="7.39" ry="2.33"/><path fill="#E8E8E8" fill-rule="nonzero" d="M4.73,79.09 C4.73,78.76 3.89,78.5 2.86,78.5 C1.83,78.5 0.99,78.76 0.99,79.09 C0.99,79.42 1.82,82.77 2.86,82.77 C3.9,82.77 4.73,79.43 4.73,79.09 Z"/><path fill="#D1D3D4" fill-rule="nonzero" d="M3.36,82.51 C3.39709355,82.3688041 3.42383126,82.2250889 3.44,82.08 C3.50500467,80.9146126 2.94008732,79.803863 1.96,79.17 C1.73569491,79.0086329 1.48541037,78.8868729 1.22,78.81 C1.73390878,78.5766832 2.29638619,78.4703612 2.86,78.5 C3.86,78.5 4.73,78.76 4.73,79.09 C4.53596901,80.31842 4.06771224,81.4873529 3.36,82.51 Z"/><path fill="#E8E8E8" fill-rule="nonzero" d="M13.89,79.09 C13.89,78.76 13.05,78.5 12.02,78.5 C10.99,78.5 10.15,78.76 10.15,79.09 C10.15,79.42 10.98,82.77 12.02,82.77 C13.06,82.77 13.89,79.43 13.89,79.09 Z"/><path fill="#D1D3D4" fill-rule="nonzero" d="M12.52,82.51 C12.5570936,82.3688041 12.5838313,82.2250889 12.6,82.08 C12.6650047,80.9146126 12.1000873,79.803863 11.12,79.17 C10.8956949,79.0086329 10.6454104,78.8868729 10.38,78.81 C10.8939088,78.5766832 11.4563862,78.4703612 12.02,78.5 C13.02,78.5 13.89,78.76 13.89,79.09 C13.695969,80.31842 13.2277122,81.4873529 12.52,82.51 Z"/><path fill="#D1D3D4" fill-rule="nonzero" d="M7.39,77.43 C4.39,77.43 2.71,78.13 2.39,78.48 C2.72,78.84 4.39,81.64 7.39,81.64 C10.39,81.64 12.08,78.84 12.39,78.48 C12.08,78.16 10.4,77.43 7.39,77.43 Z"/><path fill="#B5B7B8" fill-rule="nonzero" d="M9.73,81.06 C9.42318311,80.0933049 8.68392461,79.3244761 7.73,78.98 C6.08807359,78.2403278 4.23400238,78.1195645 2.51,78.64 L2.41,78.51 C2.74,78.16 4.41,77.46 7.41,77.46 C10.41,77.46 12.1,78.16 12.41,78.51 C11.7028786,79.536406 10.79027,80.4047463 9.73,81.06 L9.73,81.06 Z"/><path fill="#064672" fill-rule="nonzero" d="M9.95,80.93 C9.18184455,81.4093904 8.2954605,81.6656108 7.39,81.67 C6.48748268,81.6669358 5.60395577,81.4105398 4.84,80.93 C5.60590779,80.4538237 6.48816974,80.1977948 7.39,80.19 C8.29456332,80.2005409 9.17932114,80.4562912 9.95,80.93 L9.95,80.93 Z"/><path fill="#064672" fill-rule="nonzero" d="M9.38,81.23 C8.66117134,80.8191535 7.84795244,80.6020654 7.02,80.6 C6.32891972,80.5962227 5.64568676,80.746534 5.02,81.04 L4.82,80.93 C5.58590779,80.4538237 6.46816974,80.1977948 7.37,80.19 C8.27456332,80.2005409 9.15932114,80.4562912 9.93,80.93 C9.75296243,81.0411334 9.56928533,81.1413209 9.38,81.23 Z" opacity=".5" style="mix-blend-mode:multiply"/><path fill="#E8E8E8" fill-rule="nonzero" d="M9.26,76.82 C9.26,76.49 8.42,76.23 7.38,76.23 C6.34,76.23 5.51,76.49 5.51,76.82 C5.51,77.15 6.35,80.51 7.38,80.51 C8.41,80.51 9.26,77.15 9.26,76.82 Z"/><path fill="#D1D3D4" fill-rule="nonzero" d="M7.9,80.24 C7.9,80.1 7.96,79.96 7.98,79.81 C8.03873845,78.6459398 7.47532407,77.5381453 6.5,76.9 C6.27094324,76.7405222 6.01770221,76.6189665 5.75,76.54 C6.2657094,76.3124256 6.82680585,76.2063647 7.39,76.23 C8.39,76.23 9.27,76.5 9.27,76.82 C9.07764235,78.0488804 8.60924066,79.2181751 7.9,80.24 L7.9,80.24 Z"/><ellipse cx="68.23" cy="60.59" fill="#3278A8" fill-rule="nonzero" rx="3.56" ry="3.91"/><ellipse cx="69.59" cy="60.59" fill="#064672" fill-rule="nonzero" rx="3.56" ry="3.91"/><path fill="#064672" fill-rule="nonzero" d="M68.54,60.59 C68.54,58.97 68.94,57.65 69.45,57.65 C69.96,57.65 70.5,59.02 70.36,60.65 C70.22,62.28 69.8,63.57 69.44,63.54 C69.08,63.51 68.53,62.21 68.54,60.59 Z"/><path fill="#3278A8" fill-rule="nonzero" d="M68.89,60.59 C68.8793974,59.8879428 68.9669096,59.1878456 69.15,58.51 C69.2155245,58.2852542 69.3168219,58.0725298 69.45,57.88 C69.5568997,57.7464778 69.7189592,57.6691312 69.89,57.6699928 C70.53,57.6699928 70.89,59.03 70.7,60.6699928 C70.51,62.31 70.06,63.57 69.7,63.55 C69.61,63.55 69.52,63.46 69.44,63.3 C69.3124456,63.1056433 69.2146963,62.8932914 69.15,62.6699928 C68.9658698,61.9923592 68.8783393,61.2921147 68.89,60.59 L68.89,60.59 Z"/><path fill="#064672" fill-rule="nonzero" d="M69.62,60.6 C69.62,58.98 70.15,57.68 70.8,57.72 C71.45,57.76 71.72,59.18 71.43,60.77 C71.14,62.36 70.61,63.61 70.26,63.56 C69.91,63.51 69.62,62.22 69.62,60.6 Z"/><path fill="#3278A8" fill-rule="nonzero" d="M69.97,60.61 C70.02,59 70.59,57.68 71.23,57.77 C71.87,57.86 72.11,59.24 71.77,60.77 C71.43,62.3 70.87,63.6 70.52,63.55 C70.17,63.5 69.91,62.24 69.97,60.61 Z"/><path fill="#064672" fill-rule="nonzero" d="M70.7,60.66 C70.85,59.04 71.5,57.81 72.14,57.91 C72.78,58.01 72.92,59.45 72.49,61 C72.06,62.55 71.41,63.74 71.06,63.68 C70.71,63.62 70.55,62.27 70.7,60.66 Z"/><path fill="#3278A8" fill-rule="nonzero" d="M71.05,60.71 C71.24,59.11 71.93,57.86 72.56,57.99 C73.19,58.12 73.31,59.54 72.82,61.09 C72.33,62.64 71.66,63.82 71.32,63.73 C70.98,63.64 70.85,62.33 71.05,60.71 Z"/><path fill="#064672" fill-rule="nonzero" d="M71.77,60.82 C72.07,59.22 72.82,58.06 73.45,58.22 C74.08,58.38 74.1,59.83 73.52,61.33 C72.94,62.83 72.2,63.94 71.85,63.87 C71.5,63.8 71.48,62.43 71.77,60.82 Z"/><path fill="#3278A8" fill-rule="nonzero" d="M72.11,60.9 C72.45,59.32 73.25,58.16 73.87,58.34 C74.49,58.52 74.47,59.95 73.87,61.45 C73.27,62.95 72.47,64.06 72.14,63.93 C71.81,63.8 71.76,62.49 72.11,60.9 Z"/><path fill="#064672" fill-rule="nonzero" d="M72.82,61.09 C73.27,59.52 74.13,58.42 74.74,58.65 C75.35,58.88 75.23,60.31 74.51,61.75 C73.79,63.19 72.96,64.23 72.62,64.13 C72.28,64.03 72.38,62.63 72.82,61.09 Z"/><path fill="#3278A8" fill-rule="nonzero" d="M73.15,61.2 C73.64,59.65 74.54,58.57 75.15,58.8 C75.76,59.03 75.6,60.47 74.84,61.9 C74.08,63.33 73.2,64.37 72.84,64.21 C72.48,64.05 72.66,62.74 73.15,61.2 Z"/><path fill="#064672" fill-rule="nonzero" d="M73.84,61.43 C74.43,59.91 75.39,58.89 75.97,59.18 C76.55,59.47 76.31,60.87 75.47,62.24 C74.63,63.61 73.7,64.57 73.37,64.43 C73.04,64.29 73.26,62.95 73.84,61.43 Z"/><path fill="#3278A8" fill-rule="nonzero" d="M74.16,61.58 C74.79,60.09 75.78,59.1 76.36,59.39 C76.94,59.68 76.65,61.09 75.76,62.39 C74.87,63.69 73.91,64.69 73.6,64.52 C73.29,64.35 73.53,63.08 74.16,61.58 Z"/><path fill="#064672" fill-rule="nonzero" d="M74.83,61.9 C75.55,60.44 76.61,59.5 77.15,59.85 C77.69,60.2 77.34,61.56 76.37,62.85 C75.4,64.14 74.37,65.02 74.08,64.85 C73.79,64.68 74.11,63.34 74.83,61.9 Z"/><path fill="#3278A8" fill-rule="nonzero" d="M75.14,62.06 C75.9,60.63 76.97,59.74 77.52,60.06 C78.07,60.38 77.65,61.78 76.65,63.06 C75.65,64.34 74.6,65.18 74.3,64.98 C74,64.78 74.37,63.49 75.14,62.06 Z"/><path fill="#064672" fill-rule="nonzero" d="M75.76,62.43 C76.62,61.05 77.76,60.2 78.27,60.6 C78.78,61 78.27,62.31 77.22,63.52 C76.17,64.73 75.05,65.52 74.75,65.3 C74.45,65.08 74.92,63.82 75.76,62.43 Z"/><path fill="#3278A8" fill-rule="nonzero" d="M76.06,62.62 C76.95,61.27 78.06,60.48 78.62,60.87 C79.18,61.26 78.62,62.6 77.47,63.76 C76.32,64.92 75.24,65.68 74.96,65.46 C74.68,65.24 75.17,63.98 76.06,62.62 Z"/><path fill="#064672" fill-rule="nonzero" d="M76.65,63.06 C77.65,61.77 78.84,61.06 79.31,61.47 C79.78,61.88 79.19,63.17 78,64.28 C76.81,65.39 75.65,66.05 75.38,65.83 C75.11,65.61 75.68,64.36 76.65,63.06 Z"/><path fill="#3278A8" fill-rule="nonzero" d="M76.93,63.27 C77.93,62 79.15,61.27 79.63,61.76 C80.11,62.25 79.45,63.48 78.23,64.53 C77.01,65.58 75.84,66.24 75.57,66 C75.3,65.76 75.92,64.53 76.93,63.27 Z"/><path fill="#064672" fill-rule="nonzero" d="M77.47,63.76 C78.56,62.56 79.85,61.92 80.27,62.41 C80.69,62.9 80,64.1 78.71,65.09 C77.42,66.08 76.21,66.65 75.96,66.4 C75.71,66.15 76.38,64.97 77.47,63.76 Z"/><path fill="#3278A8" fill-rule="nonzero" d="M77.73,64 C78.86,62.82 80.13,62.25 80.56,62.74 C80.99,63.23 80.22,64.43 78.92,65.37 C77.62,66.31 76.39,66.84 76.14,66.59 C75.89,66.34 76.62,65.16 77.73,64 Z"/><path fill="#064672" fill-rule="nonzero" d="M78.26,64.53 C79.45,63.44 80.79,62.92 81.17,63.45 C81.55,63.98 80.75,65.1 79.37,65.97 C77.99,66.84 76.73,67.3 76.52,67.02 C76.31,66.74 77.03,65.64 78.26,64.53 Z"/><path fill="#3278A8" fill-rule="nonzero" d="M78.47,64.79 C79.7,63.72 81.02,63.27 81.4,63.79 C81.78,64.31 80.91,65.45 79.52,66.27 C78.13,67.09 76.87,67.5 76.64,67.27 C76.41,67.04 77.26,65.85 78.47,64.79 Z"/><path fill="#064672" fill-rule="nonzero" d="M78.92,65.37 C80.19,64.37 81.59,63.99 81.92,64.55 C82.25,65.11 81.36,66.16 79.92,66.9 C78.48,67.64 77.16,67.99 76.97,67.69 C76.78,67.39 77.62,66.37 78.92,65.37 Z"/><path fill="#3278A8" fill-rule="nonzero" d="M79.13,65.65 C80.45,64.7 81.81,64.36 82.13,64.92 C82.45,65.48 81.49,66.52 80.04,67.22 C78.59,67.92 77.28,68.22 77.04,67.91 C76.8,67.6 77.82,66.59 79.13,65.65 Z"/><path fill="#064672" fill-rule="nonzero" d="M79.52,66.27 C80.88,65.41 82.31,65.14 82.58,65.72 C82.85,66.3 81.88,67.27 80.36,67.88 C78.84,68.49 77.51,68.72 77.36,68.39 C77.21,68.06 78.14,67.14 79.52,66.27 Z"/><path fill="#3278A8" fill-rule="nonzero" d="M79.7,66.57 C81.11,65.74 82.5,65.57 82.77,66.11 C83.04,66.65 82,67.65 80.48,68.21 C78.96,68.77 77.64,68.94 77.48,68.63 C77.32,68.32 78.32,67.43 79.7,66.57 Z"/><path fill="#064672" fill-rule="nonzero" d="M80.05,67.22 C81.48,66.48 82.91,66.35 83.15,66.95 C83.39,67.55 82.29,68.44 80.73,68.9 C79.17,69.36 77.81,69.47 77.73,69.13 C77.65,68.79 78.59,67.96 80.05,67.22 Z"/><path fill="#3278A8" fill-rule="nonzero" d="M80.2,67.53 C81.67,66.83 83.09,66.75 83.3,67.36 C83.51,67.97 82.39,68.82 80.82,69.23 C79.25,69.64 77.92,69.71 77.82,69.38 C77.72,69.05 78.74,68.22 80.2,67.53 Z"/><path fill="#064672" fill-rule="nonzero" d="M80.48,68.21 C81.98,67.61 83.41,67.61 83.59,68.21 C83.77,68.81 82.59,69.61 81,69.93 C79.41,70.25 78.05,70.22 78,69.88 C77.95,69.54 78.97,68.81 80.48,68.21 Z"/><path fill="#3278A8" fill-rule="nonzero" d="M80.6,68.53 C82.12,67.98 83.6,68.02 83.7,68.65 C83.8,69.28 82.7,70.02 81.07,70.29 C79.44,70.56 78.13,70.49 78.07,70.15 C78.01,69.81 79.07,69.09 80.6,68.53 Z"/><path fill="#064672" fill-rule="nonzero" d="M80.82,69.23 C82.37,68.77 83.82,68.91 83.92,69.54 C84.02,70.17 82.79,70.84 81.18,71.01 C79.57,71.18 78.18,71.01 78.18,70.69 C78.18,70.37 79.26,69.69 80.82,69.23 Z"/><path fill="#3278A8" fill-rule="nonzero" d="M80.91,69.57 C82.46,69.16 83.91,69.33 83.99,69.97 C84.07,70.61 82.85,71.23 81.22,71.36 C79.59,71.49 78.22,71.3 78.22,70.95 C78.22,70.6 79.33,69.99 80.91,69.57 Z"/><path fill="#064672" fill-rule="nonzero" d="M81.07,70.29 C82.66,69.97 84.07,70.24 84.12,70.88 C84.17,71.52 82.87,72.07 81.25,72.09 C79.63,72.11 78.31,71.85 78.25,71.49 C78.19,71.13 79.48,70.6 81.07,70.29 Z"/><path fill="#3278A8" fill-rule="nonzero" d="M81.12,70.63 C82.7,70.36 84.12,70.63 84.12,71.31 C84.12,71.99 82.89,72.43 81.26,72.43 C79.63,72.43 78.31,72.1 78.26,71.75 C78.21,71.4 79.51,70.9 81.12,70.63 Z"/><path fill="#D1D3D4" fill-rule="nonzero" d="M88.66,78.23 C88.66,76.95 85.35,71.23 81.27,71.23 C77.19,71.23 73.89,76.94 73.89,78.23 C73.89,79.52 77.19,80.56 81.27,80.56 C85.35,80.56 88.66,79.52 88.66,78.23 Z"/><path fill="#B5B7B8" fill-rule="nonzero" d="M81.26,80.56 C77.18,80.56 73.88,79.56 73.88,78.23 C73.8909926,78.0317825 73.931436,77.8363062 74,77.65 C74.3044915,77.2232836 74.692295,76.8626943 75.14,76.59 C76.16695,76.0425153 77.2916988,75.702712 78.45,75.59 C79.19,75.49 79.93,75.42 80.68,75.39 C81.2447514,75.4073594 81.805916,75.2944422 82.32,75.06 C82.7970947,74.8147213 82.9956577,74.2366822 82.77,73.75 C82.4797417,73.1199001 81.9216654,72.6536127 81.25,72.48 C80.1371956,72.1749353 78.9628044,72.1749353 77.85,72.48 C78.8180964,71.6940139 80.0140767,71.2415756 81.26,71.19 C85.34,71.19 88.65,76.9 88.65,78.19 C88.65,79.48 85.35,80.56 81.26,80.56 Z"/><ellipse cx="81.27" cy="78.23" fill="#F0F0F0" fill-rule="nonzero" rx="7.39" ry="2.33"/><path fill="#E8E8E8" fill-rule="nonzero" d="M78.61,79.09 C78.61,78.76 77.77,78.5 76.74,78.5 C75.71,78.5 74.86,78.76 74.86,79.09 C74.86,79.42 75.7,82.77 76.74,82.77 C77.78,82.77 78.61,79.43 78.61,79.09 Z"/><path fill="#D1D3D4" fill-rule="nonzero" d="M77.26,82.51 C77.26,82.37 77.32,82.23 77.34,82.08 C77.4050047,80.9146126 76.8400873,79.803863 75.86,79.17 C75.6356949,79.0086329 75.3854104,78.8868729 75.12,78.81 C75.6339088,78.5766832 76.1963862,78.4703612 76.76,78.5 C77.76,78.5 78.63,78.76 78.63,79.09 C78.435969,80.31842 77.9677122,81.4873529 77.26,82.51 Z"/><path fill="#E8E8E8" fill-rule="nonzero" d="M87.77,79.09 C87.77,78.76 86.93,78.5 85.9,78.5 C84.87,78.5 84.02,78.76 84.02,79.09 C84.02,79.42 84.86,82.77 85.9,82.77 C86.94,82.77 87.77,79.43 87.77,79.09 Z"/><path fill="#D1D3D4" fill-rule="nonzero" d="M86.4,82.51 C86.4,82.37 86.46,82.23 86.48,82.08 C86.5450047,80.9146126 85.9800873,79.803863 85,79.17 C84.7756949,79.0086329 84.5254104,78.8868729 84.26,78.81 C84.7739088,78.5766832 85.3363862,78.4703612 85.9,78.5 C86.9,78.5 87.77,78.76 87.77,79.09 C87.575969,80.31842 87.1077122,81.4873529 86.4,82.51 L86.4,82.51 Z"/><path fill="#D1D3D4" fill-rule="nonzero" d="M81.26,77.43 C78.26,77.43 76.58,78.13 76.26,78.48 C76.6,78.84 78.26,81.64 81.26,81.64 C84.26,81.64 85.95,78.84 86.26,78.48 C85.96,78.16 84.26,77.43 81.26,77.43 Z"/><path fill="#B5B7B8" fill-rule="nonzero" d="M83.61,81.06 C83.300494,80.094907 82.5622183,79.3271003 81.61,78.98 C79.967852,78.2412177 78.1141066,78.1204756 76.39,78.64 L76.28,78.51 C76.62,78.16 78.28,77.46 81.28,77.46 C84.28,77.46 85.97,78.16 86.28,78.51 C85.5757846,79.5353805 84.666658,80.4036476 83.61,81.06 L83.61,81.06 Z"/><path fill="#064672" fill-rule="nonzero" d="M83.83,80.93 C83.0618445,81.4093904 82.1754605,81.6656108 81.27,81.67 C80.3674827,81.6669358 79.4839558,81.4105398 78.72,80.93 C79.4859078,80.4538237 80.3681697,80.1977948 81.27,80.19 C82.1745633,80.2005409 83.0593211,80.4562912 83.83,80.93 L83.83,80.93 Z"/><path fill="#064672" fill-rule="nonzero" d="M83.26,81.23 C82.5406488,80.820426 81.7277713,80.6034291 80.9,80.6 C80.2092017,80.5988606 79.5265379,80.7490467 78.9,81.04 L78.71,80.93 C79.4759078,80.4538237 80.3581697,80.1977948 81.26,80.19 C82.1645633,80.2005409 83.0493211,80.4562912 83.82,80.93 C83.6397233,81.0414957 83.4526967,81.1416885 83.26,81.23 Z" opacity=".5" style="mix-blend-mode:multiply"/><path fill="#E8E8E8" fill-rule="nonzero" d="M83.14,76.82 C83.14,76.49 82.31,76.23 81.27,76.23 C80.23,76.23 79.4,76.49 79.4,76.82 C79.4,77.15 80.24,80.51 81.27,80.51 C82.3,80.51 83.14,77.15 83.14,76.82 Z"/><path fill="#D1D3D4" fill-rule="nonzero" d="M81.77,80.24 C81.8104686,80.0990588 81.8405492,79.9553403 81.86,79.81 C81.9187385,78.6459398 81.3553241,77.5381453 80.38,76.9 C80.1509432,76.7405222 79.8977022,76.6189665 79.63,76.54 C80.1457094,76.3124256 80.7068059,76.2063647 81.27,76.23 C82.27,76.23 83.14,76.5 83.14,76.82 C82.9476424,78.0488804 82.4792407,79.2181751 81.77,80.24 Z"/><path fill="#BE1E2D" fill-rule="nonzero" d="M44.82,10.43 C46.71,8.62 49.37,7.29 51.51,5.79 C53.65,4.29 55.7,2.44 56.62,0 L57.8,7.46 C58,8.76 58.57,12.46 56.72,15.8 C54.72,19.32 51.59,21.11 47.62,21.8 C46.2458379,22.0455625 44.8291027,21.7976339 43.62,21.1 C39.75,18.86 42.52,12.63 44.82,10.43 Z"/><path fill="#A31A27" fill-rule="nonzero" d="M57.8,7.43 C57.73,7.01 57.66,6.58 57.6,6.15 C57.6,6.31 57.6,6.46 57.6,6.62 C57.2263556,9.80577362 55.6442275,12.7266255 53.18,14.78 C52.1268193,15.706928 50.7506383,16.1812254 49.35,16.1 C48.16,15.88 47.97,14.72 48.54,13.8 C48.8824481,13.2929551 49.2854193,12.8295383 49.74,12.42 C50.13,12.04 50.68,11.57 50.69,10.98 C50.69,10.72 50.5,10.05 50.18,9.98 C49.86,9.91 49.82,10.11 49.69,10.21 C49.21,10.55 48.84,11.03 48.38,11.41 C47.2703575,12.1594476 46.0752402,12.7737916 44.82,13.24 C42.6539265,14.092266 41.4167041,16.3809163 41.89,18.66 C42.331824,20.3184323 43.7446341,21.5367825 45.45,21.73 C46.278543,21.8948852 47.131457,21.8948852 47.96,21.73 C51.79,20.97 54.85,19.17 56.77,15.73 C58.69,12.29 58,8.75 57.8,7.43 Z" style="mix-blend-mode:multiply"/><path fill="#BE1E2D" fill-rule="nonzero" d="M32.62,15.91 C31.392383,15.5437219 30.1208456,15.3452544 28.84,15.32 C25.62,15.2 22.2,15.92 19.84,18.12 C17.48,20.32 16.57,23.63 15.75,26.76 C17.4329754,25.8188699 19.4156036,25.5679043 21.28,26.06 C23.14,26.44 24.93,27.17 26.8,27.49 C31.7952252,28.279315 36.8126713,26.2105833 39.8,22.13 C41.11,20.28 40.57,18.77 38.42,18.53 C36.27,18.29 34.66,16.56 32.62,15.91 Z"/><path fill="#A31A27" fill-rule="nonzero" d="M38.42,18.53 C38.0795713,18.4937824 37.7441966,18.4199999 37.42,18.31 C37.42,18.31 37.42,18.31 37.42,18.31 C36.3284752,18.9969406 34.9796174,19.1373697 33.77,18.69 C33.1,18.53 32.43,18.31 31.77,18.16 C31.0142768,18.0219299 30.2481871,17.9483318 29.48,17.94 C27.9083264,17.8707786 26.3339904,17.9882664 24.79,18.29 C24.38,18.38 23.96,18.42 23.56,18.52 C23.37,18.52 22.5,18.75 22.5,19.04 C22.5,19.33 25.38,19.04 25.56,19.04 C26.9362535,18.9782381 28.3152723,19.0418336 29.68,19.23 C30.7012671,19.2851238 31.690495,19.605675 32.55,20.16 C33.19,20.68 33.55,21.68 32.71,22.21 C32.09,22.62 29.76,22.21 29.76,22.76 C29.76,23.52 31.59,23.1 31.51,23.9 C31.381519,24.5815265 30.835859,25.1071254 30.15,25.21 C28.4422527,25.5599294 26.6878873,25.6207744 24.96,25.39 C22.43,25.24 19.71,24.9 17.35,26.02 C18.6659414,25.7154396 20.0340586,25.7154396 21.35,26.02 C23.21,26.4 25,27.13 26.87,27.45 C31.8652252,28.239315 36.8826713,26.1705833 39.87,22.09 C41.11,20.28 40.57,18.77 38.42,18.53 Z" style="mix-blend-mode:multiply"/><path fill="#BE1E2D" fill-rule="nonzero" d="M37.9,13.97 C36.6,14.47 35.19,15.19 34.78,16.52 C34.5544798,17.7326994 34.8483514,18.984375 35.59,19.97 C36.3263537,20.9452347 36.8354294,22.0727178 37.08,23.27 C37.14,23.9 37.08,24.64 37.52,25.06 C37.9311952,25.3439751 38.4414996,25.4453121 38.93,25.34 C41.3322447,25.0408116 43.7043149,24.5356175 46.02,23.83 C46.6053786,23.7426546 47.1368916,23.4394425 47.51,22.98 C47.7885581,22.4161422 47.7267154,21.7436027 47.35,21.24 C46.9734253,20.7534 46.5366,20.3165747 46.05,19.94 C44.4783665,18.4736183 43.4255463,16.5364291 43.05,14.42 C42.84,13.26 43.15,12.58 41.84,12.72 C40.4804419,12.9737813 39.1572016,13.393591 37.9,13.97 L37.9,13.97 Z"/><path fill="#BE1E2D" fill-rule="nonzero" d="M47.35,21.24 C46.9734253,20.7534 46.5366,20.3165747 46.05,19.94 C44.4783665,18.4736183 43.4255463,16.5364291 43.05,14.42 C42.84,13.26 43.15,12.58 41.84,12.72 C41.64,12.72 41.45,12.79 41.25,12.83 C40.7610362,13.4395609 40.4962664,14.1985679 40.5,14.98 C40.55,16.19 41.4,16.91 42.17,17.73 C43.23,18.86 44.17,20.9 42.72,22.13 C41.05,23.53 38.65,22.13 37.36,20.88 C36.0648337,19.5788698 35.2412751,17.8824799 35.02,16.06 C34.9372493,16.205827 34.8702072,16.3600237 34.82,16.52 C34.5944798,17.7326994 34.8883514,18.984375 35.63,19.97 C36.3663537,20.9452347 36.8754294,22.0727178 37.12,23.27 C37.18,23.9 37.12,24.64 37.56,25.06 C37.9711952,25.3439751 38.4814996,25.4453121 38.97,25.34 C41.3722447,25.0408116 43.7443149,24.5356175 46.06,23.83 C46.6453786,23.7426546 47.1768916,23.4394425 47.55,22.98 C47.817224,22.4087625 47.7398617,21.7357104 47.35,21.24 L47.35,21.24 Z" style="mix-blend-mode:multiply"/><circle cx="48.49" cy="19.03" r="2.07" fill="#F9F9F9" fill-rule="nonzero" opacity=".4" style="mix-blend-mode:screen"/><circle cx="29.35" cy="17.97" r="2.07" fill="#F9F9F9" fill-rule="nonzero" opacity=".4" style="mix-blend-mode:screen"/><circle cx="38.08" cy="17.16" r="2.07" fill="#F9F9F9" fill-rule="nonzero" opacity=".7" style="mix-blend-mode:screen"/><circle cx="25.49" cy="22.82" r="2.07" fill="#F9F9F9" fill-rule="nonzero" opacity=".7" style="mix-blend-mode:screen"/><circle cx="47.28" cy="11.29" r="1.72" fill="#F9F9F9" fill-rule="nonzero" opacity=".7" style="mix-blend-mode:screen"/><circle cx="54.2" cy="13.44" r="2.15" fill="#F9F9F9" fill-rule="nonzero" opacity=".4" style="mix-blend-mode:screen"/><circle cx="54.52" cy="6.17" r="1.52" fill="#F9F9F9" fill-rule="nonzero" opacity=".7" style="mix-blend-mode:screen"/><circle cx="42.28" cy="21.66" r="1.52" fill="#F9F9F9" fill-rule="nonzero" opacity=".4" style="mix-blend-mode:screen"/><circle cx="33.52" cy="24.14" r="1.52" fill="#F9F9F9" fill-rule="nonzero" opacity=".4" style="mix-blend-mode:screen"/><g transform="translate(18.81 14.25)"><mask id="e" fill="#fff"><use xlink:href="#d"/></mask><g fill="#F9F9F9" fill-rule="nonzero" mask="url(#e)"><g transform="translate(-1.76 4.37)"><circle cx="39.3" cy="3.31" r="2.07" opacity=".4" style="mix-blend-mode:screen"/><circle cx="7.05" cy="10.26" r="1.76" opacity=".4" style="mix-blend-mode:screen"/><circle cx="46.94" cy="7.98" r="2.07" opacity=".7" style="mix-blend-mode:screen"/><circle cx="3.26" cy="13.79" r="2.07" opacity=".7" style="mix-blend-mode:screen"/><circle cx="52.81" cy="11.76" r="1.72" opacity=".7" style="mix-blend-mode:screen"/><circle cx="51.98" cy="16.56" r="1.52" opacity=".4" style="mix-blend-mode:screen"/><circle cx="45.42" cy="1.52" r="1.52" opacity=".4" style="mix-blend-mode:screen"/><circle cx="1.52" cy="20.61" r="1.52" opacity=".4" style="mix-blend-mode:screen"/></g></g></g><circle cx="20.09" cy="21.1" r="1.52" fill="#F9F9F9" fill-rule="nonzero" opacity=".7" style="mix-blend-mode:screen"/></g></svg>