<?xml version="1.0" encoding="UTF-8"?>
<svg id="Layer_1" xmlns="http://www.w3.org/2000/svg" version="1.1" viewBox="0 0 1000 1000">
  <!-- Generator: Adobe Illustrator 29.2.1, SVG Export Plug-In . SVG Version: 2.1.0 Build 116)  -->
  <defs>
    <style>
      .st0 {
        fill: #a0c7de;
      }

      .st1 {
        fill: #3f3f5b;
      }

      .st2 {
        fill: #fff;
      }
    </style>
  </defs>
  <g>
    <circle class="st0" cx="485.6" cy="556.9" r="384.8"/>
    <path class="st1" d="M485.6,172.1c212.5,0,384.8,172.3,384.8,384.8s-172.3,384.8-384.8,384.8S100.8,769.4,100.8,556.9,273.1,172.1,485.6,172.1M485.6,156.9c-220.6,0-400,179.4-400,400s179.4,400,400,400,400-179.4,400-400-179.4-400-400-400h0Z"/>
  </g>
  <g>
    <g>
      <g>
        <path class="st1" d="M278.8,530.4c-.1.4-.3.7-.4,1.1-.5,1.1-1.2,2.1-2.1,2.9-.5.5-1,.9-1.6,1.3-.2.1-.4.3-.6.4-.2.1-.4.2-.6.3-.3.2-.7.3-1.1.4,0,0-.2,0-.3,0-.4.1-.7.2-1.1.3-.6.1-1.3.2-1.9.2s-1.4,0-2-.2c-.4,0-.9-.2-1.3-.3-1.3-.4-2.5-1.1-3.5-2-.2-.2-.3-.3-.5-.5-.2-.2-.3-.3-.5-.5-.3-.3-.6-.7-.8-1.1-.1-.2-.3-.4-.4-.6l-108.5-196.4c-3.4-6.1-8.9-10.5-15.6-12.5-6.7-2-13.8-1.2-19.9,2.2-6.1,3.3-10.5,8.9-12.5,15.6-1.9,6.7-1.2,13.8,2.2,19.9l116.5,211.9s0,0,0,.1c.2.4.4.8.6,1.2,0,.2.1.4.2.6,0,0,0,.2,0,.2,0,.1,0,.3.1.4,0,0,0,.1,0,.2,0,.2,0,.4.1.5,0,0,0,.1,0,.2,0,.2,0,.4,0,.7,0,0,0,0,0,.1,0,.3,0,.5,0,.8s0,.4,0,.6c0,.1,0,.3,0,.4,0,.4-.1.8-.2,1.3,0,.4-.2.8-.3,1.1,0,.2-.2.4-.2.6,0,.2-.2.4-.3.6,0,.2-.2.4-.3.6,0,.2-.2.3-.3.5,0,0,0,0,0,.1-.3.4-.5.7-.8,1-.1.2-.3.3-.4.4-.2.2-.5.5-.7.7,0,0,0,0,0,0-.2.2-.4.3-.6.4,0,0-.1,0-.2.1-.2.1-.3.2-.5.3-.1,0-.2.1-.3.2-.4.2-.8.4-1.2.6-.2,0-.4.1-.6.2,0,0-.2,0-.2,0-.1,0-.3,0-.4.1,0,0-.1,0-.2,0-.2,0-.4,0-.5.1,0,0-.1,0-.2,0-.2,0-.4,0-.7,0,0,0,0,0-.1,0-.3,0-.5,0-.8,0s-.4,0-.6,0c-.1,0-.3,0-.4,0-.4,0-.8,0-1.3-.2-.4,0-.7-.2-1.1-.3,0,0,0,0,0,0-.2,0-.4-.2-.6-.2-.2,0-.4-.2-.6-.3-.2,0-.3-.2-.5-.3-.3-.2-.6-.3-.9-.5-.1,0-.3-.2-.4-.3-.6-.5-1.1-1-1.6-1.6-.4-.5-.8-1-1.1-1.6l-29.2-53.2-87.3-158.9c-6-10.9-7.4-23.5-3.9-35.5,3.5-12,11.4-21.9,22.3-27.9,8.3-4.6,17.6-6.4,26.8-5.6,2.9.3,5.8.8,8.7,1.7,12,3.5,21.9,11.4,27.9,22.3l108.5,196.4c1.5,2.6,1.6,5.6.7,8.3Z"/>
        <path class="st1" d="M330.7,489.2c-1.6.9-3.3,1.3-4.9,1.3-2.7,0-5.4-1.1-7.3-3.1-.3-.3-.6-.7-.9-1.1-.3-.4-.5-.8-.8-1.2l-126.9-231.1c-6.9-12.6-22.9-17.3-35.5-10.3-12.6,7-17.3,22.9-10.3,35.5l134,242.8c1.5,2.6,1.6,5.6.7,8.3-.1.4-.3.7-.4,1.1-.5,1.1-1.2,2.1-2.1,2.9-.5.5-1,.9-1.6,1.3-.2.1-.4.3-.6.4-.2.1-.4.2-.6.3-.3.2-.7.3-1.1.4,0,0-.2,0-.3,0-.4.1-.7.2-1.1.3-.6.1-1.3.2-1.9.2s-1.4,0-2-.2c-.4,0-.9-.2-1.3-.3-1.3-.4-2.5-1.1-3.5-2-.2-.2-.3-.3-.5-.5-.2-.2-.3-.3-.5-.5-.3-.3-.6-.7-.8-1.1-.1-.2-.3-.4-.4-.6l-127.1-230.3-6.9-12.5c-12.4-22.6-4.2-51,18.4-63.4,22.6-12.4,51-4.2,63.4,18.4l6.9,12.6,120,218.5c2.7,5,.9,11.2-4.1,13.9Z"/>
        <path class="st1" d="M399.8,460.9c-5,2.8-11.2,1-14-4l-106.5-191.5c-3.4-6.1-8.9-10.6-15.7-12.5-6.7-1.9-13.8-1.2-19.9,2.2-12.6,7-17.3,22.9-10.3,35.5l101.3,184.6c2.7,5,.9,11.2-4.1,13.9-1.6.9-3.3,1.3-4.9,1.3-2.7,0-5.4-1.1-7.3-3.1-.3-.3-.6-.7-.9-1.1-.3-.4-.5-.8-.8-1.2l-101.3-184.6c-7.7-14.1-7.4-30.4-.6-43.8,4.1-8,10.6-15,19.1-19.7,10.9-6,23.5-7.4,35.5-3.9s21.9,11.4,27.9,22.3l68.7,123.5h0s37.8,67.9,37.8,67.9c0,.1.1.2.2.4,2.5,4.9.7,10.9-4.2,13.6Z"/>
        <path class="st1" d="M500.7,726.6c0,.3,0,.6,0,.9,0,.1,0,.3,0,.4,0,.1,0,.2,0,.4,0,.2,0,.4-.1.6,0,.1,0,.3-.1.5,0,.1,0,.3-.1.4,0,.1,0,.3-.2.4,0,.1-.1.3-.2.4,0,.2-.2.4-.3.6h0c-.1.2-.2.4-.3.6-.2.3-.3.6-.5.8-.1.2-.3.3-.4.5-.2.2-.4.4-.6.6-10.5,11.5-25.7,23.1-41.8,31.9-28.9,15.9-60.7,24-92.9,24-18.1,0-36.3-2.6-54.2-7.8-49.5-14.4-90.5-47.1-115.4-92.2-38.3-60.1-68-96.2-99.3-120.5-23.8-18.6-15.3-34.9-12.1-39.5,13-18.7,56-23.1,91.9-.8.4.2.7.4,1.1.7,16.1,10.2,32.1,24.6,46.2,41.7.4.5.7.9,1,1.5,0,0,0,0,0,.1.2.4.4.8.6,1.2,0,.2.1.4.2.6,0,0,0,.2,0,.2,0,.1,0,.3.1.4,0,0,0,.1,0,.2,0,.2,0,.4.1.5,0,0,0,.1,0,.2,0,.2,0,.4,0,.7,0,0,0,0,0,.1,0,.3,0,.5,0,.8s0,.4,0,.6c0,.1,0,.3,0,.4,0,.4-.1.8-.2,1.3,0,.4-.2.8-.3,1.1,0,.2-.2.4-.2.6,0,.2-.2.4-.3.6,0,.2-.2.4-.3.6,0,.2-.2.3-.3.5,0,0,0,0,0,.1-.2.4-.5.7-.8,1-.1.2-.3.3-.4.4-.2.2-.5.5-.7.7,0,0,0,0,0,0-.2.2-.4.3-.6.4,0,0-.1,0-.2.1-.2.1-.3.2-.5.3-.1,0-.2.1-.3.2-.4.2-.8.4-1.2.6-.2,0-.4.1-.6.2,0,0-.2,0-.2,0-.1,0-.3,0-.4.1,0,0-.1,0-.2,0-.2,0-.4,0-.5.1,0,0-.1,0-.2,0-.2,0-.4,0-.7,0,0,0,0,0-.1,0-.3,0-.5,0-.8,0s-.4,0-.6,0c-.1,0-.3,0-.4,0-.4,0-.8,0-1.3-.2-.4,0-.7-.2-1.1-.3,0,0,0,0,0,0-.2,0-.4-.2-.6-.2-.2,0-.4-.2-.6-.3-.2,0-.3-.2-.5-.3-.3-.2-.6-.3-.9-.5-.1,0-.3-.2-.4-.3-.6-.5-1.1-1-1.6-1.6-16.4-19.9-32-31.7-42.2-38-7.3-4.6-22.5-12.2-41.6-11.9-13.1.2-20.7,4.3-22.6,7-1.7,2.4,2.7,7.6,7.9,11.6,33.3,25.9,64.4,63.6,104.1,126,.1.2.2.4.3.6,45.9,83.5,151.2,114.1,234.7,68.2,9.9-5.5,19.7-12.3,27.7-19.3,3.4-2.9,6.4-5.9,9-8.8,2.4-2.7,5.9-3.8,9.2-3.2,0,0,0,0,.1,0,.1,0,.2,0,.3,0,.1,0,.2,0,.3,0,0,0,.2,0,.2,0,0,0,.1,0,.2,0,.1,0,.3,0,.4.1,0,0,0,0,.1,0,0,0,.2,0,.3,0,0,0,0,0,0,0,.2,0,.3.1.5.2,0,0,0,0,.1,0,0,0,0,0,0,0,0,0,.1,0,.2,0,0,0,0,0,0,0,.1,0,.3.1.4.2,0,0,.1,0,.2,0,.2.1.4.3.6.4,0,0,.2.1.2.2,0,0,0,0,0,0,.2.1.3.3.5.4,0,0,.2.2.3.2,0,0,.2.2.3.3,0,0,0,0,0,0l.2.2h0s0,0,0,0c0,0,.1.1.2.2,0,0,0,0,0,.1.1.2.3.3.4.5.1.2.3.3.4.5.1.2.2.3.3.5,0,.1.2.3.2.4,0,.1.1.3.2.4,0,.1.1.3.2.4,0,0,0,.2.1.2,0,0,0,0,0,0,0,.1.1.3.1.4,0,0,0,.2,0,.3,0,.1,0,.3.1.4,0,0,0,.1,0,.2,0,.1,0,.3,0,.4,0,0,0,.2,0,.3,0,.1,0,.3,0,.4,0,0,0,0,0,0,0,.1,0,.2,0,.4,0,.1,0,.2,0,.3,0,0,0,0,0,.1,0,.2,0,.4,0,.6Z"/>
        <path class="st1" d="M500.7,532.7c0,.5,0,.9-.2,1.3-.1.7-.3,1.4-.6,2,0,.2-.2.4-.2.5,0,0,0,0,0,0,0,0,0,0,0,0h0s0,0,0,.1c0,0,0,0,0,0,0,0,0,0,0,.1,0,0,0,0,0,.1,0,0,0,0,0,.1,0,0,0,0,0,0,0,0-.1.2-.2.3,0,0,0,.1-.1.2,0,0,0,0,0,.1t0,0s0,0,0,0c0,0,0,0,0,0,0,0,0,0,0,0,0,.1-.2.2-.2.3h0c0,0-.1.2-.2.3,0,0,0,.1-.1.2s0,0,0,0c0,0,0,0,0,0,0,0,0,0,0,0,0,0-.1.2-.2.2,0,0,0,0-.1.1,0,0,0,0-.1.1,0,0-.1.1-.2.2,0,0,0,0,0,0,0,0,0,0,0,0,0,0,0,0,0,0,0,0,0,0-.1,0-.1.1-.3.2-.4.3,0,0,0,0,0,0,0,0,0,0-.1,0,0,0,0,0,0,0,0,0,0,0,0,0,0,0,0,0,0,0,0,0,0,0,0,0,0,0,0,0,0,0,0,0,0,0-.1,0,0,0-.1,0-.2.1,0,0-.2.1-.3.2,0,0,0,0,0,0,0,0,0,0-.1,0,0,0,0,0-.1,0h0s-.1,0-.2,0c0,0,0,0-.1,0,0,0,0,0,0,0,0,0,0,0,0,0,0,0,0,0,0,0,0,0,0,0,0,0,0,0,0,0-.1,0,0,0-.1,0-.2,0,0,0,0,0,0,0,0,0,0,0,0,0,0,0-.2,0-.2,0,0,0-.1,0-.2,0,0,0,0,0,0,0,0,0,0,0-.1,0,0,0,0,0,0,0,0,0,0,0-.1,0,0,0,0,0,0,0,0,0,0,0-.1,0,0,0-.1,0-.2,0,0,0,0,0-.1,0,0,0,0,0,0,0,0,0,0,0,0,0,0,0,0,0,0,0,0,0-.2,0-.3,0,0,0-.2,0-.2,0,0,0,0,0-.1,0,0,0-.2,0-.3,0,0,0-.1,0-.2,0,0,0,0,0,0,0h0s0,0,0,0c-.1,0-.2,0-.3,0,0,0-.1,0-.2,0s0,0,0,0h0c-.4,0-.8,0-1.3,0,0,0,0,0-.1,0,0,0,0,0-.1,0,0,0,0,0,0,0-.1,0-.2,0-.3,0,0,0,0,0,0,0,0,0,0,0,0,0,0,0-.1,0-.2,0,0,0,0,0,0,0,0,0-.1,0-.2,0s-.1,0-.2,0c0,0,0,0-.1,0-.1,0-.3,0-.4,0,0,0,0,0-.1,0,0,0,0,0,0,0,0,0-.1,0-.2,0,0,0,0,0,0,0,0,0-.2,0-.3,0,0,0-.2,0-.2,0,0,0,0,0-.1,0,0,0-.1,0-.2,0,0,0,0,0,0,0,0,0,0,0-.1,0,0,0-.1,0-.2,0,0,0,0,0,0,0-.1,0-.2-.1-.3-.2,0,0-.1,0-.2-.1s0,0-.1,0c0,0,0,0-.1,0,0,0,0,0,0,0,0,0,0,0-.1,0,0,0-.1,0-.2,0,0,0,0,0-.1,0,0,0,0,0,0,0,0,0,0,0,0,0,0,0,0,0,0,0,0,0,0,0,0,0,0,0,0,0,0,0,0,0-.1,0-.2-.1,0,0,0,0,0,0,0,0-.2-.1-.3-.2,0,0-.1,0-.2-.1,0,0,0,0,0,0,0,0,0,0,0,0,0,0,0,0,0,0,0,0,0,0,0,0,0,0,0,0,0,0,0,0,0,0,0,0,0,0,0,0-.1-.1t0,0s0,0-.1,0c0,0-.2-.2-.3-.3,0,0-.2-.2-.2-.3,0,0,0,0,0,0,0,0,0,0-.1-.1,0,0,0,0,0-.1h0s0,0,0,0c0,0,0,0-.1-.1s0,0,0,0c0,0,0,0,0,0,0,0,0-.1-.1-.2,0,0,0,0-.1-.2,0,0,0,0,0,0-.1-.2-.2-.3-.3-.5-.1-.2-.2-.4-.4-.6,0,0,0,0,0,0,0,0,0,0,0,0,0,0,0,0,0-.1,0,0,0,0,0,0-8.9-17-16.4-33.7-22.9-50-18.7-46.9-28.6-89.8-35.8-120.8-3.5-15.1-6.5-28.1-9.6-37.6-3.6-11.1-6.1-13.4-6.6-13.8-10-3.4-13,.2-14.4,1.9-7.4,8.8-9.3,33.1-5,65,4,29.4,12,56.2,15.9,63.4.5.9.8,1.8,1,2.7,1,4.4-1,9-5.1,11.3-5,2.7-11.2.9-14-4.1-6.5-11.9-14.6-42.9-18.3-70.6-.2-1.7-.4-3.3-.6-4.9h0c-4.4-37.1-1-62.6,10.3-76,11.7-14,28.2-11.1,37-8.1,15.2,5.2,20.2,26.8,29.3,66.1,9.1,39.1,21.2,91.3,47.9,147.9.4.9.9,1.8,1.3,2.7,2.5,5.1,5,10.3,7.7,15.4,0,.2.2.3.2.5.1.2.2.5.3.7,0,.2.2.4.2.6,0,0,0,.1,0,.2.1.3.2.7.3,1,0,.2,0,.4,0,.6,0,.2,0,.3,0,.5,0,.5,0,.9,0,1.4Z"/>
      </g>
      <path class="st2" d="M473.8,728.4c-8,7-17.8,13.8-27.7,19.3-83.5,45.9-188.8,15.3-234.7-68.2-.1-.2-.2-.4-.3-.6-39.8-62.4-70.9-100.1-104.1-126-5.1-4-9.6-9.1-7.9-11.6,1.9-2.7,9.4-6.8,22.6-7,19.1-.3,34.3,7.3,41.6,11.9,10.2,6.3,25.8,18.1,42.2,38,.5.6,1.1,1.1,1.6,1.6.1.1.3.2.4.3.3.2.6.4.9.5.2,0,.3.2.5.3.2.1.4.2.6.3.2,0,.4.2.6.2,0,0,0,0,0,0,.3.1.7.2,1.1.3.4,0,.8.2,1.3.2.1,0,.3,0,.4,0,.2,0,.4,0,.6,0,.3,0,.5,0,.8,0,0,0,0,0,.1,0,.2,0,.4,0,.7,0,0,0,.1,0,.2,0,.2,0,.4,0,.5-.1,0,0,.1,0,.2,0,.1,0,.3,0,.4-.1,0,0,.2,0,.2,0,.2,0,.4-.1.6-.2.4-.2.8-.3,1.2-.6.1,0,.2-.1.3-.2.2,0,.3-.2.5-.3,0,0,.1,0,.2-.1.2-.1.4-.3.6-.4,0,0,0,0,0,0,.3-.2.5-.4.7-.7.2-.1.3-.3.4-.4.3-.3.6-.7.8-1,0,0,0,0,0-.1.1-.2.2-.3.3-.5.1-.2.2-.4.3-.6.1-.2.2-.4.3-.6,0-.2.2-.4.2-.6.1-.4.2-.7.3-1.1,0-.4.2-.8.2-1.3,0-.1,0-.3,0-.4,0-.2,0-.4,0-.6,0-.3,0-.5,0-.8,0,0,0,0,0-.1,0-.2,0-.4,0-.7,0,0,0-.1,0-.2,0-.2,0-.4-.1-.5,0,0,0-.1,0-.2,0-.1,0-.3-.1-.4,0,0,0-.2,0-.2,0-.2-.1-.4-.2-.6-.2-.4-.3-.8-.6-1.2,0,0,0,0,0-.1l-116.5-211.9c-3.3-6.1-4.1-13.2-2.2-19.9,2-6.7,6.4-12.3,12.5-15.6,6.1-3.3,13.1-4.1,19.9-2.2,6.7,2,12.3,6.4,15.6,12.5l108.5,196.4c.1.2.2.4.4.6.3.4.5.8.8,1.1.1.2.3.3.5.5.2.2.3.3.5.5,1,.9,2.2,1.6,3.5,2,.4.1.9.3,1.3.3.7.1,1.3.2,2,.2s1.3,0,1.9-.2c.4,0,.7-.2,1.1-.3,0,0,.2,0,.3,0,.4-.1.7-.3,1.1-.4.2,0,.4-.2.6-.3.2-.1.4-.2.6-.4.6-.4,1.1-.8,1.6-1.3.9-.9,1.6-1.9,2.1-2.9.2-.3.3-.7.4-1.1.9-2.6.7-5.6-.7-8.3l-134-242.8c-7-12.6-2.3-28.6,10.3-35.5,12.6-7,28.6-2.3,35.5,10.3l126.9,231.1c.2.4.5.8.8,1.2.3.4.6.7.9,1.1,1.9,2,4.6,3.1,7.3,3.1s3.4-.4,4.9-1.3c5-2.7,6.8-9,4.1-13.9l-101.3-184.6c-7-12.6-2.3-28.6,10.3-35.5,6.1-3.3,13.1-4.1,19.9-2.2,6.7,2,12.3,6.4,15.7,12.5l106.5,191.5c2.8,5,9,6.7,14,4,4.8-2.7,6.7-8.7,4.2-13.6-.2-.9-.5-1.8-1-2.7-4-7.3-12-34-15.9-63.4-4.3-31.8-2.4-56.1,5-65,1.4-1.7,4.4-5.3,14.4-1.9.5.4,3,2.7,6.6,13.8,3.1,9.5,6.1,22.5,9.6,37.6,7.2,31.1,17.1,73.9,35.8,120.8-13.4-6.9-28.7-10.5-44.3-10.5-24.6,0-47.9,9.2-64,25.3-15.8,15.9-24.2,37.6-24.1,62.7.1,30.4,11.2,58.2,33.1,82.7,20.3,22.7,47,39.2,65.3,49.7,21.4,12.2,39.9,25.2,49.4,32.1Z"/>
      <path class="st1" d="M500.7,726c0,.2,0,.4,0,.6,0,.3,0,.6,0,.9,0,.1,0,.3,0,.4,0,.1,0,.2,0,.4,0,.2,0,.4-.1.6,0,.1,0,.3-.1.5,0,.1,0,.3-.1.4,0,.1,0,.3-.2.4,0,.1-.1.3-.2.4,0,.2-.2.4-.3.6h0c-.1.2-.2.4-.3.6-.2.3-.3.6-.5.8-.1.2-.3.3-.4.5-.2.2-.4.4-.6.6-1.7,1.7-4.1,2.9-6.7,3-.2,0-.4,0-.5,0s-.4,0-.5,0c-1.6,0-3.2-.4-4.8-.9-1.7-.6-3.2-1.4-4.7-2.5-.3-.2-2.7-2.1-6.7-5-9.5-6.9-28-19.8-49.4-32.1-18.3-10.5-45-27-65.3-49.7-21.8-24.4-32.9-52.2-33.1-82.7,0-25.1,8.2-46.8,24.1-62.7,16-16.1,39.3-25.3,64-25.3s30.9,3.6,44.3,10.5c.8.4,1.6.8,2.4,1.3,12.4,6.8,21.6,15.5,28.4,23.9.4.5.9,1.1,1.3,1.6,3.8,4.9,6.8,9.7,9,13.8,0,.2.2.3.2.5.1.2.2.5.3.7,0,.2.2.4.2.6,0,0,0,.1,0,.2.1.3.2.7.3,1,0,.2,0,.4,0,.6,0,.2,0,.3,0,.5,0,.5,0,.9,0,1.4,0,.4,0,.9-.2,1.3-.1.7-.3,1.4-.6,2,0,.2-.2.4-.2.5,0,0,0,0,0,0,0,0,0,0,0,0h0s0,0,0,.1c0,0,0,0,0,0,0,0,0,0,0,.1h0s0,0,0,.1c0,0,0,0,0,.1,0,0,0,0,0,0,0,0-.1.2-.2.3,0,0,0,.1-.1.2,0,0,0,0,0,.1h0s0,0,0,0c0,0,0,0,0,0,0,0,0,0,0,0,0,.1-.2.2-.2.3h0c0,0-.1.2-.2.3,0,0,0,.1-.1.2s0,0,0,0c0,0,0,0,0,0,0,0,0,0,0,0,0,0-.1.2-.2.2,0,0,0,0-.1.1,0,0,0,0-.1.1,0,0-.1.1-.2.2,0,0,0,0,0,0,0,0,0,0,0,0,0,0,0,0,0,0,0,0,0,0-.1,0-.1.1-.3.2-.4.3,0,0,0,0,0,0,0,0,0,0-.1,0,0,0,0,0,0,0,0,0,0,0,0,0,0,0,0,0,0,0,0,0,0,0,0,0,0,0,0,0,0,0,0,0,0,0,0,0,0,0,0,0-.1,0,0,0-.1,0-.2.1,0,0-.2.1-.3.2,0,0,0,0,0,0,0,0,0,0-.1,0,0,0,0,0-.1,0,0,0-.1,0-.2,0,0,0,0,0-.1,0,0,0,0,0,0,0,0,0,0,0,0,0,0,0,0,0,0,0,0,0,0,0,0,0,0,0,0,0-.1,0,0,0-.1,0-.2,0,0,0,0,0,0,0,0,0,0,0,0,0,0,0-.2,0-.2,0,0,0-.1,0-.2,0,0,0,0,0,0,0,0,0,0,0-.1,0,0,0,0,0,0,0,0,0,0,0-.1,0,0,0,0,0,0,0,0,0,0,0-.1,0,0,0-.1,0-.2,0,0,0,0,0-.1,0,0,0,0,0,0,0,0,0,0,0,0,0,0,0,0,0,0,0,0,0-.2,0-.3,0,0,0-.2,0-.2,0,0,0,0,0-.1,0,0,0-.1,0-.2,0,0,0,0,0-.1,0,0,0-.1,0-.2,0,0,0,0,0,0,0h0s0,0,0,0c-.1,0-.2,0-.3,0,0,0-.1,0-.2,0s0,0,0,0h0c-.4,0-.8,0-1.3,0,0,0,0,0-.1,0,0,0,0,0-.1,0,0,0,0,0,0,0-.1,0-.2,0-.3,0,0,0,0,0,0,0h0c0,0-.1,0-.2,0,0,0,0,0,0,0,0,0-.1,0-.2,0s-.1,0-.2,0c0,0,0,0-.1,0-.1,0-.3,0-.4,0,0,0,0,0-.1,0,0,0,0,0,0,0,0,0-.1,0-.2,0,0,0,0,0,0,0,0,0-.2,0-.3,0,0,0-.2,0-.2,0,0,0,0,0-.1,0,0,0,0,0-.1,0,0,0,0,0,0,0,0,0,0,0,0,0,0,0,0,0-.1,0,0,0,0,0-.1,0,0,0,0,0-.1,0-.1,0-.2-.1-.3-.2,0,0-.1,0-.2-.1s0,0-.1,0c0,0,0,0-.1,0,0,0,0,0,0,0,0,0,0,0-.1,0,0,0-.1,0-.2,0,0,0,0,0-.1,0,0,0,0,0,0,0,0,0,0,0,0,0,0,0,0,0,0,0,0,0,0,0,0,0,0,0,0,0,0,0,0,0-.1,0-.2-.1,0,0,0,0,0,0,0,0-.1,0-.2-.1,0,0,0,0,0,0,0,0,0,0-.1-.1,0,0,0,0,0,0,0,0,0,0,0,0,0,0,0,0,0,0,0,0,0,0,0,0,0,0,0,0,0,0,0,0,0,0,0,0h0s0,0,0,0c0,0,0,0-.1-.1t0,0s0,0-.1,0c0,0-.2-.2-.3-.3,0,0-.2-.2-.2-.3,0,0,0,0,0,0,0,0,0,0-.1-.1,0,0,0,0,0-.1,0,0,0,0,0,0,0,0,0,0-.1-.1s0,0,0,0t0,0s0,0,0,0c0,0,0-.1-.1-.2,0,0,0,0-.1-.2,0,0,0,0,0,0,0,0,0-.1-.1-.2,0-.1-.1-.2-.2-.3,0,0,0,0,0-.2,0,0,0,0,0,0,0,0,0,0,0,0,0-.1-.1-.2-.2-.3,0,0,0,0,0,0-5.1-9.3-14.5-22.2-30.5-31-11-6-23.7-9.2-36.8-9.2-19.2,0-37.2,7-49.4,19.2-11.9,11.9-18.1,28.6-18.1,48.1,0,25.6,9.2,48.2,27.8,69,18.3,20.5,43.1,35.8,60.2,45.6,26.3,15,48.5,31.1,55.9,36.7.7.5,1.2.9,1.6,1.2,0,0,0,0,.1,0,.1,0,.2,0,.3,0,.1,0,.2,0,.3,0,0,0,.2,0,.2,0,0,0,.1,0,.2,0,.1,0,.3,0,.4.1,0,0,0,0,.1,0,0,0,.1,0,.2,0,0,0,0,0,0,0,0,0,0,0,0,0,.2,0,.3.1.5.2,0,0,0,0,.1,0,0,0,0,0,0,0,0,0,.1,0,.2,0,0,0,0,0,0,0,.1,0,.3.1.4.2,0,0,.1,0,.2,0,.2.1.4.3.6.4,0,0,.2.1.2.2,0,0,0,0,0,0,.2.1.3.3.5.4.2.2.4.3.5.5,0,0,0,0,0,0l.2.2h0s0,0,0,0c0,0,.1.1.2.2,0,0,0,0,0,.1.1.2.3.3.4.5.1.2.3.3.4.5.1.2.2.3.3.5,0,.1.2.3.2.4,0,.1.1.3.2.4,0,.1.1.3.2.4,0,0,0,.2.1.2,0,0,0,0,0,0,0,.1.1.3.1.4,0,0,0,.2,0,.3,0,.1,0,.3.1.4,0,0,0,.1,0,.2,0,.1,0,.3,0,.4,0,0,0,.2,0,.3,0,.1,0,.3,0,.4,0,0,0,0,0,0,0,.1,0,.2,0,.4,0,.1,0,.2,0,.3,0,0,0,0,0,.1Z"/>
    </g>
    <g>
      <g>
        <path class="st1" d="M893.1,370.7l-87.3,158.8-29.2,53.2c-.3.6-.7,1.1-1.1,1.6-.2.3-.4.5-.7.7-.1.2-.3.3-.4.4-.3.3-.7.6-1,.8,0,0,0,0-.1,0-.2.1-.3.2-.5.3-.2.1-.4.2-.6.3-.4.2-.8.4-1.2.5-.4.1-.8.3-1.3.3-.4,0-.7.1-1.1.2-.1,0-.3,0-.4,0-.2,0-.4,0-.6,0-.3,0-.5,0-.8,0,0,0,0,0-.1,0-.2,0-.4,0-.7,0,0,0-.1,0-.2,0-.3,0-.5-.1-.8-.2-.2,0-.4-.1-.6-.2-.1,0-.3,0-.4-.1-.2,0-.3-.1-.4-.2-.1,0-.2,0-.3-.1-.3-.1-.6-.3-.9-.5-.2,0-.3-.2-.5-.3,0,0-.1,0-.2-.1-.2-.1-.4-.3-.6-.4,0,0,0,0,0,0,0,0,0,0,0,0-.1-.1-.3-.2-.4-.3-.1,0-.2-.2-.3-.3-.1,0-.2-.2-.3-.3-.2-.2-.4-.4-.6-.7-.3-.3-.5-.7-.7-1.1,0-.1-.2-.3-.2-.4s-.1-.2-.2-.4c0-.2-.1-.3-.2-.5,0-.2-.2-.4-.2-.6,0,0,0,0,0,0-.1-.3-.2-.7-.3-1.1,0-.4-.2-.8-.2-1.3,0-.1,0-.3,0-.4,0-.2,0-.4,0-.6,0-.3,0-.5,0-.8,0,0,0,0,0-.1,0-.2,0-.4,0-.7,0,0,0-.1,0-.2,0-.3.1-.5.2-.8,0-.2.1-.4.2-.6,0-.1,0-.3.1-.4,0-.2.1-.3.2-.4,0-.1,0-.2.1-.3.1-.3.2-.5.4-.7l116.5-211.9c7-12.6,2.3-28.6-10.3-35.5-6.1-3.3-13.2-4.1-19.9-2.2-6.7,2-12.3,6.4-15.6,12.5l-108.5,196.4c-.5.8-1,1.6-1.7,2.3s-.3.3-.5.5c-1,.9-2.2,1.6-3.5,2-.4.1-.8.3-1.3.3-.7.1-1.3.2-2,.2s-1.3,0-1.9-.2c-.4,0-.8-.2-1.2-.3-.6-.2-1.2-.5-1.8-.8-1.1-.6-2-1.3-2.7-2.2-.5-.5-.8-1.1-1.2-1.7-.2-.4-.4-.8-.6-1.2-.2-.4-.3-.8-.4-1.3-.7-2.5-.4-5.2.9-7.6l108.5-196.4c6-10.9,15.9-18.8,27.9-22.3,2.9-.8,5.8-1.4,8.7-1.7,9.3-.9,18.5,1,26.8,5.6,22.6,12.4,30.8,40.9,18.4,63.4Z"/>
        <path class="st1" d="M854.8,289.2l-6.9,12.6-127.1,230.3c-.5.8-1,1.6-1.7,2.3s-.3.3-.5.5c-1,.9-2.2,1.6-3.5,2-.4.1-.8.3-1.3.3-.7.1-1.3.2-2,.2s-1.3,0-1.9-.2c-.4,0-.8-.2-1.2-.3-.6-.2-1.2-.5-1.8-.8-1.1-.6-2-1.3-2.7-2.2-.5-.5-.8-1.1-1.2-1.7-.2-.4-.4-.8-.6-1.2-.2-.4-.3-.8-.4-1.3,0-.3-.2-.6-.2-.9-.4-2.2,0-4.6,1.1-6.7l134-242.8c6.9-12.6,2.3-28.6-10.3-35.5-12.6-7-28.6-2.3-35.5,10.3l-126.9,231.1c-1.9,3.4-5.4,5.3-9,5.3s-3.4-.4-4.9-1.3c-1.1-.6-2-1.3-2.7-2.2-.3-.3-.6-.7-.8-1.1-1.5-2.2-2.1-5-1.6-7.6.2-1,.6-2.1,1.1-3.1l120-218.5,6.9-12.5c12.4-22.6,40.9-30.8,63.4-18.4,22.6,12.4,30.8,40.9,18.4,63.4Z"/>
        <path class="st1" d="M765.4,300.5l-101.3,184.6c-1.9,3.4-5.4,5.3-9,5.3s-3.4-.4-4.9-1.3c-1.1-.6-2-1.3-2.7-2.2-.3-.3-.6-.7-.8-1.1-1.5-2.2-2.1-5-1.6-7.6.2-1,.6-2.1,1.1-3.1l101.3-184.6c7-12.7,2.3-28.6-10.3-35.5-6.1-3.3-13.1-4.1-19.9-2.2-6.7,2-12.3,6.4-15.6,12.5l-106.5,191.5c-2.8,5-9,6.7-14,4-4.8-2.7-6.7-8.7-4.2-13.6,0-.1.1-.2.2-.3l37.8-67.9h0s68.7-123.6,68.7-123.6c6-10.9,15.9-18.8,27.9-22.3,12-3.5,24.6-2.1,35.5,3.9,8.5,4.7,15,11.6,19.1,19.7,6.8,13.3,7.1,29.7-.6,43.8Z"/>
        <path class="st1" d="M886.6,569.3c-31.2,24.3-60.9,60.4-99.3,120.5-24.9,45.1-65.9,77.9-115.4,92.2-17.9,5.2-36.1,7.8-54.2,7.8-32.1,0-63.9-8.1-92.9-24-12.7-7-24.8-15.7-34.5-24.7-1.9-1.7-3.6-3.4-5.3-5.2h0c-.8-.8-1.6-1.6-2.3-2.4-.1-.1-.2-.3-.3-.4t0,0c-.2-.3-.4-.5-.6-.8-.2-.3-.3-.5-.5-.8,0,0,0,0,0-.1,0,0,0,0,0,0,0,0,0-.2-.1-.2,0-.2-.2-.4-.3-.6,0-.2-.2-.4-.2-.6,0-.1,0-.3-.1-.4,0-.1,0-.3-.1-.4,0-.2,0-.4-.1-.6,0-.1,0-.2,0-.3,0-.2,0-.4,0-.6,0-.3,0-.5,0-.8h0c0-.2,0-.4,0-.6,0,0,0,0,0-.1,0-.1,0-.2,0-.3,0-.1,0-.3,0-.4,0-.2,0-.5.1-.7,0-.1,0-.3,0-.4,0-.2.1-.4.2-.6,0-.1,0-.2.1-.4,0-.1,0-.2.1-.3,0-.1,0-.2.1-.3.3-.6.6-1.1.9-1.7,0,0,.1-.2.2-.3.2-.3.4-.6.6-.8,0,0,.1-.1.2-.2,0,0,.2-.2.2-.2,0,0,0,0,0,0,.1-.1.2-.2.3-.3,0,0,.2-.2.3-.2,0,0,0,0,0,0,0,0,0,0,0,0,0,0,.2-.1.2-.2,0,0,0,0,0,0,0,0,0,0,0,0,.1,0,.2-.2.3-.2,0,0,0,0,0,0,.1,0,.3-.2.4-.3,0,0,.2-.1.3-.2,0,0,0,0,.2,0,0,0,.2,0,.3-.1,0,0,0,0,0,0,0,0,0,0,0,0,0,0,.1,0,.2,0,0,0,0,0,0,0,0,0,.2,0,.3-.1,0,0,.1,0,.2,0,0,0,0,0,0,0,0,0,0,0,.1,0t0,0s0,0,0,0c.1,0,.3,0,.4-.1,0,0,0,0,0,0,.1,0,.2,0,.4-.1,0,0,0,0,.1,0,0,0,.1,0,.2,0,0,0,0,0,0,0,0,0,0,0,.1,0,.1,0,.2,0,.4,0,0,0,0,0,0,0s0,0,0,0c0,0,0,0,0,0,.1,0,.2,0,.3,0,.5,0,.9,0,1.4,0s.4,0,.7,0c.1,0,.3,0,.4,0,.2,0,.4,0,.6,0,.4,0,.7.1,1.1.2.1,0,.3,0,.4.1.5.2,1,.3,1.5.6s.3.2.4.2c0,0,0,0,0,0,0,0,.1,0,.2,0,.3.2.7.4,1,.7.1.1.3.2.4.3.2.1.4.3.6.5,0,0,0,0,0,0,.1.1.2.2.3.4,0,0,0,0,0,0,2.6,2.9,5.6,5.8,9,8.7,8,7,17.8,13.8,27.7,19.3,83.5,45.9,188.8,15.3,234.7-68.2.1-.2.2-.4.3-.6,39.8-62.4,70.9-100.1,104.2-126,5.1-4,9.6-9.1,7.9-11.6-1.9-2.7-9.4-6.8-22.6-7-8.2-.1-24.5,1.3-41.7,11.9-10.2,6.3-25.8,18.1-42.2,38-.2.3-.4.5-.7.7-.1.2-.3.3-.4.4-.3.3-.7.6-1,.8,0,0,0,0-.1,0-.2.1-.3.2-.5.3-.2.1-.4.2-.6.3-.4.2-.8.4-1.2.5-.4.1-.8.3-1.3.3-.4,0-.7.1-1.1.2-.1,0-.3,0-.4,0-.2,0-.4,0-.6,0-.3,0-.5,0-.8,0,0,0,0,0-.1,0-.2,0-.4,0-.7,0,0,0-.1,0-.2,0-.3,0-.5-.1-.8-.2-.2,0-.4-.1-.6-.2-.1,0-.3,0-.4-.1-.2,0-.3-.1-.4-.2-.1,0-.2,0-.3-.1-.3-.1-.6-.3-.9-.5-.2,0-.3-.2-.5-.3,0,0-.1,0-.2-.1-.2-.1-.4-.3-.6-.4,0,0,0,0,0,0,0,0,0,0,0,0-.1-.1-.3-.2-.4-.3-.1,0-.2-.2-.3-.3-.1,0-.2-.2-.3-.3-.2-.2-.4-.4-.6-.7-.3-.3-.5-.7-.7-1.1,0-.1-.2-.3-.2-.4s-.1-.2-.2-.4c0-.2-.1-.3-.2-.5,0-.2-.2-.4-.2-.6,0,0,0,0,0,0-.1-.3-.2-.7-.3-1.1,0-.4-.2-.8-.2-1.3,0-.1,0-.3,0-.4,0-.2,0-.4,0-.6,0-.3,0-.5,0-.8,0,0,0,0,0-.1,0-.2,0-.4,0-.7,0,0,0-.1,0-.2,0-.3.1-.5.2-.8,0-.2.1-.4.2-.6,0-.1,0-.3.1-.4,0-.2.1-.3.2-.4,0-.1,0-.2.1-.3.1-.3.2-.5.4-.7.3-.5.6-1,1-1.5,14.1-17.1,30-31.5,46.2-41.7.4-.2.7-.4,1.1-.7,35.9-22.3,78.9-17.8,91.9.8,3.2,4.6,11.7,20.9-12.1,39.5Z"/>
        <path class="st1" d="M614.9,379h0c-.2,1.6-.4,3.2-.6,4.9-3.7,27.7-11.8,58.7-18.3,70.6-2.7,5-9,6.8-13.9,4.1-4.1-2.3-6.1-6.9-5.1-11.3.2-.9.5-1.8,1-2.7,4-7.3,12-34,15.9-63.4,4.3-31.8,2.4-56.1-5-65-1.4-1.7-4.4-5.3-14.4-1.9-.5.4-3,2.7-6.6,13.8-3.1,9.5-6.1,22.5-9.6,37.6-7.2,31.1-17.1,73.9-35.8,120.8-6.5,16.3-14,33.1-22.9,50.1,0,0,0,0,0,0,0,0,0,0,0,0h0s0,0,0,0c0,0,0,0,0,0,0,0,0,0,0,0,0,0,0,0,0,.1h0s0,0,0,0c0,0,0,0,0,0,0,0,0,0,0,.1,0,0,0,0,0,0,0,0-.1.2-.2.3,0,0,0,.1-.1.2,0,0,0,0,0,.1h0s0,0,0,0c0,0,0,0,0,0,0,0,0,0,0,0,0,0,0,0,0,0,0,0,0,0,0,0,0,0-.1.2-.2.2h0c0,0-.1.2-.2.3,0,0,0,0-.1.1,0,0,0,0,0,0,0,0,0,0,0,0,0,0,0,0,0,0,0,0,0,0,0,0,0,0-.1.2-.2.2,0,0,0,0-.1.1,0,0,0,0-.1.1,0,0-.1.1-.2.2,0,0,0,0,0,0,0,0,0,0,0,0,0,0,0,0,0,0,0,0,0,0-.1,0-.1.1-.3.2-.4.3,0,0,0,0,0,0,0,0,0,0-.1,0,0,0,0,0-.2.1,0,0,0,0,0,0,0,0,0,0,0,0,0,0,0,0,0,0,0,0,0,0-.1,0,0,0-.1,0-.2.1,0,0-.2.1-.3.2,0,0,0,0,0,0,0,0,0,0-.1,0,0,0,0,0-.1,0,0,0,0,0-.2,0,0,0,0,0-.1,0,0,0,0,0,0,0-.1,0-.3.1-.4.2,0,0,0,0,0,0,0,0,0,0,0,0-.1,0-.3.1-.4.2,0,0,0,0,0,0,0,0,0,0-.1,0,0,0,0,0,0,0,0,0,0,0-.1,0,0,0,0,0,0,0,0,0,0,0-.1,0,0,0-.1,0-.2,0,0,0,0,0-.1,0,0,0,0,0,0,0,0,0,0,0,0,0-.1,0-.3,0-.4,0,0,0-.2,0-.2,0,0,0,0,0-.1,0,0,0-.1,0-.2,0,0,0,0,0-.1,0,0,0-.1,0-.2,0,0,0,0,0,0,0s0,0,0,0c-.1,0-.2,0-.3,0,0,0-.1,0-.2,0s0,0,0,0h0c-.4,0-.8,0-1.3,0,0,0,0,0-.1,0,0,0,0,0-.1,0,0,0,0,0,0,0-.1,0-.2,0-.3,0,0,0,0,0,0,0h0s0,0,0,0c0,0-.1,0-.2,0,0,0,0,0,0,0,0,0-.1,0-.2,0s-.1,0-.2,0c0,0,0,0-.1,0-.1,0-.3,0-.4,0,0,0,0,0-.1,0,0,0,0,0,0,0,0,0-.1,0-.2,0,0,0,0,0,0,0,0,0-.2,0-.3,0,0,0-.1,0-.2,0,0,0,0,0,0,0,0,0-.2,0-.2,0,0,0,0,0,0,0,0,0,0,0,0,0,0,0,0,0-.1,0,0,0,0,0-.1,0,0,0,0,0,0,0,0,0,0,0,0,0-.1,0-.2-.1-.3-.2,0,0-.1,0-.2-.1,0,0-.2,0-.2-.1,0,0,0,0,0,0,0,0,0,0-.1,0,0,0-.1,0-.2,0,0,0,0,0-.1,0,0,0,0,0,0,0,0,0,0,0,0,0,0,0,0,0,0,0,0,0,0,0,0,0,0,0,0,0,0,0,0,0-.1,0-.2-.1,0,0,0,0,0,0,0,0-.1,0-.2-.1,0,0,0,0,0,0,0,0,0,0-.1-.1,0,0,0,0,0,0,0,0,0,0,0,0,0,0,0,0,0,0,0,0,0,0,0,0,0,0,0,0,0,0h0s0,0,0,0c0,0,0,0,0,0,0,0,0,0-.1-.1t0,0s0,0-.1,0c0,0-.2-.2-.3-.3,0,0-.1-.1-.1-.2,0,0,0,0,0,0,0,0,0,0,0,0,0,0,0,0-.1-.1,0,0,0,0,0,0,0,0,0,0,0,0h0s0,0,0,0c0,0,0,0-.1-.1s0,0,0,0c0,0,0,0,0,0h0s0,0,0,0c0,0,0-.1-.1-.2,0,0,0,0-.1-.2,0,0,0,0,0,0,0,0,0-.1-.1-.2,0,0,0-.1-.1-.2,0,0,0,0,0-.1,0,0,0-.1,0-.2,0,0,0,0,0,0,0,0,0,0,0,0,0-.1-.1-.2-.2-.3,0,0,0,0,0,0,0,0,0,0,0,0,0,0,0,0,0,0h0s0,0,0,0c0,0,0,0,0,0,0,0,0,0,0,0-.5-1-.8-2-1-3.1,0-.2,0-.4,0-.5-.1-1.7.1-3.4.9-5,0-.2.2-.4.3-.6,0,0,0,0,0-.1,0,0,0,0,0,0,2.7-5.2,5.3-10.3,7.7-15.4.4-.9.9-1.8,1.3-2.7,26.8-56.6,38.9-108.8,47.9-147.9,9.1-39.3,14.1-60.9,29.3-66.1,8.8-3,25.2-5.9,37,8.1,11.3,13.4,14.7,39,10.3,76Z"/>
      </g>
      <path class="st1" d="M647.9,560c0,28-10.1,52.7-30.5,75.6-20,22.4-47.2,39.2-65.9,49.9-28.9,16.5-53.1,34.1-61.2,40.1-8.1-6.1-32.3-23.7-61.1-40.1-18.7-10.7-45.9-27.5-65.9-49.9-20.4-22.8-30.4-47.5-30.4-75.6,0-21.4,6.8-39.6,19.8-52.7,13.3-13.4,33-21.1,54.1-21.1s28.3,3.5,40.3,10.1c17.5,9.6,27.8,23.7,33.4,33.9,0,.1.1.2.2.3,0,0,0,0,0,0,0,0,0,.2.1.3,0,.1.2.3.2.4,0,0,0,.1.1.2,0,0,0,0,0,.1,0,0,0,.1.1.2,0,0,0,.1.1.2,0,0,0,0,0,0,0,0,0,0,.1.1s0,0,.1.1c0,0,0,0,0,0,0,0,0,0,.1.1,0,0,0,.1.1.1,0,0,0,0,0,0,0,0,.2.2.3.3,0,0,.2.2.3.3,0,0,0,0,.1.1,0,0,0,0,0,0,0,0,0,0,.1.1,0,0,0,0,0,0,0,0,0,0,0,0,0,0,0,0,.1,0,0,0,0,0,0,0,0,0,0,0,0,0,0,0,0,0,0,0,0,0,.1,0,.2.1,0,0,0,0,.1,0,0,0,.1,0,.2.1,0,0,0,0,0,0,0,0,.1,0,.2.1,0,0,0,0,0,0,0,0,0,0,.1,0,0,0,0,0,0,0,0,0,0,0,0,0,0,0,0,0,0,0,0,0,0,0,.1,0,0,0,.1,0,.2.1,0,0,0,0,.1,0,0,0,0,0,0,0,0,0,0,0,.1,0,0,0,0,0,.1,0,0,0,.2,0,.2.1.1,0,.3.1.4.2,0,0,0,0,.1,0,0,0,0,0,.1,0,0,0,.1,0,.2,0,0,0,0,0,0,0,0,0,.2,0,.3,0,0,0,.2,0,.3,0,0,0,.2,0,.3,0,0,0,0,0,0,0,0,0,.1,0,.2,0,0,0,0,0,0,0,0,0,0,0,.1,0,.2,0,.3,0,.5.1,0,0,0,0,.1,0,0,0,.1,0,.2,0,0,0,.1,0,.2,0,0,0,0,0,0,0,0,0,.1,0,.2,0h0s0,0,0,0c.1,0,.2,0,.3,0,0,0,0,0,0,0,0,0,0,0,.1,0,0,0,0,0,.1,0,.5,0,.9,0,1.4,0h0s0,0,0,0c0,0,.1,0,.2,0,.1,0,.2,0,.3,0,0,0,0,0,0,0h0c0,0,.1,0,.2,0,0,0,.2,0,.3,0,0,0,.1,0,.2,0,0,0,.2,0,.2,0,.1,0,.2,0,.3,0,0,0,0,0,0,0,0,0,0,0,.1,0,0,0,0,0,0,0,0,0,0,0,.1,0,0,0,.1,0,.2,0,0,0,.1,0,.2,0,0,0,0,0,0,0,0,0,0,0,.1,0,0,0,0,0,0,0,0,0,0,0,.1,0,0,0,.2,0,.3,0,0,0,.2,0,.3-.1,0,0,0,0,0,0,0,0,0,0,0,0,0,0,.1,0,.2,0,0,0,.1,0,.2,0,0,0,0,0,0,0,0,0,0,0,.1,0,0,0,0,0,0,0,0,0,0,0,.1,0,0,0,.1,0,.2,0,0,0,0,0,.1,0,0,0,0,0,.1,0,0,0,0,0,0,0,0,0,.2-.1.3-.2,0,0,.1,0,.2-.1,0,0,0,0,.1,0,0,0,0,0,0,0,0,0,0,0,0,0,0,0,0,0,.1,0,0,0,0,0,0,0,0,0,0,0,.1-.1,0,0,0,0,0,0,.2-.1.3-.2.5-.4,0,0,0,0,.1-.1,0,0,0,0,0,0,0,0,0,0,0,0,0,0,0,0,0,0,0,0,.1-.1.2-.2,0,0,0,0,.1-.1,0,0,0,0,.1-.1,0,0,.2-.2.2-.3,0,0,0,0,0,0,0,0,0,0,0,0,0,0,0,0,0-.1,0,0,0,0,0,0,0,0,0-.1.1-.2,0,0,.2-.2.2-.3h0c0,0,.1-.2.2-.3,0,0,0,0,0-.1,0,0,0,0,0,0,0,0,0,0,0,0,0,0,0,0,0-.1,0,0,0-.1.1-.2,0,0,.1-.2.2-.3,0,0,0,0,0,0,0,0,0,0,0-.1,0,0,0,0,0-.1,0,0,0-.1,0-.2,0,0,0-.1.1-.2,5.6-10.2,15.8-24.1,33.2-33.7,12-6.6,25.9-10.1,40.3-10.1,21,0,40.7,7.7,54.1,21.1,13,13.1,19.9,31.3,19.8,52.7Z"/>
      <path class="st2" d="M874,553c-33.3,25.9-64.4,63.6-104.2,126-.1.2-.2.4-.3.6-45.9,83.5-151.2,114.1-234.7,68.2-9.9-5.5-19.7-12.3-27.7-19.3,9.5-6.9,28.2-20,49.4-32.1,18.3-10.5,45-27,65.3-49.7,21.8-24.4,33-52.2,33.1-82.7,0-25.1-8.2-46.8-24.1-62.7-16-16.1-39.3-25.3-64-25.3-15.6,0-30.9,3.6-44.3,10.5,18.7-46.9,28.6-89.8,35.8-120.8,3.5-15.1,6.5-28.1,9.6-37.6,3.6-11.1,6.1-13.4,6.6-13.8,10-3.4,13,.2,14.4,1.9,7.4,8.8,9.3,33.1,5,65-4,29.4-11.9,56.2-15.9,63.4-.5.9-.8,1.8-1,2.7-2.5,4.9-.7,10.9,4.2,13.6,5,2.8,11.2,1,14-4l106.5-191.5c3.3-6.1,8.9-10.5,15.6-12.5,6.7-1.9,13.8-1.2,19.9,2.2,12.6,7,17.3,22.9,10.3,35.5l-101.3,184.6c-.5,1-.9,2-1.1,3.1-.5,2.7,0,5.4,1.6,7.6.3.4.5.7.8,1.1.8.9,1.7,1.6,2.7,2.2,1.6.9,3.3,1.3,4.9,1.3,3.6,0,7.1-1.9,9-5.3l126.9-231.1c7-12.6,22.9-17.3,35.5-10.3,12.6,7,17.3,22.9,10.3,35.5l-134,242.8c-1.3,2.4-1.6,5.2-.9,7.6.1.4.3.9.4,1.3.2.4.4.8.6,1.2.3.6.7,1.1,1.2,1.7.8.9,1.7,1.6,2.7,2.2.6.3,1.2.6,1.8.8.4.1.8.2,1.2.3.6.1,1.3.2,1.9.2s1.4,0,2-.2c.4,0,.9-.2,1.3-.3,1.3-.4,2.5-1.1,3.5-2,.2-.2.3-.3.5-.5.7-.7,1.2-1.4,1.7-2.3l108.5-196.4c3.3-6.1,8.9-10.5,15.6-12.5,6.7-2,13.8-1.2,19.9,2.2,12.6,7,17.3,22.9,10.3,35.5l-116.5,211.9c-.1.2-.3.5-.4.7,0,.1,0,.2-.1.3,0,.1-.1.3-.2.4,0,.1,0,.3-.1.4,0,.2-.1.4-.2.6,0,.3-.1.5-.2.8,0,0,0,.1,0,.2,0,.2,0,.4,0,.7,0,0,0,0,0,.1,0,.3,0,.5,0,.8s0,.4,0,.6c0,.1,0,.3,0,.4,0,.4,0,.8.2,1.3,0,.4.2.7.3,1.1,0,0,0,0,0,0,0,.2.1.4.2.6,0,.2.1.3.2.5,0,.1.1.2.2.4s.1.3.2.4c.2.4.5.7.7,1.1.2.2.4.5.6.7,0,.1.2.2.3.3,0,.1.2.2.3.3.1.1.3.2.4.3,0,0,0,0,0,0,0,0,0,0,0,0,.2.2.4.3.6.4,0,0,.1,0,.2.1.1.1.3.2.5.3.3.2.6.4.9.5.1,0,.2,0,.3.1.1,0,.3.1.4.2.1,0,.3,0,.4.1.2,0,.4.1.6.2.3,0,.5.1.8.2,0,0,.1,0,.2,0,.2,0,.4,0,.7,0,0,0,0,0,.1,0,.3,0,.5,0,.8,0s.4,0,.6,0c.1,0,.3,0,.4,0,.4,0,.7,0,1.1-.2.4,0,.9-.2,1.3-.3.4-.1.8-.3,1.2-.5.2,0,.4-.2.6-.3.2,0,.3-.2.5-.3,0,0,0,0,.1,0,.4-.2.7-.5,1-.8.2-.1.3-.3.4-.4.2-.2.5-.5.7-.7,16.4-19.9,32-31.7,42.2-38,17.1-10.6,33.4-12,41.7-11.9,13.1.2,20.7,4.3,22.6,7,1.7,2.4-2.7,7.6-7.9,11.6Z"/>
      <path class="st1" d="M654.9,564c-.1,30.4-11.2,58.2-33.1,82.7-20.3,22.7-47,39.2-65.3,49.7-21.2,12.1-39.9,25.2-49.4,32.1-4.2,3.1-6.7,4.9-6.7,5-1.4,1.1-3,1.9-4.6,2.5t0,0c-1.5.5-3.1.8-4.7.9-.2,0-.4,0-.5,0s-.4,0-.5,0c-2.8-.1-5.3-1.4-7.1-3.3-.1-.1-.2-.3-.3-.4t0,0c-.2-.3-.4-.5-.6-.8-.2-.3-.3-.5-.5-.8,0,0,0,0,0-.1,0,0,0,0,0,0,0,0,0-.2-.1-.2,0-.2-.2-.4-.3-.6,0-.2-.2-.4-.2-.6,0-.1,0-.3-.1-.4,0-.1,0-.3-.1-.4,0-.2,0-.4-.1-.6,0-.1,0-.2,0-.3,0-.2,0-.4,0-.6,0-.3,0-.5,0-.8h0c0-.2,0-.4,0-.6,0,0,0,0,0-.1,0-.1,0-.2,0-.3,0-.1,0-.3,0-.4,0-.2,0-.5.1-.7,0-.1,0-.3,0-.4,0-.2.1-.4.2-.6,0-.1,0-.2.1-.4,0-.1,0-.2.1-.3,0-.1,0-.2.1-.3.3-.6.6-1.1.9-1.7,0,0,.1-.2.2-.3.2-.3.4-.6.6-.8,0,0,.1-.1.2-.2,0,0,.2-.2.2-.2,0,0,0,0,0,0,.1-.1.2-.2.3-.3,0,0,.2-.2.3-.2,0,0,0,0,0,0,0,0,0,0,0,0,0,0,.2-.1.2-.2,0,0,0,0,0,0,0,0,0,0,0,0,.1,0,.2-.2.3-.2,0,0,0,0,0,0,.1,0,.3-.2.4-.3,0,0,.2-.1.3-.2,0,0,0,0,.2,0,0,0,.2,0,.3-.1,0,0,0,0,0,0,0,0,0,0,0,0,0,0,.1,0,.2,0,0,0,0,0,0,0,0,0,.2,0,.3-.1,0,0,.1,0,.2,0h0s0,0,0,0c0,0,0,0,0,0,0,0,0,0,.1,0t0,0h0s0,0,0,0c0,0,0,0,0,0,.1,0,.2,0,.3-.1,0,0,0,0,0,0,.1,0,.2,0,.4-.1,0,0,0,0,.1,0,0,0,0,0,0,0,0,0,0,0,.1,0,0,0,0,0,0,0,0,0,0,0,.1,0,.1,0,.2,0,.4,0,0,0,0,0,0,0s0,0,0,0c0,0,0,0,0,0,0,0,0,0,0,0,.4-.3,1-.7,1.6-1.2,7.4-5.5,29.5-21.6,55.9-36.7,17.1-9.8,41.9-25.1,60.2-45.6,18.6-20.9,27.7-43.4,27.8-69,0-19.5-6.2-36.2-18.1-48.1-12.2-12.2-30.2-19.2-49.4-19.2-13.1,0-25.8,3.2-36.8,9.2-15.9,8.7-25.3,21.5-30.4,30.8,0,0,0,0,0,0,0,0,0,0,0,0,0,0,0,0,0,0,0,0,0,0,0,0,0,0,0,0,0,0,0,0,0,0,0,.1,0,0,0,0,0,0,0,0,0,0,0,0,0,0,0,0,0,.1,0,0,0,0,0,0,0,0-.1.2-.2.3,0,0,0,.1-.1.2,0,0,0,0,0,.1,0,0,0,0,0,0h0s0,0,0,0c0,0,0,0,0,0,0,0,0,0,0,0,0,0,0,0,0,0,0,0,0,0,0,0,0,0-.1.2-.2.2h0c0,0-.1.2-.2.3,0,0,0,0-.1.1,0,0,0,0,0,0,0,0,0,0,0,0,0,0,0,0,0,0,0,0,0,0,0,0,0,0-.1.2-.2.2,0,0,0,0-.1.1,0,0,0,0-.1.1,0,0-.1.1-.2.2,0,0,0,0,0,0,0,0,0,0,0,0,0,0,0,0,0,0,0,0,0,0-.1,0-.1.1-.3.2-.4.3,0,0,0,0,0,0,0,0,0,0-.1,0,0,0,0,0-.2.1,0,0,0,0,0,0,0,0,0,0,0,0,0,0,0,0,0,0,0,0,0,0-.1,0,0,0-.1,0-.2.1,0,0-.2.1-.3.2,0,0,0,0,0,0,0,0,0,0-.1,0,0,0,0,0-.1,0h0s-.1,0-.2,0c0,0,0,0-.1,0,0,0,0,0,0,0,0,0,0,0-.1,0,0,0,0,0,0,0,0,0,0,0-.1,0,0,0-.1,0-.2,0,0,0,0,0,0,0,0,0,0,0,0,0,0,0-.2,0-.2,0,0,0-.1,0-.2,0,0,0,0,0,0,0,0,0,0,0-.1,0,0,0,0,0,0,0,0,0,0,0-.1,0,0,0,0,0,0,0,0,0,0,0-.1,0,0,0-.1,0-.2,0,0,0,0,0-.1,0,0,0,0,0,0,0,0,0,0,0,0,0,0,0,0,0,0,0-.1,0-.2,0-.3,0,0,0-.2,0-.2,0,0,0,0,0-.1,0,0,0-.1,0-.2,0,0,0,0,0-.1,0,0,0-.1,0-.2,0h0s0,0,0,0c-.1,0-.2,0-.3,0,0,0-.1,0-.2,0s0,0,0,0h0c-.4,0-.8,0-1.3,0,0,0,0,0-.1,0,0,0,0,0-.1,0,0,0,0,0,0,0-.1,0-.2,0-.3,0,0,0,0,0,0,0h0s0,0,0,0c0,0-.1,0-.2,0,0,0,0,0,0,0,0,0-.1,0-.2,0s-.1,0-.2,0c0,0,0,0-.1,0-.1,0-.3,0-.4,0,0,0,0,0-.1,0,0,0,0,0,0,0,0,0-.1,0-.2,0,0,0,0,0,0,0,0,0-.2,0-.3,0,0,0-.1,0-.2,0,0,0-.1,0-.2,0,0,0,0,0-.1,0,0,0,0,0,0,0,0,0,0,0,0,0,0,0,0,0-.1,0,0,0-.1,0-.2,0,0,0,0,0,0,0-.1,0-.2-.1-.3-.2,0,0-.1,0-.2-.1,0,0-.2,0-.2-.1,0,0,0,0,0,0,0,0,0,0-.1,0,0,0-.1,0-.2,0,0,0,0,0-.1,0,0,0,0,0,0,0,0,0,0,0,0,0,0,0,0,0,0,0,0,0,0,0,0,0,0,0,0,0,0,0,0,0-.1,0-.2-.1,0,0,0,0,0,0,0,0-.1,0-.2-.1,0,0,0,0,0,0,0,0,0,0-.1-.1,0,0,0,0,0,0,0,0,0,0,0,0,0,0,0,0,0,0,0,0,0,0,0,0,0,0,0,0,0,0,0,0,0,0,0,0,0,0,0,0,0,0,0,0,0,0-.1-.1t0,0s0,0-.1,0c0,0-.2-.2-.3-.3,0,0-.1-.1-.1-.2,0,0,0,0,0,0,0,0,0,0,0,0,0,0,0,0-.1-.1,0,0,0,0,0,0,0,0,0,0,0,0h0s0,0,0,0c0,0,0,0-.1-.1s0,0,0,0c0,0,0,0,0,0,0,0,0,0,0,0h0s0,0,0,0c0,0,0-.1-.1-.2,0,0,0,0-.1-.2,0,0,0,0,0,0,0,0,0-.1-.1-.2,0,0,0-.1-.1-.2,0,0,0-.1,0-.2,0,0,0,0,0-.1,0,0,0,0,0,0,0,0,0,0,0,0,0-.1-.1-.2-.2-.3,0,0,0,0,0,0,0,0,0,0,0,0,0,0,0,0,0,0h0s0,0,0,0c0,0,0,0,0,0,0,0,0,0,0,0-.5-1-.8-2-1-3.1,0-.2,0-.4,0-.5-.1-1.7.1-3.4.9-5,0-.2.2-.4.3-.6,0,0,0,0,0-.1,0,0,0,0,0,0,2.3-4.2,5.2-8.9,9-13.8.4-.5.8-1.1,1.3-1.6,6.8-8.4,16-17,28.4-23.9.8-.4,1.6-.9,2.4-1.3,13.4-6.9,28.7-10.5,44.3-10.5,24.6,0,47.9,9.2,64,25.3,15.8,15.9,24.2,37.6,24.1,62.7Z"/>
    </g>
  </g>
</svg>