<?xml version="1.0" encoding="UTF-8"?><svg id="Vote" xmlns="http://www.w3.org/2000/svg" width="250" height="125" viewBox="0 0 250 125"><path d="M55.8066,110.2089c-1.3176,2.573-2.5722,5.4592-5.9605,5.4592-3.6394,0-4.5804-2.0708-5.9609-5.02l-12.4862-27.6075c-1.8823-4.0779-2.447-4.8311-4.894-5.2073-1.255-.1881-1.8823-1.1295-1.8823-2.447,0-4.8319,9.9766-5.0829,13.1765-5.0829,13.1765,0,12.6743,3.1373,12.6743,4.0786,0,2.3848-3.0118,2.51-3.0118,4.2038,0,1.3176,2.447,6.2124,3.9531,9.4748.5647,1.0665,1.255,3.5135,2.6351,3.5765,2.0708.1251,3.1373-3.3884,3.8901-4.7059.7532-1.5057,3.6394-7.153,3.6394-8.6586,0-2.2589-3.2003-1.6316-3.2003-4.1416,0-3.8897,7.9058-3.8276,10.4158-3.8276,7.9058,0,9.2234,1.4435,9.2234,3.6394,0,1.6946-1.2546,2.51-2.7607,2.6981-2.6981.314-2.9492.1259-5.3332,4.957l-14.1178,28.6111Z" style="fill:#1665c0;"/><path d="M79.0899,92.8287c0-13.3016,10.6035-22.7135,24.2821-22.7135,17.3177,0,23.9681,15.2473,23.9681,23.3408,0,13.4905-11.9211,22.4002-24.7209,22.4002-13.2394,0-23.5293-9.663-23.5293-23.0275ZM100.4858,79.4641c-3.5139,0-5.2707,3.6394-5.2707,6.7138,0,5.3332,3.7646,20.3294,10.5409,20.3294,3.8276,0,5.4592-3.3254,5.4592-6.7138,0-5.7095-3.3884-20.3294-10.7294-20.3294Z" style="fill:#1665c0;"/><path d="M160.1605,70.9936c2.6981,0,3.9527-.2503,4.894-.4392.8784-.2511,1.3805-.4392,2.5722-.4392,2.4478,0,7.53,4.8319,7.53,11.6078,0,3.1373-1.6316,5.2081-4.8319,5.2081-5.4584,0-5.3954-7.404-8.5957-7.404-2.447,0-2.1959,3.3884-2.1959,3.8905v19.2622c0,7.467,5.7724,3.8905,5.7724,8.2824,0,1.9449-1.1924,4.7059-12.9254,4.7059-3.2003,0-14.9332.1251-14.9332-4.7059,0-3.3254,3.8897-2.0078,5.1451-4.3919.6273-1.3176.8784-5.0829.9406-6.6508l.5022-13.8667c.2511-6.5886-1.0665-6.5257-1.9449-6.5257-2.8232,0-4.2038,7.404-9.2859,7.404-2.447,0-3.8905-2.2589-3.8905-4.5178,0-5.3332,4.5178-12.2981,8.0943-12.2981.4392,0,1.1295.1881,2.3211.4392,1.1924.1889,2.8862.4392,5.3962.4392h15.4354Z" style="fill:#1665c0;"/><path d="M201.9535,70.9936c8.4076,0,9.6-1.2546,10.6035-1.2546,3.5765,0,5.0829,6.1487,5.0829,8.9097,0,2.0708-.8162,4.5178-3.2632,4.5178-4.957,0-.9413-6.0235-12.8624-6.0235-6.9649,0-6.2746,1.2546-6.2746,8.4705,0,3.6394.1881,3.7646,4.0157,3.7646,4.7689,0,1.1924-6.9649,5.6473-6.9649,3.6387,0,3.8897,7.09,3.8897,9.537,0,2.573-.4392,10.1021-4.2038,10.1021-3.8897,0,0-6.5886-6.3368-6.5886-2.6359,0-2.573,2.3848-2.573,4.3927,0,9.1608.6273,8.7216,7.2159,8.7216,12.8624,0,9.223-8.8475,14.3681-8.8475,2.0078,0,3.0121,2.2589,3.0121,4.0157,0,4.2667-3.3884,11.9219-5.8984,11.9219-.4392,0-1.4427-.1881-2.7603-.3762-1.3805-.1259-3.1373-.314-5.2711-.314h-25.7878c-4.1416,0-4.2038-1.8827-4.2038-2.6981,0-3.4505,4.2667-.6903,4.7059-7.3411.7524-11.4197.8154-10.2903.1881-21.647-.4392-9.6-5.2081-4.643-5.2081-9.0978,0-3.8276,5.2703-3.2003,7.8432-3.2003h18.0705Z" style="fill:#1665c0;"/><path d="M61.6156,74.9266c-1.2038,2.3502-2.3498,4.9861-5.4446,4.9861-3.3238,0-4.1833-1.8913-5.4442-4.5847l-11.4048-25.2156c-1.719-3.7252-2.2349-4.4131-4.4698-4.7571-1.1464-.1716-1.7194-1.0311-1.7194-2.2345,0-4.4131,9.112-4.6422,12.0348-4.6422,12.0352,0,11.5763,2.865,11.5763,3.7252,0,2.1771-2.7508,2.292-2.7508,3.8394,0,1.2034,2.2353,5.6733,3.6107,8.6539.5159.9736,1.146,3.2089,2.4069,3.2664,1.8913.1141,2.8654-3.0948,3.5533-4.2982.6875-1.375,3.3238-6.5335,3.3238-7.9086,0-2.0629-2.9228-1.4899-2.9228-3.7827,0-3.5529,7.221-3.4954,9.5134-3.4954,7.221,0,8.4245,1.3176,8.4245,3.3238,0,1.5474-1.1464,2.292-2.5218,2.4643-2.4643.2865-2.6934.1141-4.8712,4.5273l-12.8943,26.1326Z" style="fill:#999;"/><path d="M82.8722,59.052c0-12.1493,9.6854-20.7458,22.1787-20.7458,15.8171,0,21.8918,13.9266,21.8918,21.3188,0,12.3217-10.8884,20.4593-22.5797,20.4593-12.0919,0-21.4908-8.8255-21.4908-21.0323ZM102.4146,46.8452c-3.2093,0-4.8138,3.3238-4.8138,6.1321,0,4.8712,3.4383,18.568,9.6279,18.568,3.4958,0,4.9857-3.0373,4.9857-6.1321,0-5.2152-3.0948-18.568-9.7999-18.568Z" style="fill:#999;"/><path d="M156.9114,39.1091c2.4643,0,3.6103-.2298,4.4698-.4014.802-.229,1.2609-.4014,2.3494-.4014,2.2353,0,6.8775,4.4131,6.8775,10.6027,0,2.865-1.4899,4.7563-4.4131,4.7563-4.9854,0-4.9287-6.7626-7.8511-6.7626-2.2353,0-2.0063,3.0948-2.0063,3.5537v17.5936c0,6.8192,5.2726,3.5529,5.2726,7.5646,0,1.7764-1.0885,4.2982-11.8054,4.2982-2.9232,0-13.6401.1149-13.6401-4.2982,0-3.0373,3.5537-1.8339,4.6996-4.0117.573-1.2034.802-4.6422.8595-6.0747l.4589-12.6649c.229-6.018-.9744-5.9605-1.7764-5.9605-2.5793,0-3.8402,6.7626-8.4823,6.7626-2.2345,0-3.5529-2.0629-3.5529-4.1259,0-4.872,4.1259-11.2332,7.393-11.2332.4006,0,1.0311.1724,2.1204.4014,1.0885.1716,2.6359.4014,4.9287.4014h14.0981Z" style="fill:#999;"/><path d="M195.0745,39.1091c7.6795,0,8.768-1.1468,9.685-1.1468,3.2672,0,4.6422,5.6166,4.6422,8.1384,0,1.8913-.7454,4.1259-2.9799,4.1259-4.5273,0-.8595-5.5017-11.7487-5.5017-6.3612,0-5.7307,1.1468-5.7307,7.737,0,3.3238.1716,3.4387,3.6678,3.4387,4.3557,0,1.0885-6.3612,5.1577-6.3612,3.3238,0,3.5529,6.4753,3.5529,8.7106,0,2.3494-.4006,9.2269-3.8394,9.2269-3.5529,0,0-6.018-5.7882-6.018-2.4069,0-2.3494,2.1778-2.3494,4.0117,0,8.3674.573,7.966,6.5902,7.966,11.7487,0,8.4249-8.0801,13.1237-8.0801,1.8339,0,2.7508,2.0629,2.7508,3.6678,0,3.8968-3.0948,10.8884-5.3868,10.8884-.4014,0-1.3184-.1724-2.5218-.344-1.2609-.1149-2.8657-.2865-4.8138-.2865h-23.5541c-3.7827,0-3.8402-1.719-3.8402-2.4643,0-3.1522,3.8976-.6304,4.2982-6.7051.6879-10.4304.7454-9.3985.1724-19.7714-.4014-8.768-4.7571-4.2408-4.7571-8.31,0-3.4954,4.8146-2.9224,7.164-2.9224h16.505Z" style="fill:#999;"/><path d="M69.9877,40.122c-1.0382,2.0267-2.0271,4.3014-4.6969,4.3014-2.8673,0-3.6088-1.6316-4.6965-3.9551l-9.8381-21.7533c-1.4832-3.2136-1.9283-3.8063-3.8563-4.103-.989-.1488-1.4832-.8902-1.4832-1.9283,0-3.8071,7.8605-4.0047,10.3819-4.0047,10.3819,0,9.9868,2.4722,9.9868,3.2136,0,1.8788-2.373,1.9779-2.373,3.312,0,1.0389,1.9279,4.8948,3.1145,7.4654.4447.8406.9886,2.7689,2.0763,2.8177,1.6316.0992,2.4718-2.669,3.0653-3.7071.5931-1.1869,2.8673-5.6363,2.8673-6.8232,0-1.7796-2.5214-1.2853-2.5214-3.2624,0-3.0657,6.2293-3.0161,8.2069-3.0161,6.2293,0,7.2675,1.1373,7.2675,2.8673,0,1.3349-.989,1.9779-2.1755,2.1259-2.1255.2471-2.3235.0992-4.2022,3.9055l-11.1234,22.5443Z" style="fill:#c62828;"/><path d="M88.3329,26.4277c0-10.4807,8.3552-17.8966,19.1327-17.8966,13.6448,0,18.8851,12.0132,18.8851,18.3909,0,10.6295-9.393,17.6494-19.4786,17.6494-10.4315,0-18.5392-7.6134-18.5392-18.1437ZM105.1914,15.8973c-2.7685,0-4.1526,2.8673-4.1526,5.2899,0,4.2022,2.9661,16.0178,8.3056,16.0178,3.0157,0,4.301-2.6202,4.301-5.2899,0-4.4989-2.6698-16.0178-8.454-16.0178Z" style="fill:#c62828;"/><path d="M152.2102,9.2229c2.1259,0,3.1145-.1976,3.8559-.3463.6918-.1976,1.0877-.3455,2.0267-.3455,1.9283,0,5.933,3.8063,5.933,9.1458,0,2.4722-1.2853,4.1038-3.8071,4.1038-4.3006,0-4.2518-5.8338-6.7728-5.8338-1.9283,0-1.73,2.6698-1.73,3.0649v15.1772c0,5.8834,4.5477,3.0657,4.5477,6.5264,0,1.5324-.939,3.7079-10.184,3.7079-2.5218,0-11.766.0984-11.766-3.7079,0-2.6202,3.0649-1.582,4.0535-3.4608.4943-1.0382.6926-4.0047.7414-5.2404l.3959-10.9262c.1976-5.1908-.8406-5.1412-1.5324-5.1412-2.2251,0-3.3128,5.8338-7.3175,5.8338-1.9276,0-3.0649-1.7804-3.0649-3.56,0-4.2022,3.56-9.6897,6.3777-9.6897.3463,0,.8894.148,1.8292.3455.939.1488,2.2739.3463,4.2518.3463h12.1619Z" style="fill:#c62828;"/><path d="M185.1392,9.2229c6.6248,0,7.5638-.9886,8.3548-.9886,2.8185,0,4.0047,4.8453,4.0047,7.0199,0,1.6316-.6423,3.56-2.5706,3.56-3.9055,0-.7414-4.7461-10.1352-4.7461-5.4875,0-4.9436.9886-4.9436,6.6736,0,2.8681.148,2.9665,3.1641,2.9665,3.7575,0,.939-5.4875,4.4494-5.4875,2.8673,0,3.0657,5.5867,3.0657,7.515,0,2.0267-.3463,7.9589-3.3128,7.9589-3.0649,0,0-5.1908-4.9932-5.1908-2.0763,0-2.0267,1.8788-2.0267,3.4608,0,7.2183.4943,6.872,5.6851,6.872,10.1352,0,7.2679-6.9711,11.3213-6.9711,1.582,0,2.373,1.7804,2.373,3.1641,0,3.3624-2.6698,9.3938-4.6469,9.3938-.3463,0-1.1373-.1488-2.1755-.2967-1.0877-.0992-2.4722-.2471-4.1526-.2471h-20.3192c-3.2632,0-3.3128-1.4836-3.3128-2.1259,0-2.7194,3.3624-.5439,3.7079-5.7842.5935-8.9979.643-8.1085.1488-17.0568-.3463-7.5638-4.1038-3.6583-4.1038-7.1679,0-3.0161,4.1534-2.5218,6.1801-2.5218h14.2382Z" style="fill:#c62828;"/></svg>