<?xml version="1.0" encoding="UTF-8"?><svg xmlns="http://www.w3.org/2000/svg" viewBox="0 0 200 120"><defs><style>.d{fill:none;}.e{fill:#ff2846;}.f{fill:#1c54b7;}.g{fill:#1a42cf;}.h{fill:#1c0d32;}</style></defs><g id="a"/><g id="b"><g id="c"><path class="e" d="M193.87,40.75c.6,0,1.09-.49,1.09-1.09h0v-10.9c0-.6-.48-1.09-1.08-1.1h-37.74c-.29,0-.58,.11-.78,.32-.21,.21-.32,.49-.32,.78v10.89c0,.29,.11,.57,.32,.78,.2,.21,.49,.33,.78,.32h37.73Z"/><path class="e" d="M193.87,15.43c.6,0,1.09-.49,1.09-1.09h0V3.45c.01-.29-.1-.58-.32-.78-.2-.21-.48-.32-.77-.32h-37.73c-.6,0-1.09,.48-1.1,1.08,0,0,0,.01,0,.02V14.33c0,.29,.11,.58,.32,.78,.2,.22,.49,.33,.78,.32h37.73Z"/><path class="e" d="M18.39,65.48L2.65,3.55v-.37c0-.55,.34-.82,1-.82h14.1c.6-.05,1.13,.4,1.18,1l7.87,39.07c.06,.18,.15,.27,.28,.27s.21-.09,.27-.27L35,3.37c0-.55,.43-1.01,.98-1.02,.07,0,.13,0,.2,.02h13.82c.85,0,1.19,.4,1,1.19l-16,61.92c-.15,.58-.69,.97-1.29,.92h-14.04c-.6,.06-1.14-.34-1.28-.92Z"/><path class="g" d="M34.09,115.45c-1.69-1.66-2.62-3.94-2.56-6.31-.02-2.36,1-4.6,2.79-6.14,3.48-3.41,9.05-3.41,12.53,0,1.79,1.53,2.81,3.78,2.79,6.13,.06,2.37-.87,4.65-2.56,6.31-1.72,1.71-4.07,2.64-6.49,2.56-2.43,.08-4.78-.84-6.5-2.55Z"/><path class="d" d="M77.53,53.26c1.94,.08,3.82-.71,5.12-2.15,1.33-1.57,2.01-3.58,1.92-5.63V22.54c.08-2.08-.64-4.1-2-5.67-1.28-1.45-3.14-2.26-5.07-2.2-1.94-.08-3.82,.71-5.13,2.15-1.34,1.6-2.02,3.64-1.92,5.72v22.94c-.09,2.05,.59,4.06,1.92,5.63,1.31,1.45,3.21,2.24,5.16,2.15Z"/><path class="d" d="M77.44,66.26c-1.9-.05-3.73,.73-5,2.14-1.34,1.6-2.02,3.64-1.92,5.72v22.94c-.09,2.05,.59,4.06,1.92,5.63,2.78,2.83,7.32,2.87,10.15,.1,.03-.03,.06-.06,.1-.1,1.33-1.57,2.01-3.58,1.92-5.63v-22.94c.08-2.08-.64-4.1-2-5.67-1.26-1.43-3.09-2.23-5-2.19h-.17Z"/><path class="e" d="M97,11.79c-1.84-3.18-4.56-5.77-7.83-7.45-3.6-1.83-7.6-2.75-11.64-2.66-4.03-.08-8.02,.83-11.62,2.66-3.27,1.68-5.98,4.27-7.82,7.45-1.91,3.39-2.88,7.23-2.79,11.12v22c-.09,3.93,.87,7.82,2.79,11.25,.76,1.32,1.67,2.55,2.72,3.66,1.5-1.58,3.25-2.9,5.19-3.9,3.26-1.66,8.12-2.52,11.78-2.6-.21-.01-1.09-.02-1.77-.17-1.31-.28-2.46-.95-3.48-1.95-.03-.03-.06-.06-.1-.1-1.33-1.57-2.01-3.58-1.92-5.63l-.03-22.94c-.1-2.08,.58-4.12,1.92-5.72,1.31-1.44,3.19-2.23,5.13-2.15,1.93-.06,3.79,.75,5.07,2.2,1.36,1.57,2.08,3.59,2,5.67v22.94c.09,2.05-.59,4.06-1.92,5.63-1.05,1.07-2.09,1.77-3.48,2.05-.9,.16-1.18,.14-1.42,.16,3.7,.07,8.16,.92,11.45,2.6,1.9,.99,3.62,2.26,5.1,3.81,1.02-1.08,1.92-2.26,2.67-3.55,1.91-3.44,2.88-7.32,2.79-11.25V22.93c.09-3.9-.88-7.74-2.79-11.14Z"/><path class="g" d="M96.95,63.33c-.76-1.31-1.58-2.5-2.62-3.6-1.5,1.59-3.35,2.9-5.29,3.91-3.13,1.57-6.55,2.37-10.04,2.48,.11,.09-1.49,0-1.41,.1,3.03,0,4.15,1.19,5.04,2.19,1.36,1.57,2.08,3.59,2,5.67v22.94c.09,2.05-.59,4.06-1.92,5.63-2.78,2.83-7.32,2.87-10.15,.1-.03-.03-.06-.06-.1-.1-1.33-1.57-2.01-3.58-1.92-5.63v-22.94c-.1-2.08,.58-4.12,1.92-5.72,.91-1.01,2.34-2.14,5.05-2.14,.07-.09-1.48-.02-1.39-.09-3.54-.1-7.02-.9-10.19-2.49-1.9-.99-3.62-2.29-5.1-3.84-1.01,1.07-1.9,2.26-2.64,3.53-1.91,3.39-2.87,7.23-2.79,11.12v22c-.09,3.93,.88,7.81,2.79,11.25,1.83,3.21,4.55,5.81,7.83,7.5,3.59,1.83,7.58,2.74,11.61,2.66,4.03,.08,8.02-.83,11.62-2.66,3.28-1.69,6-4.29,7.82-7.5,1.91-3.44,2.88-7.32,2.79-11.25v-22c.05-3.9-.96-7.74-2.91-11.12Z"/><path class="h" d="M65.91,63.66c3.57,1.79,7.53,2.68,11.53,2.58h.29c3.96,.08,7.87-.8,11.41-2.58,1.94-1.01,3.69-2.34,5.19-3.93-1.48-1.55-3.2-2.84-5.1-3.83-3.6-1.83-7.6-2.68-11.63-2.6-4.03-.08-8.01,.77-11.6,2.6-1.94,1.01-3.69,2.33-5.19,3.92,1.48,1.55,3.2,2.85,5.1,3.84Z"/><path class="d" d="M128.15,66.42h-6.41c-.22-.03-.42,.12-.45,.34,0,.04,0,.08,0,.12v13c-.03,.22,.12,.42,.34,.45,.04,0,.07,0,.11,0h6.41c1.76,.08,3.48-.6,4.71-1.87,1.23-1.36,1.87-3.16,1.78-5,.11-1.89-.53-3.75-1.78-5.17-1.23-1.26-2.95-1.94-4.71-1.87Z"/><path class="e" d="M133.88,53.66V15.89c-.04-.22,.11-.42,.33-.46,.04,0,.09,0,.13,0h13.72c.29,0,.57-.11,.77-.32,.22-.2,.34-.48,.33-.78V3.45c.01-.3-.11-.58-.33-.78-.2-.21-.48-.32-.77-.32h-43c-.29,0-.57,.11-.78,.32-.21,.2-.33,.49-.32,.78V14.33c0,.29,.11,.58,.32,.78,.21,.21,.49,.32,.78,.32h13.18c.22-.03,.42,.12,.45,.34,0,.04,0,.08,0,.12V53.43h11.93c1.09,0,2.18,.08,3.26,.23Z"/><path class="d" d="M128.14,66.39h-6.41c-.05,0-.08,0-.12,0-.23,0-.33,.14-.32,.48v13s0,.07,0,.11c.03,.22,.23,.37,.45,.34h6.41c1.76,.08,3.48-.6,4.71-1.87,1.23-1.36,1.77-3.16,1.78-5,0-1.89-.53-3.75-1.78-5.17-1.23-1.26-2.48-1.89-4.72-1.89Z"/><path class="f" d="M133.85,53.66h0Z"/><path class="g" d="M150.2,116.18l-10-25.79c-.12-.31-.06-.49,.19-.55,2.89-1.43,5.27-3.7,6.86-6.5,1.7-3.08,2.55-6.55,2.47-10.06,.07-3.59-.74-7.14-2.38-10.34-1.53-2.92-3.86-5.35-6.72-7-2.08-1.18-4.37-1.96-6.74-2.28v11.63c0,.29-.11,.57-.32,.78-.21,.21-.49,.32-.78,.32h-13c-.29,0-.57-.11-.78-.32-.2-.21-.31-.49-.31-.78v-11.86h-11.49c-.29,0-.57,.11-.78,.32-.21,.2-.32,.46-.32,.78v61.84c0,.29,.11,.57,.32,.78,.21,.21,.49,.32,.78,.32h13c.6,0,1.09-.48,1.1-1.08,0,0,0-.01,0-.02v-24c-.04-.22,.11-.42,.33-.46,.04,0,.08,0,.12,0h3.67c.18,0,.33,.13,.45,.37l8.6,24.24c.11,.56,.62,.95,1.19,.92h13.63c.67,0,1-.28,1-.83,0-.15-.03-.29-.09-.43Zm-17.34-37.73c-1.23,1.27-2.95,1.95-4.71,1.87h-6.41c-.22,.03-.42-.12-.45-.34,0-.04,0-.07,0-.11v-13c0-.34,.09-.48,.32-.48,.04,0,.07,0,.12,0h6.41c2.23,0,3.48,.63,4.72,1.89,1.25,1.42,1.79,3.28,1.78,5.17,0,1.84-.55,3.64-1.78,5Z"/><path class="h" d="M133.88,53.66h0Z"/><path class="h" d="M133.86,53.66h-.01c-1.07-.15-2.15-.23-3.23-.23h-11.93v11.86c0,.29,.11,.57,.31,.78,.21,.21,.49,.32,.78,.32h13c.29,0,.57-.11,.78-.32,.21-.21,.32-.49,.32-.78v-11.63h-.02Z"/><path class="e" d="M163.48,55.94c3.55-1.77,7.48-2.65,11.44-2.56,3.94-.07,7.84,.79,11.38,2.51,3.19,1.56,5.87,3.99,7.74,7,.34,.56,.64,1.14,.92,1.73v-10.26c.01-.29-.1-.58-.32-.78-.2-.21-.48-.32-.77-.32h-37.73c-.29,0-.58,.11-.78,.32-.21,.21-.32,.49-.32,.78v10.25c.23-.49,.48-.97,.76-1.44,1.81-3.1,4.48-5.61,7.68-7.23Z"/><path class="g" d="M181.88,75.58c.2,.21,.49,.33,.78,.32h12.99c.29,.01,.58-.1,.78-.32,.21-.2,.33-.49,.32-.78v-1.87c.05-2.91-.56-5.74-1.79-8.38l-.03,.61c0,.6-.44,1.11-1.04,1.11h-37.74c-.29,.01-.58-.1-.78-.32-.21-.2-.31-.49-.3-.78v-.64c-1.38,2.96-2.06,6.19-2.01,9.45v23.12c-.07,3.79,.88,7.53,2.76,10.83,1.8,3.12,4.46,5.65,7.67,7.28,7.24,3.39,15.61,3.39,22.85,0,3.2-1.59,5.88-4.09,7.68-7.18,1.87-3.28,2.81-7.01,2.74-10.79v-14.68c0-.6-.5-1.09-1.1-1.1,0,0,0,0,0,0h-20.19c-.29,0-.57,.11-.78,.32-.22,.2-.33,.49-.32,.78v9.88c0,.6,.48,1.09,1.08,1.1,0,0,.01,0,.02,0h5.84c.22-.04,.42,.11,.46,.33,0,.04,0,.08,0,.12v4.21c.09,1.78-.56,3.51-1.79,4.8-1.26,1.22-2.96,1.87-4.71,1.79-1.88,.04-3.69-.71-5-2.06-1.36-1.44-2.08-3.37-2-5.35v-23.67c-.09-1.95,.57-3.87,1.83-5.36,1.19-1.3,2.88-2.06,4.64-2.03,.04,0,.2,0,.2,0,2.18-.05,3.62,.63,4.89,1.95,1.21,1.32,1.85,3.06,1.79,4.85v1.73c0,.27,.09,.53,.27,.73Z"/><path class="h" d="M155.36,66c.2,.22,.49,.33,.78,.32h37.73c.6,0,1.09-.49,1.09-1.09h0v-.68c-.28-.59-.58-1.17-.92-1.73-1.87-3.01-4.55-5.44-7.74-7-3.54-1.72-7.44-2.63-11.38-2.56-3.96-.09-7.89,.84-11.44,2.61-3.2,1.62-5.87,4.13-7.68,7.23-.28,.47-.53,.95-.76,1.44v.63c-.02,.31,.1,.61,.32,.83Z"/><rect class="d" width="200" height="120"/></g></g></svg>