<?xml version="1.0" encoding="UTF-8"?><svg id="Layer_1" xmlns="http://www.w3.org/2000/svg" width="194.6296" height="123.774" viewBox="0 0 194.6296 123.774"><path d="M37.3608,0h.7099c4.3336,3.3783,7.4954,7.9258,10.6752,12.454-4.2131-3.7333-7.7134-8.1793-11.385-12.454Z" style="fill-rule:evenodd;"/><path d="M42.6976,0c4.7009,3.8402,8.2259,8.8536,11.385,14.2344-4.3707-4.1692-8.3507-8.7276-11.385-14.2344Z" style="fill-rule:evenodd;"/><path d="M22.7727,2.8466c5.2122,2.6177,9.2689,6.3881,12.4528,11.0314-4.4926-2.5067-6.8103-7.1871-11.7427-9.2497.2658-1.0964-.9772-.6853-.71-1.7817Z" style="fill-rule:evenodd;"/><path d="M164.0283,2.8466c-.0081,2.7068-3.3824,3.7758-5.3368,5.3382-2.7246,2.1764-5.3177,5.2025-8.5385,6.4059,3.5702-4.6132,9.1031-7.2638,12.8077-11.7441h1.0676Z" style="fill-rule:evenodd;"/><path d="M28.8209,4.6283h1.0663c4.0649,4.2363,8.9125,7.6914,12.454,12.4527-5.5712-2.4944-8.0231-8.1081-13.1654-11.0301.0453-.6387-.4358-.7511-.3549-1.4226Z" style="fill-rule:evenodd;"/><path d="M178.9727,6.0509c-3.9528,3.991-9.036,6.8568-14.2318,9.6061,3.5882-4.0006,9.3842-5.796,12.8077-9.9624.6387-.0466.7524.4358,1.4241.3563Z" style="fill-rule:evenodd;"/><path d="M27.0405,20.2825c-6.1317-3.4743-10.0843-9.1278-16.0106-12.809v-1.0676c.3166-.2769.8032-.3824,1.4227-.355,4.2419,5.3643,10.7656,8.448,14.5879,14.2316Z" style="fill-rule:evenodd;"/><path d="M181.8193,7.4735c-5.2849,3.2537-9.8515,7.2268-16.012,9.6075,4.2871-4.017,10.6491-5.955,14.5879-10.3188.9718-.259.7169.7058,1.4241.7113Z" style="fill-rule:evenodd;"/><path d="M167.2312,7.4735c-2.3805,2.8398-5.5424,4.8942-8.896,6.7609,2.0476-3.1728,5.2615-5.1751,8.896-6.7609Z" style="fill-rule:evenodd;"/><path d="M183.5982,9.6088c-1.6378,2.1901-4.834,4.6105-7.1159,4.9819,1.9654-2.0668,3.6923-4.3734,7.1159-4.9819Z" style="fill-rule:evenodd;"/><path d="M24.5503,28.466c-3.6593.074-6.0495-3.4071-8.896-5.3369-3.5361-2.3984-7.6874-3.9252-10.6724-6.7595-.2208-.318-.4317-.6373,0-.7127,6.5964,2.7808,12.9282,8.8893,19.5684,12.809Z" style="fill-rule:evenodd;"/><path d="M186.8011,19.9262c-3.9335,3.1824-8.2479,5.9838-13.5217,7.8285,3.0838-3.6771,8.7056-4.8147,12.0977-8.1848.5633.0315,1.3582-.1699,1.4241.3563Z" style="fill-rule:evenodd;"/><path d="M8.1848,23.1291c5.9275,2.1353,10.5861,5.5424,14.9443,9.2512-5.4177-2.6492-10.2543-5.8783-14.9443-9.2512Z" style="fill-rule:evenodd;"/><path d="M186.8011,24.1968c-2.7987,2.2998-5.9838,4.2158-9.9625,5.3368,2.8631-2.0023,6.8157-4.8051,9.9625-5.3368Z" style="fill-rule:evenodd;"/><path d="M71.5171,25.6194c1.864.0329,3.203.5921,5.337.3563-.429,1.2321-5.3479,1.1855-5.337-.3563Z" style="fill-rule:evenodd;"/><path d="M4.9819,32.3803c6.0782,1.5116,9.787,5.393,14.9443,7.8271-4.335.5372-9.2278-5.3465-14.5879-6.4031-.2783-.318-.3838-.8044-.3563-1.4239Z" style="fill-rule:evenodd;"/><path d="M98.9142,34.5142c1.6364,3.2289,3.7826,5.9439,4.9833,9.6074,1.7584,2.0695,5.3081,4.1335,5.3356,6.7607-5.511-3.1521-9.5061-9.6978-10.3188-16.3682Z" style="fill-rule:evenodd;"/><path d="M186.0897,39.4961c-2.7369,2.1489-7.3707,4.2253-11.0314,4.2705,3.1893-1.9119,6.6855-3.514,11.0314-4.2705Z" style="fill-rule:evenodd;"/><path d="M8.1848,45.9019c2.504.5757,4.6995,1.4664,6.0482,3.2002-2.0352-1.0471-5.0149-1.154-6.0482-3.2002Z" style="fill-rule:evenodd;"/><path d="M13.1653,53.0177c-2.567.4262-6.2646-1.0854-7.8271-2.8466,2.4696-.281,5.3793,1.9311,7.8271,2.8466Z" style="fill-rule:evenodd;"/><path d="M111.3683,50.5275c7.4104,5.0422,17.9183,6.987,25.9744,11.385-1.6858.4728-3.7594-.6701-5.6933-1.4225-6.5539-2.5493-16.2819-5.0327-20.2811-9.9625Z" style="fill-rule:evenodd;"/><path d="M132.7184,73.2989c-.1274.4673-.629.5591-.7127,1.0663-1.4857-.2372-.1645-2.208.7127-1.0663Z" style="fill-rule:evenodd;"/><path d="M160.8254,78.6357c.895.4098,2.4408.1687,2.4902,1.4241-1.1334-.1714-2.1682-.44-2.4902-1.4241Z" style="fill-rule:evenodd;"/><path d="M145.1711,83.26c.7387.2.7538.5563.3535,1.069-6.6649.9237-11.7084,3.4689-18.8558,3.9129,5.844-1.9818,12.8543-2.8014,18.5023-4.9819Z" style="fill-rule:evenodd;"/><path d="M146.2374,85.0403c-4.0829,2.2038-9.7184,2.852-14.9444,3.9143,4.1788-2.1079,10.1708-2.4013,14.9444-3.9143Z" style="fill-rule:evenodd;"/><path d="M145.5246,86.8192c-.4659,1.3129-2.6602.8964-3.5564,1.779,1.2171.8318,2.138-.0275,3.2029,0-5.3615,2.4655-12.5857,3.07-19.2135,4.2705-.1521-.7524,2.7561-.9991.7113-1.4239,5.4903-2.3381,12.7528-2.9041,18.8558-4.6256ZM134.8524,90.3785c2.4696-.3782,5.4807-.2123,6.7607-1.7802-2.2723.5755-5.256.4386-6.7607,1.7802ZM129.1591,91.4448c1.7873.0069,3.6978.1398,4.2692-1.0663-1.5556.222-3.7484-.1904-4.2692,1.0663Z" style="fill-rule:evenodd;"/><path d="M1.4225,90.0222c7.9929,1.2596,17.2866,4.298,25.618,6.4045-8.7358-.9827-16.9493-3.8499-25.618-6.4045Z" style="fill-rule:evenodd;"/><path d="M26.3293,98.2043c-8.2945-.6002-16.8549-4.017-25.2631-5.6919,5.5671-.2275,12.8393,3.0619,19.5712,4.6256,1.9832.4606,4.0198.0453,5.6919,1.0663Z" style="fill-rule:evenodd;"/><path d="M1.4225,94.6477c7.8655,1.0307,14.8869,2.9043,22.0602,4.6256-6.7911-.6825-15.5159-2.5107-22.0602-4.6256Z" style="fill-rule:evenodd;"/><path d="M1.7788,97.4943c9.5444,1.0841,16.2478,2.9865,24.5504,4.9806-7.4105-1.0102-17.2125-2.7124-24.5504-4.9806Z" style="fill-rule:evenodd;"/><path d="M23.1291,104.6102c-7.3214-1.6941-15.1403-2.8891-22.4178-4.6256,7.8984.4467,16.0325,1.983,22.4178,4.6256Z" style="fill-rule:evenodd;"/><path d="M20.2811,105.6764c-6.2016.0342-12.6541-2.7629-19.9261-2.8466,6.2757-1.4939,13.7438,1.8872,19.9261,2.8466Z" style="fill-rule:evenodd;"/><path d="M27.3969,109.2356c-8.7632-.3713-17.9758-3.3715-27.3969-4.2691.1548-.4386.4564-.7319,1.0662-.7128,9.0346,1.7421,18.6187,2.8192,26.3307,4.9819Z" style="fill-rule:evenodd;"/><path d="M130.9367,105.6764c-.0233.9594-.8113,1.7118-1.4213,1.069-.1069-.9388.492-1.1691,1.4213-1.069Z" style="fill-rule:evenodd;"/><path d="M141.6132,114.2177c-.8593,1.0799-2.323,1.2238-1.4239,3.2015-2.2724-.688-.2439-3.2742,1.4239-3.2015Z" style="fill-rule:evenodd;"/><path d="M155.8449,111.0146c2.6191,1.5008,5.367-.884,7.8271-1.779,7.686-2.7958,16.3025-5.711,23.4827-9.251-12.7131-4.3652-27.7287-6.4278-39.137-12.0978,2.1147.4934,3.7457,1.4721,6.0482,1.779,5.1299-1.3239,4.3857-5.6919,4.6256-12.4526.1973-5.515.107-10.9519.7127-15.6571-6.3962,2.822-13.271,3.8266-19.5712-1.0662-3.7868-2.9426-6.4813-4.8421-9.2497-7.8286-2.6219-2.8247-5.5219-5.4739-8.1849-8.1834-5.4177-5.5124-10.4023-11.1206-17.4345-14.9444-3.7841-2.0585-14.1096-3.8333-14.2316-9.2511-.1124-4.9956,6.3414-6.595,10.3173-7.1158,2.4505-2.6862,5.4136-9.6253,10.3188-6.4045.3892,1.5747-.6018,1.7694-.7114,2.8466.7402,1.1581,1.9435,1.8516,2.8466,2.8452,5.4891-2.9329,14.5881-4.8229,22.4151-3.2016.8073.7346.9991,2.086,1.4241,3.2016,8.1135,1.4953,12.5665,6.6485,20.2798,8.5398.6606,2.0681,1.8953,3.5634,1.4253,6.7608,3.1646.9854,7.1089,1.1937,7.4707,4.982,4.3089,1.3376,4.2569,6.8498,0,8.1834,2.0818,12.7131-20.0838,13.0571-32.0226,13.8767,3.7553,3.0042,8.566,4.9545,15.3007,4.9805-.2056,1.9297-2.9261,1.3445-3.9156,2.4916,6.2948,2.7165,12.1498-4.6912,16.7245-9.6074,2.2889-2.4601,5.6769-4.2788,6.7596-5.6931,2.0091-2.6219,4.9394-10.6861,4.2705-13.5203-1.306-5.5219-11.9484-3.8333-13.8767-9.6061,4.0075,4.1815,13.3668,3.3509,14.9444,9.2498,1.6692,6.2415-3.6923,12.576-5.6933,18.1473,1.8242,3.3933,5.2985,5.1381,6.7595,8.8946,2.3889.5771,5.1464.784,6.7609,2.1353-.6263,2.4574-.0492,6.1167-.7113,8.5399,2.0476,2.3395,6.4866,2.2887,8.1821,4.9805-.588,4.3926-4.6379,5.3246-8.1821,6.7609.3152,1.2979-.6291,1.8955,0,2.4902,3.3674.784,7.2994,1.0033,8.8948,3.558-5.2958,5.5684-22.2316,5.4863-29.5323,1.7802,2.7218.3673,8.2753,2.2504,12.0977.71-3.9348-1.3076-9.4402-1.2377-13.5203-3.2016-.7374.7319.0014,1.8051,1.0663,1.779-.3207.7456-2.0079.1274-2.1339,1.0663,9.4745,3.3358,19.4232,6.1961,30.5999,7.8285.1781,1.2006-.2974,2.5451,0,3.5592-7.6984,2.8563-15.7776,5.3327-23.1278,8.5385,1.5583.8443,3.3935-.4797,4.9819-1.0662,4.0417-1.4939,8.1957-3.0467,12.4528-4.6256,3.9156-1.4542,6.7196-2.9207,11.0314-1.7804-3.6237,2.5273-8.5371,3.5675-13.1667,4.9819-4.6503,1.4213-9.5185,2.63-13.8767,4.2706-.1357,1.9133,1.8392,1.72,1.779,3.5566-.9472,4.4048-5.5425,4.9353-11.3864,6.0495-9.9899,1.905-26.8063,4.8832-23.1264-7.8271-11.8195-1.7721-28.3948,6.5826-38.0722-1.779-14.3618.551-26.6637,5.245-38.7833,7.8257-4.6969,1.0019-9.92-2.3093-15.6557-3.9128-12.428-3.4757-24.9108-6.8595-38.072-8.8948-1.2158-.1892-3.1344.803-3.9143-1.0677,16.1107,2.2437,33.6041,6.0743,48.3909,10.6752,2.423.7524,4.7489,2.5217,6.7607,2.4902,2.7603-.0439,6.7499-2.4888,9.9611-3.5592,7.2803-2.4205,13.778-4.1076,20.6389-6.7596-10.619,1.0047-20.8267,5.5027-30.6001,8.5385-.4481-5.0765,10.1104-3.2728,12.8091-6.7595-3.9457-.0041-8.9112,1.9805-12.8091,3.203-.1027-.6209,1.1348-1.9092-.3563-1.779,8.7236-5.1546,21.871-5.8823,32.0226-9.6088-10.6477.8607-22.7727,5.2122-32.0226,7.4721,1.2006-1.5268,3.9115-1.5446,5.6933-2.4902-1.731-1.2418-3.4154.6071-4.9819.7113-.9594-1.9009.9689-2.3764-.3551-3.9128,9.3362-2.7631,19.0642-5.1314,29.176-7.1159-8.5905,3.2687-19.3328,4.3885-27.7533,7.8286,2.3012.64,4.8119-.6936,7.4735-1.4241,6.7183-1.8475,14.1659-3.6251,20.9925-4.9819-7.1267,2.7177-15.5856,4.1033-23.129,6.4059.5016,1.3966,3.1549.1987,3.9142-.3563,7.9861-1.5035,15.6447-3.3331,22.7729-5.6933.2178,1.6487-4.9272.9978-5.6945,2.8466,2.6314-.3371,7.9367-1.0759,10.6764-2.4916v-3.2015c-3.0906-1.1293-5.8755.9566-8.8962,1.0676,2.2271-1.9242,7.3694-.9333,9.2511-3.2029-.126-.4673-.6278-.5591-.7113-1.0676-4.3405,2.7767-10.7724,3.4606-16.7246,4.6268.3618-.5893,1.5116-.3864,2.1366-.7127-6.5758-.381-15.7432,2.7384-22.4178,4.6256,5.6028.0261,11.3878-2.8452,17.4359-3.5592-5.0133,2.4615-11.9976,2.9466-17.4359,4.9819-1.6459.0754.3495-1.2677-.7113-1.779-11.3206-2.1832-23.9172-4.6159-34.1579-7.8285-6.7868-2.1284-14.2192-2.2601-19.5685-6.4031,4.9395-1.4638,11.9923-.8168,16.3656-2.8466,1.0279-6.1633-.9347-16.9193,1.4253-21.3488-1.938-4.4268.599-10.9369-.3563-17.0783,4.0786-2.4491,12.4431-2.7451,16.3655,0,.5661,14.2522-2.1216,25.1315,0,36.6481,1.4652.2796,1.827-.5455,3.203-.3563.1082-16.7589,2.09-32.5653.3563-51.236,4.1362-4.5475,13.6916-3.4579,20.9925-2.4917.1082-6.4785.4892-13.2942.7127-20.6375.4467,3.3496,5.5329,2.0558,7.1158,4.2706-2.8302.2207-4.128-1.0909-6.4045-1.424-.2891,3.6114,4.4913,2.1517,6.0482,3.9156-1.6666.8771-4.6077-1.6954-6.4031-.7127.2577,3.181,5.293,1.5857,6.4031,3.9142-2.4313.1001-4.483-1.816-6.0482-1.4226-.0891,3.9677,5.0916,1.7145,6.0482,3.9129-2.6561.0466-3.9828-1.2362-6.4031-1.4226-.2165,3.4167,4.2624,2.1421,6.0482,3.5565-1.8174.9772-4.0678-.6688-5.6933-1.0663-1.4705,3.2016,3.6169,2.7328,5.3382,3.9142-1.9599,1.2335-3.2769-1.2225-5.6931-.7127-.281,3.3633,4.2336,1.9352,5.6931,3.5593-1.8337,1.154-4.3788-1.6789-6.0495-.7127.5235,2.7972,3.9032,2.7383,6.4045,3.5593-.3413.9635-2.944-.3358-2.848,1.0662,2.2147,2.9604,7.9478,2.3259,12.454,2.1367,3.8594-.1645,9.199.7716,10.675-2.4916-4.2129-.8976-11.2959,2.0106-16.7232,0,5.0915-.9375,13.5724,1.0856,17.0796-2.8466-4.4802-.7579-10.7943,1.6214-16.7246.3563,4.6188-2.038,13.3915,1.2636,16.7246-3.2029-2.7917-1.0923-7.8366,2.3135-10.6764,0,4.3967-.1096,9.4225.4084,10.6764-2.8466-3.8552-.6579-10.7312,2.149-16.7246.7127,3.5456-2.0764,14.4757.8758,17.0797-3.2029-3.5703-1.4911-12.4212,3.0193-16.7232-.3563,6.3523.1645,13.2846,1.1992,16.3682-2.4903-5.0297-.1823-11.5275,1.9393-16.3682.355,4.5981-.969,13.3681.7264,16.7232-2.4903-3.5881-1.1526-11.703,1.0594-16.7232-.3563,3.8882-1.5912,14.6619,1.6488,16.7232-2.8466-4.8285.0123-11.2754,1.0471-17.0797,0,3.9143-1.4815,14.4606,1.3884,17.0797-2.4903-3.0276-1.1718-12.6529,2.297-16.3683-.7113,5.4095-.318,12.0442,1.9434,16.3683-2.1339-5.7618-.4454-15.953,1.3733-23.1292-.7127-1.4158-.4112-2.1106-1.72-3.5566-1.424-.9059,2.9699,3.5922,3.1673,6.0482,3.9156-3.5017,1.7145-9.2649-2.7589-6.7594-5.6946,3.3893-3.9731,25.5741-3.2139,29.5323.7127-1.4816,8.1848-1.5639,17.6881-1.4255,25.2631,1.45.1426,1.4048-1.2061,2.1367-1.7803-.8799,2.7699-3.6566,6.7362-2.8466,13.1653.7619.7785,1.9585,1.1253,3.5564,1.069,1.4186-.8579-.0397-2.3942.3565-4.2719.4262,4.4392,2.9712,6.7567,5.3382,9.2511-.3989,3.1591-3.3441,3.7717-4.2692,6.4058,1.7488,4.8463-.1,11.9182,3.2015,15.6543,2.5656.9924,4.2254,2.8919,6.7609,3.9157-2.8822-.4551-4.4734-.525-5.3382-2.4916-9.5677,2.53-19.1176,5.0791-28.4646,7.8285,1.9297,1.7626,4.6981-.7113,7.4721-.3563-.4783,1.0635-2.9371.1467-3.2016,1.4227,7.2365,2.726,15.5475,4.3788,23.4829,6.4058,1.3856-1.3445-.1659-2.4189.7113-4.6256-1.8667-.3276-6.6347.6004-8.5399-.7113-.5729-1.2541.4728-2.5396-1.0662-3.2029,2.9302-.5826,5.807-1.2308,9.606-1.779.9991-.6168.3358-.932.3563-2.1353.9114,1.5775,3.7786,1.2047,4.627,2.8466-1.986.207-2.4957-1.0635-4.272-1.0676-1.2102,2.7493,2.3381,3.1891,4.272,3.9142-1.8572,1.561-3.5621-2.0859-4.9833,0,.2439,2.4835,3.2371,2.2204,4.9833,3.2016-1.3844,1.2513-3.4484-1.3582-4.627-.3549-.4714,3.3166,3.6963,1.9968,4.627,3.9142-2.2216.5455-2.9754-1.8242-4.627-.7127,2.33,6.1414,17.4278,3.795,20.6361,2.1353-3.5086-1.4583-9.8363,1.4705-13.1626-1.4227,2.1682-.015,6.4977,1.3925,7.4707-.7127-.6318-2.6602-4.4021-.5071-6.7607-1.7776,4.7858-1.243,10.4461.3948,13.1653-2.8466-2.6657-.9292-8.9728,1.4431-13.1653-.3563,4.3418-.6209,9.5868.0863,12.8089-2.1353-1.4253-2.5587-8.6918.566-12.454-1.0676,3.4948-1.2144,10.7463.5358,11.7414-2.8467-2.0956-1.8639-9.2306,1.9696-11.385-1.0662,4.361.8936,7.9066-.2467,10.675-.7127-1.3719-2.9207-8.3849-.1796-11.0314-1.779,2.726-.8936,7.6763.4961,10.6764-1.4241.366-2.4505-3.007-1.1265-3.9156-.7099-2.4547-1.0649-6.1264.5153-7.1158-1.4241,5.5945.0164,10.6106,1.0718,12.8089-2.1353-1.0279-.8593-4.8846-.8415-5.6931.7127-2.8631-2.8287-10.5285-.8565-13.5203-3.5592-.4673.1262-.5605.6278-1.0677.7127-.8484,3.6937,3.6607,2.0326,4.2706,4.2692-1.964.1851-2.6314-.9264-4.2706-1.0676-.9319,2.2162,2.6136,2.7726,4.2706,3.5578-1.9297.9717-4.0527-.9209-4.9819-2.1352.5579-2.7878-.4852-5.6426,1.0676-7.8272,6.9254-2.3806,17.4196-1.6172,23.4841,1.4241.4606,3.7839-.8223,10.9465-.3563,14.9443,2.8686.8524,2.4355-1.5995,3.9143-2.1353.0589,1.1253-.947,1.1897-.7113,2.4902,2.1023,1.3582,1.0676-2.1366,2.8452-2.1353.1714,1.1212-1.0909.806-.7113,2.1353,6.2194,2.1614,12.5733,2.1134,19.2149,3.558-5.8754,4.2061-16.5328,3.6305-23.1292,7.1158,7.0212-.5715,14.8332-3.4304,22.0602-4.9805-6.5868,2.7986-15.1993,5.4136-23.4829,5.3368-1.6048,3.588-.7564,8.411-.7127,12.0977,5.8399-.4509,10.9643-1.5596,16.7246-2.8466-3.6771-.8279-7.6504,1.1251-11.3864,1.4239,5.5274-2.8602,12.3102-2.3203,18.501-3.5592.3288,1.3951-1.8764.2591-2.1341,1.069.0919.7374,1.5638.0974,1.7776.71-4.7941.7797-9.1181,2.0298-14.2316,2.4902,3.303.8524,11.1836-1.1553,14.9444-1.0663,1.18-.0055.3618-2.0106,1.069-2.4902,4.6679-.6442,8.0778,1.3267,10.6724.7114-1.642-2.9837-6.6691-2.5808-9.6062-4.2706,10.9355,2.1106,22.0807,7.098,34.1579,9.2525-8.3877,4.0649-18.372,6.5332-26.6856,10.6736ZM157.9788,108.8793c6.6209-2.4189,15.587-4.9229,20.9939-8.1834-7.0583-1.4897-13.5218-5.4452-20.9939-5.3368.1343,2.2928,2.2161,2.2599,4.2719,1.7788-1.8858,1.6844.8156,2.9316.71,4.9819-.6962,1.5995-3.8525,1.2472-3.9129-.7127-.1248-1.2361,1.8092-1.3514.7113-2.4902-1.62-.4358-1.3966.9758-2.8466.7113.222-.9649,1.4871-.8853,1.4227-2.1339-2.741-1.5007-7.1049.4276-8.1821,2.8467,1.5199,2.423,4.705-.7169,6.0482-.3563-.8196.8401-2.1833,1.1389-3.203,1.7788-.2521,1.7954,1.0951,1.9887.7114,3.9129-.4058,1.731-3.3661.9045-3.2003,3.2029,2.53,2.8165,5.5041.7195,7.4695,0ZM169.0102,89.6658c2.4738.2864,6.018.6126,7.1158-1.4239-4.2391.111-12.6185-.5852-16.7218-2.1339.9964,2.1983,6.0454,3.1454,9.606,3.5578ZM62.9774,3.5593c1.8639,2.3464,6.262,2.5328,9.9638,2.8466,5.6411.4797,12.4376.6346,15.6557-1.7776-5.8878-3.6456-18.6845-3.3797-25.6194-1.069ZM124.1773,22.4164c2.5354-.5468,4.3391-1.8283,6.4059-2.8466,1.8309,2.1531,5.4875,6.0399,8.1834,4.9819-2.7095-1.7954-5.7795-3.2331-7.1172-6.4045,4.1679,4.4625,12.01,10.0405,19.2136,7.1172-2.0202-7.2625-11.7209-11.8921-18.8573-9.6074-.614.2152.0261,1.6885-.7127,1.779-3.4044-.0535-9.5457.1535-11.385,2.8466,1.091,1.0443,3.3702.8991,4.2692,2.1339ZM110.6569,11.0314c-3.9731,3.8553-5.6672,9.9885-10.6736,12.8104,1.7817-3.3167,5.0326-5.1669,6.4031-8.8961-3.5415,1.7954-5.6398,6.9281-8.5385,8.1835,3.7566-5.256,8.7947-9.2319,11.03-16.0106-5.97,3.5195-9.7732,9.2018-12.4526,16.0106,1.9571,1.4432,4.8792,3.6196,8.1821,4.9819,4.4392,1.8283,17.8279-.947,18.5035-6.0482-6.8786-2.371-15.7432,1.0087-19.2135,3.2016,2.63-2.8247,6.817-4.0924,7.8272-8.5398-4.5859.6332-5.7152,4.7229-8.8948,6.7608,2.3559-4.1801,8.4206-6.5059,7.8271-12.454ZM124.8885,9.9638c-4.9695.6743-11.1041,2.1175-12.4526,5.6932,9.2264.8347,17.7744-.677,23.4827-4.9819-2.7808-1.8118-7.4022-1.202-11.0301-.7113ZM137.3427,13.878c.078.2782.2974.4139.7127.3563,4.1252.6592,8.7206,5.1203,11.385,4.6255-3.6402-1.5967-8.1027-6.1071-12.0977-4.9819ZM95.7126,22.7728c.8689-3.044,2.7356-5.0902,3.9142-7.8271-6.1591-1.313-11.241,6.8842-3.9142,7.8271ZM127.3802,15.3006c-2.8014.8018-5.8769,1.117-8.8948,1.424-1.2059.122-3.7086-.8813-4.2705,1.0676,2.9562.9964,11.3919.3029,14.2316-2.1353-.4893.0164-.7812-.1672-1.0663-.3563ZM112.7922,20.6389c1.2061.0343,5.9522.8114,6.0468-1.4226-1.4308.3605-6.1728-1.8036-6.0468,1.4226ZM149.7967,49.1021c4.1294-2.5095,9.6417-3.6388,10.3187-9.606,2.659.9086,8.0917-1.006,8.5385-4.6256-.677-.1521-.8936-.7661-1.779-.71-1.4308,2.6013-4.7145,3.3496-7.1158,4.9805.3591-1.0704-.7921-.6304-1.4239-.7113-3.1111,2.6999-6.5992,5.023-11.0287,6.4031.4056-1.6076,3.4482-.5812,3.2029-2.8466-1.668.3563-4.0677,1.8556-5.3382,1.4239,4.1418-2.737,10.5038-3.255,12.4513-8.1834-1.198-2.6219-3.8855-1.0046-6.0482-1.779,3.1796-2.2162,6.4621.9498,8.1848,2.4902,2.0421-.9223,4.5475-1.3815,5.6933-3.2015-.8868-5.4329-10.0776-3.5073-13.8781-3.203,1.3007-.7181,2.8316-1.2005,4.9833-1.0676,4.235-4.4926-2.2957-9.8925-6.4045-8.1835.1329,1.8804,1.5817,2.4505,1.7776,4.2692-.9361,1.9119-1.5748,4.1185-4.6242,3.9142-1.0457,4.0554-7.6297,2.5697-9.6074,5.6946-.033-.9717.5934-.7167,0-1.4239-4.9861.1151-6.1483,4.0527-8.8962,6.4044,3.7594-.629,5.43-3.3482,8.5399-4.6268-.9731,2.6203-6.0729,2.8932-6.0496,5.3382,1.9955.3344,2.2874-1.0335,3.9157-1.0677-.1398.5072-.429.6004,0,1.0677,4.7091-.1947,9.332,1.1662,8.182,5.6931-4.076,2.1503-9.4703,3.2989-13.8753,2.8466,1.1678-.9661,4.4323.1618,4.9805-1.4239-1.8844-1.276-5.5273.6249-7.1158-.3563,5.0807-2.1339,12.1868.1603,15.2993-4.2692-4.9736-3.0084-12.9912-1.0279-18.5022-1.4227,1.0388-3.6113,6.4237-4.694,6.7594-7.8285-2.2874-.4276-3.4304-.2591-4.6242,1.069.2864-1.5926-.6332-1.9763-1.779-2.1367-2.3586,1.9133-6.3525,2.1874-8.5397,4.2706,2.4627,3.7059,7.8832-1.7707,9.9638-1.7802-2.2107,1.8242-4.7078,3.3591-5.6933,6.4058,2.5012,3.351,6.1126,6.3347,9.2511,9.2511,1.3376,1.2432,2.2696,4.0911,4.6242,3.558.2495-1.672-1.5323-1.3145-1.7776-2.4902,1.5789-.9677,6.6472,1.1389,7.1159-1.7804-1.4488-.1316-3.7484,1.4198-4.2692,0,4.7228-.1384,8.6959-1.0279,11.0287-3.5566,1.5034,4.0403-3.7265,4.3035-6.0482,5.6919,3.1673.3989,7.5297-.98,8.8948-3.558.0342.5593-.0466,1.2335.7127,1.0663ZM149.084,50.5275c4.7407-.2617,9.0222-4.0102,11.385-7.8285-2.9987,3.403-7.6929,5.1134-11.385,7.8285ZM124.5336,24.9081c-.0247,1.4487,1.3143,1.5323,2.8466,1.424.8279-1.143,2.4835-1.9777,4.2692-1.0676-.0055-1.0622-.9251-1.2102-1.0662-2.1353-2.2751.3371-3.2592,1.3198-6.0496,1.7789ZM134.8524,24.9081c-.7183-1.3883-2.3861-3.4209-4.2692-2.4916.4591,1.646,2.693,3.1152,4.2692,2.4916ZM124.5336,23.1291v1.0676c1.2815.0959,2.4601.0891,2.1353-1.424-.8771-.0466-1.7146-.0535-2.1353.3563ZM134.8524,25.6194c-3.8965.1562-9.2045.8388-11.0301,3.5593,6.7362,1.8351,17.7608,1.6214,22.0588-1.7803-2.6891-1.3733-7.2351-1.9297-11.0287-1.779ZM110.3006,31.3126c.3934,1.5049,2.0504,1.7474,2.8466,2.848,4.9628-1.4445,9.9241-2.8863,11.3864-7.8285-3.7608,1.2212-8.7919,4.2514-14.233,4.9805ZM108.1667,30.245c3.1482.2097,7.886-.5003,9.9624-2.4903-2.9384,1.2143-7.9696.333-9.9624,2.4903ZM41.6299,30.6013c4.2117,3.418,17.8527,4.4364,21.7039.3563-5.2355-3.1413-16.4327-2.7808-21.7039-.3563ZM123.466,30.9576c3.6291,1.3307,12.0347,2.6766,15.3006,0-4.1404.0397-12.2526-.3989-15.3006,0ZM120.6207,32.7366c1.2815.0959,2.4615.089,2.1339-1.4241-.7852.4015-1.964.4098-2.1339,1.4241ZM40.9186,32.3803v1.0676c.9211,1.5679,3.9157,1.0649,4.9805,2.4902-2.2928.3399-3.4454-1.3568-4.9805-.7113-.2536,2.863,3.6429,1.5734,4.6242,3.2029-1.9763.4057-3.1097-1.4308-4.6242-.3563-.0726,2.3231,3.0961,1.4103,3.9129,2.8466-1.8187.1987-2.3464-1.2896-3.9129-.3563-.344,2.5972,3.0193,1.4885,3.558,3.2029-1.2733-.1507-1.8983-.9483-3.558-.7113-.4947,3.1028,3.2235,1.9941,4.2678,3.5566-2.0804.4222-2.4285-.8895-4.2678-.71-.2946,2.7836,3.0961,1.8845,3.9129,3.5566-1.8311.096-3.2029-1.7488-4.2692-.3563-.1041,2.5944,3.2249,1.7584,4.2692,3.2029-1.9228.3838-2.1189-.9635-3.9129-.7113-.4797,3.0892,3.133,2.0845,3.9129,3.9142-1.6062.0356-2.9247-1.6144-4.2692-.7113-.2481,2.9754,3.4674,1.9887,4.6242,3.558-2.016.2384-2.7574-.7991-4.2678-1.0677-.8538,3.6649,6.743,4.3103,11.7414,4.6256,4.2021.2659,8.6946-.3728,10.3174-2.1353-2.5794-2.0571-12.868,1.446-15.3007-1.4225,4.7477.1027,12.9776,1.6158,15.3007-1.7804-4.0144-1.6638-9.8596,1.4994-15.3007-.7099,4.3583-.2056,10.7382.2672,14.9444-1.0677,2.6794,2.5766,10.6531,1.2142,14.233,2.8466-3.9307.8552-9.5444-1.2732-13.164-.7127.1562,2.2244,2.6561,1.4952,4.2692,1.7804,3.0398.5332,6.6335,1.4158,9.606,1.4225,3.51.0083,9.2663-.0479,9.6074-2.8466-2.6835-.6742-6.4168,1.9475-8.8948,0,3.4058-.5085,8.0794.2508,9.2511-2.4902-2.9809-1.5693-8.6754,1.8776-11.7414-.3563,4.2624-.3618,10.0858.8346,11.385-2.4902-.2782-.0796-.4139-.2974-.3563-.7113-7.5161,1.9064-15.7817.2644-22.7701-.3565v1.4227c1.6872,1.8695,6.6772.44,8.1821,2.4916-3.854-.4852-8.0697-.6085-10.3174-1.779-3.9348.6593-9.717,1.7954-12.8089-.3563,4.313.2111,12.8598,1.7626,13.8753-2.4902-4.0417-.2713-10.1406,2.0435-14.5879-.3563,3.9293-.3302,12.9214,1.9736,14.5879-2.4902-4.3144-.3701-10.8642,1.8748-14.5879-.3563,3.6798-.5565,13.0885,1.8584,14.5879-2.8466-3.3619-.0563-10.8587,2.5737-14.5879,0,4.7366-.1165,13.0447,1.5062,14.5879-2.8453-3.8677.3784-10.5367,2.5026-13.8753,0,5.4409.2384,11.8578,1.1006,14.2316-2.4916-3.8224-.2069-11.729,2.6-15.3007-.3549,5.0888.2384,12.9667,1.4253,15.3007-2.1353-3.229-.3879-11.6111,2.4683-14.9443-.3563,5.0613.0041,13.5573,1.842,14.9443-2.8466-6.9007,2.2723-16.752.74-22.4151-.7113ZM114.2149,34.1605c.5934,2.175,2.8904-.1426,4.6242,0v-.7127c-.3563.0014-.4222-.2878-.71-.3563-1.1964.4645-2.127,1.1938-3.9142,1.069ZM64.7564,34.1605c-.0178.4537-.4551.492-.3537,1.0663,6.2017,2.6958,18.9833,3.5236,23.4827-.7127-6.6485.3549-17.1563,1.1553-23.129-.3537ZM159.4041,37.3608c2.001-.1329,3.7758-.492,4.6242-1.7776-1.5665.5674-3.403.8662-4.6242,1.7776ZM64.7564,37.0059c-.0178.455-.4551.4933-.3537,1.0676,3.1042,2.0091,11.1877,2.7973,16.722,2.1339,2.3655-.2824,6.373-.7607,6.4044-3.2015-5.8151,1.3828-16.8191,1.0498-22.7727,0ZM125.245,39.8524c1.3403.3851,3.4002-1.2555,3.9142-2.8466-1.868.3851-2.6369,1.8694-3.9142,2.8466ZM161.538,41.6327c3.2193-.4591,5.7124-1.6419,7.4721-3.5592-2.2394.0671-5.8028,1.7488-7.4721,3.5592ZM119.908,39.8524c.5605-.6016-.0383-2.0545-1.4227-1.779-.0932,1.1595.4207,1.7132,1.4227,1.779ZM72.9412,43.7666c-3.2221-.1878-6.1619-2.1106-8.8948-.7113,2.7096,2.3875,8.7564,1.4431,12.0977,3.2015-3.562,1.372-9.7253-2.8671-12.0977-.3549-.063,1.6022,2.4218.6592,2.4902,2.1339-.8263-.2589-2.6588-.9004-2.4902.7127,4.0774,2.7987,12.5582,3.1783,18.5008,2.4904,1.6625-.1933,5.2807-.2577,4.6256-2.8467-6.5401.773-13.9506,2.1244-19.2135-.7127,2.6711.1302,5.9317.9855,8.8948,1.069,3.6127.0988,9.1798.2783,10.3187-3.2029-3.5524.1274-7.9915,1.2541-11.0287.7113,3.5936-1.4815,9.9652.6812,11.385-3.5578-4.4501-.2686-9.7719,1.3473-14.5879,1.0676ZM74.0088,43.0553c5.1204.3015,11.6948.0575,13.5203-3.2029-6.2044,1.365-16.7794,1.5582-23.1264,0,.9032,2.4587,5.9824,2.9892,9.606,3.2029ZM159.0478,48.0358c3.0248-1.4829,6.8486-2.1641,7.1158-6.4031-4.6146-1.0265-5.7782,4.3995-8.8948,6.0468-.1055.7003.4783.7072.71,1.069-1.1966,1.1733-4.7161.0275-4.9806,2.1339,5.0888-.3685,8.8263-2.0831,11.7428-4.6256-1.7831.4784-4.0458,2.3506-5.6931,1.779ZM20.6374,46.9682c3.1948,1.879,12.1333,3.7841,14.233-.3563-3.1453-2.1641-11.5686-2.6328-14.233.3563ZM23.1291,63.6929c-1.3938.3509-2.0681-.7868-2.848,0,1.1184,3.7991,11.4879,3.6935,14.233,1.4225-.2782-.0794-.4139-.2986-.3563-.7127-3.1302-.1068-5.3601.6936-7.8285-.3563,1.9009-.7441,8.019,1.3363,8.1848-2.1339-2.3367-.5865-5.4725,1.5199-6.7607-.3563,2.4368-.5277,6.6675.7388,6.7607-2.1339-2.3367-.614-5.8165.8593-8.1848-.3563,2.4451-1.1129,7.9052.7894,8.5411-2.1353-2.7603-.8703-6.6744,1.5199-8.896-.3563,1.9022-.8785,6.5826,1.1376,8.5397-1.7776-2.2818-1.2142-6.314,1.1745-7.8285-1.0676,2.5575.0561,5.9577,1.0046,7.8285-1.0677-1.4061-1.8886-5.6931.7813-7.8285-.7113,2.3766-1.0635,7.4407.5605,8.1848-2.1353-.925-1.228-2.1311-.0521-3.5592,0-3.7786.1357-8.2164-1.1828-11.0301-1.0663-.0753,1.498,1.594,1.2527,2.1353,2.1339h-2.1353c-.4358,1.6228,1.2472,1.1253,1.4227,2.1353-.6318.0808-1.7802-.359-1.4227.7114.0124,1.4116,1.3734,1.4733,2.1353,2.1353-1.1211.1781-1.3911-.7772-2.1353,0-.3754,2.0351,1.8558,1.465,2.4916,2.4902-1.0773.1096-2.7684-.3962-2.8466.7113.1576.7003,2.001,1.5172,1.4213,1.7804-3.1249-.3358.0946,2.7465,1.7817,2.8466ZM136.2749,53.374c1.9873-.17,4.1568,1.1006,4.9819-.7127-1.624.048-4.9641.2398-4.9819.7127ZM160.8254,60.1335c2.049.7661,4.5557-.8291,7.1172-.7113-1.6145-2.8425-6.2401-2.3642-7.1172.7113ZM100.3382,60.49c4.7722,2.2449,17.1975,4.4623,21.7037.3563-4.7009-1.8339-17.0686-3.8869-21.7037-.3563ZM64.0464,59.4222c-.0205.455-.4578.492-.3563,1.0677,1.0621,1.7831,4.949.7441,6.0482,2.4902-2.6424.4001-4.1048-1.5063-6.0482-.7114-.492,2.5287,3.3098,2.5657,5.3368,2.8466,4.3844.6045,9.0854.1467,11.385,1.0663-5.5739.8964-11.7647-.8196-16.7218-1.0663-.0233,2.4108,3.8799,2.5836,6.0482,2.8467,3.6305.4398,11.6577,1.0279,14.9442,0,1.0333-.3235,2.2559-.8443,2.1339-2.1353-1.0019-1.2006-3.0082.8141-3.9129-.3563,1.0732-.943,4.0527.0205,3.9129-2.1339-5.6275-.8169-11.2645,1.3239-16.3655-.7127,5.8412-.3043,12.6925,1.2759,16.3655-1.7776-6.5552-.3934-16.5766-.218-22.7701-1.4241ZM40.206,63.6929c.4181,3.7799,8.2656,4.1939,11.7427,4.2692,3.4853.0754,9.4622-.0178,10.6724-2.8467-7.6558,1.4721-15.8092.1549-22.4151-1.4225ZM41.6299,63.3365c5.9633,1.206,17.0358,3.5566,21.3475-1.0677-4.2788-.1123-12.2978.5976-18.5008-.7127-1.4419-.3029-2.4835-1.7845-3.9143-.7099-.2275,1.413.4523,1.9186,1.0676,2.4902ZM160.8254,62.9802c-.7757-.0644-1.1321.2905-1.0663,1.0662.4469,1.6886,3.4442.8279,4.2692,2.1353-1.1472.7991-2.1133-1.0402-3.9129-.7113-1.3911,2.6314,3.5908,1.18,3.9129,3.2015-1.9763.4071-2.7054-1.8323-4.2692-.7099-.2137,2.5834,3.3428,1.3992,3.9129,3.2015-1.3226-.1439-2.7013-1.5748-3.9129-.7113-.1412,1.683,1.9449,1.1375,2.4916,2.1353-.8881.3371-2.1477-1.2719-2.1353.3549-.7811.9209,2.3081.995,2.4902,2.1353-1.3856.2755-1.8447-1.3157-2.8466-.3563-.3523,2.6039,3.2181,1.2896,3.9129,2.8466-1.6419.2192-2.0476-.799-3.5566-.7113-.9141,1.5706-.6414,4.598-.7113,7.8271,4.394,2.7931,13.8657,4.128,17.791,1.0677-5.2643-.3249-14.2125.9497-17.0797-2.8453,3.8525,2.2394,13.5876,3.3729,17.0797.71-5.2451-.2289-12.9695.8908-16.0134-2.4902,3.5045,1.1101,8.3863,3.1823,12.0977.7113-1.45-1.1581-5.4424.2247-6.0482-1.7776,2.8453.5522,7.2037,1.1662,9.2511-.7127-1.3376.0891-6.1783-.3427-8.896-.3563.1315-2.4848,6.913,1.1361,7.4721-1.7776-1.4034-1.8325-5.5315.8662-7.1158-1.0691,2.5889-.9086,7.3816.4825,8.896-1.4225-2.6821-.5414-6.6169.2686-9.6074-.7114,2.4876-.9195,6.1222.7114,7.8272-1.4225-1.7831-1.0649-6.1716.4797-7.4721-1.0691,3.8868-.3371,9.3745.4276,11.7428-2.1339-3.0536.425-9.0086,1.1157-11.7428-.7127,1.7776-.0849,4.3007,1.1267,5.3368-.3535-1.2307-1.1417-4.6324-.111-5.6919-1.4253,3.9404-.7209,8.5303.2549,12.4542-1.7777-5.3945.5949-14.2591.2372-18.86-2.1352ZM180.0403,62.2688c-4.753-1.8242-14.832-2.9959-19.2149,0,4.3829,1.9311,15.4774,3.8801,19.2149,0ZM122.0419,65.4705c-.0602-1.006.3071-2.441-.7113-2.4902-.8101.5043-1.2952,2.937.7113,2.4902ZM181.8193,65.1154c.1068-.9388-.492-1.1691-1.4241-1.069-.2905,1.2746.758,1.7666,1.4241,1.069ZM19.5698,66.1817c-.0808.6743.3989.7854.3563,1.4241,3.4812,1.3184,11.8141,3.3358,14.5879,0-4.5816-.3482-10.7518-.8881-14.9443-1.4241ZM179.6853,66.538c1.0882,1.5556-.1906,2.1339.3549,3.558,2.123.4645,1.243-2.0764,1.4227-3.558-.6784-.6675-.8937-.0383-1.7776,0ZM40.206,67.9621c2.1229,1.6528,6.4169,2.582,10.6737,2.8466,4.4651.2741,10.3694.0014,11.7414-2.4902-7.0844-.6346-15.2596.973-22.0588-1.7804.0782.6729-.4015.7854-.3563,1.4241ZM121.3307,68.3184c.7716.0589.1617-1.2636.3563-1.7804h-1.0663c.1563.6729-.4838,2.1449.71,1.7804ZM63.6901,69.0283c3.0672,1.7873,9.04,2.4519,13.8753,2.4902,3.3044.0275,8.3425.1933,9.2511-2.8466-7.6325-.17-15.7748.9882-23.1264-1.0662.0316.9703-.5935.7167,0,1.4225ZM23.1291,71.875c-1.7624.2069-2.2778-1.0416-3.5593-.3565.851,2.8522,7.1199,3.3757,11.0287,2.8467,1.1595-.1563,3.5689-.1549,3.5592-1.7776-1.9174-.7278-7.7654,1.0813-9.6074-.7127,2.911.0959,8.1534.9566,9.9638-1.779-4.6104.0658-10.4996-.2961-14.9443-1.4241-.3358,2.589,2.3669,2.1408,3.5593,3.203ZM40.5623,71.1636c3.9856,3.5305,12.7048,1.9873,18.5022,2.8466-6.421,1.7077-14.7538-1.2663-18.8585-.7113,1.879,3.4689,11.5892,4.298,17.4346,3.558,1.6802-.2125,4.5378-.6758,4.6256-2.4916.0588-1.006-2.1929.2974-2.1353-.7114.7017-.9606,2.5889-.7319,2.4902-2.4902-5.463-.1754-15.4734,1.0787-21.3475-1.4227h-.7113v1.4227ZM121.3307,71.5185c.3002-.4125.47-.9538.3563-1.7776h-1.0663c-.0521.8814-.0671,1.7255.71,1.7776ZM63.3337,70.8087v1.0663c5.8056,2.9973,17.4373,4.0361,22.7729,0-7.4585.3001-16.4753-.1467-22.7729-1.0663ZM180.0403,72.2313c.8113.1001,1.339-.085,1.4227-.7128-.4811-.111-.6798-.5057-1.4227-.3549v1.0677ZM119.5517,72.5877c.2344,1.0457,1.3116,2.423,2.1353,1.7776.0466-.8759.0535-1.7146-.3563-2.1339-1.006-.2933-.9223.5016-1.779.3563ZM63.3337,75.7892c3.8977,1.0444,8.0176,1.9147,11.0287-.7113-3.8087-.3399-7.8148-.4852-10.6724-1.779-.4892.4578-.3537,1.546-.3563,2.4902ZM19.5698,74.0102v1.0677c1.3212,1.4815,4.4789,2.0256,7.1158,2.1353,2.5629.1055,6.7198.2165,7.4721-2.1353-4.5324-.0439-11.0725-.344-14.5879-1.0677ZM40.206,76.1441v1.0691c2.8192,2.0106,9.2059,3.3893,14.233,2.8466,2.8083-.3043,6.3606-.9703,7.4721-2.8466-6.2729.6866-16.4806.1424-21.7051-1.0691ZM181.4629,76.8569c.1068-.9375-.492-1.1678-1.4227-1.0677-.2686,1.2513.9306,1.5926,1.4227,1.0677ZM138.7666,80.4147c-.0342.9142-1.3897.5085-1.4239,1.4227,2.3573-.4892,5.2916-.4015,6.4044-2.1339-7.1213-1.0623-13.7039-2.663-20.9925-3.5594,4.2473,2.3286,11.1192,1.8558,16.012,4.2706ZM21.3474,79.3471c-1.0005-.3632-1.5144-.4043-1.4213,1.0676,2.8699,1.5241,12.1319,2.8261,14.2316-.3549-3.3729-.7771-8.0943,1.1691-11.385-.7127,3.3907-.3796,10.3312,1.5501,11.385-2.1339-5.0846.9839-9.8911.3302-14.5879-.7127-.4701,2.0132,1.3157,1.7679,1.7776,2.8466ZM65.4677,77.5681c.2082-1.2746-1.0512-1.0813-2.1339-1.0676-.1864,1.6322,1.1992,1.4363,2.1339,1.0676ZM92.5097,76.8569c.6195,1.6103,4.4309,2.9165,5.3382,1.0676-1.276-.8689-3.5347-1.8132-5.3382-1.0676ZM122.0419,83.9727c4.1746-.6263,10.7684-1.7626,14.9444-3.558-4.2802-1.5309-9.513-2.1078-14.5881-2.8466-.7017,1.7995.0014,4.3788-.3563,6.4045ZM90.3757,79.3471c.7442.7003,2.3628.2727,3.203,0-.0494-1.4925-1.6309-1.4542-3.203-1.4227v1.4227ZM72.5849,86.108c-6.4429-1.7845-12.7803-4.8668-17.4346-3.9143-2.8055.5743-6.499,1.3925-8.8948,2.8466,1.9791-.1274,7.0337-1.1293,8.8948.7114.2084,1.2773-2.1242.0095-1.7788,1.4239,4.387,1.0279,16.3696-2.6999,15.2992,4.9805,5.5438,3.9828,14.6401.0672,20.6361-1.7776-5.0929-1.1389-10.5737-2.567-16.7218-4.2705ZM89.663,90.0222c2.6616.899,5.3232,2.6411,8.1849,1.0663-.2906-1.9119.5962-3.0386,0-4.2692-4.5818-1.7776-10.0324-2.8261-15.6556-4.2692-8.988-2.3067-17.647-6.7718-24.5517-1.4239,10.5407,3.1055,21.9025,5.4752,32.0224,8.896ZM39.851,78.9908c-.1713,1.1197.5057,1.3911.7113,2.1353,1.4391.2919,5.6836,1.1662,6.0496-.7114-2.6178.0618-4.5064-2.286-6.7609-1.4239ZM179.329,80.771c.6276.3125,1.0388,1.1267,1.7776.3551.344-1.3076-1.7461-1.4145-1.7776-.3551ZM40.5623,82.55c-11.74,1.5898-24.0063,3.2578-35.5804,5.3368,13.0735,5.3945,29.413,7.8244,44.4766,11.3864,6.4196,1.5172,9.0455.5208,15.2979-.7127,3.3317-.6565,6.5553-1.413,9.606-2.1339,6.3853-1.5104,12.9406-1.7871,18.5036-4.6256-9.2868.4728-18.7463,3.055-26.6858,4.9805-11.6002,2.8123-21.6736-.0657-32.7352-2.4902-3.8416-.8429-7.7435-1.6528-11.385-2.4902-3.8718-.8909-8.0588-1.5967-10.675-3.5592,16.0612-1.7776,30.0872-2.759,43.4103-6.7595-4.5008-.1823-9.5157.4289-14.233,1.0676ZM173.6357,82.1937c.8127.1371,2.6644,1.021,2.8466-.7113-1.0072-.4373-2.3545-.2892-2.8466.7113ZM19.5698,82.9064c2.4025,2.0626,8.252.8237,10.6738-.3563-4.2076.2947-7.2187-.6099-10.6738-1.0676v1.4239ZM120.977,83.26c.5619-.5305.5181-2.0285-.7127-1.7776-.5646.5318-.5208,2.0284.7127,1.7776ZM180.7515,83.9727c.111-.4811.5058-.6784.3551-1.4227-.4811-.1124-.6771-.5071-1.4213-.3563-.4428,1.0293-.1837,1.6214,1.0662,1.779ZM113.8585,85.0403c2.3628-.0109,4.2527-.4906,5.3368-1.7802-.8168-.3097-5.2711-.9032-5.3368,1.7802ZM122.7546,85.3966c2.3437-.2658,4.7434-.4755,6.0482-1.7802-2.3134.296-4.916.3015-6.0482,1.7802ZM15.6543,89.3095c16.4737,2.3559,35.283,12.3472,51.9501,5.6945-3.9404-2.5081-11.6427,2.3601-14.5893-1.4253,2.3737-2.1079,5.9123.9744,8.1848,0-5.2533-6.1195-17.0948,1.7571-21.7052-4.6242.6331-.6715,1.1717-1.4377,1.0676-2.8466.9936.3987,2.7603.3987,2.8466-1.0677-9.1839,1.4911-19.5191,1.8311-27.7546,4.2692ZM45.1864,86.4629c.7374,1.8201,4.2226,2.5684,6.4059,1.779-.943-1.6118-4.4487-2.3409-6.4059-1.779ZM179.6853,87.8868c.8099.0987,1.3376-.0863,1.4213-.7113-.4811-.111-.6771-.5071-1.4213-.3563v1.0676ZM40.9186,88.5982c.3948,1.7118,4.6365,1.1691,6.0482.7113-.7908-1.746-5.2725-3.0508-6.0482-.7113ZM98.5592,89.6658c4.1979,1.9256,14.3303,3.2632,16.7232.7127-.0658.7758.2905,1.1321,1.0663,1.0663.2125-1.45,2.9193-.4029,2.8466-2.1353-5.6164-.1055-13.7794,1.165-20.6361-1.7776v2.1339ZM120.2644,88.5982c-.1068.9373.492,1.1677,1.4227,1.0676.0932-1.4705-.4222-1.4322-1.4227-1.0676ZM60.8435,89.6658c1.9585.7113,4.6926,2.3409,7.1158,1.4227.3426-2.8603-5.9893-3.4291-7.1158-1.4227ZM56.5729,90.3785c2.319,1.1445,6.1072,3.7237,8.8948,2.1339-2.297-.9977-6.2223-3.8457-8.8948-2.1339ZM174.3484,91.0885h1.7776v-.71c-.0835-.6235-2.0065-.1521-1.7776.71ZM98.2029,91.0885v1.0676c1.3253.492,3.51,1.9572,6.0482,2.4916,3.2276.677,11.0095,1.3143,10.6764-1.779-5.9797.033-12.3746-1.365-16.7246-1.7802ZM97.4916,92.1561c-1.2815-.0946-1.716.6565-2.8467.7127.1466,6.5676-.5934,10.0146,0,14.2317,1.3582.1712,2.2724-.1001,2.8467-.7114-.4523-1.6528-.2098-3.7497.3563-5.3382,2.3957,2.9412,9.1099,4.4173,13.8767,3.9157.6729-.0713.7564-.7059,1.7788-1.0677,1.705-.6043,2.7959.3221,4.2706-1.779-3.7964-.1521-10.6572.7195-15.3006-.3563-1.8914-.4386-5.3876-1.6267-4.6256-3.9129,4.7585,5.0655,17.6182,5.1518,22.0601,0-6.9376,1.7421-17.1564,2.2025-22.0601-1.7802.1959-.5167-.4153-1.8379.3549-1.779-.17,1.1198.5057,1.3911.7113,2.1353,3.1481.8265,7.6339,2.4765,11.7427,2.1339,2.4177-.2015,5.7796-.8565,6.7609-2.4902-4.5461-1.0759-16.1984.8909-19.9261-3.9143ZM115.2825,92.5124c-.2946,1.006.5016.9225.3564,1.779,1.1554-1.1662,1.4911.1193,2.4902-.3563v-1.4227c-.7003-.7058-2.031-.2261-2.8466,0ZM66.5366,93.935c1.5351.8044,3.9499,2.3587,4.9805,0-1.8076-.0494-4.4487-2.8563-4.9805,0ZM117.7741,95.714c.3304.7607,2.5862.4866,2.1339-.71-.7332.2139-2.4724-.5755-2.1339.71ZM147.6628,97.4943c.4797.3482.7086.9498,1.0649,1.4227,1.9009-.8277,4.4597-.9977,5.3382-2.8466-2.0545-.9211-6.0359-1.2142-6.4031,1.4239ZM139.1215,99.2733c.5565,1.1032.6675,2.6533,1.779,3.2016,1.6228-.7511,4.0802-.6634,4.6241-2.4902.0563-.8854-.5577-1.102-.7099-1.7804-1.9242.3302-5.3588-.851-5.6933,1.069ZM136.9864,99.2733c-4.723-.5071-10.1613,1.1759-14.9444,1.7776.2591,1.0896-.614,1.0471-.3549,2.1353.5057,1.0376,1.4994,1.5857,3.2015,1.4241,1.0102-1.187-1.402-1.2322-1.4225-2.4904,3.4879,2.7645,8.1232-.5537,13.8767.3551.7469-.8498-.6894-1.6763-.3563-3.2016ZM143.3907,102.8298c.9292.5619,4.2775,1.461,4.9819,0-.7455-2.1449-4.0636-2.0476-4.9819,0ZM119.5517,103.1862c1.3157.2494,1.572-.5633,1.4253-1.779-1.5377-.4234-2.1352,1.0279-1.4253,1.779ZM170.7892,107.8117c4.9736-.9703,11.2671-3.6648,16.012-6.0482-5.7988,1.5543-11.4166,3.2908-16.012,6.0482ZM56.5729,112.7936c12.0114-3.6443,25.455-5.8576,36.6495-10.3187-11.5221,2.7123-26.1978,5.3506-36.6495,10.3187ZM77.9217,103.5425c1.1376-.0493,2.7233.3509,2.4902-1.0676-1.1936-.0097-1.8817.4906-2.4902,1.0676ZM97.848,104.9665c3.9553,3.6867,14.7921,4.7433,19.2135,1.0662-5.5301-.6798-14.0343-.392-18.8586-2.8466-.2988.4125-.4701.9553-.3549,1.7804ZM137.3427,103.8988c-3.8718-1.1184-12.2951-1.0141-12.8091,3.558,5.4849,3.414,11.4069,1.7241,17.4346,2.1353,1.9763-1.3856,6.3031-.5716,7.4722-3.5594-3.3907-2.2641-8.2658-2.9096-12.0977-2.1339ZM73.2975,104.9665c1.0827.0164,1.8104-.3235,2.1339-1.0677-1.0813-.0138-2.3422-.2069-2.1339,1.0677ZM89.663,105.6764c1.4391-.4564,3.7964,0,3.9157-1.7776-1.7132.1851-4.0746-.2782-3.9157,1.7776ZM119.5517,106.0327c1.1156.1659,1.5898-.3097,1.4253-1.4225-.9827-1.1074-2.5313.4426-1.4253,1.4225ZM69.3832,105.6764c.8854-.4179,2.774.1659,2.8453-1.0662-1.1909.1123-2.2423.3659-2.8453,1.0662ZM86.8165,106.0327c.9444-.0055,2.097.1973,2.1367-.7099-.943.0041-2.0956-.1987-2.1367.7099ZM87.8854,107.1005c1.0526.3083,3.5963.392,3.9129-1.0677-1.62.0411-3.3139.0069-3.9129,1.0677ZM69.3832,111.0146c3.9102-.7222,6.8335-1.6692,9.9638-2.4916,1.6996-.4453,4.0678-.6414,4.9792-2.1339-5.1271,1.3953-10.9355,2.1079-14.943,4.6256ZM97.4916,108.523c4.1047,2.7041,14.4741,4.9861,18.5023,1.4241-.1056.6209,1.3801,1.2472,1.0676,0-2.3367-2.4246-5.6631-.5948-8.5385-.7114-3.7565-.1534-8.0286-1.6775-11.0314-2.4902v1.7776ZM83.2586,108.523c1.1375-.0479,2.7246.3523,2.4915-1.0662-1.0607.126-2.1668.2056-2.4915,1.0662ZM86.8165,108.8793c1.5213.5619,4.775-.1987,5.6933-1.4225-1.9421.4289-4.8408-.0987-5.6933,1.4225ZM119.5517,109.2356h1.4253c.0521-.8826.0644-1.7268-.7127-1.7788-.4029.4276-1.0169.6454-.7127,1.7788ZM124.1773,109.2356c4.2473,5.2438,21.6435,4.8641,25.2631-.7127-6.2607,2.4712-18.8669,2.6369-25.2631.7127ZM97.4916,111.3697c2.2778,2.5504,8.9029,4.7858,13.8767,4.2705,2.0146-.2097,4.8502-1.3856,5.6931-2.8466-7.0761-.1714-12.9365-.2591-19.5698-2.8466v1.4227ZM119.5517,112.7936c1.7598.5674,2.2271-1.2266,1.4253-2.1353h-1.069c-.4098.4207-.4029,1.2582-.3564,2.1353ZM146.5938,112.4387c.5824-.2591,1.5473.7058.7127.7099-4.3555-.8496-7.4749.5414-11.3878,1.0691-.0356,1.7405-1.365,2.8699-.3535,4.6242,1.8392-.3358,2.5972,1.9379,4.2678.3563.4207.5277.3084,1.5898,1.4239,1.4227,5.6781-.2824,14.0563-1.3925,16.3657-6.7596-2.3039-2.959-7.8272-4.3582-11.0287-1.4225ZM160.1154,113.5049c1.9133-.1013,2.8905-1.1415,4.6256-1.4225.0178-.6127-.2755-.9128-.7127-1.0677-1.0224,1.1143-3.81.4592-3.9129,2.4902ZM158.3351,118.4867c2.5273,1.3801,7.4091.1248,7.8285-2.8466-2.3614-1.6967-10.1488-2.0421-7.8285,2.8466ZM156.5576,116.7079c-2.441,3.6222-10.1406,5.2011-16.012,4.6256-1.5843-.1563-3.0673-1.4213-4.2706-.3563,6.3059,3.366,18.3049,1.7158,20.9939-3.9129-.0794-.2783-.2988-.4139-.7113-.3563ZM155.4886,120.9771c3.7497.6318,9.3785.1534,11.03-2.4904-3.0494,1.4569-8.374.6387-11.03,2.4904Z" style="fill-rule:evenodd;"/><path d="M150.153,30.9576c.1124.8346.5619,1.3349.3563,2.4902-3.0672,2.1545-7.9271,2.5109-10.3201,5.3368-1.091-.3495.4084-.9484.3563-1.4239-1.4253-.7854-3.6978.218-4.627,1.069-.0561-1.4871,3.462-2.4655,4.2706-4.2692,3.0261-.1343,7.8929-.9841,9.9638-3.2029ZM139.1215,36.2945c1.6173.1398,2.6685.4852,3.203-1.0676-.8963-1.4295-3.0015-.2769-3.203,1.0676Z" style="fill-rule:evenodd;"/><path d="M80.057,76.8569c.7635-.7785,1.9585-1.1253,3.558-1.0677,2.0434-1.1184,8.5411-2.9878,10.675-3.2015,2.1436-.218-1.2965.3618-2.4916,1.4225-4.4748.3865-7.2789,2.4465-11.7414,2.8467Z" style="fill-rule:evenodd;"/><path d="M145.1711,92.1561c-5.3368,2.7288-13.9644,2.1669-20.2826,3.9143.7977-1.2185,3.0742-.9594,4.627-1.4227-1.0046-1.0964-2.456.3701-3.9142,0,.703-1.7624,3.048-1.1348,4.6256-1.4239,4.7954-.8785,10.4668-2.2271,15.2978-3.2016-4.091,2.43-10.8011,2.2423-15.2978,4.2692,4.3487.0782,10.057-1.5637,14.9443-2.1353Z" style="fill-rule:evenodd;"/></svg>